<svg width="55" height="55" viewBox="0 0 55 55" fill="none" xmlns="http://www.w3.org/2000/svg">
<path d="M15.3045 16.1174V38.8827C15.3045 39.3308 15.6678 39.7062 16.1279 39.7062H38.8932C39.3413 39.7062 39.7167 39.3429 39.7167 38.8827V16.1174C39.7167 15.6694 39.3534 15.294 38.8932 15.294H16.1158C15.6678 15.3061 15.3045 15.6694 15.3045 16.1174ZM19.906 20.7189C19.906 20.2709 20.2693 19.8955 20.7294 19.8955H34.2917C34.7398 19.8955 35.1152 20.2588 35.1152 20.7189V34.2812C35.1152 34.7293 34.7519 35.1047 34.2917 35.1047H20.7173C20.2693 35.1047 19.8939 34.7414 19.8939 34.2812V20.7189H19.906Z" fill="#F46262"/>
<path d="M26.6536 6.27257V11.4069C26.6536 11.8791 27.0289 12.2545 27.5012 12.2545C27.9735 12.2545 28.3488 11.8791 28.3488 11.4069V6.27257C29.7051 5.89719 30.698 4.66205 30.698 3.19683C30.698 1.441 29.2691 0 27.5012 0C25.7333 0 24.3044 1.42889 24.3044 3.19683C24.3044 4.66205 25.2973 5.9093 26.6536 6.27257ZM27.5012 1.69529C28.3246 1.69529 29.0027 2.37341 29.0027 3.19683C29.0027 4.02026 28.3246 4.69837 27.5012 4.69837C26.6778 4.69837 25.9997 4.02026 25.9997 3.19683C25.9997 2.37341 26.6778 1.69529 27.5012 1.69529Z" fill="#3B4652"/>
<path d="M37.0401 0C35.2843 0 33.8433 1.42889 33.8433 3.19683C33.8433 4.66205 34.8363 5.89719 36.1925 6.27257V11.4069C36.1925 11.8791 36.5679 12.2545 37.0401 12.2545C37.5124 12.2545 37.8878 11.8791 37.8878 11.4069V6.27257C39.244 5.89719 40.237 4.66205 40.237 3.19683C40.2249 1.441 38.796 0 37.0401 0ZM37.0401 4.69837C36.2167 4.69837 35.5386 4.02026 35.5386 3.19683C35.5386 2.37341 36.2167 1.69529 37.0401 1.69529C37.8636 1.69529 38.5417 2.37341 38.5417 3.19683C38.5417 4.02026 37.8636 4.69837 37.0401 4.69837Z" fill="#3B4652"/>
<path d="M17.1224 6.27257V11.4069C17.1224 11.8791 17.4978 12.2545 17.9701 12.2545C18.4423 12.2545 18.8177 11.8791 18.8177 11.4069V6.27257C20.174 5.89719 21.1669 4.66205 21.1669 3.19683C21.1669 1.441 19.738 0 17.9701 0C16.2021 0 14.7732 1.42889 14.7732 3.19683C14.7732 4.66205 15.7662 5.9093 17.1224 6.27257ZM17.9701 1.69529C18.7935 1.69529 19.4716 2.37341 19.4716 3.19683C19.4716 4.02026 18.7935 4.69837 17.9701 4.69837C17.1466 4.69837 16.4685 4.02026 16.4685 3.19683C16.4685 2.37341 17.1345 1.69529 17.9701 1.69529Z" fill="#3B4652"/>
<path d="M28.3488 48.7275V43.5932C28.3488 43.1209 27.9735 42.7455 27.5012 42.7455C27.0289 42.7455 26.6536 43.1209 26.6536 43.5932V48.7275C25.2973 49.1029 24.3044 50.338 24.3044 51.8032C24.3044 53.5591 25.7333 55 27.5012 55C29.2691 55 30.698 53.5712 30.698 51.8032C30.698 50.338 29.7051 49.0908 28.3488 48.7275ZM27.5012 53.3048C26.6778 53.3048 25.9997 52.6266 25.9997 51.8032C25.9997 50.9798 26.6778 50.3017 27.5012 50.3017C28.3246 50.3017 29.0027 50.9798 29.0027 51.8032C29.0027 52.6266 28.3246 53.3048 27.5012 53.3048Z" fill="#3B4652"/>
<path d="M37.8878 48.7275V43.5932C37.8878 43.1209 37.5124 42.7455 37.0401 42.7455C36.5679 42.7455 36.1925 43.1209 36.1925 43.5932V48.7275C34.8363 49.1029 33.8433 50.338 33.8433 51.8032C33.8433 53.5591 35.2722 55 37.0401 55C38.8081 55 40.237 53.5712 40.237 51.8032C40.2249 50.338 39.2319 49.0908 37.8878 48.7275ZM37.0401 53.3048C36.2167 53.3048 35.5386 52.6266 35.5386 51.8032C35.5386 50.9798 36.2167 50.3017 37.0401 50.3017C37.8636 50.3017 38.5417 50.9798 38.5417 51.8032C38.5417 52.6266 37.8636 53.3048 37.0401 53.3048Z" fill="#3B4652"/>
<path d="M18.8177 48.7275V43.5932C18.8177 43.1209 18.4423 42.7455 17.9701 42.7455C17.4978 42.7455 17.1224 43.1209 17.1224 43.5932V48.7275C15.7662 49.1029 14.7732 50.338 14.7732 51.8032C14.7732 53.5591 16.2021 55 17.9701 55C19.738 55 21.1669 53.5712 21.1669 51.8032C21.1548 50.338 20.1618 49.0908 18.8177 48.7275ZM17.9701 53.3048C17.1466 53.3048 16.4685 52.6266 16.4685 51.8032C16.4685 50.9798 17.1466 50.3017 17.9701 50.3017C18.7935 50.3017 19.4716 50.9798 19.4716 51.8032C19.4716 52.6266 18.7935 53.3048 17.9701 53.3048Z" fill="#3B4652"/>
<path d="M51.8032 24.3031C50.338 24.3031 49.1029 25.2961 48.7275 26.6523H43.5932C43.1209 26.6523 42.7455 27.0277 42.7455 27.5C42.7455 27.9722 43.1209 28.3476 43.5932 28.3476H48.7275C49.1029 29.7039 50.338 30.6968 51.8032 30.6968C53.5591 30.6968 55 29.2679 55 27.5C55 25.732 53.5591 24.3031 51.8032 24.3031ZM51.8032 29.0015C50.9798 29.0015 50.3017 28.3234 50.3017 27.5C50.3017 26.6765 50.9798 25.9984 51.8032 25.9984C52.6266 25.9984 53.3048 26.6765 53.3048 27.5C53.3048 28.3234 52.6266 29.0015 51.8032 29.0015Z" fill="#3B4652"/>
<path d="M51.8032 33.8453C50.338 33.8453 49.1029 34.8382 48.7275 36.1944H43.5932C43.1209 36.1944 42.7455 36.5698 42.7455 37.0421C42.7455 37.5143 43.1209 37.8897 43.5932 37.8897H48.7275C49.1029 39.246 50.338 40.2389 51.8032 40.2389C53.5591 40.2389 55 38.81 55 37.0421C55 35.2741 53.5591 33.8453 51.8032 33.8453ZM51.8032 38.5315C50.9798 38.5315 50.3017 37.8534 50.3017 37.03C50.3017 36.2066 50.9798 35.5284 51.8032 35.5284C52.6266 35.5284 53.3048 36.2066 53.3048 37.03C53.3048 37.8534 52.6266 38.5315 51.8032 38.5315Z" fill="#3B4652"/>
<path d="M43.5932 18.8177H48.7275C49.1029 20.174 50.338 21.1669 51.8032 21.1669C53.5591 21.1669 55 19.738 55 17.9701C55 16.2021 53.5712 14.7732 51.8032 14.7732C50.338 14.7732 49.1029 15.7662 48.7275 17.1224H43.5932C43.1209 17.1224 42.7455 17.4978 42.7455 17.9701C42.7455 18.4423 43.1209 18.8177 43.5932 18.8177ZM51.8032 16.4685C52.6266 16.4685 53.3048 17.1466 53.3048 17.9701C53.3048 18.7935 52.6266 19.4716 51.8032 19.4716C50.9798 19.4716 50.3017 18.7935 50.3017 17.9701C50.3017 17.1466 50.9798 16.4685 51.8032 16.4685Z" fill="#3B4652"/>
<path d="M11.4069 26.6523H6.27257C5.89719 25.2961 4.66205 24.3031 3.19683 24.3031C1.441 24.3031 0 25.732 0 27.5C0 29.2679 1.42889 30.6968 3.19683 30.6968C4.66205 30.6968 5.89719 29.7039 6.27257 28.3476H11.4069C11.8791 28.3476 12.2545 27.9722 12.2545 27.5C12.2545 27.0277 11.8791 26.6523 11.4069 26.6523ZM3.19683 29.0015C2.37341 29.0015 1.69529 28.3234 1.69529 27.5C1.69529 26.6765 2.37341 25.9984 3.19683 25.9984C4.02026 25.9984 4.69837 26.6765 4.69837 27.5C4.69837 28.3234 4.02026 29.0015 3.19683 29.0015Z" fill="#3B4652"/>
<path d="M11.4069 17.6527H6.27257C5.89719 16.2965 4.66205 15.3035 3.19683 15.3035C1.441 15.3035 0 16.7324 0 18.5003C0 20.2683 1.42889 21.6972 3.19683 21.6972C4.66205 21.6972 5.89719 20.7042 6.27257 19.348H11.4069C11.8791 19.348 12.2545 18.9726 12.2545 18.5003C12.2545 18.0281 11.8791 17.6527 11.4069 17.6527ZM3.19683 20.0019C2.37341 20.0019 1.69529 19.3238 1.69529 18.5003C1.69529 17.6769 2.37341 16.9988 3.19683 16.9988C4.02026 16.9988 4.69837 17.6769 4.69837 18.5003C4.69837 19.3238 4.02026 20.0019 3.19683 20.0019Z" fill="#3B4652"/>
<path d="M11.4069 36.1944H6.27257C5.89719 34.8382 4.66205 33.8453 3.19683 33.8453C1.441 33.8453 0 35.2741 0 37.0421C0 38.81 1.42889 40.2389 3.19683 40.2389C4.66205 40.2389 5.89719 39.246 6.27257 37.8897H11.4069C11.8791 37.8897 12.2545 37.5143 12.2545 37.0421C12.2545 36.5698 11.8791 36.1944 11.4069 36.1944ZM3.19683 38.5315C2.37341 38.5315 1.69529 37.8534 1.69529 37.03C1.69529 36.2066 2.37341 35.5284 3.19683 35.5284C4.02026 35.5284 4.69837 36.2066 4.69837 37.03C4.69837 37.8534 4.02026 38.5315 3.19683 38.5315Z" fill="#3B4652"/>
</svg>
