<svg width="70" height="70" viewBox="0 0 70 70" fill="none" xmlns="http://www.w3.org/2000/svg">
<g clip-path="url(#clip0_180_86)">
<path d="M35.8203 34.1797H34.1797V35.8203H35.8203V34.1797Z" fill="white"/>
<path d="M70 0H0V70H70V0Z" fill="white"/>
<path d="M70 0H0V70H70V0Z" fill="#0056D2"/>
<path d="M13.7539 35.0506C13.7539 32.7988 15.6116 30.9819 17.9375 30.9819C20.279 30.9819 22.1365 32.7988 22.1365 35.0506C22.1365 37.2868 20.279 39.1348 17.9375 39.1348C15.6116 39.1348 13.7539 37.2713 13.7539 35.0506ZM20.1385 35.0506C20.1385 33.9326 19.155 32.9385 17.9375 32.9385C16.7354 32.9385 15.7677 33.9326 15.7677 35.0506C15.7677 36.1843 16.7511 37.1782 17.9375 37.1782C19.155 37.1782 20.1385 36.1843 20.1385 35.0506Z" fill="white"/>
<path d="M55.7812 35.1126C55.7812 32.6434 57.8026 30.9819 59.6355 30.9819C60.8893 30.9819 61.6099 31.3545 62.0955 32.0846L62.2835 31.1218H64.1638V38.9796H62.2835L62.0485 38.1719C61.5 38.7621 60.8106 39.1348 59.6514 39.1348C57.8183 39.1348 55.7812 37.5508 55.7812 35.1126ZM62.174 35.0971C62.174 33.9016 61.1866 32.9385 59.9648 32.9385C58.7583 32.9385 57.7869 33.9171 57.7869 35.1284C57.7869 36.2153 58.774 37.1937 59.9648 37.1937C61.2023 37.1782 62.174 36.1998 62.174 35.0971Z" fill="white"/>
<path d="M53.5303 32.0812V31.1804H51.5352V38.9051H53.5303V34.7373C53.5303 33.4855 54.1394 32.8291 55.2204 32.8291C55.2965 32.8291 55.3576 32.8291 55.4184 32.8443L55.7839 30.9819C54.7485 30.9972 54.0022 31.3482 53.5303 32.0812Z" fill="white"/>
<path d="M33.1498 32.0812V31.1804H31.0938L31.1095 38.9051H33.1658L33.1498 34.7373C33.1498 33.4855 33.7777 32.8291 34.8766 32.8291C34.955 32.8291 35.0176 32.8291 35.0807 32.8443L35.4573 30.9819C34.3898 30.9972 33.6209 31.3482 33.1498 32.0812Z" fill="white"/>
<path d="M22.9414 35.9072V31.0967H24.9491V35.6588C24.9491 36.6674 25.501 37.257 26.4665 37.257C27.5394 37.257 28.1678 36.5899 28.1678 35.3176V31.0967H30.1756V38.9483H28.1678V38.0331C27.6927 38.7778 26.9264 39.1347 25.8688 39.1347C24.0602 39.1502 22.9414 37.8313 22.9414 35.9072Z" fill="white"/>
<path d="M42.6914 35.043C42.6914 32.8419 44.2805 30.9665 46.773 30.982C49.0938 30.982 50.7295 32.8419 50.7295 35.0118C50.7295 35.2289 50.7139 35.4614 50.6827 35.663L44.6855 35.6475C44.9193 36.593 45.6979 37.2594 46.8663 37.2749C47.5828 37.2749 48.3462 37.0113 48.8135 36.4223L50.2001 37.5384C49.4833 38.5457 48.2215 39.1348 46.882 39.1348C44.514 39.1039 42.6914 37.3368 42.6914 35.043ZM48.689 34.237C48.5797 33.4463 47.7388 32.8264 46.773 32.8264C45.8227 32.8264 45.0593 33.3844 44.7633 34.2215L48.689 34.237Z" fill="white"/>
<path d="M35.457 37.2819L37.2679 36.34C37.5645 36.9885 38.1733 37.359 39.0161 37.359C39.7967 37.359 40.0934 37.1119 40.0934 36.7723C40.0934 35.5215 35.7849 36.2783 35.7849 33.4061C35.7849 31.8158 37.1899 30.9819 38.9225 30.9819C40.2337 30.9819 41.4045 31.5532 42.0445 32.6342L40.2492 33.5761C39.9842 33.0511 39.4845 32.7577 38.8444 32.7577C38.22 32.7577 37.9235 32.974 37.9235 33.329C37.9235 34.5488 42.232 33.7766 42.232 36.6952C42.232 38.2083 40.9832 39.1348 38.9693 39.1348C37.2523 39.1194 36.0503 38.5635 35.457 37.2819Z" fill="white"/>
<path d="M5.83203 35.0086C5.83203 32.7732 7.67416 30.9819 9.98069 30.9819C11.4668 30.9819 12.7516 31.717 13.4947 32.819L11.7609 33.8144C11.3584 33.2633 10.7237 32.8959 9.98069 32.8959C8.78871 32.8959 7.82896 33.8757 7.82896 34.9933C7.82896 36.1108 8.80417 37.0905 9.98069 37.0905C10.7547 37.0905 11.4358 36.6926 11.8073 36.0955L13.5256 37.1058C12.7981 38.2542 11.4822 39.0199 9.98069 39.0199C7.67416 39.0351 5.83203 37.198 5.83203 35.0086Z" fill="white"/>
</g>
<defs>
<clipPath id="clip0_180_86">
<rect width="70" height="70" fill="white"/>
</clipPath>
</defs>
</svg>
