<svg width="44" height="44" viewBox="0 0 44 44" fill="none" xmlns="http://www.w3.org/2000/svg">
<path d="M22 22C28.0751 22 33 17.0751 33 11C33 4.92487 28.0751 0 22 0C15.9249 0 11 4.92487 11 11C11 17.0751 15.9249 22 22 22Z" fill="#CBD5E1"/>
<path d="M22 25.6667C17.6254 25.6715 13.4314 27.4115 10.3381 30.5048C7.2448 33.5981 5.50485 37.7921 5.5 42.1667C5.5 42.6529 5.69315 43.1192 6.03697 43.463C6.38079 43.8068 6.8471 44 7.33333 44H36.6667C37.1529 44 37.6192 43.8068 37.963 43.463C38.3068 43.1192 38.5 42.6529 38.5 42.1667C38.4951 37.7921 36.7552 33.5981 33.6619 30.5048C30.5686 27.4115 26.3746 25.6715 22 25.6667Z" fill="#CBD5E1"/>
</svg>
