<svg width="105" height="70" viewBox="0 0 105 70" fill="none" xmlns="http://www.w3.org/2000/svg">
<g clip-path="url(#clip0_180_163)">
<path d="M67.1215 11.4804L69.1441 0H9.74262L0 55.1966H49.6665L46.9317 70H94.5072L105 11.4804H67.1215Z" fill="#02262B"/>
<path d="M20.2459 48.1498C18.8994 48.1498 17.627 47.8885 16.4306 47.3635C15.2341 46.8409 14.1896 46.0682 13.2989 45.0476C12.4082 44.0271 11.7055 42.7723 11.1889 41.2809C10.6723 39.7895 10.4141 38.0774 10.4141 36.1422C10.4141 33.4974 10.7236 31.0868 11.3446 28.9128C11.9657 26.7389 12.8298 24.8758 13.937 23.3213C15.0442 21.7691 16.3717 20.5661 17.9214 19.7145C19.4692 18.863 21.1651 18.4372 23.0054 18.4372C24.2474 18.4372 25.4249 18.694 26.5416 19.2099C27.6564 19.7258 28.6326 20.4737 29.4701 21.4605C30.3076 22.445 30.9742 23.657 31.468 25.0943C31.9618 26.5316 32.2087 28.1829 32.2087 30.046C32.2087 30.3299 32.2011 30.6633 32.1859 31.044C32.1707 31.427 32.1479 31.8167 32.1175 32.2155C32.0871 32.6143 32.0567 33.0062 32.0282 33.387C31.9979 33.7677 31.9618 34.0921 31.9162 34.3579H14.4763C14.4611 34.608 14.4497 34.8468 14.4422 35.0766C14.4346 35.3086 14.4308 35.5474 14.4308 35.7952C14.4308 37.2686 14.6112 38.5234 14.9701 39.562C15.3291 40.6005 15.7962 41.4476 16.3736 42.1054C16.949 42.7633 17.5966 43.2364 18.3145 43.5292C19.0324 43.8221 19.7579 43.9685 20.4909 43.9685C22.0919 43.9685 23.3795 43.6396 24.3519 42.984C25.3243 42.3285 26.0649 41.4408 26.5739 40.3212H30.6818C30.4273 41.4228 30.0076 42.4524 29.4245 43.4098C28.8415 44.3673 28.1046 45.1986 27.2139 45.8992C26.3232 46.5998 25.2901 47.1518 24.1164 47.5505C22.9427 47.9493 21.6513 48.1498 20.2459 48.1498ZM28.1236 30.6565C28.1388 30.5687 28.1502 30.4042 28.1578 30.1632C28.1654 29.9244 28.1692 29.6878 28.1692 29.458C28.1692 28.5163 28.0533 27.6242 27.8216 26.7817C27.5899 25.9391 27.2424 25.1979 26.7771 24.5581C26.3137 23.9183 25.7364 23.4137 25.0489 23.0397C24.3595 22.668 23.56 22.481 22.6465 22.481C21.7178 22.481 20.8499 22.677 20.0427 23.0667C19.2337 23.4565 18.5006 24.0129 17.8435 24.7316C17.1845 25.4502 16.6167 26.3108 16.1381 27.3133C15.6595 28.3158 15.2778 29.431 14.9929 30.6543H28.1236V30.6565Z" fill="white"/>
<path d="M43.2206 48.1498C42.009 48.1498 40.8714 47.8794 39.8079 47.3365C38.7443 46.7958 37.8137 46.0186 37.0142 45.0071C36.2128 43.9956 35.5804 42.77 35.117 41.3327C34.6536 39.8954 34.4219 38.2891 34.4219 36.5139C34.4219 34.7927 34.5681 33.1459 34.8587 31.5757C35.1492 30.0055 35.5652 28.5501 36.1045 27.2097C36.6439 25.8693 37.2896 24.6572 38.0454 23.5759C38.8013 22.4923 39.6388 21.5709 40.5599 20.8072C41.481 20.0434 42.4743 19.4577 43.5454 19.0499C44.6146 18.6422 45.7332 18.4372 46.9012 18.4372C47.7691 18.4372 48.5952 18.5791 49.3815 18.863C50.1677 19.1468 50.878 19.5411 51.5142 20.048C52.1504 20.5548 52.6955 21.1654 53.1532 21.884C53.609 22.6027 53.9432 23.3889 54.1521 24.2405H54.511L57.4965 7.54473H61.4239L54.2414 47.6451H50.5152L51.2103 43.732H50.8514C49.9683 45.0994 48.8611 46.1763 47.5298 46.967C46.1985 47.7533 44.7608 48.1498 43.2206 48.1498ZM44.4551 44.0226C45.7123 44.0226 46.8746 43.6734 47.9457 42.9705C49.0149 42.2699 49.9474 41.3102 50.7393 40.0959C51.5332 38.8794 52.1542 37.4511 52.6024 35.8088C53.0506 34.1664 53.2766 32.3957 53.2766 30.4966C53.2766 29.271 53.1342 28.1717 52.8493 27.1939C52.5644 26.2185 52.1599 25.3872 51.6376 24.7046C51.1135 24.0219 50.4773 23.4925 49.729 23.1208C48.9807 22.7468 48.1356 22.5621 47.1917 22.5621C45.9497 22.5621 44.7969 22.891 43.7353 23.5466C42.6718 24.2044 41.7526 25.1168 40.9739 26.2883C40.1953 27.4598 39.5819 28.8588 39.1337 30.4808C38.6855 32.1029 38.4595 33.8848 38.4595 35.82C38.4595 37.0275 38.6057 38.1359 38.8982 39.1475C39.1906 40.159 39.597 41.0241 40.1212 41.7427C40.6454 42.4614 41.274 43.0201 42.0071 43.4211C42.7401 43.8221 43.5568 44.0226 44.4551 44.0226Z" fill="white"/>
<path d="M96.6543 19.0252H87.8935L78.337 33.0603H77.866L72.8124 19.0252H63.951L71.5476 39.411L55.1484 62.4553H63.7914L74.3165 47.6519H75.0268L80.7128 62.4553H89.409L80.9996 40.4316L96.6543 19.0252Z" fill="white"/>
</g>
<defs>
<clipPath id="clip0_180_163">
<rect width="105" height="70" fill="white"/>
</clipPath>
</defs>
</svg>
