<svg width="29" height="17" viewBox="0 0 29 17" fill="none" xmlns="http://www.w3.org/2000/svg">
<path fill-rule="evenodd" clip-rule="evenodd" d="M10.2647 0.0358397C10.2508 0.0539395 10.2606 0.0955898 10.2865 0.128396C10.3258 0.177964 10.334 0.175907 10.3346 0.116157C10.3354 0.0390276 10.4628 0.017226 10.5154 0.0853059C10.5634 0.147524 10.6439 0.134566 10.6439 0.0647375C10.6439 -0.00138843 10.3129 -0.026584 10.2647 0.0358397ZM9.48594 0.138268C9.41922 0.201823 9.4196 0.294173 9.48658 0.280701C9.51473 0.275045 9.53119 0.247587 9.52309 0.219615C9.51435 0.188968 9.54006 0.178581 9.58826 0.19339C9.64611 0.211078 9.65935 0.199561 9.63634 0.151637C9.5988 0.073479 9.55793 0.0698799 9.48594 0.138268ZM10.6809 0.145467C10.5999 0.192876 10.5988 0.201823 10.6708 0.223934C10.7155 0.237714 10.7389 0.231852 10.7228 0.211079C10.7068 0.190305 10.7172 0.161613 10.7459 0.147421C10.7746 0.133229 10.8 0.155031 10.8023 0.195961C10.8049 0.243884 10.8159 0.251083 10.8334 0.216118C10.8531 0.17673 10.8816 0.18578 10.9369 0.248924C10.9972 0.317826 11.0283 0.32595 11.0856 0.2879C11.1884 0.219614 11.1753 0.167577 11.0553 0.167577C10.9987 0.167577 10.9524 0.152975 10.9524 0.135183C10.9524 0.0816038 10.7788 0.0881854 10.6809 0.145467ZM9.15441 0.280701C9.15531 0.297669 9.1931 0.348576 9.23848 0.393825C9.30532 0.460671 9.31497 0.462625 9.28977 0.404109C9.2728 0.364516 9.28116 0.332121 9.30867 0.332121C9.33605 0.332121 9.35842 0.31361 9.35842 0.290985C9.35842 0.268361 9.31214 0.249849 9.25558 0.249849C9.19901 0.249849 9.15351 0.263732 9.15441 0.280701ZM11.2136 0.301269C11.2113 0.340862 11.2095 0.38714 11.2095 0.404109C11.2095 0.456352 11.3796 0.438148 11.4024 0.383541C11.4142 0.35526 11.3891 0.332121 11.3467 0.332121C11.3043 0.332121 11.2579 0.308982 11.2436 0.280701C11.228 0.249952 11.216 0.258282 11.2136 0.301269ZM11.3864 0.459437C11.332 0.529985 11.4778 0.624495 11.5695 0.578114C11.6206 0.552198 11.625 0.538829 11.5823 0.538418C11.547 0.538109 11.5181 0.510033 11.5181 0.476096C11.5181 0.404211 11.4371 0.394031 11.3864 0.459437ZM11.6148 0.650924C11.6115 0.667893 11.6124 0.697922 11.6169 0.717667C11.6214 0.737412 11.5894 0.742657 11.5458 0.729288C11.5022 0.715918 11.4666 0.722809 11.4666 0.744816C11.4666 0.766721 11.5154 0.784616 11.575 0.784616C11.6497 0.784616 11.6742 0.803538 11.6541 0.845703C11.6294 0.89702 11.6412 0.898666 11.7273 0.855987C11.8033 0.818451 11.8109 0.801893 11.7566 0.79274C11.7118 0.78513 11.6935 0.749342 11.7096 0.700184C11.724 0.656066 11.7098 0.620072 11.6784 0.620072C11.6467 0.620072 11.6182 0.633956 11.6148 0.650924ZM8.42296 0.896197C8.5258 0.911931 8.53261 0.923656 8.47438 0.9832C8.41422 1.0448 8.41653 1.04614 8.49662 0.995951C8.60704 0.926637 8.56732 0.865036 8.41692 0.87244C8.30752 0.877891 8.30765 0.878611 8.42296 0.896197ZM11.8095 1.05889C11.7502 1.1062 11.7719 1.15484 11.8523 1.15484C11.8947 1.15484 11.9294 1.12707 11.9294 1.09314C11.9294 1.02886 11.8686 1.01148 11.8095 1.05889ZM8.23129 1.12399C8.22898 1.16358 8.20263 1.19598 8.17267 1.19598C8.14272 1.19598 8.13437 1.21685 8.15416 1.24235C8.19993 1.30159 8.29698 1.17356 8.2606 1.10188C8.24646 1.0739 8.23348 1.08367 8.23129 1.12399ZM7.86891 1.27002C7.80232 1.3274 7.80309 1.33213 7.87547 1.30982C7.92059 1.29604 7.98088 1.30334 8.00942 1.32617C8.04438 1.35414 8.07189 1.35394 8.09361 1.32576C8.11148 1.30283 8.10249 1.27228 8.07382 1.25809C8.04502 1.2439 8.02111 1.24719 8.02073 1.26549C8.02034 1.2838 8.00299 1.27773 7.98216 1.25192C7.9553 1.2186 7.92264 1.22384 7.86891 1.27002ZM7.28234 1.81815C7.26421 1.89045 7.26126 1.95894 7.27553 1.97046C7.28992 1.98188 7.30162 1.96861 7.30162 1.94084C7.30162 1.91308 7.32566 1.90228 7.3551 1.91688C7.39019 1.93426 7.39649 1.9032 7.37361 1.82679C7.32592 1.66801 7.32 1.66749 7.28234 1.81815ZM11.7444 1.76221C11.665 1.80468 11.6753 1.93642 11.7581 1.93642C11.7969 1.93642 11.8266 1.89189 11.8266 1.83358C11.8266 1.72015 11.8252 1.71902 11.7444 1.76221ZM6.87419 2.13408C6.71364 2.26808 6.66659 2.46203 6.82547 2.33503C6.87458 2.29564 6.91507 2.23157 6.91546 2.19249C6.91572 2.14601 6.95145 2.12472 7.01881 2.13058C7.07537 2.13562 7.0926 2.12945 7.05712 2.1168C7.02151 2.10426 7.00557 2.077 7.02151 2.05633C7.07679 1.98486 7.01187 2.0191 6.87419 2.13408ZM11.4395 2.14385C11.4228 2.16555 11.4202 2.18324 11.4337 2.18324C11.4472 2.18324 11.4948 2.19444 11.5395 2.20823C11.5843 2.2219 11.6209 2.2147 11.6209 2.19208C11.6209 2.13449 11.4764 2.09613 11.4395 2.14385ZM6.4789 2.45617C6.37992 2.48445 6.32207 2.50893 6.35035 2.51057C6.37864 2.51212 6.45744 2.52538 6.52557 2.53988C6.60732 2.55747 6.63766 2.5515 6.61517 2.5223C6.5964 2.49803 6.61015 2.46995 6.64576 2.45977C6.68124 2.44959 6.69872 2.43303 6.68458 2.42296C6.67044 2.41288 6.57789 2.42789 6.4789 2.45617ZM10.9253 2.51417C10.9071 2.53772 10.9171 2.58112 10.9475 2.61043C10.978 2.63984 10.9878 2.67604 10.9691 2.69096C10.9505 2.70587 10.9648 2.718 11.0008 2.718C11.0369 2.718 11.0535 2.69127 11.0377 2.65836C11.0186 2.61856 11.0338 2.60642 11.0836 2.62164C11.1246 2.63429 11.1581 2.62401 11.1581 2.59902C11.1581 2.57392 11.1408 2.55562 11.1195 2.55829C11.0171 2.57125 10.9496 2.54934 10.9781 2.51232C10.9956 2.4897 10.9983 2.47119 10.9842 2.47119C10.97 2.47119 10.9436 2.49052 10.9253 2.51417ZM6.32464 2.59459C6.44227 2.62473 6.38596 2.65404 6.23851 2.63954C6.20535 2.63624 6.16357 2.65229 6.14583 2.67532C6.12616 2.70073 6.14827 2.70638 6.20239 2.68983C6.27142 2.66864 6.28338 2.67851 6.25664 2.73446C6.22913 2.79174 6.25201 2.78701 6.36951 2.7107C6.54048 2.59984 6.52955 2.55181 6.33441 2.55757L6.19609 2.56169L6.32464 2.59459ZM10.6116 2.90425C10.6498 2.98384 10.5862 3.01161 10.4974 2.95423C10.4344 2.9134 10.4263 2.9135 10.4574 2.95484C10.4813 2.98683 10.4605 3.0184 10.403 3.03711C10.2827 3.0765 10.2644 3.15569 10.3684 3.18767C10.4252 3.20505 10.4409 3.19446 10.4209 3.1525C10.4006 3.11003 10.4165 3.09995 10.4755 3.11805C10.5386 3.13738 10.5507 3.12638 10.5249 3.0727C10.5048 3.03074 10.5115 3.01192 10.5412 3.02662C10.569 3.0403 10.6478 3.00657 10.7165 2.95165L10.8414 2.85169H10.714C10.6316 2.85169 10.5953 2.87031 10.6116 2.90425ZM5.76982 2.94579C5.73126 2.98086 5.72586 3.00595 5.75697 3.00595C5.78641 3.00595 5.80466 3.02683 5.79759 3.05223C5.79052 3.07774 5.81366 3.10705 5.84901 3.11733C5.92395 3.13934 5.93668 3.06354 5.86405 3.02765C5.83706 3.01428 5.82793 2.97613 5.84387 2.94291C5.88025 2.86733 5.85531 2.86825 5.76982 2.94579ZM10.0645 3.21163C10.0157 3.25729 10.0019 3.2939 10.0337 3.2939C10.0719 3.2939 10.0689 3.31509 10.0248 3.35756C9.97211 3.40837 9.95026 3.41042 9.91645 3.36785C9.88675 3.33031 9.8739 3.32897 9.87339 3.36342C9.873 3.39037 9.89614 3.4241 9.92493 3.43829C9.9536 3.45248 9.96376 3.48138 9.94756 3.50246C9.90218 3.56119 9.97391 3.54792 10.0558 3.48231C10.1118 3.43747 10.1139 3.41916 10.0649 3.40333C10.0298 3.39191 10.0576 3.38122 10.1266 3.37947C10.2472 3.37628 10.2484 3.37391 10.1534 3.31838C10.0593 3.26326 10.0606 3.2611 10.1822 3.27159C10.2522 3.27766 10.2674 3.27437 10.2157 3.26439C10.1599 3.25359 10.1332 3.22253 10.1499 3.18777C10.1877 3.1089 10.1688 3.11414 10.0645 3.21163ZM5.30139 3.38399C5.29419 3.5401 5.35422 3.54884 5.4928 3.41207C5.568 3.33782 5.58381 3.30295 5.53535 3.31776C5.49306 3.33082 5.44189 3.37237 5.42171 3.41022C5.39112 3.46739 5.37839 3.46174 5.34574 3.37618L5.30653 3.27334L5.30139 3.38399ZM5.1758 3.49784C5.1569 3.57383 5.15304 3.64551 5.16731 3.65703C5.18171 3.66845 5.19341 3.65518 5.19341 3.62741C5.19341 3.59965 5.21655 3.58844 5.24483 3.60242C5.30422 3.63184 5.30653 3.55594 5.24971 3.43983C5.21654 3.37196 5.2051 3.38091 5.1758 3.49784ZM9.75345 3.47429C9.7271 3.5293 9.80551 3.62299 9.87814 3.62299C9.92365 3.62299 9.87428 3.4641 9.82042 3.43747C9.79844 3.42667 9.76836 3.44323 9.75345 3.47429ZM4.96343 3.78579C4.94672 3.80738 4.9034 3.81602 4.86715 3.80481C4.79246 3.78188 4.59334 3.9382 4.64476 3.97943C4.66327 3.99414 4.6526 4.03106 4.6211 4.0614C4.4968 4.18121 4.6184 4.10685 4.83347 3.93151C4.95842 3.8297 5.04557 3.7464 5.02719 3.7464C5.00881 3.7464 4.98014 3.76409 4.96343 3.78579ZM4.8075 3.91115C4.75608 3.9566 4.70389 3.9856 4.69142 3.97563C4.66134 3.95156 4.79503 3.83227 4.85429 3.83021C4.87987 3.82939 4.85879 3.8658 4.8075 3.91115ZM8.86183 4.14439C8.88098 4.15971 8.84602 4.21525 8.78431 4.2678C8.72261 4.32045 8.69086 4.36344 8.714 4.36344C8.73714 4.36344 8.82224 4.3079 8.90335 4.24003C9.04437 4.12207 9.04591 4.11662 8.93896 4.11662C8.87738 4.11662 8.84267 4.12917 8.86183 4.14439ZM4.27518 4.20342C4.32544 4.22892 4.30911 4.24013 4.21643 4.24353L4.08788 4.24826L4.21643 4.28117C4.33405 4.3113 4.27775 4.34061 4.1303 4.32611C4.09714 4.32282 4.05536 4.33886 4.03762 4.36189C4.01872 4.38637 4.03826 4.39357 4.08518 4.37917C4.12914 4.3657 4.16501 4.37516 4.16501 4.40015C4.16501 4.42524 4.14187 4.44571 4.11359 4.44571C4.08531 4.44571 4.06217 4.46607 4.06217 4.49086C4.06217 4.51574 4.13969 4.48335 4.23443 4.41887C4.32917 4.35449 4.3973 4.28785 4.38573 4.27088C4.37416 4.25391 4.40206 4.24003 4.44782 4.24003C4.49358 4.24003 4.51852 4.22388 4.50322 4.20404C4.48793 4.18429 4.41465 4.16804 4.34048 4.16804C4.24535 4.16804 4.22607 4.17853 4.27518 4.20342ZM8.64368 4.50248C8.60614 4.53857 8.55498 4.55811 8.52991 4.54567C8.50485 4.53323 8.48428 4.55194 8.48428 4.58722C8.48428 4.62249 8.50909 4.65139 8.53943 4.65139C8.62041 4.65139 8.75269 4.53446 8.73084 4.48201C8.71914 4.45394 8.68597 4.46175 8.64368 4.50248ZM3.60055 4.68245C3.51313 4.7569 3.50054 4.78241 3.56031 4.764C3.60826 4.74929 3.66148 4.75526 3.67845 4.77726C3.69542 4.79927 3.73295 4.80565 3.76162 4.79135C3.79684 4.77397 3.7971 4.75197 3.76214 4.72399C3.7336 4.70116 3.72254 4.65694 3.73745 4.62578C3.77563 4.54618 3.74684 4.55811 3.60055 4.68245ZM7.97689 4.91877C7.98319 5.10831 7.96211 5.13679 7.91609 5.00104L7.87418 4.87764L7.88164 5.00104C7.88575 5.06892 7.87135 5.14759 7.8495 5.17587C7.78574 5.25835 7.86223 5.23521 7.98525 5.13474C8.09002 5.04928 8.16175 4.83372 8.07048 4.87887C8.04837 4.88977 8.01739 4.87548 8.00157 4.84699C7.98576 4.81861 7.97458 4.8509 7.97689 4.91877ZM3.23161 5.01133C3.22737 5.0283 3.21837 5.06069 3.21181 5.08332C3.20526 5.10594 3.19497 5.15222 3.1888 5.18616C3.18263 5.22071 3.15962 5.20261 3.13661 5.14502L3.09548 5.04218L3.08956 5.14502C3.08532 5.21917 3.07131 5.23223 3.03943 5.19202C3.00832 5.15273 2.99521 5.16816 2.99521 5.24426C2.99521 5.3036 3.01552 5.36222 3.0402 5.37446C3.06501 5.38669 3.08519 5.36674 3.08519 5.33013C3.08519 5.29352 3.10255 5.2712 3.12376 5.28046C3.14497 5.28972 3.22827 5.23521 3.30874 5.15942C3.38934 5.08362 3.42983 5.02161 3.39872 5.02161C3.36774 5.02161 3.34229 5.04012 3.34229 5.06275C3.34229 5.08537 3.31671 5.10388 3.28534 5.10388C3.25411 5.10388 3.24177 5.07612 3.25809 5.04218C3.27429 5.00824 3.27686 4.98048 3.26349 4.98048C3.25025 4.98048 3.23598 4.99436 3.23161 5.01133ZM7.66966 5.13936C7.55319 5.2202 7.55294 5.22194 7.65462 5.26545C7.78381 5.32077 7.81582 5.32088 7.81582 5.26596C7.81582 5.242 7.7869 5.23634 7.75154 5.25331C7.70617 5.27511 7.70771 5.26411 7.75643 5.21598C7.86814 5.10584 7.80219 5.04753 7.66966 5.13936ZM2.85522 5.47236C2.83851 5.49395 2.79518 5.50259 2.75893 5.49138C2.68425 5.46845 2.48512 5.62477 2.53654 5.66601C2.55505 5.68071 2.54438 5.71763 2.51289 5.74797C2.38858 5.86778 2.51019 5.79342 2.72525 5.61808C2.8502 5.51627 2.93736 5.43297 2.91898 5.43297C2.90059 5.43297 2.87193 5.45066 2.85522 5.47236ZM2.69929 5.59772C2.64787 5.64317 2.59567 5.67218 2.58321 5.6622C2.55313 5.63814 2.68682 5.51884 2.74608 5.51679C2.77166 5.51596 2.75058 5.55237 2.69929 5.59772ZM7.07717 5.74488C6.99606 5.80186 6.94155 5.85801 6.95595 5.86953C6.98115 5.88968 7.2502 5.69562 7.2502 5.65737C7.2502 5.62682 7.23156 5.63628 7.07717 5.74488ZM6.79783 5.83826C6.74461 5.86531 6.74757 5.883 6.81197 5.92578C6.85632 5.95529 6.90762 5.96753 6.92574 5.95303C6.944 5.93853 6.93255 5.9266 6.90042 5.9266C6.86828 5.9266 6.85543 5.89883 6.87162 5.8649C6.9053 5.79486 6.89245 5.79024 6.79783 5.83826ZM2.10821 5.92269L1.97966 5.9518L2.10821 5.97977C2.28253 6.01772 2.32521 6.01576 2.29088 5.97123C2.27494 5.95056 2.29088 5.92424 2.32649 5.91282C2.42535 5.88094 2.2599 5.88845 2.10821 5.92269ZM2.00538 6.04847C2.11233 6.07459 2.1194 6.08477 2.04792 6.10925C2.00062 6.12539 1.94868 6.16632 1.93236 6.20015C1.91385 6.23893 1.95743 6.22628 2.05024 6.16612C2.22121 6.05525 2.21028 6.00723 2.01514 6.01299L1.87683 6.0171L2.00538 6.04847ZM6.5041 6.09187C6.48636 6.1148 6.44972 6.12272 6.4226 6.10935C6.3956 6.09598 6.37992 6.10955 6.38763 6.13948C6.39547 6.16951 6.37118 6.18895 6.33364 6.18267C6.29623 6.1765 6.27914 6.18895 6.29572 6.21044C6.3123 6.23193 6.28518 6.25795 6.2353 6.26834C6.16627 6.28274 6.17231 6.28839 6.26037 6.29209C6.41026 6.29826 6.40666 6.343 6.24713 6.45396C6.10315 6.55413 6.04235 6.56986 6.09904 6.49222C6.11974 6.46394 6.08696 6.47566 6.02615 6.51824C5.96548 6.56092 5.92974 6.61388 5.94684 6.63599C5.96393 6.6581 5.95751 6.68834 5.9327 6.70315C5.90789 6.71795 5.81957 6.78994 5.73653 6.86306L5.58548 6.99614H16.4961C23.7357 6.99614 27.4068 6.98225 27.4068 6.955C27.4068 6.92775 23.7731 6.91386 16.6086 6.91386C10.6696 6.91386 5.81044 6.90358 5.81044 6.89103C5.81044 6.87849 5.95146 6.75744 6.12372 6.62211C6.33274 6.45808 6.42684 6.35483 6.4064 6.31215C6.38956 6.27708 6.39213 6.227 6.41231 6.20098C6.43507 6.17136 6.46373 6.19203 6.48854 6.2561C6.52724 6.35565 6.52788 6.35534 6.51078 6.2454C6.4915 6.12138 6.56002 6.08888 6.59768 6.20427C6.61221 6.24859 6.62352 6.23275 6.62725 6.16313C6.63316 6.05073 6.56593 6.01175 6.5041 6.09187ZM1.44143 6.41201C1.37458 6.4696 1.37587 6.47402 1.45261 6.45047C1.5003 6.43576 1.55301 6.44152 1.56972 6.46312C1.61137 6.51711 1.70984 6.51299 1.68696 6.45828C1.67693 6.43401 1.64865 6.41704 1.62423 6.42064C1.5998 6.42424 1.56561 6.40923 1.54838 6.38712C1.52987 6.36367 1.48565 6.37396 1.44143 6.41201ZM1.1234 6.6979C1.11915 6.71487 1.11016 6.74726 1.1036 6.76989C1.09704 6.79251 1.08676 6.83879 1.08059 6.87273C1.07442 6.90728 1.05141 6.88918 1.0284 6.83159L0.987261 6.72875L0.982119 6.83941C0.974921 6.99552 1.03495 7.00426 1.17353 6.86748C1.26891 6.77349 1.27483 6.75518 1.20322 6.77719C1.13407 6.79837 1.12095 6.78891 1.14641 6.73585C1.16453 6.698 1.16864 6.66705 1.15528 6.66705C1.14204 6.66705 1.12777 6.68093 1.1234 6.6979ZM5.5689 6.76248C5.55039 6.78644 5.56402 6.79004 5.60232 6.77112C5.65053 6.74726 5.65786 6.76269 5.63048 6.83159C5.60772 6.88887 5.61312 6.91458 5.64449 6.89905C5.73061 6.85648 5.75196 6.72186 5.67264 6.72186C5.63279 6.72186 5.58613 6.74017 5.5689 6.76248ZM0.856527 6.95325C0.83763 7.02925 0.833773 7.10093 0.848042 7.11245C0.86244 7.12386 0.874138 7.1106 0.874138 7.08283C0.874138 7.05506 0.897277 7.04385 0.925558 7.05784C0.984948 7.08725 0.987262 7.01136 0.930443 6.89525C0.897277 6.82738 0.885836 6.83632 0.856527 6.95325ZM27.5974 6.96888C27.6167 6.99367 27.5942 6.99932 27.5411 6.98307C27.4887 6.96693 27.4657 6.97248 27.4843 6.99665C27.5296 7.05527 27.6485 7.04663 27.6792 6.98246C27.6937 6.95222 27.674 6.92754 27.6355 6.92754C27.597 6.92754 27.5799 6.94615 27.5974 6.96888ZM27.8181 6.9986C27.8181 7.04519 27.8413 7.07183 27.8696 7.05784C27.8978 7.04385 27.9214 7.05661 27.9218 7.08622C27.9224 7.129 27.9318 7.12849 27.967 7.08406C28.0044 7.03665 28.0157 7.03665 28.0393 7.08406C28.0591 7.12386 28.0683 7.1252 28.0711 7.08869C28.0734 7.06041 28.1011 7.03727 28.1327 7.03727C28.1647 7.03727 28.1782 7.07357 28.1632 7.11954C28.1371 7.19945 28.1791 7.22845 28.2448 7.1758C28.3028 7.12942 28.1736 6.98873 28.095 7.0128C28.0538 7.02555 28.0067 7.00848 27.9907 6.97485C27.947 6.88363 27.8181 6.90132 27.8181 6.9986ZM5.35846 7.01825C5.30396 7.06771 5.30512 7.07841 5.36502 7.07841C5.40513 7.07841 5.4667 7.05064 5.50193 7.0167C5.58985 6.93196 5.45205 6.93351 5.35846 7.01825ZM0.701239 7.08921C0.724378 7.17662 0.714479 7.1976 0.658046 7.18022C0.61781 7.16788 0.541323 7.19626 0.488104 7.24326C0.404546 7.3172 0.40326 7.32512 0.478462 7.30198C0.526411 7.28727 0.565619 7.25879 0.565619 7.23853C0.565619 7.21837 0.590172 7.20181 0.620124 7.20181C0.650076 7.20181 0.658303 7.22495 0.638507 7.25323C0.61871 7.28152 0.644548 7.27308 0.695711 7.23441C0.772584 7.17652 0.778625 7.14762 0.730034 7.06987C0.673729 6.97968 0.672444 6.9805 0.701239 7.08921ZM28.3032 7.15039C28.3178 7.23071 28.4866 7.27678 28.4866 7.20048C28.4866 7.17374 28.4531 7.16212 28.412 7.17477C28.3623 7.18999 28.3471 7.17785 28.3662 7.13805C28.382 7.10525 28.3712 7.07841 28.3424 7.07841C28.3136 7.07841 28.296 7.1108 28.3032 7.15039ZM28.5565 7.35669C28.5141 7.3786 28.5177 7.40153 28.5694 7.43999C28.6087 7.46909 28.6409 7.48452 28.6409 7.47413C28.6409 7.46385 28.6549 7.42611 28.6721 7.39032C28.7051 7.32142 28.654 7.30651 28.5565 7.35669ZM28.7622 7.6575C28.7656 7.72362 28.7873 7.77772 28.8104 7.77772C28.8337 7.77772 28.8391 7.7953 28.8224 7.8168C28.8058 7.83829 28.8343 7.87387 28.8856 7.89588C28.9631 7.9291 28.9807 7.91892 28.9894 7.83623C28.9962 7.7699 28.9729 7.73658 28.9197 7.73658C28.8647 7.73658 28.8492 7.71231 28.8703 7.65914C28.889 7.61204 28.8726 7.57307 28.8285 7.55949C28.7756 7.54324 28.7577 7.56978 28.7622 7.6575ZM0 7.75715C0 7.79109 0.0231391 7.81885 0.0514201 7.81885C0.079701 7.81885 0.10284 7.79109 0.10284 7.75715C0.10284 7.72321 0.079701 7.69545 0.0514201 7.69545C0.0231391 7.69545 0 7.72321 0 7.75715ZM4.23237 7.87202C4.16154 7.96283 4.16167 8.05569 4.2325 7.9798C4.26605 7.94391 4.32711 7.90565 4.36812 7.89475C4.42892 7.87871 4.42687 7.87027 4.35693 7.84878C4.30976 7.83428 4.25371 7.84477 4.23237 7.87202ZM28.898 8.23021C28.898 8.30703 28.9117 8.31793 28.9597 8.27957C29.0076 8.24121 29.0076 8.21921 28.9597 8.18085C28.9117 8.14249 28.898 8.15339 28.898 8.23021ZM4.26052 8.5194C4.32878 8.56495 4.36928 8.62635 4.35321 8.65998C4.33405 8.69988 4.34922 8.71212 4.39897 8.6968C4.51659 8.6607 4.32145 8.43209 4.17748 8.43723C4.15653 8.43805 4.1938 8.47497 4.26052 8.5194ZM28.8124 8.61072C28.7559 8.68281 28.76 8.77999 28.8208 8.81578C28.8505 8.83326 28.8377 8.84622 28.7902 8.84663C28.7451 8.84694 28.6663 8.88427 28.6152 8.92952C28.564 8.97477 28.5469 9.01179 28.5772 9.01179C28.6074 9.01179 28.6419 8.98876 28.6536 8.96058C28.6654 8.9324 28.7194 8.90926 28.7737 8.90916C28.8428 8.90906 28.8711 8.88129 28.8681 8.8164C28.866 8.76518 28.8946 8.72384 28.9324 8.72384C28.9701 8.72384 29.0008 8.70533 29.0008 8.68271C29.0008 8.66008 28.9647 8.64157 28.9206 8.64157C28.8765 8.64157 28.8548 8.62306 28.8723 8.60044C28.8897 8.57781 28.8924 8.5593 28.8783 8.5593C28.8642 8.5593 28.8345 8.58244 28.8124 8.61072ZM0 8.70328C0 8.74102 0.0249387 8.76518 0.0552764 8.75706C0.0857427 8.74904 0.110553 8.72477 0.110553 8.70328C0.110553 8.68178 0.0857427 8.65761 0.0552764 8.64949C0.0249387 8.64136 0 8.66553 0 8.70328ZM4.48677 8.70986C4.39138 8.74071 4.51171 8.90124 4.60799 8.87173C4.64926 8.85897 4.69618 8.87594 4.71225 8.90937C4.72831 8.94279 4.76212 8.95996 4.78745 8.94742C4.85648 8.91327 4.84285 8.84571 4.76919 8.85753C4.73384 8.86319 4.71122 8.84334 4.71906 8.81331C4.72677 8.78339 4.70942 8.77063 4.68049 8.78493C4.65144 8.79922 4.62779 8.78215 4.62779 8.74688C4.62779 8.68116 4.59886 8.67355 4.48677 8.70986ZM28.6923 9.01179C28.6923 9.03442 28.6529 9.05293 28.6049 9.05293C28.5396 9.05293 28.5322 9.06476 28.5758 9.09962C28.6194 9.13448 28.6546 9.13006 28.7147 9.08203C28.8073 9.00789 28.8171 8.97066 28.7437 8.97066C28.7154 8.97066 28.6923 8.98917 28.6923 9.01179ZM5.09057 9.16564C5.09057 9.22179 5.2474 9.3525 5.28185 9.32494C5.29547 9.31414 5.25794 9.26344 5.19855 9.21243C5.13916 9.16142 5.09057 9.14034 5.09057 9.16564ZM0.598656 9.23753C0.582588 9.27126 0.585801 9.29676 0.605984 9.2944C0.743018 9.27805 0.781968 9.3016 0.71885 9.36248C0.683113 9.39693 0.668716 9.43704 0.686841 9.45154C0.704967 9.46614 0.719879 9.45514 0.719879 9.42727C0.719879 9.39405 0.758058 9.38613 0.830432 9.40454L0.940983 9.43261L0.826961 9.30448C0.700725 9.16266 0.642749 9.14569 0.598656 9.23753ZM28.212 9.25131C28.1651 9.29286 28.1263 9.35312 28.1259 9.38521C28.1254 9.42017 28.1098 9.42716 28.0873 9.40258C28.02 9.32936 27.8883 9.33831 27.793 9.42274C27.7176 9.48938 27.6839 9.49576 27.6175 9.45606C27.5528 9.4176 27.554 9.42346 27.6229 9.48372C27.7081 9.55818 27.7135 9.55756 27.8131 9.46089C27.9148 9.36227 27.9155 9.36217 27.8867 9.454C27.8694 9.50861 27.8811 9.54656 27.9149 9.54656C27.9466 9.54656 27.9724 9.52198 27.9724 9.49185C27.9724 9.46161 28.0241 9.43868 28.0881 9.44043C28.1664 9.44269 28.2039 9.41986 28.2042 9.36998C28.2044 9.32946 28.2385 9.27959 28.2799 9.25912C28.3213 9.23866 28.3421 9.21161 28.3263 9.19886C28.3104 9.18621 28.2591 9.20976 28.212 9.25131ZM28.3838 9.22642C28.3838 9.26293 28.3548 9.30118 28.3195 9.31126C28.2841 9.32134 28.2714 9.34366 28.2913 9.36073C28.3111 9.3778 28.3664 9.36063 28.414 9.32257C28.4786 9.27085 28.4857 9.24144 28.4421 9.20657C28.3985 9.17171 28.3838 9.17675 28.3838 9.22642ZM0.926844 9.52476C0.877224 9.57258 0.890207 9.60425 0.993561 9.68694C1.09859 9.77106 1.12751 9.77836 1.15193 9.72725C1.17584 9.67737 1.20631 9.68735 1.30259 9.77692C1.36893 9.83862 1.43513 9.87225 1.44953 9.85158C1.46405 9.83091 1.39374 9.75841 1.29334 9.69054C1.19294 9.62266 1.12738 9.58903 1.14756 9.61567C1.21364 9.70298 1.09589 9.71131 0.999602 9.62606C0.916431 9.55263 0.915659 9.54615 0.99266 9.5698C1.04061 9.58451 1.07982 9.5771 1.07982 9.55335C1.07982 9.4791 0.991376 9.46254 0.926844 9.52476ZM5.65619 9.50604C5.7247 9.54204 5.7247 9.55109 5.65619 9.58708C5.60464 9.61413 5.6004 9.6278 5.64333 9.62821C5.76635 9.62945 5.78525 9.63511 5.86919 9.69578C5.9156 9.72941 5.94786 9.78823 5.94079 9.82659C5.93372 9.86485 5.9381 9.87287 5.95031 9.84428C5.98232 9.76952 6.06047 9.82114 6.04441 9.9065C6.03695 9.94609 6.04132 9.95319 6.05418 9.92234C6.06986 9.88418 6.15007 9.92326 6.30382 10.044C6.42838 10.1418 6.53032 10.2078 6.53032 10.1907C6.53032 10.1737 6.36835 10.0319 6.17038 9.87565C5.97242 9.71943 5.81044 9.58153 5.81044 9.56908C5.81044 9.55674 10.6696 9.54656 16.6086 9.54656C23.7731 9.54656 27.4068 9.53268 27.4068 9.50542C27.4068 9.47817 23.735 9.46449 16.4929 9.46491C9.31188 9.46532 5.60541 9.47941 5.65619 9.50604ZM1.41405 9.91678C1.39656 9.93941 1.417 9.95792 1.45942 9.95792C1.50185 9.95792 1.55082 9.93941 1.56831 9.91678C1.58579 9.89416 1.56535 9.87565 1.52293 9.87565C1.48051 9.87565 1.43153 9.89416 1.41405 9.91678ZM1.59402 9.99391C1.59402 10.0633 1.78093 10.2168 1.84366 10.1989C1.87207 10.1907 1.82759 10.1302 1.74468 10.0642C1.66176 9.99823 1.59402 9.96656 1.59402 9.99391ZM1.92979 10.2438C1.91153 10.2676 1.91513 10.2883 1.93802 10.2899C1.9609 10.2915 1.93339 10.3097 1.87683 10.3304L1.77399 10.3679L1.87683 10.3593C1.93339 10.3547 2.01013 10.366 2.04741 10.3847C2.15899 10.4406 2.16696 10.3887 2.06168 10.2915C2.00139 10.2359 1.95023 10.2174 1.92979 10.2438ZM2.15963 10.5795C2.09407 10.6171 2.09587 10.6204 2.17082 10.6012C2.25939 10.5785 2.34873 10.635 2.27559 10.6675C2.25425 10.6771 2.26492 10.6794 2.29937 10.6729C2.3855 10.6563 2.4328 10.7275 2.35272 10.7533C2.31724 10.7648 2.34025 10.7756 2.40388 10.7773C2.46751 10.7792 2.51996 10.8038 2.52035 10.8321C2.52086 10.8663 2.53783 10.8629 2.57099 10.8218C2.61663 10.7653 2.6453 10.7931 2.62717 10.8763C2.62318 10.8949 2.64748 10.8965 2.68129 10.8798C2.72307 10.8591 2.73232 10.8711 2.71008 10.9174C2.69003 10.9593 2.70147 10.9816 2.73991 10.9755C2.77423 10.9702 2.79968 10.9958 2.79634 11.0325C2.7921 11.08 2.82025 11.093 2.89442 11.0774C2.97091 11.0614 2.98737 11.0699 2.95677 11.1096C2.92746 11.1475 2.93492 11.1537 2.98197 11.1305C3.03339 11.1051 3.04059 11.1237 3.01295 11.2116C2.98338 11.3058 2.99161 11.3214 3.05948 11.3005C3.10769 11.2857 3.12877 11.2923 3.11026 11.3162C3.0929 11.3387 3.11257 11.3843 3.15409 11.4175C3.2203 11.4705 3.23367 11.4693 3.26413 11.4069C3.29421 11.3453 3.31427 11.3514 3.41685 11.4535C3.4819 11.5182 3.54604 11.5552 3.55954 11.5358C3.57304 11.5165 3.50542 11.447 3.40939 11.3816C3.31324 11.3163 3.24151 11.2793 3.24986 11.2994C3.25835 11.3195 3.24215 11.336 3.21413 11.336C3.18598 11.336 3.17042 11.3104 3.17942 11.279C3.19047 11.2402 3.16746 11.2307 3.10743 11.2491C3.03686 11.2708 3.03107 11.2648 3.07812 11.2194C3.1397 11.1601 2.9461 10.9726 2.50813 10.6673C2.29783 10.5208 2.27276 10.5144 2.15963 10.5795ZM6.91803 10.6546C6.88114 10.7024 7.03064 10.8467 7.07794 10.8087C7.09363 10.7963 7.07177 10.7464 7.02948 10.698C6.98102 10.6427 6.93963 10.6266 6.91803 10.6546ZM7.35304 10.9207C7.35304 10.9595 7.3299 10.9797 7.30162 10.9657C7.27334 10.9518 7.2502 10.9599 7.2502 10.9838C7.2502 11.0389 7.33672 11.0407 7.37849 10.9867C7.39572 10.9643 7.50293 11.0147 7.61657 11.0988C7.73021 11.1829 7.79834 11.2583 7.768 11.2665C7.73779 11.2745 7.71298 11.3018 7.71298 11.327C7.71298 11.3607 7.72828 11.3608 7.76993 11.3274C7.81158 11.2941 7.87431 11.321 8.00337 11.4273C8.10043 11.5072 8.1926 11.5624 8.20828 11.5499C8.23361 11.5296 7.75964 11.133 7.46565 10.9285C7.36307 10.8572 7.35304 10.8564 7.35304 10.9207ZM3.52226 11.6034C3.50478 11.626 3.52522 11.6445 3.56764 11.6445C3.61006 11.6445 3.65904 11.626 3.67652 11.6034C3.694 11.5807 3.67356 11.5622 3.63114 11.5622C3.58872 11.5622 3.53974 11.5807 3.52226 11.6034ZM8.19594 11.7974C8.2777 11.8696 8.37025 11.9248 8.40162 11.9202C8.43299 11.9156 8.45227 11.9363 8.44443 11.9664C8.43671 11.9963 8.45188 12.0102 8.47824 11.9971C8.50446 11.9842 8.51371 11.9357 8.49868 11.8897C8.48351 11.8435 8.45895 11.8156 8.44391 11.8276C8.42887 11.8396 8.38555 11.8289 8.34763 11.8037C8.30971 11.7785 8.2786 11.7722 8.2786 11.7898C8.2786 11.8074 8.22654 11.7868 8.1629 11.744C8.09631 11.6993 8.1102 11.7219 8.19594 11.7974ZM3.80507 11.7993C3.80507 11.8424 3.83978 11.8776 3.8822 11.8776C3.92462 11.8776 3.95933 11.8701 3.95933 11.861C3.95933 11.8518 3.92462 11.8165 3.8822 11.7826C3.81368 11.7278 3.80507 11.7296 3.80507 11.7993ZM4.04173 11.9257C4.01191 11.9642 4.31168 12.199 4.35076 12.1677C4.36336 12.1577 4.30539 12.0908 4.22183 12.0193C4.13827 11.9478 4.05716 11.9056 4.04173 11.9257ZM8.56141 12.0558C8.54393 12.0785 8.56706 12.097 8.61283 12.097C8.66258 12.097 8.68134 12.116 8.65936 12.1445C8.63712 12.1732 8.64522 12.1808 8.6798 12.1637C8.74138 12.1333 8.70667 12.0147 8.63609 12.0147C8.61244 12.0147 8.57889 12.0332 8.56141 12.0558ZM8.99848 12.1666C8.99848 12.1891 9.04475 12.2412 9.10132 12.2821C9.15788 12.323 9.20416 12.3473 9.20416 12.3359C9.20416 12.3246 9.15788 12.2725 9.10132 12.2204C9.04475 12.1683 8.99848 12.144 8.99848 12.1666ZM4.37069 12.3483C4.30513 12.386 4.30693 12.3893 4.38187 12.37C4.47044 12.3473 4.55979 12.4039 4.48664 12.4364C4.4653 12.4459 4.47764 12.4478 4.51402 12.4406C4.5504 12.4334 4.59282 12.4537 4.60825 12.4858C4.62432 12.5193 4.67111 12.5336 4.71764 12.5193C4.77575 12.5015 4.78693 12.5099 4.75685 12.5489C4.7269 12.5876 4.73436 12.5936 4.78282 12.5696C4.83218 12.5453 4.84195 12.5547 4.8183 12.604C4.79825 12.6458 4.80969 12.6682 4.84812 12.6621C4.88245 12.6567 4.9043 12.6831 4.89646 12.7207C4.88592 12.7724 4.9097 12.7834 4.99454 12.7656C5.07823 12.7482 5.09609 12.7559 5.06499 12.7962C5.03902 12.8298 5.04339 12.8402 5.07681 12.8237C5.10625 12.8092 5.14237 12.834 5.15703 12.879C5.17168 12.924 5.16217 12.9608 5.13569 12.9608C5.10934 12.9608 5.16346 13.0222 5.25627 13.0973C5.39343 13.2083 5.43482 13.223 5.47827 13.1765C5.52172 13.1301 5.54525 13.1393 5.60271 13.2251C5.67791 13.3375 5.7328 13.3571 5.78473 13.2899C5.80222 13.2673 5.77664 13.2488 5.72779 13.2488C5.67894 13.2488 5.65284 13.2378 5.66955 13.2243C5.70593 13.1952 5.35512 12.9411 5.27478 12.9384C5.24418 12.9374 5.22503 12.9139 5.23223 12.8863C5.2474 12.8284 4.59128 12.3024 4.50502 12.3033C4.47353 12.3036 4.41311 12.3239 4.37069 12.3483ZM9.48735 12.621C9.50805 12.6609 9.52604 12.7158 9.52733 12.743C9.52874 12.7704 9.54713 12.7842 9.56834 12.7737C9.58942 12.7632 9.65742 12.8203 9.71926 12.9004C9.80217 13.0076 9.8487 13.035 9.8955 13.0038C9.93059 12.9806 9.97443 12.9737 9.99306 12.9886C10.0117 13.0035 10.0269 12.9921 10.0269 12.9633C10.0269 12.9345 9.99461 12.9208 9.95527 12.9329C9.91581 12.945 9.82904 12.9059 9.76245 12.846C9.69573 12.7861 9.68172 12.7619 9.73121 12.7923C9.83791 12.8578 9.85179 12.8149 9.75024 12.7336C9.71116 12.7024 9.66488 12.6883 9.6474 12.7023C9.62978 12.7163 9.61552 12.6989 9.61552 12.6635C9.61552 12.6283 9.57824 12.5879 9.5326 12.574C9.46897 12.5544 9.45856 12.5653 9.48735 12.621ZM5.31669 13.0089C5.30203 13.0277 5.32491 13.0431 5.36733 13.0431C5.4595 13.0431 5.52211 13.1106 5.45886 13.1418C5.43418 13.154 5.36399 13.1214 5.3028 13.0692C5.21989 12.9987 5.21089 12.9745 5.26732 12.9745C5.3091 12.9745 5.33121 12.9899 5.31669 13.0089ZM10.094 13.164C10.1863 13.2574 10.4304 13.4193 10.4575 13.4052C10.4706 13.3983 10.5411 13.4376 10.6141 13.4925C10.687 13.5473 10.7468 13.5789 10.7468 13.5627C10.7468 13.5157 10.5003 13.3311 10.4376 13.3311C10.4064 13.3311 10.3975 13.3094 10.4179 13.2829C10.4434 13.2499 10.4264 13.2436 10.3638 13.2629C10.294 13.2843 10.28 13.2752 10.3045 13.2241C10.3272 13.1769 10.3146 13.1642 10.2615 13.1804C10.2155 13.1946 10.1958 13.1838 10.2107 13.1526C10.225 13.1229 10.1931 13.1018 10.1338 13.1018C10.0507 13.1018 10.0436 13.1129 10.094 13.164ZM5.91328 13.4837C5.91328 13.528 5.94799 13.5642 5.99041 13.5642C6.03284 13.5642 6.06754 13.551 6.06754 13.5349C6.06754 13.5188 6.03284 13.4826 5.99041 13.4545C5.92627 13.4119 5.91328 13.4168 5.91328 13.4837ZM6.1538 13.6049C6.13722 13.6182 6.19301 13.6845 6.27785 13.7524C6.47877 13.9132 6.52711 13.8747 6.33287 13.7084C6.25099 13.6381 6.17038 13.5917 6.1538 13.6049ZM10.82 13.771C10.8276 13.8118 10.8507 13.8422 10.8716 13.8384C10.9497 13.8243 10.9527 13.7938 10.8807 13.746C10.8203 13.7059 10.809 13.7105 10.82 13.771ZM6.4789 14.0349C6.41334 14.0725 6.41514 14.0758 6.49009 14.0566C6.57866 14.0339 6.668 14.0904 6.59485 14.1229C6.57352 14.1325 6.58418 14.1349 6.61864 14.1283C6.70476 14.1117 6.75207 14.1829 6.67199 14.2087C6.61774 14.2263 6.7657 14.2439 6.87162 14.2326C6.88975 14.2306 6.92407 14.2537 6.94798 14.284C6.97189 14.3142 6.99194 14.3187 6.99233 14.2941C6.99323 14.2448 6.65977 13.9888 6.59601 13.9899C6.57403 13.9902 6.52133 14.0104 6.4789 14.0349ZM11.6606 14.4396C11.6411 14.495 11.6466 14.5609 11.6728 14.5862C11.6989 14.6114 11.7088 14.6833 11.6945 14.7458C11.6775 14.8214 11.6876 14.8504 11.7246 14.832C11.7555 14.8169 11.7712 14.783 11.7596 14.7567C11.748 14.7306 11.7578 14.6675 11.7813 14.6166C11.8057 14.5635 11.8042 14.524 11.7775 14.524C11.7519 14.524 11.723 14.4824 11.7134 14.4314C11.6961 14.3398 11.6956 14.3399 11.6606 14.4396ZM7.33042 14.6846C7.31152 14.709 7.35137 14.7732 7.41886 14.8273L7.54175 14.9255L7.60988 14.8379C7.67184 14.7582 7.6703 14.7554 7.59266 14.8067C7.54574 14.8378 7.50447 14.8516 7.50087 14.8376C7.4974 14.8235 7.49162 14.7944 7.48802 14.7729C7.47568 14.6979 7.36705 14.6371 7.33042 14.6846ZM7.7644 14.9303C7.7644 14.9957 7.95864 15.1069 7.99373 15.0614C8.01237 15.0374 7.99013 15.0176 7.94437 15.0176C7.89861 15.0176 7.87392 15.0011 7.88961 14.9808C7.90529 14.9606 7.88344 14.9334 7.84127 14.9203C7.79898 14.9074 7.7644 14.9119 7.7644 14.9303ZM8.0215 15.1616C8.0215 15.2005 8.21857 15.3398 8.2444 15.3193C8.27551 15.2944 8.11817 15.141 8.06148 15.141C8.0395 15.141 8.0215 15.1503 8.0215 15.1616ZM11.7686 15.2107C11.7284 15.2503 11.7241 15.2677 11.7587 15.2511C11.8514 15.2067 11.896 15.3003 11.8181 15.3758C11.76 15.4322 11.7613 15.4393 11.8266 15.4222C11.9104 15.4003 11.9667 15.141 11.8875 15.141C11.8609 15.141 11.8074 15.1724 11.7686 15.2107ZM8.30174 15.4763C8.20365 15.5092 8.20365 15.5098 8.30431 15.5058C8.49135 15.4985 8.5357 15.5106 8.5357 15.5696C8.5357 15.6016 8.50678 15.6371 8.47142 15.6486C8.42502 15.6636 8.42425 15.6703 8.46834 15.6725C8.55498 15.6771 8.59895 15.6059 8.56398 15.5177C8.53159 15.436 8.45715 15.4243 8.30174 15.4763ZM8.58236 15.7247C8.52477 15.7575 8.52799 15.7613 8.5983 15.7432C8.68687 15.7204 8.77621 15.777 8.70307 15.8095C8.68173 15.8191 8.6924 15.8214 8.72685 15.8148C8.81272 15.7984 8.86054 15.8697 8.7802 15.8943C8.74472 15.9052 8.76657 15.9122 8.82879 15.9099C8.90682 15.9068 8.92687 15.891 8.89345 15.8589C8.86684 15.8332 8.85656 15.803 8.87057 15.7918C8.92636 15.7472 8.65435 15.6837 8.58236 15.7247ZM11.3715 16.0298C11.2778 16.1145 11.3381 16.1547 11.4385 16.0744C11.4822 16.0394 11.5181 16.0002 11.5181 15.9873C11.5181 15.9441 11.4417 15.9662 11.3715 16.0298ZM9.51422 16.1974C9.51332 16.2241 9.46061 16.254 9.39698 16.2638L9.28129 16.2816L9.39698 16.2873C9.46061 16.2903 9.51267 16.3109 9.51267 16.333C9.51267 16.3573 9.55818 16.3596 9.62837 16.3389C9.692 16.3201 9.77093 16.3123 9.80358 16.3215C9.83636 16.3308 9.87866 16.3184 9.89755 16.2939C9.92044 16.2642 9.88033 16.2567 9.77633 16.2714C9.66244 16.2874 9.6069 16.274 9.56834 16.2211C9.53941 16.1814 9.51512 16.1707 9.51422 16.1974ZM10.3697 16.3237C10.3475 16.352 10.348 16.3754 10.3709 16.3757C10.3938 16.376 10.3778 16.3943 10.3354 16.4163C10.2781 16.4459 10.3076 16.4563 10.4511 16.4568C10.5778 16.4572 10.6439 16.4386 10.6439 16.4026C10.6439 16.3723 10.6102 16.3477 10.5691 16.3477C10.5278 16.3477 10.5061 16.3631 10.5206 16.382C10.5353 16.4008 10.5244 16.4163 10.4965 16.4163C10.4686 16.4163 10.4377 16.3839 10.4279 16.3443C10.4148 16.2916 10.3993 16.2861 10.3697 16.3237Z" fill="white"/>
<path fill-rule="evenodd" clip-rule="evenodd" d="M9.85864 0.0599313C9.80966 0.0897548 9.77495 0.121841 9.78151 0.131302C9.78819 0.140763 9.77161 0.134284 9.74474 0.117007C9.66144 0.0632222 9.60102 0.0822472 9.63445 0.151767C9.65746 0.19969 9.64421 0.211208 9.58637 0.19352C9.53469 0.177682 9.51194 0.189509 9.52158 0.227354C9.52981 0.25944 9.51335 0.286899 9.48507 0.288441C9.45679 0.289881 9.43365 0.274146 9.43365 0.253372C9.43365 0.232702 9.4163 0.20185 9.39509 0.184881C9.37388 0.167913 9.35652 0.194137 9.35652 0.243089C9.35652 0.292143 9.33415 0.33225 9.30677 0.33225C9.27926 0.33225 9.26949 0.364645 9.28492 0.404239C9.31153 0.472833 9.31012 0.472833 9.25497 0.404239C9.18272 0.314254 9.048 0.310037 9.048 0.397759C9.048 0.433856 9.00108 0.473141 8.94375 0.485173C8.8715 0.50029 8.84837 0.5296 8.86868 0.580711C8.88474 0.62123 8.87407 0.666171 8.84502 0.680569C8.81353 0.696097 8.80453 0.680877 8.82266 0.64293C8.83949 0.607758 8.83757 0.579066 8.81841 0.579066C8.75259 0.579066 8.63484 0.698051 8.6486 0.750705C8.65618 0.779706 8.60836 0.809941 8.54242 0.817962C8.43457 0.831023 8.43122 0.837502 8.50861 0.882751C8.58831 0.92944 8.58767 0.93736 8.49987 0.992585C8.4131 1.04719 8.41117 1.04616 8.47583 0.980141C8.62366 0.829275 8.37106 0.905273 8.16782 1.0727C7.9741 1.23251 7.92718 1.28928 8.00675 1.26809C8.02796 1.26244 8.0511 1.27169 8.05817 1.28866C8.08671 1.35725 8.0673 1.36826 7.99827 1.32239C7.92345 1.27282 7.55683 1.51264 7.55683 1.61127C7.55683 1.63451 7.53369 1.64202 7.50541 1.62803C7.47687 1.61394 7.4536 1.6449 7.45322 1.69755C7.45257 1.77612 7.44293 1.78188 7.39742 1.73087C7.35565 1.68398 7.34948 1.70177 7.37171 1.80492C7.38817 1.88102 7.38071 1.93059 7.35475 1.91773C7.32929 1.90518 7.29484 1.91814 7.27813 1.94663C7.26142 1.97501 7.2609 1.94416 7.27697 1.87793C7.30294 1.77098 7.29703 1.76378 7.2235 1.81253C7.17799 1.84276 7.15228 1.8913 7.16616 1.92051C7.1821 1.95372 7.16385 1.96493 7.11719 1.95064C7.07039 1.93624 7.04263 1.95331 7.04263 1.9963C7.04263 2.03754 7.01705 2.05451 6.97835 2.03877C6.943 2.02448 6.96036 2.04289 7.01692 2.07981C7.11706 2.14511 7.11603 2.14634 6.97835 2.1267C6.85482 2.10912 6.84325 2.1159 6.8867 2.1809C6.92423 2.23694 6.91163 2.27335 6.83528 2.32858C6.74375 2.3948 6.73411 2.39532 6.73411 2.33372C6.73411 2.24198 6.70249 2.24764 6.53961 2.36848C6.39487 2.47584 6.41338 2.50145 6.58319 2.42874C6.65184 2.39933 6.68269 2.39933 6.68269 2.42874C6.68269 2.45219 6.65814 2.47132 6.62818 2.47132C6.59823 2.47132 6.58962 2.49178 6.6089 2.51687C6.63333 2.54845 6.5909 2.55462 6.47058 2.53724C6.31992 2.51533 6.31324 2.5176 6.42019 2.55431C6.48794 2.57745 6.53421 2.60069 6.52303 2.60593C6.51184 2.61108 6.4378 2.66116 6.35849 2.71721C6.25295 2.79166 6.22338 2.79999 6.24832 2.74806C6.31606 2.60655 6.16939 2.68327 5.76163 3.00259C5.53294 3.18163 5.34577 3.36098 5.34577 3.40109C5.34577 3.46537 5.35824 3.46341 5.45067 3.38402C5.60313 3.2531 5.64336 3.27357 5.49618 3.40716C5.42753 3.46938 5.36621 3.52758 5.35978 3.53653C5.35323 3.54548 5.32418 3.50846 5.29525 3.45426C5.24936 3.3687 5.24653 3.37404 5.27391 3.49457C5.29422 3.58435 5.28677 3.62425 5.25283 3.60749C5.22391 3.5932 5.18663 3.60471 5.16992 3.6332C5.1532 3.66158 5.15218 3.63227 5.1676 3.56821L5.19575 3.45148L5.06502 3.55597C4.99316 3.61345 4.93441 3.68092 4.93441 3.70591C4.93441 3.7309 4.91127 3.73995 4.88299 3.72596C4.85471 3.71198 4.83157 3.71701 4.83157 3.73727C4.83157 3.80834 4.90009 3.82757 4.98108 3.77913C5.02607 3.75219 4.95987 3.81708 4.83376 3.92341C4.61934 4.10421 4.48732 4.18864 4.62204 4.05875C4.75933 3.9264 4.56573 3.95643 4.3936 4.09413C4.29321 4.17445 4.23035 4.24016 4.254 4.24016C4.27752 4.24016 4.32457 4.21795 4.35851 4.1908C4.40646 4.15244 4.43397 4.15244 4.48192 4.1908C4.52987 4.22916 4.52357 4.24016 4.45312 4.24016C4.40337 4.24016 4.37227 4.25404 4.38384 4.27101C4.3954 4.28798 4.32727 4.35462 4.23253 4.419C4.13779 4.48348 4.06028 4.51587 4.06028 4.49099C4.06028 4.4662 4.08341 4.44584 4.1117 4.44584C4.13998 4.44584 4.16311 4.42733 4.16311 4.4047C4.16311 4.31318 4.04716 4.37899 3.652 4.69512C3.25684 5.01125 3.17457 5.10401 3.28898 5.10401C3.31726 5.10401 3.3404 5.0855 3.3404 5.06288C3.3404 5.04025 3.36585 5.02174 3.39683 5.02174C3.42794 5.02174 3.38745 5.08375 3.30685 5.15955C3.22637 5.23534 3.14307 5.28985 3.12186 5.28059C3.10065 5.27133 3.0833 5.29622 3.0833 5.33602C3.0833 5.39238 3.06954 5.39742 3.02159 5.35906C2.97365 5.3207 2.97365 5.29869 3.02159 5.26033C3.05553 5.23318 3.0833 5.19554 3.0833 5.17672C3.0833 5.1578 3.00115 5.20809 2.90076 5.28841C2.72002 5.433 2.69559 5.57245 2.86939 5.46807C2.91631 5.43979 2.85165 5.50365 2.72554 5.60999C2.51331 5.78893 2.37872 5.87562 2.511 5.7481C2.56833 5.69277 2.54056 5.63878 2.45469 5.63878C2.42937 5.63878 2.42307 5.65729 2.44055 5.67992C2.45803 5.70254 2.44672 5.72105 2.41548 5.72105C2.38424 5.72105 2.29992 5.76805 2.22806 5.82554L2.09745 5.93013L2.24335 5.9076C2.32344 5.89526 2.36008 5.89609 2.3246 5.90946C2.28899 5.92282 2.27459 5.95265 2.29246 5.97579C2.31341 6.00294 2.26354 6.0089 2.15131 5.99265C2.00065 5.97075 1.99397 5.97301 2.10092 6.00972C2.16867 6.03286 2.21495 6.0561 2.20376 6.06135C2.19258 6.06649 2.11982 6.11555 2.04205 6.17046C1.87506 6.28821 1.84948 6.25602 2.01312 6.13406C2.11236 6.06011 2.11481 6.05014 2.03446 6.05014C1.98433 6.05014 1.76014 6.19987 1.53633 6.38283C1.13718 6.70903 1.04129 6.82637 1.21817 6.77218C1.28309 6.75223 1.27268 6.77588 1.17961 6.86031C1.10955 6.92376 1.04694 6.983 1.04052 6.99194C1.03396 7.00089 1.00491 6.96387 0.975983 6.90967C0.930091 6.82411 0.927263 6.82946 0.954644 6.94999C0.974955 7.03977 0.967499 7.07967 0.933562 7.0629C0.904638 7.04861 0.867359 7.06013 0.850648 7.08861C0.833936 7.117 0.833422 7.08615 0.84949 7.01992C0.875072 6.91471 0.868773 6.90628 0.798842 6.95266C0.750122 6.98506 0.730068 7.0411 0.747551 7.09653C0.765805 7.15505 0.743823 7.20842 0.685719 7.24616C0.636099 7.27835 0.611288 7.2836 0.630699 7.25768C0.65011 7.23177 0.632628 7.2003 0.591749 7.18775C0.539558 7.17181 0.527088 7.18487 0.549584 7.23177C0.574651 7.28391 0.560383 7.29203 0.484281 7.26858C0.430676 7.25213 0.402781 7.25141 0.422192 7.26694C0.441474 7.28247 0.400339 7.33101 0.330536 7.37492C0.260862 7.41883 0.203786 7.48116 0.203786 7.51345C0.203786 7.54574 0.180647 7.57217 0.152366 7.57217C0.124085 7.57217 0.100946 7.6277 0.100946 7.69558C0.100946 7.76345 0.0778069 7.81898 0.049526 7.81898C-0.0285037 7.81898 -0.012049 7.93293 0.0828207 8.04873C0.140154 8.11866 0.146709 8.14817 0.103131 8.13984C0.0110896 8.12215 -0.0261898 8.54822 0.0601956 8.63142C0.096061 8.66597 0.1183 8.73796 0.109559 8.79143C0.100689 8.84481 0.118429 8.88852 0.148638 8.88852C0.178976 8.88852 0.203786 8.91628 0.203786 8.95022C0.203786 8.98416 0.23271 9.0073 0.268061 9.00164C0.303412 8.99598 0.326294 9.01511 0.318838 9.04422C0.296341 9.13276 0.558069 9.31849 0.595477 9.24043C0.640855 9.14582 0.697803 9.16166 0.825067 9.30461L0.939089 9.43274L0.828538 9.40467C0.657824 9.36127 0.697417 9.4421 0.910809 9.5723C1.09168 9.68264 1.17498 9.69745 1.13976 9.61292C1.1314 9.59287 1.20313 9.62989 1.29929 9.69519C1.39531 9.7606 1.46216 9.83104 1.44763 9.85171C1.43323 9.87238 1.36845 9.84009 1.30391 9.78003C1.23385 9.71483 1.17292 9.68809 1.15312 9.7137C1.11546 9.76245 1.80873 10.3283 1.90604 10.3283C1.94075 10.3283 1.95489 10.3397 1.93741 10.3538C1.88997 10.3917 2.0459 10.5022 2.10529 10.4728C2.13563 10.4577 2.14321 10.4753 2.12368 10.516C2.09732 10.571 2.11236 10.5791 2.19952 10.557C2.27973 10.5366 2.35969 10.5651 2.50302 10.6651C2.84381 10.9028 3.13395 11.1597 3.10464 11.1978C3.06222 11.2526 2.97313 11.1944 3.01285 11.1378C3.03715 11.1033 3.02751 11.1037 2.97917 11.1396C2.92377 11.1806 2.93418 11.2041 3.03586 11.2681C3.16338 11.3483 3.27522 11.3649 3.24797 11.2995C3.23961 11.2794 3.31135 11.3165 3.4075 11.3818C3.50353 11.4472 3.57114 11.5166 3.55765 11.5359C3.54415 11.5554 3.48193 11.5199 3.41933 11.4571C3.33898 11.3764 3.29425 11.3578 3.26674 11.3934C3.21108 11.4654 4.2234 12.2602 4.35041 12.2443C4.40299 12.2377 4.417 12.2403 4.38165 12.25C4.26583 12.2818 4.31442 12.3461 4.43577 12.3217C4.56843 12.2951 5.27648 12.8019 5.21607 12.8802C5.17159 12.9378 5.07955 12.8837 5.12107 12.8244C5.14678 12.7878 5.13945 12.7874 5.09124 12.8231C5.02221 12.874 5.38035 13.1798 5.46172 13.1396C5.52111 13.1102 5.45414 13.0432 5.36544 13.0432C5.32019 13.0432 5.30348 13.0236 5.32495 12.9957C5.34924 12.9644 5.33883 12.9595 5.29435 12.9815C5.24897 13.004 5.23946 12.9988 5.26504 12.9657C5.30656 12.9118 5.70584 13.1615 5.66856 13.2181C5.65738 13.235 5.68566 13.2489 5.73142 13.2489C5.77718 13.2489 5.80032 13.2674 5.78284 13.2901C5.73116 13.3569 5.67615 13.3378 5.60236 13.2275C5.55621 13.1586 5.51571 13.1376 5.48178 13.1648C5.41827 13.2156 6.34486 13.9676 6.42315 13.9289C6.45516 13.9131 6.46287 13.9297 6.44294 13.9714C6.41659 14.0264 6.43163 14.0345 6.51879 14.0124C6.63191 13.9837 6.99211 14.199 6.99044 14.2942C6.98992 14.3232 6.9763 14.3245 6.95187 14.2979C6.93105 14.2753 6.87127 14.2509 6.81882 14.2437C6.73617 14.2324 6.73951 14.2437 6.84453 14.33C6.92423 14.3954 6.97835 14.4139 7.00329 14.3842C7.02656 14.3563 7.04134 14.3666 7.04186 14.4107C7.04288 14.5068 7.25332 14.696 7.33225 14.6717C7.36683 14.6611 7.4257 14.6837 7.46311 14.722C7.52546 14.7858 7.52263 14.7865 7.42828 14.7305C7.32647 14.6702 7.32647 14.6705 7.42326 14.7612C7.50438 14.8373 7.53497 14.8442 7.60323 14.8017C7.67612 14.7561 7.67741 14.7585 7.61429 14.8229C7.51119 14.928 8.20279 15.4826 8.40114 15.4538C8.54396 15.4331 8.61389 15.5272 8.5518 15.6567C8.52519 15.712 8.5356 15.7253 8.59178 15.7081C8.63343 15.6953 8.72419 15.71 8.79347 15.7406C8.86276 15.7713 8.89927 15.7971 8.87459 15.7979C8.84991 15.7987 8.86148 15.8307 8.9003 15.869C8.94825 15.9163 8.9503 15.9286 8.9066 15.9076C8.87125 15.8907 8.84232 15.8963 8.84232 15.9203C8.84232 15.9442 8.88089 15.9639 8.92807 15.9639C8.97512 15.9639 8.99941 15.9753 8.98193 15.9894C8.94182 16.0214 9.07191 16.1284 9.15084 16.1284C9.18311 16.1284 9.2443 16.1562 9.28672 16.1901C9.38043 16.2651 9.51014 16.271 9.51232 16.2004C9.51323 16.1719 9.53739 16.1813 9.56644 16.2212C9.60501 16.2742 9.66054 16.2875 9.77444 16.2715C9.87972 16.2567 9.91867 16.2642 9.89515 16.2946C9.87599 16.3194 9.8337 16.3317 9.8013 16.3221C9.76878 16.3123 9.69589 16.319 9.63933 16.3369C9.555 16.3636 9.56606 16.37 9.70052 16.3724C9.79076 16.3739 9.87895 16.3938 9.89643 16.4164C9.93152 16.4618 10.1764 16.4716 10.3033 16.4326C10.3479 16.419 10.3726 16.3924 10.3581 16.3738C10.3437 16.3551 10.3554 16.3281 10.384 16.314C10.4128 16.2998 10.4363 16.3169 10.4363 16.3522C10.4363 16.4211 10.5154 16.4393 10.5606 16.3808C10.5758 16.3612 10.6456 16.354 10.7159 16.3647C10.8505 16.3852 11.0245 16.2876 10.961 16.2273C10.941 16.2083 10.9698 16.22 11.0247 16.2532C11.0872 16.2909 11.1101 16.2943 11.0859 16.2621C11.064 16.2329 11.0728 16.2107 11.1062 16.2107C11.1911 16.2107 11.7258 15.7554 11.6921 15.7119C11.6766 15.6918 11.7001 15.6642 11.7443 15.6506C11.7886 15.6371 11.8247 15.6084 11.8247 15.5869C11.8247 15.5653 11.7958 15.5616 11.7604 15.5785C11.7179 15.599 11.7203 15.5855 11.7677 15.5389C11.8071 15.5001 11.8247 15.4566 11.8067 15.4422C11.7888 15.4279 11.7991 15.3921 11.8296 15.3627C11.8963 15.2984 11.8423 15.2121 11.7568 15.2465C11.7235 15.2598 11.7482 15.234 11.8118 15.1891C11.9321 15.1041 11.9725 14.8803 11.8761 14.8327C11.8478 14.8187 11.823 14.7481 11.8211 14.6759C11.8181 14.5684 11.8101 14.5595 11.7767 14.627C11.7544 14.6722 11.746 14.7305 11.7582 14.7566C11.7703 14.7825 11.7549 14.8163 11.7239 14.8316C11.6858 14.8504 11.6765 14.8193 11.6948 14.7355C11.7099 14.6673 11.6981 14.5995 11.6685 14.5849C11.6389 14.5703 11.6281 14.5249 11.6443 14.4838C11.6606 14.4429 11.6384 14.381 11.5951 14.3463C11.5516 14.3116 11.5162 14.2641 11.5162 14.2406C11.5162 14.1935 10.937 13.7096 10.6191 13.4912C10.5076 13.4145 10.4362 13.3795 10.4608 13.4135C10.4901 13.454 10.4682 13.4491 10.3973 13.3993C10.3352 13.3558 10.3006 13.2945 10.3161 13.2553C10.3344 13.2094 10.3286 13.2033 10.2984 13.2365C10.2498 13.29 10.1931 13.2688 10.0819 13.1554C10.0182 13.0904 10.021 13.0854 10.1076 13.1095C10.1612 13.1243 10.0893 13.0528 9.94785 12.9505C9.80323 12.8459 9.6518 12.7704 9.6018 12.7779C9.55295 12.7853 9.51515 12.7786 9.51798 12.763C9.53302 12.678 9.49368 12.6193 9.33223 12.4863C9.23389 12.4053 9.10649 12.2912 9.0489 12.2327C8.94516 12.1272 8.94311 12.1269 8.82895 12.2042L8.71377 12.2822L8.80954 12.1915C8.90968 12.0969 8.40538 11.6015 8.27465 11.6662C8.24817 11.6793 8.2402 11.6613 8.25704 11.6262C8.27388 11.591 8.26089 11.5623 8.22811 11.5623C8.19533 11.5623 7.99891 11.4218 7.79156 11.2499C7.5657 11.0627 7.40077 10.9555 7.37994 10.9825C7.33546 11.04 7.24831 11.0411 7.24831 10.984C7.24831 10.96 7.27145 10.9519 7.29973 10.9659C7.37724 11.0042 7.36143 10.88 7.28212 10.8273C7.24419 10.8021 7.19419 10.7952 7.17105 10.8119C7.14791 10.8288 7.14431 10.821 7.16308 10.7948C7.18326 10.7666 6.86664 10.4848 6.38895 10.1057L5.58089 9.46442H16.4928C23.7333 9.46442 27.4049 9.4783 27.4049 9.50555C27.4049 9.58628 27.6462 9.54484 27.765 9.44375C27.8855 9.34111 28.0137 9.32466 28.0854 9.40271C28.1073 9.42647 28.1235 9.41619 28.124 9.37824C28.1244 9.34214 28.171 9.2791 28.2276 9.23817C28.2842 9.19724 28.3305 9.18315 28.3305 9.2068C28.3305 9.23056 28.2943 9.261 28.2501 9.27458C28.2059 9.28815 28.1842 9.31808 28.2019 9.34101C28.2391 9.38914 28.3819 9.29165 28.3819 9.21812C28.3819 9.19251 28.3992 9.18007 28.4204 9.19025C28.4707 9.21462 28.5909 9.11065 28.5501 9.07805C28.533 9.06427 28.5477 9.05306 28.5827 9.05306C28.6787 9.05306 28.8039 8.93983 28.7418 8.90909C28.7131 8.89489 28.6757 8.91227 28.6588 8.94765C28.6418 8.98303 28.6037 9.01192 28.5741 9.01192C28.5445 9.01192 28.5621 8.9749 28.6133 8.92965C28.6644 8.8844 28.7432 8.84707 28.7883 8.84676C28.8358 8.84635 28.8486 8.83339 28.8189 8.81591C28.7454 8.77272 28.7566 8.65394 28.8399 8.59182C28.8935 8.55202 28.9021 8.55161 28.8749 8.59028C28.8534 8.62072 28.8679 8.6417 28.9105 8.6417C28.9601 8.6417 28.985 8.5839 28.9911 8.45392C28.9967 8.33627 28.9805 8.27569 28.948 8.29174C28.9193 8.30603 28.8961 8.27857 28.8961 8.23034C28.8961 8.18016 28.919 8.15455 28.9498 8.16977C28.9844 8.18694 28.9993 8.13861 28.9916 8.03412C28.983 7.91617 28.9576 7.87308 28.8993 7.87627C28.8551 7.87873 28.8247 7.85755 28.8318 7.82927C28.8389 7.80099 28.8249 7.77785 28.8008 7.77785C28.7766 7.77785 28.7607 7.71645 28.7653 7.64148C28.7701 7.56651 28.7435 7.48249 28.7065 7.45483C28.6629 7.42223 28.639 7.42007 28.639 7.44876C28.639 7.47632 28.612 7.47303 28.5675 7.44012C28.5221 7.40639 28.5152 7.37749 28.5485 7.36083C28.6243 7.32268 28.5465 7.24308 28.4333 7.24308C28.3801 7.24308 28.32 7.22169 28.2999 7.19557C28.2771 7.16616 28.2857 7.15927 28.3225 7.17747C28.4091 7.22025 28.3951 7.17963 28.3018 7.11772C28.2365 7.07432 28.2247 7.07432 28.2375 7.11782C28.2463 7.14713 28.2262 7.17911 28.193 7.18888C28.1545 7.2003 28.1428 7.17634 28.1605 7.12204C28.1759 7.07504 28.1626 7.03514 28.1308 7.03226C28.0236 7.0227 27.9963 7.0156 27.924 6.97899C27.8759 6.95462 27.8633 6.95739 27.8863 6.98711C27.9052 7.01159 27.8972 7.04336 27.8686 7.05756C27.8234 7.07987 27.7963 7.03298 27.8073 6.95174C27.8124 6.91358 27.4337 6.92263 27.4018 6.9614C27.386 6.98074 22.4753 6.99174 16.4892 6.98608L5.60544 6.9757L5.78721 6.82154C5.88722 6.7368 5.95664 6.65134 5.94147 6.6316C5.9263 6.61195 5.96358 6.56105 6.02426 6.51837C6.08506 6.47579 6.11784 6.46407 6.09715 6.49235C6.04045 6.57 6.10126 6.55426 6.24523 6.45409C6.40476 6.34313 6.40836 6.2984 6.25847 6.29222C6.17042 6.28852 6.16438 6.28287 6.23341 6.26847C6.28328 6.25808 6.31041 6.23206 6.29383 6.21057C6.27724 6.18908 6.29434 6.17663 6.33175 6.1828C6.36928 6.18908 6.39358 6.16964 6.38574 6.13961C6.37803 6.10968 6.39371 6.09611 6.4207 6.10948C6.44783 6.12285 6.48447 6.11493 6.50221 6.092C6.55118 6.02854 6.63127 6.04191 6.63127 6.11349C6.63127 6.16522 6.64412 6.16717 6.70159 6.12429C6.76072 6.08007 6.75879 6.06351 6.68873 6.01918C6.6179 5.97445 6.62857 5.97064 6.75982 5.99399C6.91151 6.02083 6.91254 6.0199 6.82191 5.93794C6.73719 5.86153 6.73668 5.85248 6.81471 5.82852C6.87628 5.8096 6.89158 5.81957 6.86998 5.86451C6.85135 5.90328 6.86973 5.92673 6.91871 5.92673C6.9619 5.92673 6.98247 5.9075 6.96421 5.88395C6.92822 5.83737 7.19187 5.65184 7.26643 5.67128C7.29176 5.67786 7.29818 5.65379 7.28096 5.6178C7.26232 5.57893 7.27067 5.56278 7.30165 5.578C7.35616 5.60495 8.03207 5.05918 7.98798 5.0238C7.97397 5.01269 7.94106 5.03079 7.91471 5.06411C7.8791 5.10916 7.86689 5.09322 7.86689 5.00117C7.86689 4.90646 7.87859 4.89216 7.91677 4.93947C7.95649 4.98863 7.96754 4.9803 7.9714 4.89834C7.9741 4.84177 7.98798 4.81874 8.00238 4.84712C8.01665 4.87561 8.05534 4.88589 8.08825 4.87016C8.12849 4.85082 8.1272 4.86214 8.08426 4.90451C8.04917 4.93916 8.03555 4.97958 8.05393 4.99428C8.10406 5.03439 8.22927 4.93669 8.19109 4.88733C8.17284 4.86378 8.18055 4.85566 8.20819 4.86933C8.26513 4.89741 8.43868 4.75374 8.3924 4.71672C8.37595 4.70345 8.39883 4.69266 8.4433 4.69266C8.50128 4.69266 8.51619 4.66653 8.49562 4.6001C8.48007 4.54919 8.48611 4.52143 8.50912 4.5385C8.53226 4.55547 8.59358 4.5387 8.64539 4.50127C8.69706 4.46373 8.73948 4.44543 8.73948 4.46055C8.73948 4.47556 8.98411 4.2922 9.28312 4.05299C9.68085 3.73481 9.81274 3.60461 9.77457 3.56779C9.74294 3.53735 9.74037 3.49416 9.76814 3.45817C9.8049 3.41065 9.82303 3.41847 9.85941 3.49704C9.89656 3.57726 9.9107 3.58301 9.93692 3.5282C9.95466 3.49138 9.94695 3.45025 9.91995 3.43688C9.89283 3.42351 9.87111 3.3905 9.87149 3.36355C9.87201 3.33281 9.88628 3.32993 9.91006 3.35574C9.93088 3.37836 9.99413 3.40233 10.0507 3.40891C10.1354 3.41878 10.1399 3.41343 10.0764 3.37867C10.034 3.35543 10.0224 3.33589 10.0507 3.33517C10.0805 3.33445 10.0782 3.32118 10.0453 3.3037C10.0067 3.28313 10.0201 3.24724 10.0869 3.19171C10.1691 3.12342 10.1798 3.12178 10.1511 3.18143C10.113 3.26082 10.3002 3.28817 10.3592 3.21176C10.3767 3.18914 10.3704 3.17063 10.3451 3.17063C10.3199 3.17063 10.2992 3.14286 10.2992 3.10892C10.2992 3.05606 10.3753 3.02933 10.4934 3.04043C10.5426 3.04506 11.5162 2.26667 11.5162 2.22265C11.5162 2.20105 11.4916 2.18337 11.4617 2.18337C11.4317 2.18337 11.4218 2.16455 11.4395 2.14151C11.4573 2.11858 11.4935 2.11045 11.5201 2.12362C11.6069 2.1665 11.7259 2.02787 11.7001 1.91393C11.6822 1.83525 11.71 1.77982 11.8015 1.71205C11.9566 1.59708 11.9775 1.34687 11.8375 1.28167C11.7518 1.24177 11.7518 1.23971 11.8375 1.23847C11.887 1.23775 11.9275 1.21873 11.9275 1.1961C11.9275 1.17348 11.8959 1.15497 11.8572 1.15497C11.8074 1.15497 11.7902 1.10674 11.7985 0.990426C11.8108 0.816729 11.7852 0.793487 11.6744 0.877301C11.6185 0.919568 11.6162 0.913398 11.6619 0.842233C11.7119 0.764177 11.705 0.757596 11.5911 0.774975C11.5126 0.787008 11.4647 0.775284 11.4647 0.744021C11.4647 0.716357 11.4947 0.702885 11.5313 0.714095C11.5696 0.725921 11.601 0.702885 11.605 0.660104C11.6088 0.619174 11.5776 0.575158 11.5357 0.562303C11.4847 0.546671 11.4721 0.555722 11.4976 0.589864C11.5217 0.621848 11.5028 0.619276 11.4466 0.582768C11.3974 0.550888 11.3679 0.502451 11.3809 0.475301C11.3953 0.445375 11.3605 0.427686 11.2933 0.430462C11.2061 0.434062 11.1854 0.415037 11.198 0.342535C11.2153 0.243192 11.1598 0.222418 11.0696 0.294611C11.0296 0.326594 10.9905 0.312506 10.9307 0.244323C10.8751 0.180768 10.8467 0.169353 10.8445 0.209974C10.8427 0.243294 10.8197 0.22756 10.7933 0.175111C10.7585 0.105694 10.7186 0.0865664 10.6466 0.104769C10.5923 0.118652 10.533 0.110631 10.5148 0.0870809C10.4611 0.017767 10.3336 0.0381289 10.3327 0.116287C10.3321 0.176037 10.3239 0.178094 10.2847 0.128525C10.2587 0.0957195 10.2489 0.0540692 10.2628 0.0359694C10.3052 -0.0188441 9.95415 0.00192965 9.85864 0.0599313ZM8.23608 1.22037C8.20343 1.26706 8.17669 1.27416 8.15227 1.24248C8.13247 1.21698 8.14083 1.1961 8.17078 1.1961C8.20073 1.1961 8.22708 1.16371 8.2294 1.12412C8.23158 1.0838 8.24457 1.07403 8.25871 1.10201C8.27259 1.12946 8.26244 1.18274 8.23608 1.22037ZM10.9762 2.51245C10.9588 2.53508 10.9703 2.55359 11.002 2.55359C11.0336 2.55359 11.0439 2.57375 11.0248 2.59832C11.0018 2.62815 10.9732 2.62928 10.939 2.60192C10.8917 2.56408 10.9225 2.47132 10.9823 2.47132C10.9964 2.47132 10.9937 2.48983 10.9762 2.51245ZM5.89854 3.11232C5.84956 3.1516 5.75135 3.08805 5.78785 3.04084C5.80945 3.01266 5.83825 3.01339 5.87514 3.0429C5.90548 3.06717 5.91602 3.09843 5.89854 3.11232ZM4.76601 3.85863C4.78967 3.90799 4.7763 3.91868 4.71459 3.89976C4.65507 3.88146 4.63952 3.89174 4.6606 3.93555C4.68606 3.98851 4.70315 3.98738 4.78645 3.92701C4.90228 3.8432 4.90228 3.84351 4.80843 3.81471C4.75599 3.79867 4.74339 3.81163 4.76601 3.85863ZM8.90146 4.24016C8.82034 4.30803 8.73524 4.36357 8.7121 4.36357C8.68896 4.36357 8.72071 4.32058 8.78242 4.26793C8.84412 4.21538 8.87909 4.15984 8.85993 4.14452C8.84078 4.1293 8.87549 4.11675 8.93706 4.11675C9.04402 4.11675 9.04248 4.1222 8.90146 4.24016ZM7.74772 5.2158C7.70466 5.25015 7.64308 5.26516 7.61069 5.24912C7.57071 5.22948 7.58961 5.19379 7.66879 5.13877C7.80377 5.04519 7.8746 5.1143 7.74772 5.2158ZM2.6578 5.5452C2.68145 5.59456 2.66808 5.60525 2.60638 5.58633C2.54686 5.56803 2.53131 5.57831 2.55239 5.62212C2.57784 5.67508 2.59494 5.67395 2.67824 5.61358C2.79406 5.52977 2.79406 5.53008 2.70022 5.50128C2.64777 5.48524 2.63517 5.4982 2.6578 5.5452ZM6.42379 6.19586C6.37391 6.24389 6.37237 6.27083 6.41749 6.30693C6.46261 6.34303 6.47714 6.33007 6.47778 6.25376C6.47842 6.17355 6.48884 6.16563 6.52843 6.21468C6.57098 6.26744 6.57843 6.2659 6.57908 6.2044C6.57998 6.11544 6.51108 6.11164 6.42379 6.19586ZM1.68211 6.48546C1.63313 6.52475 1.53492 6.46119 1.57143 6.41399C1.59302 6.38581 1.62182 6.38653 1.65871 6.41604C1.68905 6.44031 1.69959 6.47158 1.68211 6.48546ZM5.71818 6.79809C5.70443 6.83995 5.67049 6.8854 5.64259 6.89918C5.61123 6.91471 5.60583 6.889 5.62858 6.83172C5.65596 6.76282 5.64864 6.74739 5.60043 6.77125C5.56212 6.79017 5.54849 6.78657 5.56701 6.76261C5.6237 6.68908 5.74453 6.71747 5.71818 6.79809ZM5.50003 7.01683C5.46481 7.05077 5.40323 7.07854 5.36313 7.07854C5.30322 7.07854 5.30207 7.06784 5.35657 7.01838C5.45015 6.93364 5.58796 6.93209 5.50003 7.01683ZM4.36622 7.89488C4.32522 7.90578 4.26416 7.94404 4.2306 7.97993C4.17918 8.03495 4.17134 8.03546 4.18073 7.98353C4.20039 7.87369 4.26724 7.82197 4.35504 7.84891C4.42497 7.8704 4.42703 7.87884 4.36622 7.89488ZM4.3427 8.5257C4.49053 8.62854 4.5021 8.66474 4.39708 8.69693C4.34733 8.71225 4.33216 8.70001 4.35131 8.66011C4.36738 8.62648 4.32689 8.56509 4.25863 8.51953C4.19191 8.4751 4.15463 8.43818 4.17558 8.43736C4.19654 8.43664 4.27174 8.47633 4.3427 8.5257ZM4.62589 8.74701C4.62589 8.78228 4.64955 8.79935 4.6786 8.78506C4.70752 8.77076 4.72488 8.78352 4.71716 8.81344C4.70932 8.84347 4.73195 8.86332 4.7673 8.85767C4.84096 8.84584 4.85458 8.9134 4.78555 8.94755C4.76023 8.96009 4.72642 8.94292 4.71035 8.9095C4.69428 8.87607 4.64736 8.8591 4.6061 8.87186C4.50981 8.90137 4.38949 8.74084 4.48487 8.70999C4.59697 8.67368 4.62589 8.68129 4.62589 8.74701ZM5.27995 9.32507C5.2455 9.35263 5.08867 9.22192 5.08867 9.16577C5.08867 9.14047 5.13726 9.16156 5.19665 9.21256C5.25604 9.26357 5.29358 9.31427 5.27995 9.32507ZM0.632885 9.28105C0.592006 9.36621 0.653324 9.40919 0.729168 9.34852C0.77596 9.31108 0.775061 9.29987 0.725184 9.29987C0.689575 9.29987 0.674792 9.28136 0.692274 9.25874C0.709757 9.23611 0.7104 9.2176 0.693689 9.2176C0.676977 9.2176 0.649596 9.24619 0.632885 9.28105ZM27.8265 9.43151C27.754 9.48951 27.7459 9.54669 27.8102 9.54669C27.8353 9.54669 27.8678 9.50967 27.8826 9.46442C27.9139 9.36837 27.9091 9.36549 27.8265 9.43151ZM1.06507 9.57065C1.01609 9.60994 0.917879 9.54638 0.954387 9.49918C0.975984 9.471 1.00478 9.47172 1.04167 9.50124C1.07201 9.52551 1.08255 9.55677 1.06507 9.57065ZM1.56641 9.91691C1.54893 9.93954 1.49995 9.95805 1.45753 9.95805C1.41511 9.95805 1.39467 9.93954 1.41215 9.91691C1.42963 9.89429 1.47861 9.87578 1.52103 9.87578C1.56346 9.87578 1.5839 9.89429 1.56641 9.91691ZM1.84177 10.199C1.77903 10.2169 1.59212 10.0635 1.59212 9.99404C1.59212 9.96669 1.65987 9.99836 1.74278 10.0643C1.8257 10.1303 1.87017 10.1909 1.84177 10.199ZM2.13267 10.4031C2.09102 10.4365 1.90026 10.2797 1.93214 10.2385C1.94821 10.2177 2.00567 10.2417 2.05979 10.2917C2.11403 10.3416 2.14681 10.3918 2.13267 10.4031ZM2.20916 10.5923C2.20916 10.6356 2.36406 10.7528 2.39183 10.7306C2.40481 10.7202 2.36908 10.6781 2.31226 10.637C2.25557 10.596 2.20916 10.5758 2.20916 10.5923ZM7.07605 10.8088C7.02874 10.8468 6.87924 10.7025 6.91614 10.6547C6.93773 10.6267 6.97912 10.6429 7.02759 10.6981C7.06988 10.7465 7.09173 10.7964 7.07605 10.8088ZM2.55843 10.8261C2.53465 10.8754 2.66834 11.0266 2.70922 10.9967C2.71706 10.9911 2.72259 10.9963 2.72156 11.0085C2.7159 11.0757 2.88816 11.159 2.94267 11.1154C2.98624 11.0805 2.97892 11.0687 2.91361 11.0687C2.83134 11.0687 2.80062 11.019 2.8244 10.9247C2.83006 10.9021 2.81836 10.8967 2.79843 10.9127C2.77838 10.9288 2.72246 10.9027 2.67412 10.8549C2.60561 10.7872 2.58003 10.7809 2.55843 10.8261ZM3.67463 11.6035C3.65714 11.6261 3.60817 11.6446 3.56575 11.6446C3.52332 11.6446 3.50288 11.6261 3.52037 11.6035C3.53785 11.5809 3.58683 11.5623 3.62925 11.5623C3.67167 11.5623 3.69211 11.5809 3.67463 11.6035ZM8.27671 11.7899C8.27671 11.7723 8.30781 11.7786 8.34574 11.8038C8.38366 11.829 8.42698 11.8397 8.44202 11.8278C8.45706 11.8157 8.48161 11.8436 8.49678 11.8898C8.51182 11.9359 8.50257 11.9843 8.47634 11.9973C8.44999 12.0103 8.43482 11.9964 8.44253 11.9665C8.45037 11.9365 8.43109 11.9157 8.39973 11.9203C8.36836 11.925 8.2758 11.8697 8.19405 11.7975C8.1083 11.7221 8.09442 11.6994 8.16101 11.7442C8.22464 11.787 8.27671 11.8075 8.27671 11.7899ZM3.95744 11.8611C3.95744 11.8703 3.92273 11.8778 3.88031 11.8778C3.83788 11.8778 3.80318 11.8425 3.80318 11.7994C3.80318 11.7298 3.81179 11.7279 3.88031 11.7827C3.92273 11.8167 3.95744 11.8519 3.95744 11.8611ZM4.34887 12.1679C4.30979 12.1991 4.01001 11.9644 4.03984 11.9258C4.05526 11.9057 4.13638 11.9479 4.21993 12.0195C4.30349 12.0909 4.36147 12.1578 4.34887 12.1679ZM8.70606 12.0752C8.722 12.1084 8.70927 12.1483 8.67791 12.1639C8.64333 12.1809 8.63523 12.1733 8.65747 12.1446C8.67945 12.1161 8.66068 12.0971 8.61093 12.0971C8.56517 12.0971 8.54203 12.0786 8.55951 12.056C8.60541 11.9966 8.67251 12.0054 8.70606 12.0752ZM4.42021 12.3611C4.42021 12.4044 4.57512 12.5216 4.60288 12.4994C4.61587 12.489 4.58013 12.447 4.52331 12.4058C4.46662 12.3648 4.42021 12.3447 4.42021 12.3611ZM4.66009 12.5393C4.60031 12.6182 4.83466 12.6872 4.91732 12.615C4.94174 12.5936 4.93493 12.5891 4.90125 12.6045C4.86885 12.6193 4.82913 12.6037 4.8128 12.57C4.78157 12.5046 4.69878 12.488 4.66009 12.5393ZM9.88743 13.0137C9.87008 13.0361 9.81377 13.0104 9.76171 12.9562C9.62519 12.8143 9.6437 12.7661 9.79205 12.8775C9.86185 12.93 9.90479 12.9913 9.88743 13.0137ZM6.06565 13.535C6.06565 13.5512 6.03094 13.5643 5.98852 13.5643C5.9461 13.5643 5.91139 13.5281 5.91139 13.4838C5.91139 13.417 5.92437 13.412 5.98852 13.4546C6.03094 13.4828 6.06565 13.519 6.06565 13.535ZM6.45515 13.8561C6.4414 13.867 6.3608 13.8204 6.27596 13.7525C6.19111 13.6847 6.13532 13.6183 6.15191 13.6051C6.16849 13.5918 6.24909 13.6383 6.33098 13.7085C6.41299 13.7786 6.46878 13.8451 6.45515 13.8561ZM10.9304 13.8135C10.876 13.857 10.8307 13.8399 10.8181 13.7711C10.8071 13.7107 10.8184 13.706 10.8788 13.7462C10.9196 13.7732 10.9428 13.8035 10.9304 13.8135ZM6.52843 14.0477C6.52843 14.091 6.68333 14.2082 6.7111 14.186C6.72408 14.1756 6.68835 14.1335 6.63153 14.0924C6.57484 14.0514 6.52843 14.0312 6.52843 14.0477ZM7.88771 14.9809C7.87203 15.0012 7.89671 15.0178 7.94248 15.0178C7.98824 15.0178 8.01048 15.0375 7.99184 15.0616C7.96973 15.0903 7.92422 15.0809 7.8602 15.0346C7.74348 14.9501 7.73204 14.8876 7.83938 14.9205C7.88154 14.9335 7.9034 14.9607 7.88771 14.9809ZM8.18389 15.2199C8.2303 15.2633 8.25665 15.3081 8.24251 15.3194C8.21667 15.34 8.01961 15.2006 8.01961 15.1617C8.01961 15.1158 8.10471 15.1459 8.18389 15.2199ZM8.36129 15.4985C8.33237 15.5217 8.45128 15.6348 8.50437 15.6348C8.52056 15.6348 8.5338 15.609 8.5338 15.5775C8.5338 15.517 8.40937 15.4601 8.36129 15.4985ZM8.63664 15.7342C8.63664 15.7775 8.79155 15.8948 8.81931 15.8726C8.8323 15.8622 8.79656 15.8201 8.73974 15.779C8.68305 15.738 8.63664 15.7178 8.63664 15.7342Z" fill="white"/>
</svg>
