<svg width="57" height="64" viewBox="0 0 57 64" fill="none" xmlns="http://www.w3.org/2000/svg">
<path fill-rule="evenodd" clip-rule="evenodd" d="M7.27572 4.50433C6.72951 4.63692 6.17928 5.088 5.97391 5.57143C5.76284 6.06815 5.78312 16.8821 5.99604 17.3065C6.43294 18.1776 6.93204 18.3468 9.0193 18.3314C11.5458 18.3127 12.0226 18.123 12.373 16.9963C12.5236 16.5117 12.5212 6.25374 12.3703 5.77879C12.1924 5.21882 11.7968 4.80393 11.2323 4.58568C11.0288 4.50689 7.55872 4.43564 7.27572 4.50433ZM45.3326 4.52419C44.571 4.62331 44.0692 5.0619 43.7969 5.86687C43.6684 6.24669 43.696 16.5572 43.8268 16.9868C44.1822 18.1545 44.8827 18.3961 47.7133 18.3278C49.4208 18.2866 49.7839 18.1313 50.213 17.2591L50.3622 16.9556V11.3943V5.83324L50.2009 5.51394C50.0316 5.17863 49.6507 4.80697 49.2765 4.61194C49.0339 4.48544 46.1275 4.42074 45.3326 4.52419ZM23.1708 7.92452C22.7012 8.06351 22.7364 7.40186 22.7347 16.1343C22.733 24.9704 22.7035 24.4439 23.2457 25.2632C23.5741 25.7598 23.9735 26.0892 24.6109 26.3894L25.1809 26.658L28.6629 26.6781L32.1448 26.6983L32.4853 26.3542C32.6726 26.1649 32.9692 25.9167 33.1444 25.8026L33.4629 25.595V18.0285C33.4629 12.741 33.4408 10.3932 33.3896 10.2333C33.0361 9.12869 32.2082 8.32068 31.0822 7.98088C30.754 7.88192 23.4898 7.83004 23.1708 7.92452ZM29.5851 14.0558C29.671 14.1963 29.6819 14.3098 29.6383 14.6163C29.586 14.9852 29.4939 15.7976 29.4005 16.714L29.3566 17.1463L29.8505 17.1473C30.9495 17.1494 30.9823 17.4091 30.0374 18.6195C29.6663 19.0951 29.3201 19.5419 29.2681 19.6123C29.2163 19.6828 28.9392 20.0431 28.6521 20.413C28.3653 20.7828 27.9393 21.3388 27.7054 21.6485C27.1912 22.3294 27.0239 22.4538 26.7855 22.3321C26.5342 22.2035 26.524 22.0405 26.6806 20.6439C26.7599 19.9356 26.8246 19.2949 26.8244 19.22C26.8239 19.0943 26.7808 19.0818 26.2587 19.0555C25.6376 19.0245 25.4827 18.9511 25.4827 18.6884C25.4827 18.5255 25.5757 18.3787 26.1548 17.6267C26.2906 17.4506 26.6118 17.0326 26.8687 16.698C27.1257 16.3633 27.5247 15.8445 27.7554 15.545C27.9861 15.2456 28.2255 14.9329 28.2873 14.8501C29.0793 13.7907 29.3293 13.6376 29.5851 14.0558ZM30.0354 24.42C30.5401 24.8256 30.2619 25.5323 29.5962 25.5356C29.3658 25.5368 29.2867 25.5026 29.1435 25.34C28.6049 24.7286 29.3995 23.909 30.0354 24.42ZM32.2613 24.3878C32.7693 24.7334 32.5212 25.5371 31.9064 25.5371C31.5691 25.5371 31.3347 25.3848 31.2568 25.1148C31.075 24.4861 31.7198 24.0197 32.2613 24.3878ZM50.4105 27.4143C49.6818 28.1001 49.6245 28.1837 49.6245 28.5593C49.6247 28.8383 49.844 29.188 50.0188 29.188C50.0611 29.188 50.1531 29.2223 50.2234 29.2641C50.4113 29.3763 50.8227 29.2268 51.1594 28.924C51.5014 28.6163 51.547 28.617 51.8335 28.9332C51.9604 29.0734 52.1188 29.188 52.1856 29.188C52.2523 29.188 52.3069 29.2168 52.3069 29.2521C52.3069 29.4479 53.0362 29.1829 53.1444 28.9478C53.1807 28.8685 53.2335 28.8037 53.2617 28.8037C53.2899 28.8037 53.3128 28.674 53.3128 28.5155C53.3128 28.3569 53.2827 28.2272 53.2458 28.2272C53.2089 28.2272 53.1787 28.1962 53.1787 28.1584C53.1787 28.0703 51.9991 26.9462 51.9067 26.9462C51.8687 26.9462 51.8375 26.9174 51.8375 26.8822C51.8375 26.8466 51.6605 26.8181 51.4407 26.8181H51.0438L50.4105 27.4143ZM29.5734 30.8213V33.6076H30.3674H31.1612L31.2063 31.7661C31.2486 30.038 31.3005 29.2854 31.4382 28.4034L31.4957 28.0351H30.5345H29.5734V30.8213ZM39.6521 29.0439C39.3599 29.4226 39.0479 29.8333 38.9585 29.9566C38.8692 30.0799 38.7597 30.224 38.7149 30.2769C38.5771 30.44 37.2644 32.1424 36.9306 32.5909C36.3918 33.315 36.516 33.5435 37.4488 33.5435H38.0376L37.9947 33.7064C37.9712 33.7959 37.9243 34.1345 37.8904 34.459C37.8567 34.7834 37.7947 35.3613 37.7528 35.7435C37.6015 37.12 37.9955 37.2798 38.8391 36.1843C39.103 35.8415 39.4744 35.3594 39.6645 35.1128C39.8544 34.8662 40.1537 34.4771 40.3294 34.2481C40.8637 33.5518 40.8873 33.5211 41.1211 33.2232C41.984 32.123 42.0203 32.0393 41.7479 31.7792C41.6017 31.6396 41.5258 31.622 41.0681 31.622H40.5527L40.5956 31.0615C40.6193 30.7533 40.6671 30.2561 40.7018 29.9566C40.7366 29.6572 40.7861 29.2316 40.8117 29.0109C40.9214 28.0682 40.3931 28.0833 39.6521 29.0439ZM40.6781 28.5797C40.751 28.6858 40.773 28.7994 40.7432 28.9159C40.6959 29.1012 40.6147 29.768 40.5142 30.7986C40.481 31.1384 40.4325 31.4493 40.4062 31.4899C40.2952 31.6615 40.5142 31.7501 41.049 31.7501C41.6272 31.7501 41.8923 31.8796 41.7972 32.1158C41.7528 32.2264 41.1851 33.0325 41.1075 33.0951C41.0857 33.1128 40.9943 33.228 40.9043 33.3513C40.8144 33.4746 40.7044 33.6188 40.6598 33.6716C40.5738 33.7736 40.3951 34.0056 39.3035 35.433C38.2542 36.8052 38.3015 36.7555 38.0631 36.7334L37.8554 36.7141L37.8629 36.1056C37.8671 35.7709 37.9073 35.1944 37.9523 34.8245C37.997 34.4546 38.0389 34.0079 38.0452 33.8317L38.0566 33.5115L37.4696 33.4929C36.7678 33.4708 36.5814 33.3357 36.7727 32.9879C36.852 32.8439 37.7672 31.6164 38.0061 31.3337C38.0358 31.2985 38.1333 31.1688 38.2229 31.0455C38.3122 30.9222 38.4034 30.8069 38.4254 30.7893C38.4473 30.7717 38.5389 30.6564 38.6289 30.5331C38.7188 30.4098 38.8293 30.2657 38.8744 30.2128C38.9195 30.16 39.247 29.7348 39.6023 29.2681C40.3026 28.348 40.4531 28.2516 40.6781 28.5797ZM9.37472 37.2527C9.09273 37.3904 8.84461 37.4865 8.82331 37.4662C8.80202 37.4458 8.78459 37.475 8.78459 37.5307C8.78459 37.5864 8.74687 37.6487 8.70076 37.6689C8.65466 37.6891 8.69238 37.6873 8.78459 37.6651C8.8768 37.6426 9.04847 37.5544 9.16616 37.4687C10.413 36.5621 12.2047 37.3791 12.2047 38.8542C12.2047 39.135 12.18 39.1893 11.9867 39.3349C11.8669 39.425 11.8048 39.4992 11.8489 39.4997C12.2893 39.5035 12.457 38.6612 12.1311 38.0811C11.5525 37.0513 10.4596 36.7227 9.37472 37.2527ZM10.0172 38.2937C9.84414 38.3738 9.59015 38.7892 9.58713 38.9965C9.58445 39.1957 9.46928 39.3277 9.21059 39.4282C8.81543 39.582 8.44928 39.2758 8.44928 38.7916C8.44928 38.6881 8.4181 38.6036 8.38004 38.6036C8.24357 38.6036 8.23989 38.7916 8.37099 39.0747C8.70613 39.7981 9.49794 39.6907 9.71857 38.8918C9.91355 38.1861 10.9305 38.0715 10.9305 38.7552C10.9305 39.1323 11.2004 39.4574 11.5756 39.5322C11.7242 39.5618 11.699 39.5366 11.467 39.4234C11.1897 39.288 11.1569 39.2457 11.061 38.899C10.9024 38.3251 10.4794 38.0798 10.0172 38.2937ZM29.5734 46.642V48.0832H30.7062C32.0613 48.0832 31.9205 48.2504 31.9205 46.642C31.9205 45.0337 32.0613 45.2009 30.7062 45.2009H29.5734V46.642ZM7.25896 45.7351C6.68928 45.9011 6.23578 46.2547 5.99218 46.7224C5.87382 46.95 5.86661 47.2489 5.84951 52.5344C5.82939 58.8608 5.79687 58.472 6.39069 59.019C6.93807 59.5233 6.90119 59.5164 9.08636 59.5164H11.0311L11.4179 59.3349C11.8754 59.1204 12.2248 58.722 12.3728 58.2459C12.5225 57.7642 12.5227 47.4981 12.373 47.0164C12.1638 46.3435 11.5854 45.8329 10.9305 45.7429C10.4306 45.6742 7.48931 45.6678 7.25896 45.7351ZM45.6475 45.7165C44.6538 45.7871 44.0784 46.199 43.829 47.0187C43.6964 47.4547 43.6665 57.7606 43.7969 58.1457C44.2124 59.3735 44.5574 59.5164 47.1097 59.5164C49.3258 59.5164 49.3301 59.5154 49.8762 58.9497C50.3949 58.4121 50.3622 58.8387 50.3622 52.6224V47.0569L50.2131 46.7535C49.9638 46.2457 49.5751 45.9112 49.0736 45.773C48.7874 45.6942 46.4943 45.6564 45.6475 45.7165Z" fill="#FBA048"/>
<path fill-rule="evenodd" clip-rule="evenodd" d="M6.97444 3.11887C6.97444 3.15409 6.85373 3.18292 6.70619 3.18292C6.55866 3.18292 6.43795 3.21174 6.43795 3.24697C6.43795 3.2822 6.3776 3.31102 6.30383 3.31102C6.23006 3.31102 6.16971 3.33984 6.16971 3.37507C6.16971 3.4103 6.11606 3.43912 6.05034 3.43912C5.98479 3.43912 5.88755 3.49677 5.83441 3.56723C5.78126 3.63768 5.69827 3.69533 5.65016 3.69533C5.54705 3.69533 4.96262 4.23833 4.96262 4.33408C4.96262 4.37027 4.93713 4.3999 4.90612 4.3999C4.85465 4.3999 4.73377 4.61223 4.48666 5.13649C4.3693 5.38549 4.30844 8.49919 4.42094 8.49919C4.4719 8.49919 4.49319 9.74579 4.49319 12.7131C4.49319 17.8164 4.48666 17.7761 5.4649 18.7199C6.2817 19.5077 6.80578 19.6397 9.12038 19.6397C11.9678 19.6397 12.8997 19.1958 13.6175 17.4984C13.7482 17.1892 13.8146 16.4382 13.8146 15.2673V14.0076H17.6035H21.3925V15.1285C21.3925 15.745 21.3767 16.2494 21.3574 16.2494C21.3382 16.2494 21.1918 16.1344 21.0324 15.994C20.288 15.3388 19.3614 15.4071 18.8777 16.1533L18.6765 16.4637L18.6769 21.5927C18.6772 26.7138 18.6774 26.7229 18.8321 27.3944C19.2137 29.0511 19.8194 30.2485 20.9043 31.4903L21.3212 31.9678L21.3402 35.654L21.3589 39.34L21.5687 39.7563C22.1425 40.8951 22.7491 41.1696 24.8126 41.2237L26.2544 41.2615L26.2735 41.963C26.2959 42.7843 26.214 42.645 27.4187 43.9099L28.2327 44.7646V46.4558V48.147H27.6697C26.7679 48.147 26.364 48.678 26.8862 49.1768L27.0822 49.364H30.6742H34.2659L34.4851 49.5509L34.704 49.7378V52.6156C34.704 55.7799 34.7226 55.6372 34.2871 55.8111C33.9132 55.9604 22.1778 55.9357 21.8619 55.785C21.4619 55.5941 21.4517 55.5066 21.4736 52.4523L21.4931 49.7378L21.712 49.5509L21.9311 49.364H22.874H23.817L24.013 49.1768C24.294 48.9083 24.2897 48.5435 24.0026 48.3129C23.7621 48.1193 22.0795 48.0619 21.5937 48.2305C20.8139 48.5009 20.3492 49.0114 20.2206 49.7389L20.1736 50.0045H16.9941H13.8146L13.8138 48.5474C13.8124 46.0021 13.1542 44.9264 11.3116 44.4578C10.6004 44.2769 7.28811 44.3337 6.6958 44.5371C6.42487 44.63 6.11556 44.7092 6.0086 44.7132C5.78998 44.7211 4.8285 45.5584 4.8285 45.7408C4.8285 45.796 4.79832 45.8412 4.76144 45.8412C4.72455 45.8412 4.69438 45.8988 4.69438 45.9693C4.69438 46.0398 4.6709 46.0974 4.64224 46.0974C4.34935 46.0974 4.19947 58.2813 4.48498 58.8757C4.75356 59.435 4.85499 59.6123 4.90612 59.6123C4.93713 59.6123 4.96262 59.9488 4.96262 60.3604C4.96262 61.1282 5.00336 61.3288 5.27361 61.8902C5.55745 62.48 6.45639 63.1991 6.90972 63.1991C6.97779 63.1991 7.05223 63.228 7.07503 63.2632C7.10118 63.3035 7.86919 63.3272 9.15793 63.3272C10.4742 63.3272 11.1993 63.3045 11.1993 63.2632C11.1993 63.228 11.2719 63.1991 11.3605 63.1991C11.7507 63.1991 12.8119 62.4049 12.7561 62.1546C12.742 62.0909 12.7534 61.99 12.7816 61.9304C12.8097 61.8707 12.8671 61.7067 12.9088 61.5658L12.9851 61.3096L12.6265 60.9535C12.2796 60.6089 12.254 60.3168 12.5703 60.3168C12.6365 60.3168 13.144 59.8063 13.144 59.7397C13.144 59.7099 13.1844 59.6468 13.2337 59.5998C13.6813 59.1724 13.8817 58.2398 13.8817 56.5845V55.3286L14.1667 55.2899C14.3234 55.2686 15.7319 55.2596 17.2967 55.27L20.1418 55.2888L20.2186 55.609C20.3572 56.1868 20.6954 56.6103 21.2666 56.9221L21.5601 57.0822L27.8283 57.0998C32.1745 57.112 34.2049 57.096 34.45 57.0473C35.1599 56.9066 35.7956 56.2947 35.9448 55.6086C36.0434 55.1546 35.7785 55.186 39.3312 55.207L42.3489 55.2247L42.3902 56.7299C42.4128 57.5578 42.4636 58.336 42.503 58.4593C42.5424 58.5826 42.5969 58.7556 42.6242 58.8436C42.6514 58.9317 42.7441 59.1247 42.8299 59.2723C42.9739 59.52 42.986 59.6153 42.986 60.5014C42.986 61.0729 43.0132 61.4782 43.0531 61.5018C43.0899 61.5235 43.1201 61.6118 43.1201 61.6978C43.1201 61.7838 43.1429 61.8541 43.1707 61.8541C43.1987 61.8541 43.2641 61.9477 43.3163 62.0622C43.5164 62.5018 44.4489 63.1991 44.8365 63.1991C44.9252 63.1991 44.9978 63.228 44.9978 63.2632C44.9978 63.3509 49.0654 63.3509 49.122 63.2632C49.1448 63.228 49.2193 63.1991 49.2873 63.1991C49.7407 63.1991 50.6396 62.48 50.9235 61.8902C51.1937 61.3288 51.2345 61.1282 51.2345 60.3604C51.2345 59.9488 51.2571 59.6123 51.2849 59.6123C51.3126 59.6123 51.4061 59.4753 51.4928 59.308C51.5795 59.1407 51.6851 58.9461 51.7273 58.8757C51.8293 58.7062 51.8786 53.4633 51.7783 53.4633C51.7337 53.4633 51.7027 52.3149 51.6879 50.1166C51.6615 46.1973 51.6548 46.1624 50.7459 45.3177C49.8932 44.5253 49.5182 44.4349 47.0767 44.4341C44.5993 44.4333 44.2182 44.5259 43.3718 45.3344C42.5872 46.0838 42.3825 46.805 42.3825 48.8204C42.3825 49.4675 42.3598 50.009 42.3322 50.0237C42.3045 50.0386 40.8635 50.033 39.13 50.0116L35.9782 49.9725L35.9408 49.7163C35.8008 48.756 34.9667 48.1501 33.7819 48.148L33.2622 48.147V46.4543C33.2622 45.1823 33.2832 44.7405 33.3465 44.6769C33.8279 44.1936 35.0742 42.8271 35.1469 42.7027C35.2143 42.5874 35.2499 42.1928 35.274 41.2935C35.3062 40.0914 35.3126 40.0452 35.4417 40.0597C37.7906 40.3264 40.782 40.3105 43.3548 40.0176C45.631 39.7585 47.0767 38.1531 47.0767 35.8846C47.0767 35.7645 47.122 35.6229 47.1773 35.5701C47.2423 35.5079 47.2779 35.3494 47.2779 35.1209C47.2779 34.9267 47.3081 34.75 47.3449 34.7283C47.3818 34.7065 47.412 34.6183 47.412 34.5323C47.412 34.4463 47.3818 34.376 47.3449 34.376C47.3081 34.376 47.2779 34.317 47.2779 34.245C47.2779 34.1729 47.1997 34.0394 47.1044 33.9483L46.9308 33.7825L46.5608 33.9026C46.1114 34.0485 45.9367 34.2543 45.9367 34.6378C45.9367 35.2027 45.7025 36.8773 45.5879 37.1302C44.9328 38.5778 44.3161 38.8186 40.8094 38.996C38.76 39.0996 35.4063 38.9363 34.6292 38.6948C33.6758 38.3986 32.9383 37.5635 32.7874 36.6095C32.3877 34.0817 32.4887 29.1356 32.9636 27.9708C33.5524 26.5276 34.6633 26.2141 39.1971 26.2115C43.7193 26.2089 44.8766 26.5119 45.4957 27.8607C45.6902 28.2842 45.9367 29.857 45.9367 30.6743C45.9367 31.0962 46.0498 31.3598 46.2973 31.5146C46.5119 31.649 47.0096 31.7295 47.0096 31.6299C47.0096 31.5902 47.0527 31.5577 47.1054 31.5577C47.3252 31.5577 47.5374 30.6784 47.3449 30.5649C47.3065 30.5422 47.2779 30.212 47.2779 29.7925C47.2779 29.3467 47.2516 29.0597 47.2108 29.0597C47.1721 29.0597 47.1438 28.8568 47.1438 28.5793C47.1438 28.3018 47.1154 28.0989 47.0767 28.0989C47.0398 28.0989 47.0096 27.9836 47.0096 27.8427C47.0096 27.7018 46.9795 27.5865 46.9426 27.5865C46.9057 27.5865 46.8755 27.5289 46.8755 27.4584C46.8755 27.388 46.8453 27.3303 46.8085 27.3303C46.7716 27.3303 46.7414 27.2727 46.7414 27.2022C46.7414 27.1318 46.7112 27.0741 46.6743 27.0741C46.6374 27.0741 46.6073 27.0165 46.6073 26.946C46.6073 26.8756 46.5771 26.8179 46.5402 26.8179C46.5033 26.8179 46.4731 26.7739 46.4731 26.7201C46.4731 26.6205 46.2145 26.3181 45.8154 25.9511C45.5769 25.7319 44.8276 25.3447 44.6417 25.3447C44.5794 25.3447 44.5284 25.3159 44.5284 25.2807C44.5284 25.2454 44.4246 25.2166 44.2977 25.2166C44.1708 25.2166 44.0482 25.1878 44.0254 25.1526C44.0026 25.1173 43.7914 25.0885 43.556 25.0885C43.3206 25.0885 43.1094 25.0597 43.0866 25.0245C43.0633 24.9884 42.7394 24.9604 42.3449 24.9604C41.9229 24.9604 41.6448 24.935 41.6448 24.8964C41.6448 24.8081 40.9914 24.815 40.9606 24.9034C40.9432 24.953 40.296 24.9808 38.8257 24.9947C37.6652 25.0057 36.5046 25.0442 36.2464 25.08C35.9882 25.1157 35.5582 25.163 35.2908 25.1848L34.8046 25.2243V23.6525V22.0805L34.9555 22.0475C35.0385 22.0293 35.891 22.0072 36.8499 21.9982L38.5935 21.982L38.9758 21.8028C39.4551 21.5779 39.9156 21.1364 40.1537 20.6734L40.3371 20.3167L40.3562 17.1605L40.3755 14.0043L41.3957 14.022L42.416 14.0396L42.4505 15.673L42.4851 17.3063L42.7421 17.814C43.1521 18.624 44.0013 19.3202 44.7743 19.48C45.0332 19.5335 45.1091 19.6869 44.9467 19.828C44.8805 19.8855 44.7222 20.0621 44.5949 20.2206C44.4675 20.3791 44.2798 20.5852 44.1777 20.6786C44.0756 20.7721 43.9919 20.8669 43.9919 20.8895C43.9919 20.912 43.9315 20.9924 43.8578 21.068C43.6283 21.3034 43.8551 21.6096 44.4419 21.8562C44.5817 21.9149 44.7685 21.9961 44.8572 22.0366C45.084 22.1402 49.0728 22.1391 49.2962 22.0355C49.3849 21.9943 49.5554 21.9225 49.6753 21.8757C49.7952 21.8289 49.8932 21.7689 49.8932 21.7421C49.8932 21.7156 49.9326 21.6938 49.9808 21.6938C50.5545 21.6938 51.2345 20.3159 51.2345 19.1532C51.2345 18.7119 51.2608 18.4272 51.3015 18.4272C51.3384 18.4272 51.3686 18.3695 51.3686 18.2991C51.3686 18.2286 51.3988 18.171 51.4356 18.171C51.4725 18.171 51.5027 18.1133 51.5027 18.0429C51.5027 17.9724 51.5329 17.9148 51.5698 17.9148C51.6066 17.9148 51.6368 17.8629 51.6368 17.7995C51.6368 17.736 51.6745 17.6481 51.7206 17.6041C51.8311 17.4987 51.8836 11.8939 51.7743 11.8939C51.7262 11.8939 51.7039 10.9631 51.7039 8.95636C51.7039 7.28733 51.6752 5.86972 51.6373 5.67372C51.4314 4.60598 50.5335 3.67483 49.3568 3.30878C48.8632 3.15538 45.1504 3.17347 44.6962 3.33168C44.1094 3.536 43.7248 3.77395 43.3334 4.17459C42.9888 4.5272 42.8576 4.728 42.5783 5.32864C42.5146 5.46587 42.4815 5.96916 42.4629 7.08942C42.4487 7.95219 42.4086 8.7088 42.3737 8.77077C42.3147 8.87645 42.0617 8.8835 38.362 8.8835C33.9937 8.8835 34.2695 8.90527 34.0056 8.53954C33.5254 7.87405 32.5849 7.16003 31.8875 6.93137C30.9981 6.63977 31.0316 6.6417 26.8901 6.6417H22.9389L22.5848 6.79638C21.8948 7.0979 21.4595 7.69262 21.4595 8.33378C21.4595 8.92849 21.7642 8.88686 17.5479 8.86796L13.8482 8.85147L13.8081 7.37829C13.7699 5.97428 13.7365 5.61815 13.6165 5.32864C13.4146 4.84185 13.1861 4.50286 12.7919 4.1051C12.543 3.85402 12.3393 3.60133 12.3393 3.54385C12.3393 3.48188 12.2846 3.43912 12.2052 3.43912C12.1314 3.43912 12.071 3.4103 12.071 3.37507C12.071 3.33984 12.0107 3.31102 11.9369 3.31102C11.8632 3.31102 11.8028 3.2822 11.8028 3.24697C11.8028 3.21174 11.7141 3.18292 11.6056 3.18292C11.4972 3.18292 11.3897 3.15409 11.3669 3.11887C11.3101 3.03112 6.97444 3.03112 6.97444 3.11887ZM10.3945 4.39605C11.5939 4.48492 12.147 4.86379 12.4642 5.81351C12.5717 6.13569 12.5725 16.7437 12.465 16.999C11.9294 18.2718 11.4591 18.4536 8.79983 18.4161C6.68759 18.3865 6.12159 18.1077 5.79518 16.9364C5.66055 16.4536 5.6572 6.38517 5.79149 5.9051C6.09494 4.81975 6.63444 4.4593 8.04741 4.39765C9.46876 4.33552 9.5774 4.33552 10.3945 4.39605ZM48.0155 4.39349C49.5856 4.46523 50.1784 4.84681 50.4277 5.94658C50.5905 6.66475 50.4918 16.8632 50.3184 17.2214C49.847 18.1956 49.3796 18.3867 47.3972 18.4155C44.7976 18.4533 44.1197 18.1892 43.7414 16.9919C43.6304 16.6406 43.619 6.1967 43.7294 5.86667C44.1844 4.50462 44.92 4.25178 48.0155 4.39349ZM31.1116 7.93169C32.1644 8.25243 32.8994 8.89727 33.3643 9.90832C33.4937 10.1895 33.4973 10.3847 33.5132 17.9148L33.5293 25.633L33.1921 25.8506C33.0067 25.9703 32.7074 26.2225 32.527 26.411L32.1991 26.7539L28.8578 26.7531C25.2433 26.7523 25.1542 26.745 24.4568 26.398C23.7302 26.0366 23.1711 25.4418 22.843 24.6811C22.7013 24.3527 22.701 24.3341 22.6824 16.304L22.6636 8.25627L22.8388 8.05739L23.0138 7.85867H26.9429C29.6973 7.85867 30.9436 7.88045 31.1116 7.93169ZM21.312 10.1133C21.3692 10.1679 21.3925 10.5573 21.3925 11.4584V12.7266H17.6022H13.8118L13.83 11.4295L13.8482 10.1325L15.7594 10.099C19.7562 10.0289 21.2275 10.0326 21.312 10.1133ZM41.4211 10.1005H42.3825V11.4135V12.7266H38.5962H34.8101L34.7905 11.4616C34.7798 10.7658 34.7836 10.1559 34.7991 10.1062C34.823 10.0295 35.2506 10.0223 37.6434 10.0582C39.1924 10.0814 40.8924 10.1005 41.4211 10.1005ZM36.2799 16.9886C36.2799 19.8291 36.2737 19.9812 36.1477 20.2171C35.9299 20.6248 35.4197 20.9074 35.0028 20.8514L34.8381 20.8291L34.8207 17.4184L34.8034 14.0076H35.5416H36.2799V16.9886ZM39.1632 16.8739C39.1627 20.6107 39.0732 20.8552 37.705 20.8597C37.2436 20.8613 37.2295 20.8441 37.4022 20.4907C37.5066 20.277 37.5207 19.9327 37.5398 17.1301L37.5611 14.0076H38.3623H39.1635L39.1632 16.8739ZM20.8679 17.5226L21.3848 17.9953L21.4079 21.2376C21.4309 24.431 21.4335 24.4863 21.5856 24.8964C22.0508 26.15 22.7674 26.9399 23.9728 27.5281L24.4437 27.7579L24.4612 30.3944C24.4709 31.8445 24.4558 33.0301 24.4276 33.0291C24.1819 33.0203 21.7325 30.6048 21.2471 29.8924C20.6754 29.0535 20.3758 28.3502 20.0734 27.1382C19.9649 26.7036 19.8499 17.2824 19.9485 16.9072L19.9911 16.7457L20.171 16.8978C20.27 16.9815 20.5836 17.2627 20.8679 17.5226ZM28.2327 31.0375C28.2327 33.8202 28.2223 34.1122 28.121 34.192C28.0596 34.2403 27.6221 34.6945 27.1486 35.2011L26.2879 36.1223V36.4953V36.8682L26.0512 36.9107C25.6815 36.9768 23.6648 36.9036 23.4378 36.8157C23.1537 36.7057 22.8718 36.4367 22.7266 36.1374C22.6049 35.8862 22.5245 33.2231 22.6386 33.2231C22.6603 33.2231 22.9305 33.4378 23.2393 33.7002C24.1981 34.515 25.0067 34.5118 25.5516 33.6911L25.7514 33.3901V30.7231C25.7514 29.2563 25.7715 28.037 25.7962 28.0136C25.8207 27.99 26.3789 27.9708 27.0368 27.9708H28.2327V31.0375ZM31.5423 28.0195C31.5595 28.0463 31.5455 28.284 31.5111 28.5479C31.3612 29.6969 31.3008 30.5372 31.2603 32.0381L31.2169 33.6394H30.3786H29.5403L29.5229 30.8852C29.5132 29.3704 29.5199 28.0949 29.5375 28.0509C29.5735 27.9612 31.4851 27.9313 31.5423 28.0195ZM31.2834 35.0325C31.303 35.1118 31.3476 35.436 31.3827 35.7531C31.6182 37.8862 32.1592 38.8589 33.5046 39.5681L33.9999 39.8293V40.9781V42.127L33.2895 42.8791C32.1871 44.0466 32.4999 43.9196 30.7265 43.9196H29.204L28.9769 43.6795C28.852 43.5473 28.4825 43.161 28.1559 42.821L27.5621 42.2026L27.5639 39.3943L27.5659 36.5858L27.916 36.2312C28.1086 36.0362 28.4754 35.6543 28.7311 35.3825L29.196 34.8884H30.2218C31.2306 34.8884 31.2484 34.8908 31.2834 35.0325ZM23.2702 38.0424C23.3993 38.0778 24.1235 38.1249 24.8796 38.147L26.2544 38.187L26.2731 39.0107C26.2978 40.0841 26.3863 40.0125 25.0352 40.0125C23.1102 40.0125 22.5996 39.6791 22.5996 38.4226C22.5996 37.8487 22.615 37.8181 22.8579 37.9105C22.9557 37.9476 23.1411 38.0069 23.2702 38.0424ZM31.9545 46.6418V48.115H30.7474H29.5403L29.5222 46.7073C29.5123 45.9333 29.519 45.2623 29.5375 45.2167C29.5635 45.152 29.8347 45.1376 30.7627 45.1512L31.9545 45.1687V46.6418ZM11.1993 45.727C11.7956 45.8995 12.2306 46.3542 12.4667 47.0518C12.5725 47.3642 12.57 57.8814 12.4642 58.1986C12.063 59.4001 11.4202 59.6768 9.0332 59.6757C6.76185 59.6745 6.1454 59.3762 5.79115 58.107C5.67246 57.6813 5.6582 47.7003 5.77556 47.1773C5.90868 46.5845 6.22906 46.1589 6.77326 45.8514C7.21133 45.6042 10.4582 45.5128 11.1993 45.727ZM49.305 45.7925C49.6798 45.943 50.116 46.3727 50.3184 46.7908C50.4916 47.149 50.5905 57.3375 50.4277 58.075C50.1514 59.3272 49.4384 59.6763 47.156 59.6763C44.7758 59.6763 44.13 59.4007 43.7569 58.226C43.6254 57.8121 43.6063 47.4639 43.7362 47.0335C43.8873 46.5331 44.2685 46.0847 44.7631 45.8261C45.2711 45.5603 48.6642 45.5353 49.305 45.7925ZM20.17 52.6146L20.1519 53.9437H17H13.8482L13.83 52.6146L13.8119 51.2856H17H20.1881L20.17 52.6146ZM42.367 52.6146L42.3489 53.9437H39.1971H36.0452L36.0271 52.6146L36.009 51.2856H39.1971H42.3851L42.367 52.6146Z" fill="#0807CC"/>
<path fill-rule="evenodd" clip-rule="evenodd" d="M9.28687 4.46414C10.2458 4.48928 11.0908 4.5306 11.1646 4.5559L11.2987 4.60185L11.1646 4.51699C11.0626 4.45245 10.6128 4.43052 9.28687 4.42539L7.5433 4.41851L9.28687 4.46414ZM45.1475 4.47183C45.0277 4.50482 44.9296 4.54853 44.9296 4.56887C44.9296 4.5892 44.9824 4.5844 45.047 4.55798C45.1115 4.5314 45.9489 4.49024 46.9079 4.46623L48.6515 4.42251L47.0085 4.41707C46.1048 4.41418 45.2674 4.43868 45.1475 4.47183ZM50.3935 11.4137C50.3935 14.3024 50.4017 15.4749 50.4118 14.019C50.4219 12.5633 50.4219 10.1998 50.4118 8.7668C50.4017 7.33397 50.3935 8.52501 50.3935 11.4137ZM5.79821 11.3817C5.79821 14.2176 5.80643 15.3777 5.81649 13.9598C5.82654 12.5418 5.82654 10.2216 5.81649 8.80363C5.80643 7.38569 5.79821 8.54582 5.79821 11.3817ZM19.983 21.6855C19.983 26.4149 19.9941 26.7206 20.1945 27.5227C20.3992 28.3419 20.8131 29.2288 21.3724 30.0469C21.7186 30.5534 24.3336 33.0647 24.4245 32.9779C24.4536 32.9501 24.4697 31.7642 24.4602 30.3425L24.4426 27.7581L23.9716 27.5283C22.7366 26.9257 22.0379 26.1582 21.5472 24.8645C21.4379 24.576 21.4225 24.2195 21.3918 21.27L21.3578 17.9958L20.7294 17.4269C20.3837 17.1141 20.0744 16.8485 20.0421 16.8368C20.0084 16.8246 19.983 18.9111 19.983 21.6855ZM10.4269 18.2993L9.89042 18.3398L10.4269 18.3471C10.722 18.351 11.0237 18.3295 11.0975 18.2993L11.2316 18.2442L11.0975 18.2514C11.0237 18.2554 10.722 18.277 10.4269 18.2993ZM45.0972 18.3025C45.171 18.331 45.4728 18.354 45.7679 18.3537C46.4453 18.3531 46.3513 18.3186 45.5667 18.2802C45.2268 18.2636 45.0218 18.2733 45.0972 18.3025ZM7.96243 18.3462C8.11918 18.3596 8.37569 18.3596 8.53244 18.3462C8.6892 18.3327 8.56094 18.3217 8.24743 18.3217C7.93392 18.3217 7.80567 18.3327 7.96243 18.3462ZM47.6623 18.3462C47.8191 18.3596 48.0756 18.3596 48.2323 18.3462C48.3891 18.3327 48.2608 18.3217 47.9473 18.3217C47.6338 18.3217 47.5056 18.3327 47.6623 18.3462ZM53.0439 21.3737C53.0439 21.409 52.9836 21.4378 52.9098 21.4378C52.836 21.4378 52.7757 21.4666 52.7757 21.5018C52.7757 21.5371 52.7328 21.5659 52.6805 21.5659C52.5468 21.5659 51.9609 22.139 52.0127 22.219C52.036 22.2552 52.0286 22.3031 51.9963 22.3257C51.5711 22.6208 51.7396 23.9358 52.2027 23.9358C52.2597 23.9358 52.3063 23.9646 52.3063 23.9998C52.3063 24.0351 52.3817 24.0639 52.4739 24.0639C52.5661 24.0639 52.6416 24.0351 52.6416 23.9998C52.6416 23.9646 52.7192 23.9358 52.8141 23.9358C53.0081 23.9358 53.1781 23.8034 53.1781 23.6522C53.1781 23.5968 53.2082 23.5515 53.2451 23.5515C53.282 23.5515 53.3122 23.4493 53.3122 23.3244C53.3122 23.0301 53.5579 22.7829 53.8503 22.7829C54.0768 22.7829 54.251 22.9062 54.251 23.0665C54.251 23.1219 54.2812 23.1672 54.3181 23.1672C54.355 23.1672 54.3851 23.2693 54.3851 23.3942C54.3851 23.637 54.6239 23.9358 54.818 23.9358C54.875 23.9358 54.9216 23.9646 54.9216 23.9998C54.9216 24.0351 54.9971 24.0639 55.0893 24.0639C55.1815 24.0639 55.2569 24.0351 55.2569 23.9998C55.2569 23.9646 55.3346 23.9358 55.4294 23.9358C55.6234 23.9358 55.7934 23.8034 55.7934 23.6522C55.7934 23.5968 55.8236 23.5515 55.8605 23.5515C55.8974 23.5515 55.9275 23.4091 55.9275 23.2351C55.9275 23.061 55.8974 22.9007 55.8605 22.8789C55.8236 22.8572 55.7934 22.7545 55.7934 22.6509C55.7934 22.5473 55.7632 22.4626 55.7264 22.4626C55.6895 22.4626 55.6593 22.405 55.6593 22.3345C55.6593 22.264 55.6341 22.2064 55.6036 22.2064C55.573 22.2064 55.5051 22.1271 55.4528 22.0303C55.3279 21.7992 55.2202 21.694 55.1089 21.694C55.0591 21.694 54.9748 21.6363 54.9216 21.5659C54.8685 21.4954 54.7731 21.4378 54.7095 21.4378C54.6462 21.4378 54.5756 21.409 54.5528 21.3737C54.5293 21.3374 54.1945 21.3097 53.7776 21.3097C53.3331 21.3097 53.0439 21.335 53.0439 21.3737ZM37.7876 26.2157C33.2315 26.4019 32.8131 26.7976 32.5864 31.1329C32.4543 33.6644 32.6726 36.5711 33.0538 37.3546C33.6916 38.6651 34.9176 38.9874 39.263 38.9874C43.0261 38.9874 44.235 38.7722 45.0196 37.9629C45.5744 37.3906 45.683 37.0269 45.8772 35.0928C45.967 34.1964 46.0457 34.0423 46.4755 33.9192L46.7402 33.8434V32.7659V31.6884L46.5558 31.645C46.0395 31.5236 45.9739 31.3803 45.8703 30.1488C45.5799 26.6929 44.9822 26.3017 39.8665 26.2187C39.0182 26.205 38.0827 26.2037 37.7876 26.2157ZM29.5355 28.0533C29.5172 28.0987 29.5114 28.6391 29.5224 29.2543L29.5425 30.373L29.5576 29.204L29.5727 28.0351H30.533H31.4935L31.4414 28.3714C31.3429 29.0058 31.2383 30.1379 31.2645 30.2875C31.2787 30.3698 31.3134 30.1776 31.3416 29.8605C31.3698 29.5435 31.4328 29.0103 31.4821 28.6756C31.5312 28.3409 31.5575 28.0455 31.5404 28.0191C31.4828 27.9294 29.572 27.9621 29.5355 28.0533ZM40.7373 28.4825C40.8384 28.5891 40.8503 28.6738 40.8111 29.0109C40.7854 29.2316 40.736 29.6572 40.7011 29.9566C40.6664 30.2561 40.6186 30.7533 40.595 31.0615L40.552 31.622H41.0674C41.5251 31.622 41.601 31.6396 41.7472 31.7792C42.0197 32.0393 41.9833 32.123 41.1204 33.2233C40.8867 33.5211 40.863 33.5518 40.3287 34.2481C40.153 34.4771 39.8538 34.8662 39.6638 35.1128C39.4737 35.3594 39.1024 35.8415 38.8385 36.1843C37.9949 37.2798 37.6009 37.12 37.7521 35.7435C37.794 35.3613 37.856 34.7834 37.8897 34.459C37.9236 34.1345 37.9706 33.7959 37.994 33.7064L38.0369 33.5435H37.4481C36.5153 33.5435 36.3911 33.315 36.9299 32.5909C37.2637 32.1424 38.5764 30.4401 38.7142 30.2769C38.759 30.224 38.8685 30.0799 38.9578 29.9566C40.1146 28.3598 40.3985 28.1248 40.7373 28.4825ZM31.2105 32.3265C31.2105 33.0487 31.2202 33.3441 31.2321 32.9831C31.2442 32.622 31.2442 32.0311 31.2321 31.67C31.2202 31.3089 31.2105 31.6044 31.2105 32.3265ZM9.70215 37.1927C9.52477 37.2588 9.27547 37.389 9.14789 37.4819C8.98627 37.5996 8.87059 37.6386 8.76615 37.6106C8.64862 37.5791 8.63789 37.5848 8.71686 37.6377C8.80001 37.6932 8.79113 37.7051 8.66656 37.7059C8.56077 37.7065 8.51568 37.7451 8.51568 37.835C8.51568 37.9054 8.4855 37.9631 8.44862 37.9631C8.41173 37.9631 8.38155 38.0495 8.38155 38.1552C8.38155 38.2609 8.35138 38.3474 8.31449 38.3474C8.27761 38.3474 8.24743 38.4185 8.24743 38.5054C8.24743 38.6197 8.27543 38.6534 8.34802 38.6268C8.4238 38.5989 8.44862 38.6378 8.44862 38.7847C8.44862 39.2756 8.81225 39.5831 9.20992 39.4282C9.46861 39.3277 9.58378 39.1957 9.58647 38.9965C9.59971 38.0577 10.8412 37.9661 11.0573 38.8881C11.245 39.6899 12.204 39.6627 12.204 38.8555C12.204 37.6346 10.8786 36.7536 9.70215 37.1927ZM7.96243 45.6965C8.15606 45.7094 8.47292 45.7094 8.66656 45.6965C8.8602 45.6835 8.70177 45.6729 8.31449 45.6729C7.92722 45.6729 7.76879 45.6835 7.96243 45.6965ZM9.95748 45.6816C10.1089 45.7315 11.1304 45.7524 11.0502 45.7038C11.0025 45.6749 10.722 45.6531 10.4269 45.6553C10.1318 45.6576 9.9206 45.6693 9.95748 45.6816ZM45.1445 45.7038C45.0967 45.7328 45.308 45.7447 45.614 45.7301C46.3571 45.6947 46.4281 45.6603 45.7679 45.6553C45.4728 45.6531 45.1923 45.6749 45.1445 45.7038ZM47.5974 45.6965C47.7924 45.7094 48.0942 45.7094 48.268 45.6962C48.4421 45.683 48.2826 45.6725 47.9138 45.6726C47.545 45.6728 47.4026 45.6835 47.5974 45.6965ZM50.3935 52.6308C50.3935 55.5372 50.4017 56.7261 50.4118 55.273C50.4219 53.8198 50.4219 51.4419 50.4118 49.9887C50.4017 48.5356 50.3935 49.7245 50.3935 52.6308ZM5.79821 52.6308C5.79821 55.4667 5.80643 56.6269 5.81649 55.2089C5.82654 53.791 5.82654 51.4707 5.81649 50.0528C5.80643 48.6348 5.79821 49.795 5.79821 52.6308ZM31.8528 48.0084C31.8528 48.0619 31.524 48.0872 30.696 48.0976L29.5392 48.1119L30.6742 48.1312C31.7284 48.149 32.0375 48.1102 31.8985 47.9775C31.8734 47.9535 31.8528 47.9674 31.8528 48.0084ZM11.103 59.4683C11.0755 59.4948 10.2633 59.5335 9.29811 59.5546L7.5433 59.5928L9.28687 59.5867C10.5305 59.5822 11.0688 59.558 11.1646 59.5023C11.2383 59.4594 11.266 59.4233 11.2261 59.4222C11.186 59.4211 11.1307 59.4419 11.103 59.4683ZM45.0302 59.4956C45.1323 59.5601 45.5811 59.5819 46.9079 59.5867L48.6515 59.5928L46.9079 59.5497C45.9489 59.5258 45.104 59.485 45.0302 59.4586L44.8961 59.4107L45.0302 59.4956Z" fill="#F8494D"/>
<path fill-rule="evenodd" clip-rule="evenodd" d="M27.4781 0.0243337C26.9875 0.0381048 26.6231 0.0747743 26.6231 0.110483C26.6231 0.146031 26.3647 0.172613 26.0195 0.172613C25.6619 0.172613 25.416 0.198714 25.416 0.236664C25.416 0.273654 25.2036 0.300716 24.913 0.300716C24.6225 0.300716 24.4101 0.327778 24.4101 0.364767C24.4101 0.400316 24.2312 0.428819 24.0077 0.428819C23.7842 0.428819 23.6053 0.457322 23.6053 0.49287C23.6053 0.528098 23.4412 0.556922 23.2405 0.556922C23.0399 0.556922 22.8569 0.585745 22.8341 0.620973C22.8113 0.656201 22.6133 0.685025 22.3942 0.685025C22.1734 0.685025 21.9959 0.713527 21.9959 0.749076C21.9959 0.784304 21.8619 0.813127 21.6981 0.813127C21.5343 0.813127 21.3816 0.841951 21.3588 0.877179C21.336 0.912407 21.1833 0.94123 21.0195 0.94123C20.8557 0.94123 20.7217 0.970054 20.7217 1.00528C20.7217 1.04051 20.601 1.06933 20.4535 1.06933C20.306 1.06933 20.1852 1.09816 20.1852 1.13338C20.1852 1.16861 20.0495 1.19744 19.8835 1.19744C19.7175 1.19744 19.5817 1.22258 19.5817 1.25332C19.5817 1.28407 19.4384 1.3249 19.2632 1.34411C19.088 1.36333 18.8692 1.39904 18.777 1.42354C18.6848 1.44804 18.5109 1.48231 18.3907 1.49992C18.2705 1.51753 18.1557 1.55757 18.1354 1.58879C18.1151 1.62018 18.0229 1.6458 17.9303 1.6458C17.838 1.6458 17.7055 1.67478 17.6361 1.71033C17.5667 1.74572 17.4329 1.78079 17.3387 1.78831C17.2446 1.79568 17.1675 1.82434 17.1675 1.85188C17.1675 1.87942 17.077 1.902 16.9663 1.902C16.8557 1.902 16.7652 1.93083 16.7652 1.96605C16.7652 2.00128 16.6746 2.03011 16.564 2.03011C16.4533 2.03011 16.3628 2.05893 16.3628 2.09416C16.3628 2.12939 16.2741 2.15821 16.1656 2.15821C16.0572 2.15821 15.9497 2.18703 15.9269 2.22226C15.9041 2.25749 15.8268 2.28631 15.7552 2.28631C15.6836 2.28631 15.6251 2.31513 15.6251 2.35036C15.6251 2.38559 15.5346 2.41441 15.4239 2.41441C15.3133 2.41441 15.2228 2.44324 15.2228 2.47847C15.2228 2.51369 15.1492 2.54252 15.0591 2.54252C14.9691 2.54252 14.8767 2.57134 14.8539 2.60657C14.8311 2.6418 14.7237 2.67062 14.6152 2.67062C14.5067 2.67062 14.418 2.69944 14.418 2.73467C14.418 2.7699 14.3724 2.79872 14.3166 2.79872C14.2608 2.79872 14.1627 2.82418 14.0987 2.85525C14.0346 2.88647 13.8916 2.94748 13.781 2.99088C13.6703 3.03427 13.5273 3.09528 13.4633 3.12651C13.3992 3.15757 13.2844 3.18303 13.2079 3.18303C13.1315 3.18303 13.0876 3.21185 13.1104 3.24708C13.1332 3.28231 13.0914 3.31113 13.0176 3.31113C12.9439 3.31113 12.8649 3.33996 12.8421 3.37519C12.8193 3.41041 12.7457 3.43924 12.6787 3.43924C12.3497 3.43924 12.399 3.60737 12.8592 4.05477C13.7194 4.89128 13.8758 5.39857 13.8792 7.36287L13.8815 8.75663L17.5867 8.73998L21.2916 8.72348L21.3424 8.32989C21.4121 7.78993 21.5429 7.52316 21.9137 7.16303C22.5483 6.54733 22.2868 6.57776 26.9331 6.57776C31.2378 6.57776 31.3433 6.58465 32.0038 6.90554C32.0679 6.93661 32.1635 6.96207 32.2161 6.96207C32.2689 6.96207 32.322 6.98369 32.3345 7.01011C32.3467 7.03653 32.4925 7.1286 32.6585 7.21475C32.8245 7.3009 33.0508 7.45206 33.1615 7.5507C33.2721 7.64934 33.3824 7.7302 33.4066 7.73037C33.4306 7.73053 33.5965 7.90747 33.7754 8.12348C33.9541 8.33965 34.1531 8.57024 34.2177 8.63589C34.3297 8.75006 34.5169 8.75551 38.3251 8.75551H42.3153V7.58497C42.3153 4.84613 42.9869 3.68536 44.8456 3.21153C45.4121 3.06694 48.7499 3.06822 49.3155 3.21298C50.0643 3.40465 51.3014 4.286 51.3014 4.62755C51.3014 4.67847 51.3242 4.72027 51.352 4.72027C51.4122 4.72027 51.6521 5.33148 51.7608 5.76206C51.8129 5.96863 51.8385 7.0242 51.8401 9.02869C51.8419 11.6647 51.8531 11.976 51.9418 11.862C51.9966 11.7915 52.0863 11.6831 52.141 11.621C52.1955 11.559 52.2402 11.4718 52.2402 11.4271C52.2402 11.3824 52.3006 11.3043 52.3744 11.2535C52.4481 11.2028 52.5085 11.1232 52.5085 11.0766C52.5085 11.03 52.5688 10.9301 52.6426 10.8545C52.7164 10.7789 52.7767 10.6791 52.7767 10.633C52.7767 10.5867 52.8069 10.5489 52.8438 10.5489C52.8807 10.5489 52.9108 10.5115 52.9108 10.4657C52.9108 10.3478 53.0686 10.0377 53.1288 10.037C53.1564 10.0367 53.1791 9.97889 53.1791 9.90844C53.1791 9.83798 53.2093 9.78033 53.2461 9.78033C53.283 9.78033 53.3132 9.72269 53.3132 9.65223C53.3132 9.58177 53.3434 9.52413 53.3803 9.52413C53.4171 9.52413 53.4473 9.47224 53.4473 9.40883C53.4473 9.34542 53.4723 9.26616 53.5026 9.23269C53.5332 9.19923 53.599 9.04214 53.6488 8.88361C53.6988 8.72508 53.761 8.56656 53.7871 8.53133C53.9283 8.34078 54.045 6.16223 53.9204 6.04325C53.8815 6.0061 53.8497 5.89497 53.8497 5.79633C53.8497 5.69769 53.8195 5.61699 53.7826 5.61699C53.7457 5.61699 53.7156 5.54733 53.7156 5.46214C53.7156 5.37711 53.6876 5.29785 53.6535 5.286C53.6193 5.27431 53.5816 5.22147 53.5697 5.16863C53.5576 5.11578 53.4951 5.02595 53.4306 4.96895C53.366 4.91194 53.3132 4.83412 53.3132 4.79585C53.3132 4.67447 52.3703 3.82355 52.2357 3.82355C52.197 3.82355 52.1868 3.79024 52.2131 3.74957C52.2417 3.70537 52.2317 3.69304 52.1879 3.71882C52.1477 3.74252 52.0387 3.68936 51.9458 3.60065C51.853 3.51178 51.7286 3.43924 51.6694 3.43924C51.6102 3.43924 51.5804 3.41041 51.6032 3.37519C51.626 3.33996 51.5825 3.31113 51.5066 3.31113C51.4306 3.31113 51.3684 3.28231 51.3684 3.24708C51.3684 3.21185 51.3232 3.18303 51.2679 3.18303C51.2125 3.18303 51.1673 3.15421 51.1673 3.11898C51.1673 3.08375 51.1088 3.05493 51.0372 3.05493C50.9656 3.05493 50.8883 3.02611 50.8655 2.99088C50.8427 2.95565 50.7654 2.92683 50.6938 2.92683C50.6222 2.92683 50.5637 2.898 50.5637 2.86277C50.5637 2.82755 50.5034 2.79872 50.4296 2.79872C50.3558 2.79872 50.2955 2.7699 50.2955 2.73467C50.2955 2.69944 50.2348 2.67062 50.1605 2.67062C50.0862 2.67062 49.958 2.63731 49.8755 2.59664C49.5526 2.43715 49.4879 2.41441 49.3575 2.41441C49.2832 2.41441 49.2225 2.38559 49.2225 2.35036C49.2225 2.31513 49.132 2.28631 49.0213 2.28631C48.9107 2.28631 48.8201 2.25749 48.8201 2.22226C48.8201 2.18703 48.7315 2.15821 48.623 2.15821C48.5145 2.15821 48.407 2.12939 48.3842 2.09416C48.3614 2.05893 48.254 2.03011 48.1455 2.03011C48.037 2.03011 47.9484 2.00448 47.9484 1.9731C47.9484 1.94171 47.8503 1.90056 47.7304 1.88167C47.6105 1.86261 47.3917 1.81761 47.2442 1.78143C47.0967 1.74524 46.8854 1.69768 46.7748 1.6759C46.6641 1.65396 46.5133 1.61169 46.4395 1.58175C46.2608 1.50921 45.9989 1.45636 45.4336 1.37854C45.1754 1.34299 44.9117 1.28775 44.8476 1.25572C44.7836 1.2237 44.6252 1.19744 44.4956 1.19744C44.366 1.19744 44.26 1.16861 44.26 1.13338C44.26 1.09816 44.1091 1.06933 43.9247 1.06933C43.7403 1.06933 43.5894 1.04051 43.5894 1.00528C43.5894 0.970054 43.4705 0.94123 43.3252 0.94123C43.1798 0.94123 43.0422 0.912407 43.0194 0.877179C42.9966 0.841951 42.8288 0.813127 42.6465 0.813127C42.4643 0.813127 42.3153 0.784304 42.3153 0.749076C42.3153 0.713848 42.1511 0.685025 41.9504 0.685025C41.7498 0.685025 41.5669 0.656201 41.5441 0.620973C41.5213 0.585745 41.3233 0.556922 41.1041 0.556922C40.8833 0.556922 40.7058 0.528419 40.7058 0.49287C40.7058 0.457001 40.5202 0.428819 40.2833 0.428819C40.051 0.428819 39.8322 0.402237 39.7971 0.369571C39.7371 0.313686 39.4459 0.284543 38.0911 0.198554C37.7779 0.178538 37.5008 0.130019 37.4752 0.0904669C37.4292 0.0195299 29.5154 -0.0328322 27.4781 0.0243337ZM20.1259 3.92763C21.0106 4.74028 21.1499 5.04133 20.8163 5.41987C20.5293 5.74573 20.1635 5.70554 19.695 5.29673C19.4934 5.12059 19.3011 4.97647 19.268 4.97647C19.2348 4.97647 19.0591 5.12059 18.8776 5.29673C18.3017 5.8551 17.6369 5.70266 17.6369 5.01202C17.6369 4.7571 17.67 4.71354 18.3402 4.08344L19.0437 3.42242L19.3451 3.45493C19.6069 3.48311 19.7096 3.54524 20.1259 3.92763ZM3.57098 9.11244C3.19292 9.47945 2.88361 9.79715 2.88361 9.81844C2.88361 9.83958 2.80045 9.93342 2.69885 10.0269C2.59709 10.1203 2.43866 10.3046 2.34679 10.4364C2.25475 10.5683 2.15684 10.6764 2.12917 10.6766C2.10151 10.6769 2.07888 10.7203 2.07888 10.7731C2.07888 10.826 2.0487 10.8692 2.01182 10.8692C1.97494 10.8692 1.94476 10.9124 1.94476 10.9653C1.94476 11.0181 1.91676 11.0614 1.88256 11.0614C1.84836 11.0614 1.76705 11.1767 1.702 11.3176C1.63695 11.4585 1.55933 11.5738 1.52948 11.5738C1.49964 11.5738 1.47533 11.6314 1.47533 11.7019C1.47533 11.7723 1.44516 11.83 1.40827 11.83C1.37139 11.83 1.34121 11.8732 1.34121 11.9261C1.34121 11.9789 1.31858 12.0223 1.29092 12.0226C1.26325 12.0229 1.20743 12.0878 1.16685 12.1667C1.12612 12.2457 1.02435 12.4401 0.940525 12.5986C0.856531 12.7571 0.761473 12.9369 0.729284 12.9981C0.696927 13.0593 0.670606 13.153 0.670606 13.2063C0.670606 13.2596 0.640429 13.3032 0.603545 13.3032C0.566662 13.3032 0.536485 13.3735 0.536485 13.4594C0.536485 13.5454 0.506308 13.6337 0.469424 13.6554C0.432541 13.6772 0.402363 13.7637 0.402363 13.8476C0.402363 13.9315 0.372187 14.018 0.335303 14.0398C0.29842 14.0615 0.268242 14.1642 0.268242 14.2678C0.268242 14.3714 0.238065 14.4561 0.201181 14.4561C0.164298 14.4561 0.134121 14.5984 0.134121 14.7725C0.134121 14.9466 0.103944 15.1069 0.0670602 15.1286C0.025818 15.153 0 15.6737 0 16.4776C0 17.3077 0.0244767 17.7868 0.0670602 17.7868C0.103944 17.7868 0.134121 17.8859 0.134121 18.0071C0.134121 18.1283 0.164298 18.2454 0.201181 18.2672C0.238065 18.2889 0.268242 18.4204 0.268242 18.5592C0.268242 18.6981 0.29842 18.8116 0.335303 18.8116C0.372187 18.8116 0.402363 18.8675 0.402363 18.9358C0.402363 19.0042 0.432541 19.078 0.469424 19.0998C0.506308 19.1216 0.536485 19.2098 0.536485 19.2958C0.536485 19.3818 0.566662 19.4521 0.603545 19.4521C0.640429 19.4521 0.670606 19.4963 0.670606 19.5504C0.670606 19.6045 0.719393 19.7198 0.778909 19.8066C0.838426 19.8934 0.864076 19.9645 0.835743 19.9645C0.807409 19.9645 0.849155 20.0183 0.928622 20.0841C1.00792 20.1499 1.07297 20.2508 1.07297 20.3083C1.07297 20.3658 1.10315 20.4129 1.14003 20.4129C1.17691 20.4129 1.20709 20.4641 1.20709 20.5269C1.20709 20.5895 1.26745 20.6824 1.34121 20.7331C1.41498 20.7839 1.47533 20.8768 1.47533 20.9394C1.47533 21.0021 1.49998 21.0534 1.53016 21.0534C1.5605 21.0534 1.6284 21.1386 1.68104 21.2428C1.78918 21.4561 2.80431 22.5266 2.89853 22.5266C2.93189 22.5266 3.10642 22.6707 3.28597 22.8468C3.46553 23.023 3.64776 23.1671 3.69068 23.1671C3.7336 23.1671 3.85314 23.2536 3.95658 23.3592C4.06002 23.4649 4.18609 23.5514 4.23689 23.5514C4.28769 23.5514 4.37286 23.609 4.426 23.6795C4.47915 23.75 4.5613 23.8076 4.60841 23.8076C4.65568 23.8076 4.69424 23.8331 4.69424 23.8641C4.69424 23.8954 4.74705 23.9368 4.8116 23.9564C4.98629 24.0092 5.31606 24.2086 5.43962 24.336C5.49931 24.3977 5.59755 24.4481 5.65774 24.4481C5.71792 24.4481 5.76721 24.4769 5.76721 24.5122C5.76721 24.5474 5.82287 24.5762 5.89094 24.5762C5.95901 24.5762 6.06932 24.6339 6.13605 24.7043C6.20277 24.7748 6.298 24.8324 6.34762 24.8324C6.39725 24.8324 6.43782 24.8613 6.43782 24.8965C6.43782 24.9317 6.49449 24.9605 6.56373 24.9605C6.63297 24.9605 6.72719 25.0038 6.77312 25.0566C6.81906 25.1094 6.89065 25.1533 6.93222 25.1541C6.9738 25.1549 7.08328 25.2119 7.17549 25.2808C7.2677 25.3496 7.41288 25.4066 7.49805 25.4074C7.58322 25.4082 7.63586 25.4351 7.6149 25.4673C7.59411 25.4995 7.66771 25.5642 7.7787 25.6111C7.88951 25.6581 7.98021 25.7181 7.98021 25.7448C7.98021 25.7714 8.01978 25.7932 8.06823 25.7932C8.11652 25.7932 8.22096 25.8508 8.30009 25.9213C8.37923 25.9918 8.48384 26.0494 8.53263 26.0494C8.58141 26.0494 8.66474 26.1071 8.71788 26.1775C8.77103 26.248 8.86156 26.3056 8.91906 26.3056C8.97657 26.3056 9.0671 26.3633 9.12025 26.4337C9.17339 26.5042 9.25068 26.5618 9.29209 26.5618C9.36334 26.5618 9.70032 26.8395 10.2938 27.3874C10.6828 27.7464 10.9979 28.1143 10.9979 28.2089C10.9979 28.2542 11.0281 28.2912 11.065 28.2912C11.1019 28.2912 11.1321 28.3489 11.1321 28.4193C11.1321 28.4898 11.1622 28.5474 11.1991 28.5474C11.236 28.5474 11.2662 28.6051 11.2662 28.6755C11.2662 28.746 11.2964 28.8036 11.3332 28.8036C11.3701 28.8036 11.4003 28.8901 11.4003 28.9958C11.4003 29.1015 11.4305 29.1879 11.4674 29.1879C11.5043 29.1879 11.5344 29.3032 11.5344 29.4441C11.5344 29.585 11.5646 29.7003 11.6015 29.7003C11.6902 29.7003 11.6902 30.897 11.6015 30.9493C11.5646 30.9711 11.5344 31.1152 11.5344 31.2696C11.5344 31.424 11.5043 31.5681 11.4674 31.5899C11.4305 31.6116 11.4003 31.7287 11.4003 31.8499C11.4003 31.9711 11.3701 32.0702 11.3332 32.0702C11.2964 32.0702 11.2662 32.1567 11.2662 32.2624C11.2662 32.3681 11.236 32.4546 11.1991 32.4546C11.1622 32.4546 11.1321 32.541 11.1321 32.6467C11.1321 32.7524 11.1019 32.8389 11.065 32.8389C11.0281 32.8389 10.9979 32.8947 10.9979 32.9631C10.9979 33.0315 10.9678 33.1053 10.9309 33.1271C10.894 33.1489 10.8638 33.2371 10.8638 33.3231C10.8638 33.4091 10.8407 33.4794 10.8125 33.4794C10.7704 33.4794 10.5164 33.9457 10.4987 34.0558C10.4958 34.0734 10.3807 34.2954 10.2428 34.5489C10.1049 34.8025 9.99203 35.0709 9.99203 35.1452C9.99203 35.2195 9.96186 35.2626 9.92497 35.2408C9.88809 35.219 9.85791 35.2605 9.85791 35.333C9.85791 35.4056 9.82774 35.465 9.79085 35.465C9.75397 35.465 9.72379 35.5226 9.72379 35.5931C9.72379 35.6635 9.69361 35.7212 9.65673 35.7212C9.61985 35.7212 9.58967 35.7788 9.58967 35.8493C9.58967 35.9197 9.55949 35.9774 9.52261 35.9774C9.48572 35.9774 9.45555 36.0494 9.45555 36.1375C9.45555 36.2256 9.42537 36.2976 9.38849 36.2976C9.3516 36.2976 9.32143 36.3553 9.32143 36.4257C9.32143 36.4962 9.29125 36.5538 9.25437 36.5538C9.21748 36.5538 9.18731 36.5913 9.18731 36.6371C9.18731 36.755 9.02955 37.0651 8.96936 37.0658C8.9417 37.0661 8.91906 37.1215 8.91906 37.1891C8.91906 37.2565 8.88352 37.3231 8.8401 37.3369C8.79668 37.3508 8.78226 37.3947 8.80808 37.4344C8.83993 37.4837 9.01982 37.4262 9.37122 37.2544C10.4601 36.7226 11.552 37.0496 12.1314 38.081C12.3395 38.4512 12.3655 39.1033 12.1802 39.2989C11.7296 39.7745 10.9309 39.4379 10.9309 38.7727C10.9309 38.0739 9.91726 38.1734 9.71893 38.8917C9.49226 39.7124 8.65501 39.7939 8.34771 39.0253C8.2265 38.7221 8.11434 38.6397 8.11434 38.8536C8.11434 38.9207 8.04962 39.1008 7.97066 39.2539C7.89169 39.407 7.80418 39.5899 7.77618 39.6603C7.74818 39.7308 7.66637 39.9181 7.59411 40.0767C7.45345 40.3859 7.34783 40.7191 7.3656 40.7973C7.37164 40.8237 7.34649 40.8453 7.30961 40.8453C7.27273 40.8453 7.24255 40.9033 7.24255 40.9742C7.24255 41.0451 7.21237 41.1604 7.17549 41.2304C7.1386 41.3004 7.07825 41.415 7.04137 41.485C7.00448 41.555 6.97431 41.6562 6.97431 41.71C6.97431 41.8049 6.94647 41.8727 6.78352 42.1736C6.74093 42.2523 6.70606 42.3748 6.70606 42.4458C6.70606 42.5167 6.67589 42.5747 6.639 42.5747C6.60212 42.5747 6.57194 42.6612 6.57194 42.7668C6.57194 42.8725 6.54176 42.959 6.50488 42.959C6.468 42.959 6.43782 43.0455 6.43782 43.1511C6.43782 43.2568 6.40764 43.3433 6.37076 43.3433C6.33388 43.3433 6.3037 43.4298 6.3037 43.5355C6.3037 43.6411 6.27352 43.7276 6.23664 43.7276C6.19975 43.7276 6.16958 43.8123 6.16958 43.9159C6.16958 44.0195 6.1394 44.1222 6.10252 44.1439C6.06563 44.1657 6.03546 44.2626 6.03546 44.3592C6.03546 44.4557 5.99773 44.5729 5.95163 44.6195C5.83729 44.7353 6.0824 44.6847 6.57194 44.4916C7.04271 44.3058 10.9061 44.2564 11.4674 44.4288C12.2371 44.6655 13.1741 45.3686 13.4163 45.8911C13.469 46.0046 13.5347 46.0975 13.5627 46.0975C13.5905 46.0975 13.6133 46.1411 13.6133 46.1944C13.6133 46.2477 13.6398 46.3414 13.6722 46.4026C13.8494 46.7379 13.8815 47.0576 13.8815 48.4886V50.0059L16.9816 49.9893L20.0815 49.9726L20.1606 49.6327C20.3041 49.0149 20.7504 48.5023 21.3774 48.2343C21.8346 48.0391 23.6853 48.0043 23.975 48.1856C24.2531 48.3597 24.4931 49.0439 24.2759 49.0439C24.2391 49.0439 24.2089 49.0969 24.2089 49.1617C24.2089 49.3651 23.9162 49.4282 22.9735 49.4282H22.0799L21.8366 49.6408L21.5935 49.8537V52.6188C21.5935 55.3685 21.5944 55.385 21.7397 55.5446L21.8859 55.7052H28.0984H34.3109L34.4571 55.5446C34.6155 55.3706 34.6967 49.8125 34.5408 49.8125C34.5064 49.8125 34.4611 49.7621 34.4403 49.7004C34.3518 49.4392 34.192 49.4282 30.4962 49.4282H26.9523L26.7877 49.2709C26.2509 48.7582 26.7129 48.0831 27.6006 48.0831H28.1655V46.4741V44.8652L27.5958 44.2403C27.2824 43.8967 26.9126 43.5039 26.774 43.3673C26.2318 42.8336 26.1907 42.7403 26.1635 41.9825L26.1389 41.2937H24.7754C23.9388 41.2937 23.3961 41.2688 23.3706 41.2296C23.3478 41.1944 23.2674 41.1656 23.1919 41.1656C22.6968 41.1656 21.8427 40.5273 21.5496 39.9383C21.2594 39.3556 21.2582 39.3372 21.2582 35.6024V32.0019L21.0307 31.7846C20.9056 31.6651 20.717 31.4571 20.6116 31.3224C20.5061 31.1878 20.3672 31.0217 20.3026 30.9533C20.2381 30.885 20.1852 30.7937 20.1852 30.7505C20.1852 30.7072 20.1614 30.6622 20.1324 30.6504C20.0102 30.6011 19.3177 29.3591 19.315 29.1847C19.3141 29.1301 19.2885 29.0581 19.2581 29.0246C19.2276 28.9911 19.1643 28.834 19.1175 28.6755C19.0705 28.517 19.005 28.3372 18.9716 28.276C18.9383 28.2148 18.9111 28.0981 18.9111 28.0166C18.9111 27.9351 18.8839 27.8411 18.8509 27.8076C18.6387 27.593 18.5709 25.8207 18.5905 20.9893C18.6107 16.0028 18.5909 16.2889 18.9446 15.8798C19.4187 15.3314 20.394 15.323 21.0067 15.8622L21.2582 16.0833V15.0846V14.0859L21.0391 14.0614C20.9186 14.0479 19.8246 14.0436 18.6082 14.0516C17.3917 14.0598 15.8305 14.0676 15.1389 14.0691L13.8815 14.0718L13.8792 15.4649C13.8752 17.7877 13.4522 18.6795 12.0307 19.3616C11.2191 19.7512 7.49604 19.8664 6.58988 19.5301C5.60577 19.165 5.03324 18.5951 4.56465 17.5145C4.41946 17.1797 4.40203 16.7218 4.38006 12.6787C4.36749 10.3448 4.3348 8.43749 4.30764 8.44022C4.28048 8.44294 3.94903 8.74542 3.57098 9.11244ZM28.7209 14.2896C28.5445 14.515 28.3495 14.7672 28.2877 14.85C28.2258 14.9328 27.9864 15.2455 27.7557 15.545C27.525 15.8444 27.126 16.3632 26.869 16.6979C26.6122 17.0326 26.291 17.4505 26.1552 17.6266C25.5761 18.3786 25.483 18.5254 25.483 18.6883C25.483 18.9511 25.6379 19.0244 26.2591 19.0555C26.7812 19.0817 26.8243 19.0942 26.8248 19.2199C26.8249 19.2949 26.7602 19.9355 26.6809 20.6438C26.5243 22.0404 26.5345 22.2034 26.7859 22.332C27.0243 22.4537 27.1916 22.3293 27.7058 21.6484C27.9396 21.3387 28.3656 20.7828 28.6525 20.4129C28.9395 20.043 29.2166 19.6827 29.2684 19.6122C29.3204 19.5418 29.6666 19.095 30.0378 18.6194C30.9827 17.409 30.9498 17.1493 29.8509 17.1472L29.357 17.1463L29.4009 16.7139C29.4943 15.7975 29.5863 14.9852 29.6386 14.6162C29.7588 13.7698 29.2651 13.5941 28.7209 14.2896ZM34.9857 14.0481C34.9597 14.0729 34.9386 15.5871 34.9386 17.4132V20.7331H35.1969C35.5259 20.7331 35.8617 20.5206 36.0602 20.1868L36.2112 19.9325L36.1953 16.9861L36.1792 14.0398L35.606 14.0215C35.2908 14.0114 35.0117 14.0234 34.9857 14.0481ZM37.7328 14.0505C37.7082 14.0739 37.6874 15.3205 37.6867 16.8207C37.6856 19.4492 37.6401 20.1889 37.4539 20.621C37.3913 20.7661 38.1305 20.7833 38.4123 20.6431C39.1262 20.2885 39.1579 20.0478 39.0519 15.7852L39.0077 14.0077H38.3925C38.0542 14.0077 37.7573 14.0269 37.7328 14.0505ZM40.5903 14.0594C40.5284 14.0969 40.4967 14.8801 40.462 17.2318C40.4366 18.949 40.3905 20.369 40.3596 20.3873C40.3288 20.4055 40.3034 20.4779 40.3034 20.5483C40.3034 20.7234 39.8149 21.3967 39.5487 21.5884C38.898 22.0569 38.4371 22.1423 36.5571 22.1423H34.9386V23.6212V25.1L35.3577 25.0638C35.5882 25.044 36.1692 24.9937 36.6486 24.952C37.1281 24.9104 38.3112 24.8737 39.2777 24.8705C41.1491 24.8641 41.2316 24.8497 41.2401 24.5282C41.2413 24.4841 41.2674 24.4481 41.2979 24.4481C41.3286 24.4481 41.3964 24.3689 41.4485 24.272C41.5005 24.1751 41.5962 24.0492 41.6609 23.9922C41.7258 23.9352 41.7788 23.8415 41.7788 23.7841C41.7788 23.7266 41.8039 23.6795 41.8344 23.6795C41.8651 23.6795 41.9328 23.6002 41.985 23.5034C42.037 23.4065 42.1327 23.2806 42.1974 23.2236C42.2623 23.1666 42.3156 23.0945 42.3161 23.0635C42.3173 22.9978 42.5129 22.7511 42.8685 22.3672C43.0068 22.218 43.12 22.0777 43.12 22.0555C43.12 22.0174 43.3215 21.7761 43.5056 21.5938C43.5517 21.5482 43.5894 21.4656 43.5894 21.4103C43.5894 21.3549 43.6196 21.3096 43.6565 21.3096C43.6934 21.3096 43.7235 21.2566 43.7235 21.1917C43.7235 21.1267 43.9993 20.7636 44.3365 20.3844C44.9792 19.6612 44.9873 19.635 44.5953 19.5373C42.9988 19.1399 42.3169 17.8356 42.3158 15.1767L42.3153 14.0077L41.4938 14.0087C41.0419 14.0092 40.6354 14.0321 40.5903 14.0594ZM25.8854 30.5857C25.8854 33.4949 25.8747 33.5684 25.3841 34.011C24.6885 34.6389 24.0116 34.5599 23.1192 33.7471L22.7336 33.3958L22.718 34.3503C22.6905 36.0261 22.7144 36.1663 23.0844 36.5013C23.4833 36.8623 26.0866 37.0712 26.1317 36.746C26.1391 36.6932 26.1632 36.5175 26.1855 36.3558C26.2284 36.0418 26.2004 36.0763 27.5767 34.636L28.1616 34.0238L28.1635 31.0294L28.1655 28.035H27.0254H25.8854V30.5857ZM39.6027 29.268C39.2474 29.7348 38.9198 30.1599 38.8747 30.2127C38.8296 30.2656 38.7191 30.4097 38.6293 30.533C38.5392 30.6563 38.4477 30.7716 38.4257 30.7892C38.4038 30.8068 38.3126 30.9221 38.2232 31.0454C38.1337 31.1687 38.0361 31.2984 38.0064 31.3336C37.7675 31.6163 36.8523 32.8438 36.773 32.9878C36.5817 33.3356 36.7682 33.4707 37.47 33.4928L38.0569 33.5114L38.0455 33.8317C38.0393 34.0078 37.9974 34.4546 37.9526 34.8245C37.9077 35.1944 37.8675 35.7708 37.8633 36.1055L37.8557 36.714L38.0634 36.7333C38.3018 36.7554 38.2546 36.8051 39.3039 35.4329C40.3955 34.0056 40.5742 33.7735 40.6602 33.6715C40.7048 33.6187 40.8148 33.4746 40.9046 33.3513C40.9947 33.228 41.086 33.1127 41.1078 33.0951C41.1855 33.0325 41.7531 32.2264 41.7976 32.1157C41.8926 31.8795 41.6276 31.75 41.0493 31.75C40.5145 31.75 40.2956 31.6614 40.4065 31.4898C40.4329 31.4493 40.4813 31.1383 40.5145 30.7985C40.6151 29.7679 40.6962 29.1011 40.7435 28.9159C40.8029 28.6832 40.6248 28.4193 40.4086 28.4193C40.2805 28.4193 40.1197 28.5886 39.6027 29.268ZM47.2212 35.7125C47.1785 35.8488 47.1436 36.0578 47.1436 36.1769C47.1435 37.9284 45.8135 39.612 44.1259 39.9971C42.7475 40.3116 38.2224 40.436 35.8942 40.2234L35.3408 40.1728L35.3409 41.3798C35.3409 42.6203 35.3125 42.7612 35.0085 43.023C34.988 43.0407 34.8055 43.2424 34.603 43.4714C34.2288 43.8943 33.8121 44.3396 33.5573 44.5893C33.4247 44.7193 33.414 44.821 33.3684 46.3987L33.3199 48.0705L33.9449 48.095C35.0861 48.1396 35.8255 48.7081 36.0541 49.7164L36.1121 49.9726L39.2137 49.9893L42.3153 50.0059V48.6719C42.3153 46.0594 42.8243 45.1744 44.7494 44.4397C44.9942 44.3463 49.2629 44.3393 49.3231 44.4322C49.3459 44.4674 49.4188 44.4962 49.4852 44.4962C49.6644 44.4962 50.3612 44.857 50.6356 45.0919C51.0722 45.4656 51.3619 45.8762 51.639 46.5138C51.7723 46.8208 51.7948 47.2663 51.832 50.3542C51.8712 53.6096 51.8717 53.6176 52.001 53.4287C52.0724 53.3244 52.2459 53.1334 52.3866 53.004C52.5274 52.8748 52.6426 52.7361 52.6426 52.6961C52.6426 52.6561 52.6728 52.641 52.7097 52.6628C52.7465 52.6846 52.7767 52.6546 52.7767 52.5962C52.7767 52.5377 52.8672 52.4093 52.9779 52.3105C53.0885 52.2117 53.1792 52.1065 53.1794 52.0767C53.1796 52.0468 53.2701 51.9302 53.3806 51.8176C53.4911 51.7051 53.5814 51.5826 53.5814 51.5454C53.5814 51.5083 53.6069 51.4778 53.6379 51.4778C53.6691 51.4778 53.7644 51.3481 53.8497 51.1896C53.935 51.0311 54.0302 50.9014 54.0614 50.9014C54.0924 50.9014 54.1179 50.8581 54.1179 50.8053C54.1179 50.7525 54.1481 50.7092 54.185 50.7092C54.2219 50.7092 54.2521 50.6817 54.2521 50.648C54.2521 50.6143 54.3421 50.4408 54.4522 50.2623C54.5624 50.0839 54.6727 49.8593 54.6973 49.7632C54.722 49.6669 54.76 49.5739 54.7822 49.5563C54.8712 49.4849 55.1238 48.9595 55.1238 48.8456C55.1238 48.7785 55.154 48.7236 55.1909 48.7236C55.2278 48.7236 55.258 48.666 55.258 48.5955C55.258 48.5251 55.2881 48.4674 55.325 48.4674C55.3619 48.4674 55.3921 48.3971 55.3921 48.3111C55.3921 48.2251 55.4223 48.1369 55.4591 48.1151C55.496 48.0934 55.5262 47.9891 55.5262 47.8834C55.5262 47.7717 55.5542 47.7078 55.5933 47.7308C55.6332 47.7544 55.6603 47.6781 55.6603 47.5425C55.6603 47.4171 55.6905 47.3145 55.7274 47.3145C55.7643 47.3145 55.7944 47.2118 55.7944 47.0865C55.7944 46.9508 55.8216 46.8746 55.8615 46.8982C55.9024 46.9223 55.9286 46.8253 55.9286 46.6495C55.9286 46.4909 55.9587 46.3435 55.9956 46.3217C56.0325 46.2999 56.0627 46.131 56.0627 45.9464C56.0627 45.7617 56.0939 45.5809 56.1321 45.5444C56.2717 45.411 56.1341 41.4858 55.9896 41.4858C55.9561 41.4858 55.9286 41.4011 55.9286 41.2975C55.9286 41.1939 55.8984 41.0912 55.8615 41.0695C55.8246 41.0477 55.7944 40.9595 55.7944 40.8735C55.7944 40.7875 55.7643 40.7172 55.7274 40.7172C55.6905 40.7172 55.6603 40.6595 55.6603 40.5891C55.6603 40.5186 55.6301 40.461 55.5933 40.461C55.5564 40.461 55.5262 40.4033 55.5262 40.3329C55.5262 40.2624 55.496 40.2048 55.4591 40.2048C55.4223 40.2048 55.3921 40.1454 55.3921 40.0728C55.3921 40.0003 55.3619 39.9588 55.325 39.9806C55.2881 40.0024 55.258 39.9816 55.258 39.9345C55.258 39.8872 55.1976 39.8072 55.1238 39.7564C55.0501 39.7057 54.9897 39.6302 54.9897 39.5889C54.9897 39.48 54.2497 38.7316 54.1419 38.7316C54.0918 38.7316 54.0509 38.7028 54.0509 38.6675C54.0509 38.6323 54.0204 38.6035 53.9831 38.6035C53.9459 38.6035 53.8209 38.517 53.705 38.4113C53.5892 38.3057 53.4604 38.2192 53.4187 38.2192C53.3769 38.2192 53.2993 38.1615 53.2461 38.0911C53.193 38.0206 53.0958 37.963 53.0302 37.963C52.9645 37.963 52.9108 37.9342 52.9108 37.8989C52.9108 37.8637 52.8713 37.8349 52.8228 37.8349C52.7745 37.8349 52.6701 37.7772 52.591 37.7068C52.5118 37.6363 52.4005 37.5787 52.3437 37.5787C52.2868 37.5787 52.2402 37.5498 52.2402 37.5146C52.2402 37.4794 52.1799 37.4506 52.1061 37.4506C52.0323 37.4506 51.972 37.4217 51.972 37.3865C51.972 37.3513 51.9116 37.3225 51.8379 37.3225C51.7641 37.3225 51.7037 37.2991 51.7037 37.2704C51.7037 37.2418 51.5981 37.1787 51.469 37.1303C51.3399 37.0819 51.2343 37.0189 51.2343 36.9902C51.2343 36.9615 51.1948 36.9382 51.1463 36.9382C51.0979 36.9382 50.9334 36.8805 50.7807 36.8101C50.6281 36.7396 50.4769 36.6819 50.4447 36.6819C50.4127 36.6819 50.1994 36.5955 49.9711 36.4898C49.7426 36.3841 49.5109 36.2976 49.4562 36.2976C49.4014 36.2976 49.3566 36.272 49.3566 36.2408C49.3566 36.2096 49.2585 36.1665 49.1387 36.1452C48.8211 36.0884 48.7621 36.0715 48.7103 36.0219C48.6847 35.9974 48.6084 35.9774 48.5407 35.9774C48.4731 35.9774 48.4178 35.9486 48.4178 35.9133C48.4178 35.8781 48.3423 35.8493 48.2501 35.8493C48.1579 35.8493 48.0825 35.8205 48.0825 35.7852C48.0825 35.75 48.024 35.7212 47.9524 35.7212C47.8808 35.7212 47.8035 35.6924 47.7807 35.6571C47.7579 35.6219 47.6655 35.5931 47.5755 35.5931C47.4855 35.5931 47.4119 35.5642 47.4119 35.529C47.4119 35.3719 47.2918 35.4875 47.2212 35.7125ZM22.6826 38.4983C22.7607 39.6946 23.0838 39.8956 24.887 39.8699L26.1201 39.8525V39.0198V38.1872L24.6963 38.1799C23.839 38.1756 23.2385 38.1466 23.1874 38.1073C23.1406 38.0712 22.9998 38.0208 22.8746 37.9952L22.6467 37.9486L22.6826 38.4983ZM16.2436 40.8033C16.8543 41.0626 17.2939 41.6195 17.3947 42.2611C17.5531 43.2693 16.32 43.5297 16.0875 42.5372C15.8955 41.7182 14.9366 41.7273 14.7988 42.5495C14.6457 43.4647 13.5063 43.3353 13.5184 42.4043C13.5348 41.1246 14.9886 40.2706 16.2436 40.8033ZM25.4453 50.257C25.8339 50.6059 25.8805 51.7555 25.5204 52.1145L25.3238 52.3105H24.0682H22.8125L22.639 52.1134C22.206 51.6219 22.4537 50.1981 22.9874 50.1111C23.6379 50.0051 25.2728 50.1022 25.4453 50.257ZM29.1206 50.1097C29.6138 50.1877 29.7079 50.364 29.7079 51.2109C29.7079 51.927 29.702 51.9571 29.5276 52.1308L29.3474 52.3105H28.0984H26.8494L26.6692 52.1308C26.2078 51.671 26.4658 50.2109 27.0254 50.1148C27.2893 50.0697 28.8426 50.0658 29.1206 50.1097ZM33.4418 50.1952C33.7977 50.4163 33.8785 51.7494 33.5578 52.1134L33.3843 52.3105H32.1277C30.5535 52.3105 30.4455 52.2402 30.4455 51.2154C30.4455 50.5617 30.6494 50.1893 31.0491 50.1121C31.4298 50.0386 33.2939 50.1034 33.4418 50.1952ZM25.394 52.9962C25.9763 53.3606 25.8737 54.8513 25.249 55.1006C24.9345 55.2261 23.2241 55.2297 22.9128 55.1055C22.3136 54.8663 22.2495 53.2287 22.8288 52.9603C23.087 52.8407 25.1925 52.8702 25.394 52.9962ZM29.3266 52.9585C29.9295 53.253 29.88 54.8582 29.2604 55.1055C28.9481 55.2301 27.2591 55.226 26.9428 55.0998C26.3236 54.8527 26.2609 53.2748 26.8578 52.9613C27.04 52.8655 29.1315 52.8633 29.3266 52.9585ZM33.3975 52.9837C33.6891 53.1276 33.7315 53.2596 33.7315 54.0215C33.7315 55.1051 33.6098 55.1928 32.1075 55.1927C30.6876 55.1925 30.4459 55.0237 30.4457 54.0317C30.4455 53.4577 30.5689 53.1235 30.8311 52.9877C31.0992 52.8487 33.1181 52.8457 33.3975 52.9837ZM36.0954 55.4943C36.0493 55.5891 36.0116 55.7177 36.0116 55.7802C36.0116 56.1698 35.1408 57.0503 34.7555 57.0503C34.6866 57.0503 34.6014 57.0755 34.5664 57.1062C34.5133 57.1528 27.3311 57.2418 23.5727 57.2423L22.5003 57.2425L23.6053 58.2993L24.7103 59.3562H23.2481C21.7094 59.3562 21.6431 59.3456 21.303 59.0441C21.0248 58.7975 20.9229 58.5073 20.9229 57.961V57.4783L18.1231 57.5201C16.5833 57.5432 14.9989 57.5622 14.6025 57.5624L13.8815 57.5627V58.0072C13.8815 58.2518 13.8514 58.4697 13.8145 58.4915C13.7776 58.5132 13.7474 58.5988 13.7474 58.6814C13.7474 58.8335 13.4879 59.3703 13.3954 59.4095C13.3677 59.4213 13.3451 59.4718 13.3451 59.5216C13.3451 59.5715 13.3166 59.6124 13.2817 59.6124C13.2467 59.6124 13.2069 59.9767 13.1927 60.429C13.1665 61.2591 13.1137 61.5458 12.9181 61.9206C12.7818 62.1815 12.7789 62.3025 12.9092 62.3025C12.9645 62.3025 13.0098 62.3314 13.0098 62.3666C13.0098 62.4018 13.0683 62.4306 13.1399 62.4306C13.2114 62.4306 13.2887 62.4595 13.3115 62.4947C13.3343 62.5299 13.4267 62.5587 13.5167 62.5587C13.6068 62.5587 13.6804 62.5876 13.6804 62.6228C13.6804 62.658 13.7411 62.6868 13.8153 62.6868C13.8896 62.6868 14.0028 62.7136 14.0668 62.7462C14.2375 62.8332 14.4293 62.8952 14.6192 62.9248C14.7114 62.9392 14.8155 62.978 14.8506 63.0111C14.8856 63.0441 14.9818 63.0711 15.0645 63.0711C15.1472 63.0711 15.2335 63.1 15.2563 63.1352C15.2791 63.1704 15.4016 63.1993 15.5286 63.1993C15.6555 63.1993 15.7592 63.2281 15.7592 63.2633C15.7592 63.2985 15.88 63.3274 16.0275 63.3274C16.175 63.3274 16.2957 63.3562 16.2957 63.3914C16.2957 63.4266 16.4164 63.4555 16.564 63.4555C16.7115 63.4555 16.8322 63.4843 16.8322 63.5195C16.8322 63.5547 16.9662 63.5836 17.13 63.5836C17.2938 63.5836 17.4465 63.6124 17.4693 63.6476C17.4921 63.6828 17.6732 63.7117 17.8717 63.7117C18.0702 63.7117 18.2512 63.7405 18.274 63.7757C18.2968 63.8109 18.5074 63.8398 18.7418 63.8398C19.0233 63.8398 19.1777 63.867 19.1961 63.9198C19.2181 63.9828 20.1331 63.9999 23.4712 63.9999C26.8093 63.9999 27.7244 63.9828 27.7463 63.9198C27.7658 63.8643 27.9468 63.8398 28.3386 63.8398C28.6703 63.8398 28.9031 63.8133 28.9031 63.7757C28.9031 63.7397 29.0917 63.7117 29.335 63.7117C29.5726 63.7117 29.7856 63.6828 29.8084 63.6476C29.8312 63.6124 30.0123 63.5836 30.2108 63.5836C30.4093 63.5836 30.5904 63.5547 30.6132 63.5195C30.636 63.4843 30.802 63.4555 30.982 63.4555C31.1621 63.4555 31.328 63.4266 31.3508 63.3914C31.3736 63.3562 31.5094 63.3274 31.6526 63.3274C31.7958 63.3274 31.9316 63.2985 31.9544 63.2633C31.9772 63.2281 32.1299 63.1993 32.2937 63.1993C32.4575 63.1993 32.5915 63.1704 32.5915 63.1352C32.5915 63.1 32.7254 63.0711 32.8892 63.0711C33.053 63.0711 33.2057 63.0423 33.2285 63.0071C33.2513 62.9719 33.372 62.943 33.4968 62.943C33.6215 62.943 33.7422 62.9142 33.765 62.879C33.7878 62.8438 33.9104 62.8149 34.0373 62.8149C34.1642 62.8149 34.268 62.792 34.268 62.764C34.268 62.736 34.4566 62.6816 34.6871 62.643C34.9176 62.6044 35.2119 62.5424 35.3409 62.5053C35.47 62.4679 35.7784 62.384 36.0263 62.3187C36.2741 62.2532 36.4979 62.1796 36.5236 62.1551C36.5494 62.1306 36.6391 62.1104 36.7229 62.1104C36.8067 62.1104 36.8941 62.0816 36.9169 62.0463C36.9397 62.0111 37.0302 61.9823 37.1181 61.9823C37.2059 61.9823 37.2964 61.9534 37.3192 61.9182C37.342 61.883 37.4344 61.8542 37.5244 61.8542C37.6145 61.8542 37.6881 61.8253 37.6881 61.7901C37.6881 61.7549 37.7617 61.7261 37.8517 61.7261C37.9417 61.7261 38.0341 61.6972 38.0569 61.662C38.0797 61.6268 38.1872 61.598 38.2956 61.598C38.4041 61.598 38.4928 61.5691 38.4928 61.5339C38.4928 61.4987 38.5664 61.4699 38.6564 61.4699C38.7465 61.4699 38.8388 61.441 38.8616 61.4058C38.8844 61.3706 38.9617 61.3418 39.0333 61.3418C39.1049 61.3418 39.1634 61.3129 39.1634 61.2777C39.1634 61.2425 39.2558 61.2137 39.3686 61.2137C39.4882 61.2137 39.5564 61.1869 39.5322 61.1496C39.5088 61.1134 39.5638 61.0856 39.6585 61.0856C39.7507 61.0856 39.8447 61.0567 39.8675 61.0215C39.8903 60.9863 39.9676 60.9575 40.0392 60.9575C40.1108 60.9575 40.1693 60.9286 40.1693 60.8934C40.1693 60.8582 40.2089 60.8293 40.2573 60.8293C40.3058 60.8293 40.4703 60.7717 40.623 60.7012C40.7755 60.6308 40.9472 60.5731 41.0044 60.5731C41.0614 60.5731 41.1082 60.5443 41.1082 60.5091C41.1082 60.4739 41.1685 60.445 41.2423 60.445C41.3161 60.445 41.3764 60.4162 41.3764 60.381C41.3764 60.3458 41.4339 60.3169 41.5042 60.3169C41.5744 60.3169 41.7479 60.2635 41.8898 60.198C42.0316 60.1326 42.3211 60.0031 42.5332 59.9104C42.9869 59.7121 42.9817 59.7366 42.6913 59.1462C42.3634 58.4795 42.3153 58.1619 42.3153 56.6628V55.3209L39.2472 55.3214L36.1792 55.3219L36.0954 55.4943Z" fill="#DBDAFA"/>
<path fill-rule="evenodd" clip-rule="evenodd" d="M45.3 3.13435C44.4761 3.23283 43.9065 3.50377 43.322 4.07431C42.4821 4.89465 42.3161 5.47367 42.3161 7.58497V8.75551H38.326C34.5178 8.75551 34.3305 8.75006 34.2185 8.63589C34.154 8.57024 33.955 8.33965 33.7763 8.12348C33.5974 7.90747 33.4314 7.73052 33.4074 7.73036C33.3833 7.7302 33.273 7.64934 33.1623 7.5507C33.0517 7.45206 32.8254 7.3009 32.6594 7.21475C32.4934 7.1286 32.3476 7.03653 32.3353 7.0101C32.3229 6.98368 32.2698 6.96207 32.217 6.96207C32.1643 6.96207 32.0687 6.93661 32.0047 6.90554C31.3442 6.58464 31.2387 6.57776 26.9339 6.57776C22.2876 6.57776 22.5492 6.54733 21.9146 7.16303C21.5438 7.52316 21.413 7.78993 21.3432 8.32988L21.2924 8.72348L17.5875 8.73997L13.8824 8.75663L13.8801 7.36287C13.8774 5.84053 13.8254 5.49497 13.5052 4.86967C13.3375 4.54252 12.34 3.45301 12.34 3.59712C12.34 3.62547 12.5437 3.85413 12.7927 4.10521C13.1868 4.50297 13.4153 4.84196 13.6172 5.32875C13.7372 5.61827 13.7706 5.97439 13.8088 7.3784L13.8489 8.85158L17.5486 8.86808C21.7649 8.88697 21.4603 8.92861 21.4603 8.33389C21.4603 7.69273 21.8955 7.09802 22.5855 6.79649L22.9396 6.64181H26.8908C31.0323 6.64181 30.9988 6.63989 31.8882 6.93148C32.5856 7.16015 33.5261 7.87416 34.0063 8.53965C34.2702 8.90539 33.9944 8.88361 38.3627 8.88361C42.0625 8.88361 42.3154 8.87656 42.3745 8.77088C42.4093 8.70891 42.4494 7.9523 42.4636 7.08953C42.4823 5.96927 42.5153 5.46598 42.579 5.32875C42.8583 4.72811 42.9896 4.52731 43.3341 4.17471C43.7256 3.77407 44.1102 3.53611 44.6969 3.33179C45.1511 3.17358 48.8639 3.15549 49.3575 3.30889C50.5342 3.67495 51.4322 4.60609 51.6381 5.67383C51.6759 5.86983 51.7046 7.28745 51.7046 8.95647C51.7046 10.8721 51.7279 11.894 51.7717 11.894C51.8711 11.894 51.8617 6.15838 51.7616 5.76206C51.653 5.33148 51.4131 4.72027 51.3529 4.72027C51.325 4.72027 51.3022 4.67847 51.3022 4.62755C51.3022 4.27815 50.0517 3.39632 49.2931 3.21073C48.8361 3.0988 46.0423 3.04548 45.3 3.13435ZM18.3411 4.08343C17.6708 4.71354 17.6378 4.75709 17.6378 5.01202C17.6378 5.70265 18.3025 5.8551 18.8784 5.29673C19.06 5.12059 19.2357 4.97647 19.2689 4.97647C19.3019 4.97647 19.4942 5.12059 19.6959 5.29673C20.2797 5.80642 20.9908 5.66823 20.9908 5.04517C20.9908 4.63348 19.8252 3.50649 19.346 3.45493L19.0446 3.42242L18.3411 4.08343ZM9.17325 4.38287C9.33084 4.39649 9.57226 4.39632 9.70973 4.38255C9.84704 4.36878 9.71795 4.35773 9.42288 4.35789C9.12781 4.35821 9.01549 4.36942 9.17325 4.38287ZM46.526 4.38287C46.6836 4.39649 46.925 4.39632 47.0625 4.38255C47.1998 4.36878 47.0707 4.35773 46.7756 4.35789C46.4806 4.35821 46.3683 4.36942 46.526 4.38287ZM7.17585 4.4599C6.70173 4.59761 6.2199 4.94557 6.06163 5.2647L5.96624 5.45686L6.08427 5.29673C6.38587 4.88744 6.77113 4.63444 7.31047 4.49144C7.47644 4.44741 7.55189 4.41138 7.47812 4.41122C7.40435 4.41106 7.26839 4.43299 7.17585 4.4599ZM48.8881 4.48648C49.4371 4.64116 49.8152 4.89096 50.1143 5.29673L50.2323 5.45686L50.1362 5.2647C49.9428 4.87799 49.3707 4.50986 48.8513 4.43812L48.5863 4.40145L48.8881 4.48648ZM11.2375 4.55805C11.3091 4.60978 11.3985 4.65301 11.4362 4.65413C11.5839 4.65862 12.0201 5.07079 12.2079 5.38352C12.3167 5.56478 12.4061 5.67495 12.4064 5.62851C12.4081 5.40049 11.8701 4.82131 11.4495 4.59841C11.1552 4.44244 11.0496 4.42243 11.2375 4.55805ZM44.68 4.63364C44.5601 4.69016 44.4621 4.76046 44.4621 4.79008C44.4621 4.81987 44.5677 4.78448 44.6968 4.71178C44.8259 4.63908 44.9315 4.56798 44.9315 4.55373C44.9315 4.5169 44.9209 4.52026 44.68 4.63364ZM44.1316 5.08712C44.0183 5.21843 43.9256 5.35453 43.9256 5.3896C43.9256 5.42467 43.9755 5.38208 44.0366 5.29497C44.0978 5.20786 44.2086 5.07175 44.283 4.99248C44.3574 4.91322 44.4002 4.84837 44.3781 4.84837C44.3559 4.84837 44.2449 4.95581 44.1316 5.08712ZM12.4406 11.4136C12.4406 14.4894 12.4627 16.9727 12.4899 16.932C12.5171 16.8913 12.5392 14.408 12.5392 11.4136C12.5392 8.41924 12.5171 5.93596 12.4899 5.89529C12.4627 5.85462 12.4406 8.33789 12.4406 11.4136ZM43.6996 5.95326C43.6178 6.24501 43.6528 16.6998 43.7365 16.9788C43.8376 17.315 44.2061 17.8476 44.445 18.0028C44.6049 18.1065 44.5999 18.0949 44.4086 17.9166C43.6902 17.2471 43.716 17.504 43.7385 11.2375C43.7492 8.2519 43.7539 5.80914 43.749 5.80914C43.744 5.80914 43.7219 5.87399 43.6996 5.95326ZM50.3969 11.4223C50.3969 14.5136 50.416 16.9581 50.4393 16.8543C50.4955 16.6044 50.4967 6.13981 50.4405 5.94941C50.4165 5.86807 50.3969 8.33085 50.3969 11.4223ZM5.74293 6.07335C5.68744 6.33852 5.70185 16.6233 5.75802 16.8138C5.78199 16.8952 5.80161 14.4668 5.80161 11.4175C5.80161 8.36816 5.79792 5.87319 5.79322 5.87319C5.78853 5.87319 5.76606 5.96334 5.74293 6.07335ZM22.841 8.0559L22.6674 8.25286L22.6836 16.1744L22.6999 24.0958L22.7346 16.1214C22.7537 11.7355 22.7765 8.13933 22.7854 8.13004C22.7943 8.12076 22.8996 8.05606 23.0194 7.98625C23.1529 7.90843 23.1941 7.85911 23.126 7.85895C23.0647 7.85895 22.9364 7.9475 22.841 8.0559ZM30.7817 7.92284C31.0402 8.00194 31.178 8.00194 31.0499 7.92284C30.9946 7.88873 30.8739 7.86311 30.7817 7.86615L30.614 7.8716L30.7817 7.92284ZM31.9888 8.35278C32.397 8.62708 32.9094 9.15775 33.0835 9.48665C33.2658 9.83045 33.3744 9.96592 33.2809 9.73229C33.0949 9.26888 32.4104 8.50667 32.0223 8.33117L31.8211 8.24021L31.9888 8.35278ZM4.38093 12.7107C4.40591 17.2617 4.40037 17.1765 4.7112 17.8348C5.17341 18.8133 6.323 19.6659 7.14181 19.6372C7.30075 19.6316 7.26805 19.6124 6.98942 19.5475C5.83832 19.2792 4.89394 18.3938 4.59669 17.3041C4.50935 16.9839 4.49392 16.2926 4.49392 12.7132C4.49392 9.90747 4.47112 8.4993 4.42586 8.4993C4.38042 8.4993 4.3655 9.89226 4.38093 12.7107ZM33.332 10.0365C33.332 10.0894 33.3613 10.1758 33.3971 10.2287C33.4549 10.314 33.4621 10.314 33.4621 10.2287C33.4621 10.1758 33.4328 10.0894 33.3971 10.0365C33.3392 9.95119 33.332 9.95119 33.332 10.0365ZM15.7601 10.0991L13.8489 10.1326L13.8308 11.4297L13.8125 12.7267H17.6029H21.3932V11.4585C21.3932 10.5574 21.3699 10.168 21.3127 10.1134C21.2282 10.0327 19.7569 10.029 15.7601 10.0991ZM34.7998 10.1064C34.7844 10.156 34.7805 10.7659 34.7912 11.4617L34.8109 12.7267H38.5969H42.3832V11.4136V10.1006H41.4219C40.8931 10.1006 39.1931 10.0815 37.6442 10.0583C35.2513 10.0224 34.8238 10.0297 34.7998 10.1064ZM33.4641 18.0386V25.5924L33.2462 25.7344C33.1263 25.8126 32.8297 26.0609 32.5873 26.2864L32.1462 26.6963L28.643 26.6771C26.7161 26.6665 25.2095 26.6766 25.295 26.6995C25.3805 26.7224 26.969 26.744 28.825 26.7476L32.1999 26.754L32.5278 26.4111C32.7082 26.2227 33.0069 25.9705 33.1917 25.8507L33.5277 25.6331L33.5295 18.059C33.5303 13.8932 33.5161 10.4849 33.4976 10.4849C33.4792 10.4849 33.4641 13.8841 33.4641 18.0386ZM13.8154 15.2675C13.8154 16.4383 13.749 17.1893 13.6182 17.4985C13.1689 18.561 12.3358 19.2846 11.2528 19.5525L10.8982 19.6403L11.2219 19.6175C11.8268 19.5751 12.7845 19.0109 13.1883 18.4593C13.7736 17.6596 13.877 17.2121 13.8801 15.4663L13.8824 14.0745L15.1733 14.0556L16.4642 14.0369L15.1398 14.0223L13.8154 14.0077V15.2675ZM16.8182 14.0546C16.9758 14.0683 17.2172 14.0681 17.3546 14.0543C17.4919 14.0406 17.3629 14.0295 17.0678 14.0297C16.7727 14.03 16.6604 14.0412 16.8182 14.0546ZM17.756 14.053C17.8393 14.0684 17.96 14.0678 18.0242 14.0518C18.0883 14.0357 18.0201 14.0231 17.8725 14.0239C17.725 14.0245 17.6725 14.0377 17.756 14.053ZM18.8617 14.0519C18.9262 14.0679 19.0318 14.0679 19.0964 14.0519C19.1609 14.0357 19.1081 14.0226 18.979 14.0226C18.8499 14.0226 18.7971 14.0357 18.8617 14.0519ZM21.0411 14.054L21.2591 14.0799V15.0817V16.0833L21.0076 15.8622C20.3948 15.323 19.4196 15.3314 18.9455 15.8798C18.5917 16.2889 18.6115 16.0028 18.5914 20.9893C18.5718 25.8207 18.6395 27.593 18.8518 27.8076C18.8848 27.8411 18.912 27.9474 18.912 28.044C18.912 28.1405 18.9468 28.2403 18.9896 28.2654C19.0441 28.2976 19.0541 28.2654 19.0229 28.1572C18.668 26.921 18.6779 27.1077 18.6776 21.5929L18.6772 16.4638L18.8784 16.1535C19.3621 15.4073 20.2887 15.3389 21.0331 15.9941C21.1925 16.1346 21.3389 16.2495 21.3582 16.2495C21.3774 16.2495 21.3932 15.7451 21.3932 15.1286V14.0077L21.1082 14.018C20.8611 14.0269 20.8522 14.0317 21.0411 14.054ZM34.8214 17.4185L34.8389 20.8292L35.0035 20.8515C35.4204 20.9075 35.9306 20.6249 36.1484 20.2172C36.2854 19.9607 36.364 14.0077 36.2304 14.0077C36.2027 14.0077 36.1874 15.3408 36.1965 16.9701L36.2129 19.9325L36.0614 20.1868C35.862 20.5213 35.5267 20.7331 35.1966 20.7331H34.9371L34.955 17.3704C34.9693 14.7014 34.9555 14.0077 34.8885 14.0077C34.8216 14.0077 34.8077 14.7112 34.8214 17.4185ZM37.5406 17.1302C37.5215 19.9328 37.5074 20.2771 37.4029 20.4909C37.2302 20.8443 37.2443 20.8614 37.7057 20.8598C38.4137 20.8574 38.9349 20.5267 39.0942 19.9786C39.1916 19.6438 39.1898 14.0077 39.0923 14.0077C39.0415 14.0077 39.0347 14.8353 39.069 16.8276C39.1264 20.1648 39.1034 20.2984 38.4132 20.6428C38.1317 20.7832 37.3915 20.7664 37.4561 20.621C37.6054 20.284 37.6437 19.664 37.6812 16.9701C37.7129 14.6902 37.704 14.0076 37.6422 14.0077C37.5811 14.0077 37.5567 14.7594 37.5406 17.1302ZM40.3569 17.1623L40.3378 20.3168L40.1544 20.6736C39.9164 21.1365 39.4558 21.578 38.9765 21.803L38.5943 21.9821L36.8507 21.9983C35.8917 22.0073 35.0392 22.0294 34.9562 22.0476L34.8053 22.0806V23.6526V25.2244L35.2915 25.1849C35.5589 25.1631 35.9889 25.1159 36.2471 25.08C36.5053 25.0441 37.652 25.0042 38.7954 24.9916C41.2074 24.9645 40.9749 24.973 40.9747 24.9125C40.9746 24.8369 37.617 24.8673 36.6495 24.9517C36.17 24.9935 35.5891 25.044 35.3586 25.0638L34.9394 25.1V23.6212V22.1423H36.558C38.438 22.1423 38.8989 22.0569 39.5495 21.5884C39.8158 21.3967 40.3043 20.7234 40.3043 20.5483C40.3043 20.4779 40.3296 20.4055 40.3605 20.3873C40.3913 20.369 40.4374 18.949 40.4629 17.2318C40.4976 14.8801 40.5293 14.0969 40.5911 14.0594C40.6445 14.0271 40.6212 14.0093 40.5246 14.0087L40.3762 14.0077L40.3569 17.1623ZM42.3166 15.1639C42.3178 17.8366 42.9966 19.1392 44.5962 19.5373C44.9881 19.635 44.9801 19.6612 44.3373 20.3844C44.0002 20.7636 43.7244 21.1033 43.7244 21.1397C43.7244 21.1759 43.7847 21.1437 43.8585 21.0681C43.9323 20.9925 43.9926 20.9122 43.9926 20.8896C43.9926 20.867 44.0763 20.7722 44.1784 20.6787C44.2805 20.5853 44.4683 20.3792 44.5957 20.2207C44.7229 20.0622 44.8812 19.8856 44.9474 19.8281C45.1099 19.687 45.0339 19.5336 44.7751 19.4801C44.0024 19.3205 43.1532 18.6244 42.7425 17.8141L42.4851 17.3064L42.4625 15.7051C42.4499 14.8244 42.4118 14.0764 42.378 14.043C42.3401 14.0058 42.3163 14.4417 42.3166 15.1639ZM19.9496 21.3736C19.9496 23.8572 19.9579 24.8733 19.9682 23.6315C19.9784 22.3897 19.9784 20.3576 19.9682 19.1158C19.9579 17.874 19.9496 18.8901 19.9496 21.3736ZM5.83782 17.0694C5.83447 17.173 6.03581 17.5523 6.07454 17.5153C6.09013 17.5005 6.04386 17.3754 5.9716 17.2372C5.89951 17.0992 5.83933 17.0236 5.83782 17.0694ZM50.2088 17.3072C50.1475 17.43 50.1111 17.5306 50.128 17.5306C50.1739 17.5306 50.3775 17.1384 50.3468 17.1091C50.3322 17.0952 50.2702 17.1844 50.2088 17.3072ZM20.6891 17.4025C20.8331 17.5434 20.966 17.6587 20.9845 17.6587C21.0029 17.6587 20.9001 17.5434 20.7561 17.4025C20.6121 17.2615 20.4792 17.1462 20.4607 17.1462C20.4423 17.1462 20.5451 17.2615 20.6891 17.4025ZM12.1162 17.5557C12.0569 17.6423 11.9093 17.8045 11.7884 17.9165C11.6203 18.0723 11.6081 18.0963 11.7365 18.0194C11.9234 17.9073 12.3033 17.4742 12.255 17.4281C12.2381 17.4117 12.1756 17.4692 12.1162 17.5557ZM6.30456 17.8109C6.43365 17.9445 6.6298 18.0953 6.74045 18.1459L6.94164 18.238L6.77466 18.1245C6.68278 18.062 6.48663 17.9113 6.33876 17.7895L6.06985 17.568L6.30456 17.8109ZM49.8048 17.8262C49.6634 17.9515 49.5598 18.0654 49.5744 18.0793C49.589 18.0932 49.7183 17.99 49.8616 17.8497C50.1847 17.5336 50.1503 17.5193 49.8048 17.8262ZM11.3046 18.2052C11.2328 18.2569 11.2045 18.2992 11.2414 18.2992C11.2783 18.2992 11.367 18.2569 11.4387 18.2052C11.5103 18.1535 11.5386 18.111 11.5018 18.111C11.4649 18.111 11.3762 18.1535 11.3046 18.2052ZM8.26608 18.4111C8.69946 18.4222 9.40863 18.4222 9.84201 18.4111C10.2754 18.3999 9.9208 18.3908 9.05405 18.3908C8.18729 18.3908 7.8327 18.3999 8.26608 18.4111ZM46.3565 18.4111C46.7899 18.4222 47.4991 18.4222 47.9324 18.4111C48.3658 18.3999 48.0112 18.3908 47.1445 18.3908C46.2777 18.3908 45.9231 18.3999 46.3565 18.4111ZM8.26608 19.6921C8.73635 19.7032 9.50587 19.7032 9.97613 19.6921C10.4464 19.6811 10.0616 19.6721 9.12111 19.6721C8.18058 19.6721 7.79582 19.6811 8.26608 19.6921ZM22.7364 24.32C22.7364 24.3729 22.7658 24.4593 22.8015 24.5122C22.8593 24.5975 22.8665 24.5975 22.8665 24.5122C22.8665 24.4593 22.8372 24.3729 22.8015 24.32C22.7436 24.2347 22.7364 24.2347 22.7364 24.32ZM29.1793 24.4417C28.7424 24.8316 29.0126 25.5386 29.5974 25.5355C30.2631 25.5322 30.5413 24.8255 30.0366 24.4199C29.7552 24.1938 29.4485 24.2017 29.1793 24.4417ZM31.5529 24.3323C31.1542 24.5476 31.1138 25.2022 31.4847 25.4343C32.0099 25.7631 32.6772 25.3027 32.514 24.724C32.4089 24.3509 31.9014 24.144 31.5529 24.3323ZM22.8685 24.7395C22.8685 24.8119 23.0808 25.1634 23.1084 25.137C23.1401 25.1069 22.9435 24.7043 22.8972 24.7043C22.8814 24.7043 22.8685 24.7202 22.8685 24.7395ZM23.572 25.7926C23.6776 25.8979 23.7757 25.973 23.7898 25.9594C23.8208 25.9298 23.4842 25.601 23.423 25.601C23.3993 25.601 23.4664 25.6872 23.572 25.7926ZM23.9366 26.0747C24.0275 26.1804 24.4109 26.401 24.4109 26.3477C24.4109 26.3339 24.2827 26.2419 24.1259 26.1431C23.9648 26.0416 23.8825 26.0119 23.9366 26.0747ZM37.8733 26.2227C37.9563 26.238 38.0921 26.238 38.1751 26.2227C38.2581 26.2074 38.1902 26.195 38.0242 26.195C37.8583 26.195 37.7904 26.2074 37.8733 26.2227ZM40.3554 26.2228C40.4388 26.2382 40.5595 26.2375 40.6237 26.2215C40.6877 26.2055 40.6195 26.1929 40.4719 26.1937C40.3244 26.1943 40.2719 26.2074 40.3554 26.2228ZM24.8133 26.5618C24.8686 26.5959 24.9592 26.6239 25.0145 26.6239C25.1038 26.6239 25.1038 26.6171 25.0145 26.5618C24.9592 26.5277 24.8686 26.4997 24.8133 26.4997C24.7239 26.4997 24.7239 26.5066 24.8133 26.5618ZM25.7969 28.0137C25.7723 28.0371 25.7521 29.2565 25.7521 30.7232V33.3902L25.5523 33.6912C25.0074 34.5119 24.1989 34.5151 23.2401 33.7003C22.9312 33.4379 22.661 33.2232 22.6394 33.2232C22.5252 33.2232 22.6057 35.8863 22.7274 36.1375C22.9272 36.5497 23.3782 36.8803 23.7279 36.8711C23.7901 36.8694 23.7001 36.8155 23.5279 36.7511C22.7576 36.4635 22.6876 36.2558 22.7188 34.3503L22.7344 33.3958L23.12 33.7471C24.0124 34.5599 24.6894 34.6389 25.385 34.011C25.8755 33.5684 25.8863 33.4949 25.8863 30.5857V28.035H27.0263H28.1663L28.1643 31.0294L28.1625 34.0238L27.5775 34.636C26.2013 36.0763 26.2293 36.0417 26.1864 36.3558C26.1641 36.5175 26.1399 36.6932 26.1327 36.746C26.1216 36.8254 25.9275 36.848 25.0136 36.8765L23.908 36.9109L24.9474 36.9237C26.3198 36.9406 26.2886 36.9505 26.2886 36.4907V36.1225L27.1494 35.2012C27.6228 34.6946 28.0604 34.2405 28.1217 34.1921C28.223 34.1124 28.2334 33.8203 28.2334 31.0376V27.9709H27.0375C26.3797 27.9709 25.8214 27.9902 25.7969 28.0137ZM19.0496 28.4193C19.0478 28.5349 19.2038 28.9756 19.2684 29.0372C19.2937 29.0614 19.315 29.1268 19.3158 29.1826C19.3185 29.3586 20.0101 30.6006 20.1333 30.6504C20.1623 30.6622 20.1861 30.7072 20.1861 30.7505C20.1861 30.7937 20.2389 30.885 20.3035 30.9533C20.368 31.0217 20.507 31.1878 20.6125 31.3224C20.7179 31.4571 20.9065 31.6651 21.0316 31.7846L21.2591 32.0019V35.6024C21.2591 39.3372 21.2603 39.3556 21.5505 39.9383C21.8408 40.5218 22.7088 41.1739 23.1799 41.1625C23.2484 41.1609 23.1636 41.1069 22.9916 41.0427C22.3488 40.8025 21.8854 40.3835 21.5694 39.7564L21.3597 39.3401L21.3409 35.6541L21.322 31.9679L20.905 31.4904C20.1506 30.627 19.6957 29.8957 19.2763 28.8726C19.1524 28.5705 19.0504 28.3665 19.0496 28.4193ZM29.5392 31.9742L29.5411 33.6395L30.3458 33.6424L31.1505 33.6454L30.3637 33.6244L29.5768 33.6035L29.5572 31.9562L29.5375 30.3088L29.5392 31.9742ZM31.2667 30.5971C31.2667 30.7204 31.2805 30.7708 31.2974 30.7091C31.3142 30.6475 31.3142 30.5466 31.2974 30.485C31.2805 30.4233 31.2667 30.4738 31.2667 30.5971ZM32.5467 31.3657C32.5467 31.5947 32.559 31.6883 32.5737 31.5738C32.5886 31.4593 32.5886 31.272 32.5737 31.1575C32.559 31.043 32.5467 31.1367 32.5467 31.3657ZM23.5056 32.2624C23.6496 32.4033 23.7826 32.5186 23.801 32.5186C23.8195 32.5186 23.7167 32.4033 23.5727 32.2624C23.4287 32.1215 23.2957 32.0062 23.2773 32.0062C23.2588 32.0062 23.3616 32.1215 23.5056 32.2624ZM32.5472 33.8317C32.5476 34.0782 32.5596 34.1713 32.5742 34.0384C32.5888 33.9055 32.5885 33.7037 32.5737 33.59C32.5588 33.4763 32.5469 33.5851 32.5472 33.8317ZM28.7318 35.3827C28.4761 35.6544 28.1093 36.0363 27.9167 36.2313L27.5666 36.5859L27.5646 39.3944L27.5628 42.2027L28.1566 42.8211C28.4832 43.1611 28.8527 43.5475 28.9776 43.6796L29.2048 43.9198H30.7272C32.5006 43.9198 32.1878 44.0467 33.2903 42.8792L34.0006 42.1271V40.9782V39.8294L33.5054 39.5683C32.16 38.8591 31.6189 37.8863 31.3834 35.7532C31.2769 34.7895 31.4097 34.8885 30.2226 34.8885H29.1967L28.7318 35.3827ZM47.1182 35.6304C47.0957 35.6861 47.0774 35.8152 47.0774 35.9173C47.0774 38.1514 45.6172 39.7603 43.3556 40.0177C40.7828 40.3106 37.7914 40.3265 35.4424 40.0599C35.3133 40.0453 35.3069 40.0916 35.2748 41.2936C35.2506 42.1929 35.2151 42.5875 35.1477 42.7028C35.0749 42.8272 33.8286 44.1937 33.3473 44.677C33.2839 44.7406 33.2629 45.1824 33.2629 46.4544V48.1472L33.7827 48.1481C34.9646 48.1502 35.7992 48.7545 35.9415 49.7111C35.9621 49.8493 36.0128 49.9729 36.0542 49.9861C36.1561 50.0183 36.0402 49.5521 35.8533 49.1781C35.5076 48.486 34.8836 48.1316 33.9458 48.0949L33.3208 48.0705L33.3692 46.3987C33.4148 44.821 33.4256 44.7193 33.5582 44.5893C33.813 44.3396 34.2296 43.8943 34.6038 43.4714C34.8063 43.2424 34.9889 43.0406 35.0094 43.023C35.3133 42.7612 35.3418 42.6203 35.3418 41.3798L35.3416 40.1727L35.8951 40.2233C37.7314 40.391 41.6033 40.3438 43.2885 40.133C45.6584 39.8366 46.8643 38.6161 47.141 36.2336C47.1716 35.9694 47.2184 35.7028 47.2449 35.6411C47.2717 35.5785 47.2633 35.529 47.226 35.529C47.1891 35.529 47.1405 35.5747 47.1182 35.6304ZM22.6395 37.8827C22.5317 37.9857 22.6053 38.9354 22.7428 39.2145C23.0669 39.8733 23.4674 40.0126 25.0359 40.0126C26.3865 40.0126 26.2985 40.0834 26.2739 39.0161C26.2482 37.8989 26.121 37.8887 26.121 39.0038V39.8525L24.8879 39.8699C23.0846 39.8956 22.7616 39.6946 22.6834 38.4983L22.6476 37.9486L22.8586 37.9929C22.9747 38.0173 23.0697 38.0233 23.0697 38.0064C23.0697 37.9543 22.6814 37.8429 22.6395 37.8827ZM44.9278 38.0751L44.6968 38.3153L44.9482 38.0946C45.1823 37.889 45.2306 37.8349 45.1793 37.8349C45.1682 37.8349 45.055 37.943 44.9278 38.0751ZM23.1703 38.0911C23.1931 38.1263 23.3383 38.1518 23.4929 38.1476C23.7583 38.1404 23.7626 38.1372 23.5727 38.0911C23.2751 38.0187 23.1235 38.0187 23.1703 38.0911ZM24.2274 38.2011C24.3295 38.2158 24.4803 38.2155 24.5627 38.2003C24.6451 38.1851 24.5618 38.1729 24.3774 38.1734C24.193 38.1739 24.1254 38.1863 24.2274 38.2011ZM36.0292 38.9039C36.0937 38.9199 36.1993 38.9199 36.2639 38.9039C36.3284 38.8877 36.2756 38.8746 36.1465 38.8746C36.0174 38.8746 35.9646 38.8877 36.0292 38.9039ZM38.715 39.0355C39.0394 39.0474 39.5524 39.0472 39.855 39.0354C40.1574 39.0235 39.8919 39.0139 39.2649 39.0141C38.6378 39.0141 38.3904 39.0238 38.715 39.0355ZM14.6536 40.8038C13.4075 41.3591 13.0297 43.1494 14.1582 43.1508C14.4777 43.1513 14.7401 42.9053 14.7996 42.5495C14.9374 41.7273 15.8964 41.7181 16.0884 42.5372C16.3209 43.5297 17.554 43.2693 17.3956 42.2611C17.2024 41.0306 15.8079 40.2895 14.6536 40.8038ZM23.3819 41.2456C23.399 41.272 24.0265 41.2936 24.7762 41.2936H26.1398L26.1644 41.9825C26.1916 42.7402 26.2326 42.8336 26.7748 43.3673C26.9135 43.5039 27.2833 43.8967 27.5966 44.2403L28.1663 44.8652V46.4741V48.0831H27.6015C26.7138 48.0831 26.2517 48.7582 26.7886 49.2709L26.9532 49.4282H30.497C34.1929 49.4282 34.3527 49.4392 34.4412 49.7004C34.462 49.762 34.5072 49.8125 34.5416 49.8125C34.6975 49.8125 34.6164 55.3706 34.458 55.5446L34.3118 55.7052H28.0993H21.8868L21.7406 55.5446C21.5952 55.385 21.5944 55.3685 21.5944 52.6187V49.8536L21.8375 49.6408L22.0807 49.4282H22.9743C23.917 49.4282 24.2098 49.3651 24.2098 49.1617C24.2098 49.0969 24.2399 49.0439 24.2768 49.0439C24.3137 49.0439 24.3439 48.9448 24.3439 48.8235C24.3439 48.7023 24.3137 48.5853 24.2768 48.5635C24.2367 48.5399 24.2098 48.6178 24.2098 48.7568C24.2098 48.9287 24.1584 49.0386 24.0138 49.1769L23.8178 49.3641H22.8747H21.9319L21.7127 49.551L21.4938 49.7379L21.4743 52.4524C21.4524 55.5067 21.4626 55.5943 21.8626 55.7851C22.1785 55.9358 33.9139 55.9605 34.2878 55.8112C34.7233 55.6373 34.7047 55.78 34.7047 52.6157V49.7379L34.4858 49.551L34.2667 49.3641H30.6749H27.083L26.887 49.1769C26.3647 48.6781 26.7686 48.1472 27.6704 48.1472H28.2334V46.4536V44.76L27.511 44.0037C27.1138 43.5877 26.6762 43.1196 26.5386 42.9635L26.2886 42.6797V41.9846C26.2886 41.4856 26.265 41.2821 26.2048 41.2629C26.0499 41.2136 23.3504 41.1971 23.3819 41.2456ZM8.33314 44.3519C8.76652 44.363 9.47569 44.363 9.90907 44.3519C10.3424 44.3407 9.98787 44.3316 9.12111 44.3316C8.25435 44.3316 7.89976 44.3407 8.33314 44.3519ZM6.77399 44.4322C6.6407 44.5145 6.80819 44.5145 7.0087 44.4322L7.14282 44.3771L7.0087 44.3736C6.93493 44.3716 6.82931 44.3981 6.77399 44.4322ZM11.2 44.4322C11.4585 44.5113 11.5963 44.5113 11.4682 44.4322C11.4129 44.3981 11.2922 44.3724 11.2 44.3755L11.0323 44.3809L11.2 44.4322ZM44.7303 44.4437C42.8005 45.2144 42.3161 46.0623 42.3161 48.6689V49.9998L41.7124 50.0221L41.1087 50.0444L41.7292 50.0405L42.3496 50.0367L42.3909 48.5635C42.4466 46.5684 42.5963 46.0759 43.3725 45.3345C44.219 44.526 44.6 44.4335 47.0774 44.4342C49.5189 44.4351 49.894 44.5254 50.7466 45.3178C51.6555 46.1625 51.6622 46.1974 51.6887 50.1167C51.7029 52.2183 51.7355 53.4634 51.7762 53.4634C51.8521 53.4634 51.8223 47.219 51.7447 46.8661C51.6947 46.6384 51.6692 46.5707 51.4749 46.1481C51.1458 45.4327 50.0184 44.4962 49.4861 44.4962C49.4197 44.4962 49.3468 44.4674 49.324 44.4322C49.2666 44.3435 44.9543 44.3543 44.7303 44.4437ZM6.42125 44.5342C6.39945 44.555 6.26617 44.6114 6.12517 44.6594C5.98401 44.7074 5.92902 44.7459 6.00279 44.7449C6.1696 44.7425 6.7133 44.5074 6.56727 44.501C6.50876 44.4983 6.44321 44.5134 6.42125 44.5342ZM11.9712 44.6884C11.994 44.7236 12.0439 44.7524 12.0822 44.7524C12.1204 44.7524 12.2393 44.812 12.3464 44.8849C12.4535 44.9577 12.541 44.9937 12.5407 44.9649C12.5402 44.9145 12.0547 44.6243 11.9707 44.6243C11.9482 44.6243 11.9484 44.6531 11.9712 44.6884ZM12.9337 45.3545C13.2599 45.7178 13.5392 46.1822 13.6978 46.6248C13.7401 46.7427 13.7909 47.5339 13.8142 48.4354L13.8554 50.0367L13.8688 48.5039C13.8817 47.0435 13.8539 46.7446 13.673 46.4026C13.6407 46.3414 13.6142 46.2477 13.6142 46.1944C13.6142 46.1411 13.5914 46.0975 13.5635 46.0975C13.5355 46.0975 13.4717 46.0086 13.4212 45.9001C13.3709 45.7915 13.1644 45.5393 12.9622 45.3396L12.5943 44.9766L12.9337 45.3545ZM29.5382 45.2168C29.5198 45.2624 29.5136 45.9334 29.5243 46.7074L29.5438 48.1151L29.5592 46.658L29.5746 45.2008H30.7505H31.9266L31.9073 46.6709C31.8967 47.4794 31.9115 48.1188 31.9398 48.0916C31.9682 48.0644 31.9832 47.3957 31.9734 46.6054L31.9552 45.1688L30.7634 45.1513C29.8355 45.1377 29.5642 45.1521 29.5382 45.2168ZM9.16989 45.6314C9.28893 45.6455 9.50017 45.6458 9.63932 45.6319C9.77847 45.6179 9.68106 45.6064 9.42288 45.6061C9.1647 45.6057 9.05086 45.6171 9.16989 45.6314ZM46.5227 45.6314C46.6417 45.6455 46.8529 45.6458 46.9921 45.6319C47.1312 45.6179 47.0338 45.6064 46.7756 45.6061C46.5175 45.6057 46.4036 45.6171 46.5227 45.6314ZM7.07576 45.7132C6.99126 45.7479 6.97886 45.7683 7.04223 45.7683C7.09755 45.7683 7.20317 45.7435 7.27694 45.7132C7.36144 45.6785 7.37384 45.6581 7.31047 45.6581C7.25514 45.6581 7.14952 45.6829 7.07576 45.7132ZM48.9216 45.7132C48.9954 45.7435 49.101 45.7683 49.1563 45.7683C49.2197 45.7683 49.2073 45.7479 49.1228 45.7132C49.049 45.6829 48.9434 45.6581 48.8881 45.6581C48.8247 45.6581 48.8371 45.6785 48.9216 45.7132ZM6.59963 45.96C6.45578 46.0605 6.27774 46.2115 6.20397 46.2954C6.1302 46.3793 6.19089 46.3475 6.33876 46.2246C6.48663 46.1018 6.68278 45.9524 6.77466 45.8927C6.86653 45.833 6.92353 45.7825 6.9014 45.7806C6.87927 45.7787 6.74347 45.8596 6.59963 45.96ZM11.4303 45.8612C11.7267 46.0355 12.117 46.4243 12.2562 46.6842C12.3382 46.8371 12.4056 46.9295 12.4061 46.8895C12.4099 46.5989 11.6141 45.7619 11.3524 45.7811C11.3239 45.783 11.3589 45.819 11.4303 45.8612ZM44.6912 45.8596C44.4911 45.971 44.2436 46.1739 44.1268 46.3222C44.0714 46.3923 44.1472 46.3489 44.2951 46.2256C44.4429 46.1023 44.6391 45.9524 44.731 45.8927C44.9239 45.7672 44.8973 45.7449 44.6912 45.8596ZM49.4239 45.8879C49.5158 45.9503 49.7119 46.101 49.8598 46.2229L50.1287 46.4443L49.894 46.2014C49.7649 46.0679 49.5687 45.917 49.4581 45.8664L49.2569 45.7744L49.4239 45.8879ZM43.9123 46.6259C43.6629 47.0485 43.659 47.1476 43.6743 52.6628L43.689 58.0431L43.7252 52.5667C43.745 49.5547 43.7881 47.0182 43.821 46.9302C43.8537 46.8421 43.9244 46.7052 43.9779 46.6259C44.0314 46.5467 44.0577 46.4818 44.0362 46.4818C44.0149 46.4818 43.9591 46.5467 43.9123 46.6259ZM50.2088 46.7052C50.2702 46.828 50.3322 46.9172 50.3468 46.9033C50.3775 46.874 50.1739 46.4818 50.128 46.4818C50.1111 46.4818 50.1475 46.5824 50.2088 46.7052ZM12.4406 52.595C12.4406 55.6727 12.4627 58.1578 12.4899 58.1171C12.5518 58.0241 12.5482 47.258 12.4862 47.1087C12.4611 47.0483 12.4406 49.5172 12.4406 52.595ZM50.3969 52.5901C50.3969 55.6814 50.4165 58.1441 50.4405 58.0628C50.4967 57.8726 50.4955 47.408 50.4393 47.1579C50.416 47.0541 50.3969 49.4986 50.3969 52.5901ZM5.7441 47.2985C5.68878 47.6179 5.70202 57.8092 5.75802 57.9987C5.78199 58.0801 5.80161 55.6517 5.80161 52.6024C5.80161 49.5531 5.79809 47.0583 5.79356 47.0583C5.7892 47.0583 5.7669 47.1664 5.7441 47.2985ZM21.3597 48.2379C20.9612 48.4133 20.6681 48.6586 20.4233 49.0215C20.2434 49.2882 20.0238 50.0046 20.1219 50.0046C20.1507 50.0046 20.1955 49.885 20.2213 49.739C20.3499 49.0115 20.8146 48.501 21.5944 48.2306C22.0802 48.062 23.7628 48.1195 24.0034 48.313C24.1169 48.4042 24.2098 48.4493 24.2098 48.4134C24.2098 48.0522 22.0802 47.9211 21.3597 48.2379ZM22.9882 50.1111C22.4546 50.1981 22.2068 51.6219 22.6399 52.1134L22.8134 52.3105H24.0691H25.3246L25.5213 52.1145C25.8814 51.7555 25.8348 50.6059 25.4462 50.257C25.2737 50.1022 23.6387 50.0051 22.9882 50.1111ZM27.0263 50.1148C26.4667 50.2109 26.2087 51.6709 26.67 52.1308L26.8503 52.3105H28.0993H29.3483L29.5285 52.1308C29.7979 51.8623 29.8065 50.5638 29.5406 50.3099C29.3109 50.0905 27.8361 49.976 27.0263 50.1148ZM31.0499 50.1121C30.6503 50.1893 30.4464 50.5617 30.4464 51.2154C30.4464 52.2402 30.5544 52.3105 32.1286 52.3105H33.3852L33.5587 52.1134C33.8794 51.7494 33.7986 50.4163 33.4427 50.1952C33.2948 50.1034 31.4307 50.0386 31.0499 50.1121ZM13.8308 52.6147L13.8489 53.9438H17.0007H20.1526L20.1707 52.6147L20.1888 51.2857H17.0007H13.8127L13.8308 52.6147ZM36.0278 52.6147L36.0459 53.9438H39.1978H42.3496L42.3678 52.6147L42.3859 51.2857H39.1978H36.0097L36.0278 52.6147ZM22.8296 52.9603C22.2504 53.2287 22.3144 54.8663 22.9136 55.1055C23.225 55.2296 24.9353 55.2261 25.2499 55.1006C25.8745 54.8513 25.9771 53.3606 25.3949 52.9962C25.1934 52.8701 23.0878 52.8407 22.8296 52.9603ZM26.8586 52.9613C26.4777 53.1614 26.3056 54.4164 26.6003 54.8458C26.946 55.3499 29.2495 55.3544 29.5944 54.8516C29.8988 54.4077 29.7216 53.151 29.3275 52.9585C29.1323 52.8633 27.0409 52.8655 26.8586 52.9613ZM30.832 52.9877C30.2491 53.2897 30.3092 54.7912 30.9158 55.0806C31.4957 55.3573 33.3716 55.2079 33.623 54.865C33.7508 54.691 33.7816 53.4149 33.6633 53.2037C33.4836 52.8828 31.3487 52.7199 30.832 52.9877ZM36.0986 55.2439C36.0538 55.2713 35.9832 55.4444 35.9418 55.6285C35.7911 56.3001 35.1517 56.9084 34.4507 57.0474C34.2056 57.0961 32.1752 57.1121 27.829 57.0999L21.5609 57.0823L21.2673 56.9222C20.6961 56.6104 20.358 56.1869 20.2193 55.6091L20.1425 55.2889L17.2975 55.2702C15.7326 55.2597 14.3242 55.2687 14.1674 55.29L13.8824 55.3288V56.4522V57.5757L17.4031 57.5286L20.9238 57.4815V57.9626C20.9238 58.5072 21.0259 58.7978 21.3038 59.0441C21.644 59.3456 21.7102 59.3562 23.2489 59.3562H24.7112L23.6062 58.2993L22.5012 57.2425L23.5735 57.2423C27.3319 57.2418 34.5141 57.1528 34.5673 57.1062C34.6023 57.0754 34.6875 57.0503 34.7564 57.0503C35.1416 57.0503 36.0124 56.1698 36.0124 55.7802C36.0124 55.7177 36.0501 55.5891 36.0962 55.4943L36.1801 55.3219L39.2481 55.3214L42.3161 55.3209V56.6628C42.3161 58.102 42.3674 58.4785 42.6398 59.0359C42.7346 59.2297 42.8491 59.4747 42.8942 59.5803C42.948 59.7059 42.9783 59.7323 42.9817 59.6567C42.9844 59.593 42.9165 59.42 42.8306 59.2724C42.7448 59.1248 42.6521 58.9318 42.6249 58.8437C42.5976 58.7557 42.5431 58.5827 42.5037 58.4594C42.4643 58.3361 42.4135 57.5579 42.3909 56.73L42.3496 55.2248L39.2649 55.2095C37.5682 55.201 36.1434 55.2165 36.0986 55.2439ZM13.8261 58.1499C13.8202 58.2439 13.7959 58.3736 13.7719 58.4381C13.7387 58.5281 13.7476 58.5387 13.8103 58.4836C13.8563 58.4433 13.8801 58.3168 13.8645 58.1954C13.842 58.0196 13.8348 58.0111 13.8261 58.1499ZM43.7915 58.3382C43.7915 58.5808 44.5363 59.4202 44.7516 59.4202C44.7834 59.4202 44.6597 59.3072 44.4766 59.169C44.2678 59.0114 44.0783 58.792 43.9677 58.58C43.8708 58.3941 43.7915 58.2854 43.7915 58.3382ZM50.2486 58.4292C50.1049 58.812 49.7818 59.1435 49.3521 59.3486C49.1219 59.4585 48.9828 59.5483 49.043 59.5483C49.4599 59.5483 50.4507 58.6136 50.3475 58.3179C50.3324 58.2743 50.2878 58.3244 50.2486 58.4292ZM12.1724 58.6729C12.0617 58.8526 11.8406 59.0942 11.681 59.2098C11.5214 59.3256 11.4164 59.4202 11.4478 59.4202C11.6397 59.4202 12.4527 58.5454 12.3952 58.4007C12.3833 58.3709 12.283 58.4934 12.1724 58.6729ZM6.05627 58.7477C6.2318 59.0777 6.89503 59.5483 7.1844 59.5483C7.22866 59.5483 7.07861 59.4594 6.85077 59.3507C6.59879 59.2305 6.36642 59.0612 6.25695 58.9184C5.99575 58.5773 5.94042 58.5302 6.05627 58.7477ZM7.42984 59.6239C7.49338 59.6477 8.23926 59.6644 9.08758 59.6607C10.8808 59.6529 10.6982 59.6231 8.70399 59.5978C7.93983 59.5882 7.36647 59.5999 7.42984 59.6239ZM47.111 59.6124L45.5686 59.6481L47.111 59.6577C47.9593 59.6631 48.7137 59.6426 48.7875 59.6124L48.9216 59.5573L48.7875 59.567C48.7137 59.5723 47.9593 59.5928 47.111 59.6124ZM13.1592 59.7192C13.1422 59.8072 12.6408 60.3169 12.571 60.3169C12.2547 60.3169 12.2803 60.609 12.6272 60.9536L12.9858 61.3097L12.9139 61.5771C12.8743 61.7241 12.8195 61.8659 12.7922 61.892C12.7648 61.9182 12.7434 62.014 12.7447 62.1051C12.7476 62.2979 13.0668 61.724 13.0738 61.5137C13.076 61.4497 13.1089 61.3418 13.1469 61.2739C13.187 61.2023 13.2071 60.834 13.1949 60.3975C13.1831 59.9832 13.167 59.678 13.1592 59.7192Z" fill="#7B76F0"/>
</svg>
