<svg width="11" height="10" viewBox="0 0 11 10" fill="none" xmlns="http://www.w3.org/2000/svg">
<path d="M3.87499 4.24999C4.91052 4.24999 5.74999 3.41052 5.74999 2.37499C5.74999 1.33946 4.91052 0.5 3.87499 0.5C2.83946 0.5 2 1.33946 2 2.37499C2 3.41052 2.83946 4.24999 3.87499 4.24999Z" stroke="black" stroke-linecap="round" stroke-linejoin="round"/>
<path d="M0.5 9.49998H3.87499H7.24997V9.09341C7.244 8.52168 7.09324 7.96091 6.81177 7.46329C6.5303 6.96574 6.1273 6.54759 5.64043 6.24798C5.15354 5.94835 4.59867 5.77703 4.02763 5.75C3.97672 5.74759 3.92582 5.74633 3.87499 5.74622C3.82415 5.74633 3.77326 5.74759 3.72235 5.75C3.15131 5.77703 2.59643 5.94835 2.10955 6.24798C1.62267 6.54759 1.21967 6.96574 0.938201 7.46329C0.656732 7.96091 0.505971 8.52168 0.5 9.09341V9.49998Z" stroke="black" stroke-linecap="round" stroke-linejoin="round"/>
<path d="M6.875 4.24999C7.91052 4.24999 8.74999 3.41052 8.74999 2.37499C8.74999 1.33946 7.91052 0.5 6.875 0.5" stroke="black" stroke-linecap="round" stroke-linejoin="round"/>
<path d="M8.75 9.49999H10.25V9.09342C10.244 8.52169 10.0932 7.96092 9.81177 7.4633C9.53029 6.96575 9.12732 6.5476 8.64042 6.24799C8.32572 6.0543 7.98252 5.91423 7.625 5.83209" stroke="black" stroke-linecap="round" stroke-linejoin="round"/>
</svg>
