<svg width="35" height="45" viewBox="0 0 35 45" fill="none" xmlns="http://www.w3.org/2000/svg">
<path d="M0 37.5C0.00231563 39.4884 0.771286 41.3947 2.13824 42.8007C3.50519 44.2067 5.35851 44.9976 7.29167 45H27.7083C29.6415 44.9976 31.4948 44.2067 32.8618 42.8007C34.2287 41.3947 34.9977 39.4884 35 37.5V24H0V37.5ZM24.7917 30.75C25.2243 30.75 25.6472 30.882 26.007 31.1292C26.3667 31.3764 26.6471 31.7278 26.8127 32.139C26.9782 32.5501 27.0215 33.0025 26.9371 33.439C26.8527 33.8754 26.6444 34.2763 26.3385 34.591C26.0325 34.9057 25.6428 35.12 25.2184 35.2068C24.7941 35.2936 24.3543 35.249 23.9545 35.0787C23.5548 34.9084 23.2132 34.62 22.9728 34.25C22.7325 33.88 22.6042 33.445 22.6042 33C22.6042 32.4033 22.8346 31.831 23.2449 31.409C23.6551 30.9871 24.2115 30.75 24.7917 30.75ZM17.5 30.75C17.9326 30.75 18.3556 30.882 18.7153 31.1292C19.075 31.3764 19.3554 31.7278 19.521 32.139C19.6866 32.5501 19.7299 33.0025 19.6455 33.439C19.5611 33.8754 19.3527 34.2763 19.0468 34.591C18.7409 34.9057 18.3511 35.12 17.9268 35.2068C17.5024 35.2936 17.0626 35.249 16.6629 35.0787C16.2632 34.9084 15.9215 34.62 15.6812 34.25C15.4408 33.88 15.3125 33.445 15.3125 33C15.3125 32.4033 15.543 31.831 15.9532 31.409C16.3634 30.9871 16.9198 30.75 17.5 30.75ZM10.2083 30.75C10.641 30.75 11.0639 30.882 11.4236 31.1292C11.7834 31.3764 12.0638 31.7278 12.2293 32.139C12.3949 32.5501 12.4382 33.0025 12.3538 33.439C12.2694 33.8754 12.0611 34.2763 11.7551 34.591C11.4492 34.9057 11.0594 35.12 10.6351 35.2068C10.2108 35.2936 9.77093 35.249 9.37121 35.0787C8.9715 34.9084 8.62986 34.62 8.38949 34.25C8.14913 33.88 8.02083 33.445 8.02083 33C8.02083 32.4033 8.2513 31.831 8.66154 31.409C9.07177 30.9871 9.62817 30.75 10.2083 30.75Z" fill="#CBD5E1"/>
<path d="M27.7083 7.25H26.25V4.625C26.25 3.92881 26.0964 3.26113 25.8229 2.76884C25.5494 2.27656 25.1784 2 24.7917 2C24.4049 2 24.034 2.27656 23.7605 2.76884C23.487 3.26113 23.3333 3.92881 23.3333 4.625V7.25H11.6667V4.625C11.6667 3.92881 11.513 3.26113 11.2395 2.76884C10.966 2.27656 10.5951 2 10.2083 2C9.82156 2 9.45063 2.27656 9.17714 2.76884C8.90365 3.26113 8.75 3.92881 8.75 4.625V7.25H7.29167C5.35851 7.25417 3.50519 8.63832 2.13824 11.0988C0.771286 13.5593 0.00231563 16.8953 0 20.375L0 23H35V20.375C34.9977 16.8953 34.2287 13.5593 32.8618 11.0988C31.4948 8.63832 29.6415 7.25417 27.7083 7.25Z" fill="#CBD5E1"/>
</svg>
