<svg width="150" height="30" viewBox="0 0 150 30" fill="none" xmlns="http://www.w3.org/2000/svg">
<line y1="1.5" x2="150" y2="1.5" stroke="#79AD37" stroke-width="3"/>
<line y1="28.5" x2="150" y2="28.5" stroke="#79AD37" stroke-width="3"/>
<path d="M51.175 20L49.885 16.685H45.64L44.365 20H43L47.185 9.245H48.4L52.57 20H51.175ZM48.28 12.245C48.25 12.165 48.2 12.02 48.13 11.81C48.06 11.6 47.99 11.385 47.92 11.165C47.86 10.935 47.81 10.76 47.77 10.64C47.72 10.84 47.665 11.045 47.605 11.255C47.555 11.455 47.5 11.64 47.44 11.81C47.39 11.98 47.345 12.125 47.305 12.245L46.09 15.485H49.48L48.28 12.245ZM57.2451 9.29C58.1351 9.29 58.8801 9.375 59.4801 9.545C60.0901 9.715 60.5451 9.995 60.8451 10.385C61.1551 10.775 61.3101 11.295 61.3101 11.945C61.3101 12.365 61.2301 12.74 61.0701 13.07C60.9201 13.39 60.6901 13.66 60.3801 13.88C60.0801 14.09 59.7101 14.235 59.2701 14.315V14.39C59.7201 14.46 60.1251 14.59 60.4851 14.78C60.8551 14.97 61.1451 15.24 61.3551 15.59C61.5651 15.94 61.6701 16.395 61.6701 16.955C61.6701 17.605 61.5201 18.16 61.2201 18.62C60.9201 19.07 60.4901 19.415 59.9301 19.655C59.3801 19.885 58.7201 20 57.9501 20H54.1851V9.29H57.2451ZM57.5151 13.85C58.4351 13.85 59.0651 13.705 59.4051 13.415C59.7451 13.115 59.9151 12.675 59.9151 12.095C59.9151 11.505 59.7051 11.085 59.2851 10.835C58.8751 10.575 58.2151 10.445 57.3051 10.445H55.5351V13.85H57.5151ZM55.5351 14.975V18.86H57.6951C58.6451 18.86 59.3051 18.675 59.6751 18.305C60.0451 17.935 60.2301 17.45 60.2301 16.85C60.2301 16.47 60.1451 16.14 59.9751 15.86C59.8151 15.58 59.5401 15.365 59.1501 15.215C58.7701 15.055 58.2501 14.975 57.5901 14.975H55.5351ZM73.4359 14.63C73.4359 15.46 73.3309 16.215 73.1209 16.895C72.9109 17.565 72.5959 18.145 72.1759 18.635C71.7659 19.125 71.2509 19.5 70.6309 19.76C70.0209 20.02 69.3109 20.15 68.5009 20.15C67.6609 20.15 66.9309 20.02 66.3109 19.76C65.6909 19.49 65.1759 19.115 64.7659 18.635C64.3559 18.145 64.0509 17.56 63.8509 16.88C63.6509 16.2 63.5509 15.445 63.5509 14.615C63.5509 13.515 63.7309 12.555 64.0909 11.735C64.4509 10.915 64.9959 10.275 65.7259 9.815C66.4659 9.355 67.3959 9.125 68.5159 9.125C69.5859 9.125 70.4859 9.355 71.2159 9.815C71.9459 10.265 72.4959 10.905 72.8659 11.735C73.2459 12.555 73.4359 13.52 73.4359 14.63ZM64.9759 14.63C64.9759 15.53 65.1009 16.305 65.3509 16.955C65.6009 17.605 65.9859 18.105 66.5059 18.455C67.0359 18.805 67.7009 18.98 68.5009 18.98C69.3109 18.98 69.9709 18.805 70.4809 18.455C71.0009 18.105 71.3859 17.605 71.6359 16.955C71.8859 16.305 72.0109 15.53 72.0109 14.63C72.0109 13.28 71.7309 12.225 71.1709 11.465C70.6109 10.695 69.7259 10.31 68.5159 10.31C67.7059 10.31 67.0359 10.485 66.5059 10.835C65.9859 11.175 65.6009 11.67 65.3509 12.32C65.1009 12.96 64.9759 13.73 64.9759 14.63ZM84.1047 16.22C84.1047 16.96 83.9547 17.63 83.6547 18.23C83.3547 18.82 82.8947 19.29 82.2747 19.64C81.6647 19.98 80.8847 20.15 79.9347 20.15C78.6047 20.15 77.5897 19.79 76.8897 19.07C76.1997 18.34 75.8547 17.38 75.8547 16.19V9.29H77.2047V16.235C77.2047 17.105 77.4347 17.78 77.8947 18.26C78.3647 18.74 79.0697 18.98 80.0097 18.98C80.6597 18.98 81.1847 18.865 81.5847 18.635C81.9947 18.395 82.2947 18.07 82.4847 17.66C82.6747 17.24 82.7697 16.76 82.7697 16.22V9.29H84.1047V16.22ZM90.4714 20H89.1214V10.475H85.7764V9.29H93.8014V10.475H90.4714V20Z" fill="#79AD37"/>
</svg>
