<svg width="59" height="59" viewBox="0 0 59 59" fill="none" xmlns="http://www.w3.org/2000/svg">
<path fill-rule="evenodd" clip-rule="evenodd" d="M2.79011 8.04578C2.49467 8.22374 2.50972 7.54321 2.50972 20.7693C2.50972 34.2967 2.48286 33.3245 2.86197 33.5272C3.01545 33.6093 4.87721 33.6198 19.3004 33.6198H35.5658V33.2516C35.5658 32.8141 35.6716 32.5193 35.8665 32.4134C35.9781 32.3528 37.5165 32.3331 43.0624 32.3218L50.1163 32.3073V20.2909V8.27456L49.9508 8.12713L49.785 7.97985L26.3393 7.98168C10.523 7.98291 2.85976 8.00381 2.79011 8.04578ZM26.682 10.1339C26.9347 10.2701 26.9437 10.3297 26.9457 11.8764L26.9476 13.3615L26.7751 13.5399L26.6026 13.7183H25.1773C23.2192 13.7183 23.3468 13.8499 23.3468 11.8309V10.4259L23.5611 10.2043L23.7754 9.98267L25.1696 10.0265C25.9364 10.0506 26.617 10.099 26.682 10.1339ZM41.0721 10.1115C41.4624 10.2649 41.5733 11.9902 41.2164 12.3588L41.0528 12.5279H40.1933H39.3339L39.1574 12.3235L38.9809 12.1193L38.9999 11.2346C39.0254 10.0465 39.0167 10.0555 40.1399 10.0555C40.5744 10.0555 40.9938 10.0807 41.0721 10.1115ZM44.3206 10.1264C44.5718 10.2649 44.5933 10.354 44.5952 11.2651C44.5979 12.5161 44.5589 12.5586 43.4048 12.5583C42.3083 12.5578 42.1765 12.4191 42.1773 11.2647C42.178 10.1673 42.2911 10.0555 43.3989 10.0555C43.8884 10.0555 44.2411 10.0826 44.3206 10.1264ZM47.6712 10.2339L47.8437 10.4123V11.2738C47.8437 12.5067 47.7939 12.5586 46.61 12.5583C45.5149 12.5578 45.3912 12.4096 45.4337 11.1484C45.4693 10.0956 45.5038 10.0655 46.6825 10.0596L47.4987 10.0555L47.6712 10.2339ZM7.36217 10.3021C7.80592 10.4295 7.8223 10.4947 7.8223 12.1346V13.5868L7.64064 13.7746L7.45898 13.9625H6.0116H4.56407L4.39274 13.773L4.22155 13.5833V12.1267V10.6701L4.43007 10.4543L4.63874 10.2386L5.89103 10.2389C6.5799 10.2391 7.2419 10.2676 7.36217 10.3021ZM10.4222 11.3982C11.1616 11.6107 11.2712 12.643 10.5925 13.0009C10.3282 13.1402 9.08507 13.1553 8.83759 13.0221C8.15758 12.6561 8.23742 11.6216 8.96244 11.4048C9.21774 11.3283 10.1643 11.3242 10.4222 11.3982ZM14.3804 11.4043C15.1084 11.6468 15.1755 12.6511 14.4884 13.0184C14.2557 13.1429 13.0521 13.1423 12.7633 13.0176C12.0936 12.7281 12.154 11.6458 12.8526 11.4141C13.1135 11.3277 14.1308 11.3211 14.3804 11.4043ZM18.4838 11.4939C19.0429 11.9257 19.0212 12.6831 18.4408 12.9893C18.0968 13.1707 16.9337 13.1622 16.613 12.9757C16.0015 12.6202 16.0943 11.6633 16.7651 11.4081C17.0861 11.286 18.2927 11.3463 18.4838 11.4939ZM22.4108 11.5066C22.9685 11.8645 22.9302 12.6953 22.3422 13.0009C22.0777 13.1384 20.9101 13.1533 20.6089 13.0231C19.9216 12.7261 19.9894 11.629 20.7091 11.4016C21.0797 11.2845 22.1695 11.3518 22.4108 11.5066ZM47.7896 14.2534L47.9618 14.4529V18.9419C47.9618 23.9546 47.9801 23.7294 47.5632 23.849C47.1609 23.9645 29.106 23.9354 28.8684 23.8188C28.5327 23.654 28.5414 23.7832 28.5414 18.9397V14.4602L28.691 14.2764C28.8988 14.021 28.1715 14.0384 38.3597 14.0466L47.6174 14.0541L47.7896 14.2534ZM22.7151 14.7073C23.0642 14.8469 23.0517 14.6368 23.0517 20.342C23.0517 26.0041 23.0598 25.8582 22.739 25.984C22.6378 26.0237 8.86401 26.0959 8.46498 26.0588C8.41259 26.0539 8.2997 25.9774 8.2141 25.8889L8.05842 25.7281V20.345V14.9622L8.22074 14.8057C8.31003 14.7197 8.41997 14.6377 8.46498 14.6237C8.66154 14.562 22.5556 14.6437 22.7151 14.7073ZM6.20078 14.8793C6.7893 15.2555 6.79136 17.0175 6.20373 17.3882C5.45702 17.859 4.9299 17.3383 4.9299 16.1297C4.9299 14.8714 5.42544 14.3837 6.20078 14.8793ZM25.8381 14.9098C26.4038 15.297 26.3781 17.0244 25.8012 17.3882C25.0591 17.8563 24.5274 17.331 24.5274 16.1297C24.5274 14.8514 25.0466 14.368 25.8381 14.9098ZM6.24712 18.9432C6.62889 19.2314 6.77528 20.4943 6.49416 21.0738C6.19031 21.7001 5.49303 21.7655 5.08057 21.2063C4.86201 20.91 4.84962 19.4945 5.06271 19.1712C5.31949 18.7816 5.88793 18.6722 6.24712 18.9432ZM25.8446 18.9432C26.3068 19.2921 26.394 20.8003 25.9795 21.2788C25.5837 21.7357 24.9585 21.6762 24.6427 21.1515C24.4688 20.8626 24.4924 19.3945 24.675 19.1387C24.9315 18.7792 25.5011 18.6841 25.8446 18.9432ZM6.22336 22.9818C6.78959 23.409 6.78045 25.0837 6.20979 25.4852C5.48285 25.9967 4.9299 25.4559 4.9299 24.2333C4.9299 23.0102 5.51325 22.4458 6.22336 22.9818ZM25.6656 22.898C26.3769 23.2115 26.4758 25.015 25.8073 25.4852C25.0804 25.9967 24.5274 25.4559 24.5274 24.2333C24.5274 23.0661 24.9422 22.5794 25.6656 22.898ZM6.97657 26.7213C7.43655 26.7214 7.46754 26.7303 7.64064 26.9093L7.8223 27.0972L7.82201 28.5423C7.82156 30.5326 7.91557 30.4414 5.86152 30.4438L4.63874 30.4453L4.43007 30.2297L4.22155 30.0139V28.5755C4.22155 26.6201 4.2065 26.6398 5.66775 26.6917C6.12228 26.7079 6.71123 26.7211 6.97657 26.7213ZM26.1055 26.7215C26.5761 26.7215 26.6117 26.7309 26.7751 26.8999L26.9476 27.0783V28.5681C26.9476 30.5458 27.0509 30.4453 25.0168 30.4453H23.764L23.5554 30.2297L23.3468 30.0139V28.6089C23.3468 26.6296 23.3377 26.6415 24.8171 26.6935C25.2524 26.7089 25.8322 26.7215 26.1055 26.7215ZM10.5925 27.6831C10.9036 27.8472 11.0352 28.0749 11.0345 28.4476C11.0332 29.0974 10.6698 29.3465 9.72332 29.3465C8.7492 29.3465 8.39193 29.1083 8.38602 28.4546C8.37997 27.798 8.71452 27.5763 9.71122 27.5763C10.241 27.5763 10.4345 27.5998 10.5925 27.6831ZM14.4571 27.6613C15.1662 27.9676 15.1156 29.0347 14.3804 29.2796C14.0225 29.3988 13.0519 29.3645 12.7654 29.2226C12.1274 28.9063 12.0961 28.0978 12.7071 27.7153C12.9777 27.5457 14.1093 27.5109 14.4571 27.6613ZM18.4408 27.6947C19.0677 28.0254 19.0465 28.8996 18.4035 29.2288C18.0951 29.3868 16.9518 29.3839 16.6524 29.2244C16.0682 28.9132 16.0592 27.9981 16.6373 27.702C16.9874 27.5229 18.1064 27.5183 18.4408 27.6947ZM22.3422 27.6831C22.9779 28.0134 22.9711 28.8954 22.3305 29.216C21.9592 29.402 20.9628 29.4051 20.596 29.2213C19.9703 28.9082 19.9641 27.9944 20.5853 27.6776C20.871 27.532 22.0585 27.5357 22.3422 27.6831Z" fill="#E8F1FA"/>
<path fill-rule="evenodd" clip-rule="evenodd" d="M2.92134 7.92625C2.72065 8.00912 2.5077 8.22432 2.5105 8.34153C2.51198 8.39952 2.5474 8.3719 2.60023 8.27132C2.64819 8.17991 2.73836 8.07689 2.80048 8.0424C2.87722 7.99997 10.455 7.97982 26.3485 7.97982H49.7835L49.9492 8.1271L50.1148 8.27453V20.2908V32.3073L44.0938 32.3382C40.7823 32.3552 38.1048 32.3758 38.1439 32.384C38.1867 32.3929 38.1573 32.4629 38.0701 32.5603L37.9253 32.7219V39.7618V46.8018L38.1085 47.0176L38.2918 47.2334H44.9853C49.3162 47.2334 51.679 47.2123 51.679 47.1736C51.679 47.1198 51.5717 46.7996 51.4433 46.4703C51.4172 46.4031 51.3638 46.2521 51.3248 46.1345C51.239 45.8761 51.152 45.6523 51.0818 45.5096C51.0532 45.4513 51.0297 45.3617 51.0297 45.3104C51.0297 45.2591 51.0031 45.1627 50.9707 45.096C50.9382 45.0293 50.8851 44.92 50.8526 44.8533C50.8201 44.7866 50.7936 44.6902 50.7936 44.6389C50.7936 44.5876 50.7701 44.498 50.7415 44.4397C50.6713 44.297 50.5843 44.0731 50.4984 43.8147C50.4595 43.6972 50.4065 43.5461 50.3808 43.479C49.837 42.0584 49.8567 42.0317 51.097 42.5071C51.4982 42.6609 51.9727 42.8422 52.1512 42.9098C52.3298 42.9776 52.529 43.055 52.594 43.082C52.6589 43.1089 52.805 43.164 52.9186 43.2043C53.1685 43.2931 53.3849 43.383 53.5229 43.4556C53.5793 43.4852 53.6659 43.5095 53.7155 43.5095C53.7651 43.5095 53.8517 43.5338 53.9081 43.5634C54.0812 43.6545 54.2949 43.7421 54.5419 43.8231C54.6718 43.8659 54.8033 43.9226 54.8341 43.9493C54.8649 43.976 54.9646 43.9979 55.0555 43.9979H55.2207L55.2286 43.25C55.2328 42.8387 55.2395 42.2898 55.2433 42.03C55.2482 41.7032 55.2275 41.5488 55.1765 41.5283C55.1185 41.505 55.1027 40.5755 55.1027 37.1653C55.1027 33.9356 55.0847 32.7912 55.0321 32.6719C54.8887 32.346 54.8239 32.3378 52.4204 32.3378H50.2045L50.1891 20.3178C50.1719 6.78894 50.2203 8.1477 49.7477 7.9409C49.5094 7.83651 3.17399 7.82217 2.92134 7.92625ZM2.47804 20.7693C2.47804 27.5517 2.48497 30.3173 2.49339 26.9149C2.5018 23.5128 2.5018 17.9635 2.49339 14.5833C2.48497 11.2033 2.47804 13.9869 2.47804 20.7693ZM23.5595 10.2042L23.3453 10.4258V11.8309C23.3453 13.8498 23.2176 13.7183 25.1757 13.7183H26.601L26.7735 13.5399L26.946 13.3615L26.9441 11.8763C26.9417 9.92648 27.0958 10.087 25.1681 10.0264L23.7738 9.98264L23.5595 10.2042ZM24.7944 10.2596L24.6439 10.4638V11.8832C24.6439 13.2203 24.651 13.3129 24.7659 13.4799L24.888 13.6572H24.3322C23.7264 13.6572 23.6193 13.6092 23.4767 13.2728C23.3745 13.0318 23.3757 10.6552 23.4781 10.469C23.6681 10.1234 23.8153 10.0594 24.4255 10.0573L24.9451 10.0554L24.7944 10.2596ZM4.42849 10.4542L4.21997 10.67V12.1266V13.5832L4.39116 13.7729L4.56249 13.9625H6.01002H7.4574L7.63906 13.7746L7.82072 13.5867V12.1346C7.82072 10.1469 7.91502 10.2395 5.88945 10.2389L4.63716 10.2386L4.42849 10.4542ZM5.69112 10.478L5.51861 10.6565V12.1181C5.51861 13.5043 5.52495 13.588 5.64094 13.7406L5.76328 13.9014L5.21298 13.8994C4.31604 13.8961 4.279 13.8245 4.279 12.0937C4.279 10.3929 4.33124 10.3004 5.29267 10.2999L5.86363 10.2996L5.69112 10.478ZM8.96086 11.4047C8.40525 11.5709 8.17091 12.3636 8.55017 12.7931C8.98964 13.2907 10.544 13.2456 10.9134 12.7247C11.5291 11.8563 10.2779 11.0105 8.96086 11.4047ZM12.851 11.4141C12.3407 11.5833 12.1195 12.2979 12.4354 12.7568C12.7948 13.2787 14.3791 13.2668 14.8085 12.7391C15.506 11.882 14.1693 10.9773 12.851 11.4141ZM16.7636 11.4081C16.0927 11.6633 15.9999 12.6202 16.6114 12.9756C16.9321 13.1621 18.0953 13.1707 18.4392 12.9892C19.0196 12.6831 19.0413 11.9256 18.4822 11.4939C18.2911 11.3463 17.0845 11.286 16.7636 11.4081ZM20.7076 11.4015C19.9879 11.6289 19.92 12.7261 20.6074 13.0231C20.9086 13.1533 22.0761 13.1383 22.3406 13.0008C22.9287 12.6953 22.9669 11.8644 22.4092 11.5065C22.1679 11.3518 21.0781 11.2845 20.7076 11.4015ZM8.4634 14.6236C8.28941 14.6781 8.05684 14.9644 8.06126 15.1186C8.0654 15.2625 8.07159 15.2585 8.13771 15.0697C8.26329 14.7108 8.32114 14.6951 9.51426 14.6951C10.1954 14.6951 10.5951 14.7176 10.5951 14.7561C10.5951 14.7897 10.5728 14.8171 10.5455 14.8171C10.3091 14.8171 10.2419 25.3929 10.4758 25.7897L10.5924 25.9872L10.4469 26.025C10.3669 26.0458 9.88023 26.0529 9.36536 26.041C8.34873 26.0175 8.29118 25.9994 8.14597 25.6572C8.08074 25.5035 8.06554 25.4931 8.06171 25.5989C8.05625 25.7448 8.31878 26.0453 8.4634 26.0587C8.86243 26.0958 22.6362 26.0236 22.7374 25.984C23.0582 25.8582 23.0501 26.0041 23.0501 20.342C23.0501 14.6368 23.0627 14.8469 22.7135 14.7073C22.554 14.6436 8.65996 14.562 8.4634 14.6236ZM5.48909 14.7666C5.02291 14.9415 4.92832 15.1717 4.92832 16.1297C4.92832 17.1911 5.11588 17.5028 5.75472 17.5028C6.37644 17.5028 6.61064 17.127 6.61064 16.1297C6.61064 15.0508 6.16733 14.5121 5.48909 14.7666ZM25.0931 14.7666C24.6185 14.9515 24.5258 15.1741 24.5258 16.1297C24.5258 17.1815 24.7212 17.5035 25.3592 17.5031C25.9217 17.5025 26.1848 17.1302 26.226 16.2763C26.2797 15.1596 25.7831 14.4979 25.0931 14.7666ZM5.37103 18.8754C4.69899 19.2332 4.72054 21.1382 5.4007 21.5019C6.09679 21.8742 6.61064 21.3039 6.61064 20.1588C6.61064 19.0386 6.08558 18.495 5.37103 18.8754ZM24.9685 18.8771C24.335 19.2207 24.3241 21.075 24.9532 21.4716C25.6828 21.9316 26.2853 21.2461 26.2264 20.0228C26.1783 19.0232 25.6264 18.5204 24.9685 18.8771ZM5.40173 22.918C4.75625 23.2637 4.69014 25.0512 5.30654 25.488C6.00928 25.9859 6.61064 25.4145 6.61064 24.249C6.61064 23.1025 6.10225 22.5429 5.40173 22.918ZM24.9992 22.9214C24.3542 23.2565 24.2877 25.0512 24.9041 25.488C25.5361 25.936 26.1699 25.4341 26.2263 24.4407C26.2963 23.2089 25.7494 22.5316 24.9992 22.9214ZM4.65133 26.7232C4.24609 26.8542 4.21997 26.9667 4.21997 28.5754V30.0139L4.42849 30.2297L4.63716 30.4453L5.85994 30.4438C7.91399 30.4413 7.81999 30.5326 7.82043 28.5423L7.82072 27.0972L7.63906 26.9093C7.46596 26.7303 7.43497 26.7214 6.97499 26.7213C6.70966 26.7211 6.1207 26.7078 5.66618 26.6917C5.1938 26.6749 4.75905 26.6885 4.65133 26.7232ZM23.906 26.6967C23.3732 26.8368 23.3453 26.9317 23.3453 28.6089V30.0139L23.5538 30.2297L23.7624 30.4453H25.0152C27.0493 30.4453 26.946 30.5457 26.946 28.5681V27.0782L26.7735 26.8998C26.6101 26.7309 26.5746 26.7214 26.104 26.7214C25.8307 26.7214 25.2509 26.7089 24.8155 26.6935C24.3802 26.6782 23.971 26.6796 23.906 26.6967ZM5.64094 26.9433C5.52495 27.0958 5.51861 27.1796 5.51861 28.5564V30.0087L5.67149 30.1964L5.82423 30.3843H5.31437C4.3336 30.3843 4.279 30.2895 4.279 28.5893C4.279 26.8545 4.31442 26.786 5.21298 26.7838L5.76328 26.7825L5.64094 26.9433ZM24.7614 26.9809C24.6536 27.1634 24.6443 27.2913 24.644 28.5776L24.6439 29.9759L24.7944 30.1801L24.9451 30.3843H24.4395C23.4756 30.3843 23.4043 30.2582 23.4043 28.5528C23.4043 26.8661 23.4455 26.7878 24.3331 26.7844L24.8782 26.7825L24.7614 26.9809ZM8.82834 27.6831C8.19157 28.0188 8.22536 28.9756 8.88368 29.248C9.86326 29.6532 11.0313 29.2183 11.0329 28.4475C11.0342 27.7936 10.7043 27.5762 9.70964 27.5762C9.17986 27.5762 8.98639 27.5997 8.82834 27.6831ZM12.7055 27.7153C12.0945 28.0977 12.1258 28.9063 12.7638 29.2225C13.0504 29.3645 14.0209 29.3988 14.3788 29.2796C15.114 29.0347 15.1646 27.9675 14.4555 27.6612C14.1077 27.5109 12.9761 27.5457 12.7055 27.7153ZM16.6358 27.702C16.0576 27.9981 16.0666 28.9132 16.6508 29.2244C16.9502 29.3839 18.0935 29.3868 18.4019 29.2288C19.0449 28.8996 19.0661 28.0254 18.4392 27.6947C18.1048 27.5182 16.9858 27.5228 16.6358 27.702ZM20.5838 27.6776C19.9625 27.9944 19.9687 28.9081 20.5944 29.2213C20.9612 29.4051 21.9576 29.402 22.3289 29.216C22.9695 28.8953 22.9763 28.0133 22.3406 27.6831C22.057 27.5356 20.8695 27.532 20.5838 27.6776ZM35.8182 32.446C35.6392 32.5914 35.5642 32.8311 35.5642 33.2575V33.6198H19.2988C1.4685 33.6198 2.79989 33.6479 2.60052 33.268C2.55227 33.1761 2.51242 33.1421 2.51183 33.1925C2.5105 33.3113 2.68006 33.5261 2.84372 33.6126C2.93772 33.6624 7.3904 33.6808 19.298 33.6808H35.6232L35.6234 33.2688C35.6237 32.766 35.7582 32.4933 36.049 32.4066C36.2178 32.3564 36.2238 32.3483 36.0955 32.3447C36.0143 32.3424 35.8894 32.388 35.8182 32.446Z" fill="#5EC4E0"/>
<path fill-rule="evenodd" clip-rule="evenodd" d="M26.4142 0.0549066C26.1383 0.0834463 25.7265 0.122212 25.4993 0.140984C25.272 0.159756 25.0608 0.200505 25.03 0.231487C24.9992 0.262468 24.848 0.287803 24.6941 0.287803C24.5402 0.287803 24.3978 0.315274 24.3777 0.348851C24.3577 0.382427 24.2116 0.409898 24.0531 0.409898C23.8946 0.409898 23.7485 0.43737 23.7284 0.470946C23.7084 0.504522 23.5872 0.531993 23.4592 0.531993C23.3313 0.531993 23.2267 0.559465 23.2267 0.593041C23.2267 0.626617 23.1204 0.654088 22.9906 0.654088C22.8607 0.654088 22.7544 0.68156 22.7544 0.715136C22.7544 0.748712 22.6498 0.776183 22.5219 0.776183C22.3939 0.776183 22.2728 0.803655 22.2527 0.837231C22.2326 0.870807 22.1248 0.898278 22.013 0.898278C21.9013 0.898278 21.81 0.92575 21.81 0.959326C21.81 0.992902 21.7319 1.02037 21.6364 1.02037C21.541 1.02037 21.4464 1.04785 21.4263 1.08142C21.4062 1.115 21.3133 1.14247 21.2197 1.14247C21.1261 1.14247 21.0332 1.16994 21.0131 1.20352C20.993 1.23709 20.9117 1.26456 20.8325 1.26456C20.7532 1.26456 20.6884 1.29204 20.6884 1.32561C20.6884 1.35919 20.6088 1.38666 20.5114 1.38666C20.414 1.38666 20.3343 1.41413 20.3343 1.44771C20.3343 1.48128 20.2546 1.50875 20.1572 1.50875C20.0598 1.50875 19.9801 1.53623 19.9801 1.5698C19.9801 1.60338 19.9004 1.63085 19.803 1.63085C19.7056 1.63085 19.6259 1.65832 19.6259 1.6919C19.6259 1.72547 19.5728 1.75294 19.5079 1.75294C19.4429 1.75294 19.3898 1.78042 19.3898 1.81399C19.3898 1.84757 19.3101 1.87504 19.2127 1.87504C19.1153 1.87504 19.0356 1.90251 19.0356 1.93609C19.0356 1.96966 18.9841 1.99713 18.9211 1.99713C18.8581 1.99713 18.7901 2.02461 18.77 2.05818C18.7499 2.09176 18.6819 2.11923 18.6189 2.11923C18.5559 2.11923 18.5044 2.1467 18.5044 2.18028C18.5044 2.21385 18.4513 2.24132 18.3863 2.24132C18.3214 2.24132 18.2683 2.2688 18.2683 2.30237C18.2683 2.33595 18.1886 2.36342 18.0912 2.36342C17.9938 2.36342 17.9141 2.39089 17.9141 2.42447C17.9141 2.45804 17.8741 2.48551 17.8253 2.48551C17.7764 2.48551 17.5987 2.55419 17.4305 2.63813C17.2623 2.72207 17.0898 2.79075 17.0471 2.79075C17.0045 2.79075 16.9696 2.81822 16.9696 2.8518C16.9696 2.88538 16.9165 2.91285 16.8516 2.91285C16.7867 2.91285 16.7334 2.93345 16.7334 2.95863C16.7332 2.98382 16.5871 3.0731 16.4089 3.15704C16.2306 3.24098 16.0845 3.33026 16.0844 3.35544C16.0844 3.38062 16.0311 3.40123 15.9662 3.40123C15.9012 3.40123 15.8481 3.4287 15.8481 3.46228C15.8481 3.49585 15.8133 3.52332 15.7706 3.52332C15.7281 3.52332 15.6362 3.57827 15.5665 3.64542C15.4969 3.71257 15.3989 3.76751 15.3489 3.76751C15.2988 3.76751 15.2578 3.79498 15.2578 3.82856C15.2578 3.86214 15.2047 3.88961 15.1398 3.88961C15.0748 3.88961 15.0217 3.91708 15.0217 3.95066C15.0217 3.98423 14.9869 4.0117 14.9442 4.0117C14.9017 4.0117 14.8098 4.06665 14.7401 4.1338C14.6705 4.20095 14.5784 4.25589 14.5354 4.25589C14.4925 4.25589 14.4192 4.31084 14.3724 4.37799C14.3256 4.44514 14.2459 4.50008 14.1953 4.50008C14.1447 4.50008 14.065 4.55503 14.0182 4.62218C13.9714 4.68933 13.8858 4.74427 13.8281 4.74427C13.7703 4.74427 13.7231 4.77175 13.7231 4.80532C13.7231 4.8389 13.6953 4.86637 13.6614 4.86637C13.5812 4.86637 13.3099 5.14704 13.3099 5.22991C13.3099 5.27417 18.2717 5.2937 29.4837 5.2937C40.6958 5.2937 45.6576 5.27417 45.6576 5.22991C45.6576 5.14704 45.3862 4.86637 45.306 4.86637C45.2721 4.86637 45.2444 4.8389 45.2444 4.80532C45.2444 4.77175 45.1971 4.74427 45.1393 4.74427C45.0816 4.74427 44.996 4.68933 44.9492 4.62218C44.9024 4.55503 44.8228 4.50008 44.7721 4.50008C44.7215 4.50008 44.6418 4.44514 44.5951 4.37799C44.5483 4.31084 44.4749 4.25589 44.432 4.25589C44.389 4.25589 44.297 4.20095 44.2273 4.1338C44.1576 4.06665 44.0657 4.0117 44.0232 4.0117C43.9806 4.0117 43.9457 3.98423 43.9457 3.95066C43.9457 3.91708 43.8926 3.88961 43.8277 3.88961C43.7628 3.88961 43.7096 3.86214 43.7096 3.82856C43.7096 3.79498 43.6565 3.76751 43.5916 3.76751C43.5266 3.76751 43.4735 3.74462 43.4735 3.71684C43.4735 3.68891 43.4005 3.6271 43.3112 3.57949C43.2219 3.53187 43.1356 3.47861 43.1193 3.46121C43.1031 3.44366 42.9039 3.33377 42.6766 3.21717C42.4494 3.10042 42.2546 2.98427 42.2438 2.95894C42.2329 2.9336 42.1731 2.91285 42.111 2.91285C42.0487 2.91285 41.9978 2.88538 41.9978 2.8518C41.9978 2.81822 41.963 2.79075 41.9203 2.79075C41.8777 2.79075 41.7052 2.72207 41.5369 2.63813C41.3687 2.55419 41.191 2.48551 41.1422 2.48551C41.0933 2.48551 41.0533 2.45804 41.0533 2.42447C41.0533 2.39089 40.9736 2.36342 40.8762 2.36342C40.7788 2.36342 40.6992 2.34266 40.6992 2.31733C40.6992 2.29184 40.6128 2.23522 40.5073 2.19111C40.4018 2.14716 40.2693 2.0855 40.2129 2.05421C40.1565 2.02277 40.0702 1.99713 40.0211 1.99713C39.9719 1.99713 39.9318 1.96966 39.9318 1.93609C39.9318 1.90251 39.8521 1.87504 39.7547 1.87504C39.6573 1.87504 39.5776 1.84757 39.5776 1.81399C39.5776 1.78042 39.5245 1.75294 39.4596 1.75294C39.3946 1.75294 39.3415 1.72547 39.3415 1.6919C39.3415 1.65832 39.2618 1.63085 39.1644 1.63085C39.067 1.63085 38.9873 1.60338 38.9873 1.5698C38.9873 1.53623 38.9076 1.50875 38.8102 1.50875C38.7128 1.50875 38.6332 1.48128 38.6332 1.44771C38.6332 1.41413 38.5535 1.38666 38.4561 1.38666C38.3587 1.38666 38.279 1.35919 38.279 1.32561C38.279 1.29204 38.2142 1.26456 38.135 1.26456C38.0557 1.26456 37.9744 1.23709 37.9543 1.20352C37.9343 1.16994 37.8413 1.14247 37.7477 1.14247C37.6542 1.14247 37.5612 1.115 37.5411 1.08142C37.5211 1.04785 37.4265 1.02037 37.331 1.02037C37.2355 1.02037 37.1574 0.992902 37.1574 0.959326C37.1574 0.92575 37.0661 0.898278 36.9544 0.898278C36.8427 0.898278 36.7348 0.870807 36.7147 0.837231C36.6947 0.803655 36.5735 0.776183 36.4456 0.776183C36.3176 0.776183 36.213 0.748712 36.213 0.715136C36.213 0.68156 36.1067 0.654088 35.9769 0.654088C35.847 0.654088 35.7408 0.626617 35.7408 0.593041C35.7408 0.559465 35.6361 0.531993 35.5082 0.531993C35.3802 0.531993 35.2591 0.504522 35.239 0.470946C35.2189 0.43737 35.0728 0.409898 34.9144 0.409898C34.7559 0.409898 34.6098 0.382427 34.5897 0.348851C34.5696 0.315274 34.4272 0.287803 34.2733 0.287803C34.1194 0.287803 33.9683 0.262468 33.9374 0.231487C33.9066 0.200505 33.6954 0.160366 33.4681 0.142357C33.2409 0.124348 32.8026 0.0834463 32.4942 0.0517016C31.8069 -0.0189609 27.1072 -0.016519 26.4142 0.0549066ZM39.1824 10.2025C39.0171 10.3495 39.0168 10.351 38.9978 11.2345L38.9788 12.1193L39.1553 12.3235L39.3318 12.5278H40.1912H41.0507L41.2143 12.3587C41.5712 11.9902 41.4603 10.2648 41.07 10.1114C40.7297 9.97757 39.3611 10.0438 39.1824 10.2025ZM42.4505 10.1803C42.039 10.5151 42.0704 12.1756 42.4933 12.4424C42.9175 12.7098 44.3681 12.5777 44.5343 12.2565C44.6227 12.0857 44.61 10.4164 44.5193 10.2943C44.3102 10.0125 42.7616 9.92721 42.4505 10.1803ZM45.7432 10.1244C45.5115 10.2408 45.4561 10.4228 45.4316 11.1483C45.3891 12.4096 45.5128 12.5577 46.6079 12.5582C47.7917 12.5585 47.8416 12.5066 47.8416 11.2738V10.4122L47.6691 10.2338L47.4966 10.0554L46.6804 10.0595C46.2315 10.0618 45.8097 10.091 45.7432 10.1244ZM52.7214 12.5991C52.6997 12.6214 52.682 17.0718 52.682 22.4888V32.3378H53.6589C54.6822 32.3378 54.9081 32.3855 55.0213 32.6255C55.0495 32.6854 55.0859 34.7102 55.1022 37.125C55.1253 40.5757 55.1476 41.5207 55.2059 41.5408C55.2506 41.5562 55.2947 41.4914 55.3166 41.378C55.3366 41.2744 55.3762 41.1897 55.4047 41.1897C55.4332 41.1897 55.4563 41.1072 55.4563 41.0065C55.4563 40.9058 55.4764 40.8234 55.5009 40.8234C55.5255 40.8234 55.5803 40.7341 55.6229 40.625C55.6654 40.5158 55.7251 40.3788 55.7553 40.3205C55.7857 40.2622 55.8105 40.1729 55.8105 40.1221C55.8105 40.0713 55.8371 40.0298 55.8695 40.0298C55.902 40.0298 55.9286 39.9473 55.9286 39.8466C55.9286 39.7459 55.9551 39.6635 55.9876 39.6635C56.02 39.6635 56.0466 39.6085 56.0466 39.5414C56.0466 39.4742 56.0732 39.4193 56.1056 39.4193C56.1381 39.4193 56.1647 39.3369 56.1647 39.2361C56.1647 39.1354 56.1912 39.053 56.2237 39.053C56.2562 39.053 56.2827 38.9706 56.2827 38.8699C56.2827 38.7691 56.3093 38.6867 56.3418 38.6867C56.3742 38.6867 56.4008 38.6043 56.4008 38.5036C56.4008 38.4028 56.4273 38.3204 56.4598 38.3204C56.4923 38.3204 56.5188 38.2534 56.5188 38.1715C56.5188 38.0895 56.5454 38.0054 56.5779 37.9847C56.6103 37.9639 56.6369 37.8678 56.6369 37.771C56.6369 37.6742 56.6635 37.5781 56.6959 37.5573C56.7284 37.5366 56.755 37.4387 56.755 37.34C56.755 37.2413 56.7815 37.1605 56.814 37.1605C56.8465 37.1605 56.873 37.0661 56.873 36.9505C56.873 36.835 56.8996 36.7234 56.932 36.7027C56.9645 36.6819 56.9911 36.5566 56.9911 36.4243C56.9911 36.292 57.0176 36.1838 57.0501 36.1838C57.0826 36.1838 57.1091 36.0739 57.1091 35.9396C57.1091 35.8053 57.1357 35.6954 57.1682 35.6954C57.2006 35.6954 57.2272 35.5872 57.2272 35.4549C57.2272 35.3225 57.2537 35.1972 57.2862 35.1765C57.3187 35.1557 57.3452 35.0046 57.3452 34.8407C57.3452 34.6768 57.3718 34.5257 57.4043 34.505C57.4367 34.4842 57.4633 34.3331 57.4633 34.1692C57.4633 34.0053 57.4899 33.8542 57.5223 33.8334C57.5548 33.8127 57.5814 33.6105 57.5814 33.3841C57.5814 33.1413 57.6109 32.9421 57.6535 32.898C57.7534 32.7947 57.7922 27.2198 57.6999 26.233C57.6637 25.8469 57.6202 25.3387 57.603 25.1036C57.5861 24.8686 57.5477 24.6502 57.5178 24.6183C57.4878 24.5864 57.4633 24.4301 57.4633 24.2709C57.4633 24.1118 57.4367 23.9645 57.4043 23.9437C57.3718 23.923 57.3452 23.7719 57.3452 23.608C57.3452 23.4441 57.3187 23.293 57.2862 23.2722C57.2537 23.2514 57.2272 23.1261 57.2272 22.9938C57.2272 22.8615 57.2006 22.7533 57.1682 22.7533C57.1357 22.7533 57.1091 22.6434 57.1091 22.5091C57.1091 22.3748 57.0826 22.2649 57.0501 22.2649C57.0176 22.2649 56.9911 22.1567 56.9911 22.0244C56.9911 21.8921 56.9645 21.7668 56.932 21.746C56.8996 21.7253 56.873 21.6137 56.873 21.4982C56.873 21.3826 56.8465 21.2882 56.814 21.2882C56.7815 21.2882 56.755 21.2074 56.755 21.1087C56.755 21.0099 56.7284 20.9121 56.6959 20.8913C56.6635 20.8706 56.6369 20.7744 56.6369 20.6777C56.6369 20.5809 56.6103 20.4848 56.5779 20.464C56.5454 20.4433 56.5188 20.3592 56.5188 20.2772C56.5188 20.1953 56.4923 20.1283 56.4598 20.1283C56.4273 20.1283 56.4008 20.0458 56.4008 19.9451C56.4008 19.8444 56.3742 19.762 56.3418 19.762C56.3093 19.762 56.2827 19.6796 56.2827 19.5788C56.2827 19.4781 56.2562 19.3957 56.2237 19.3957C56.1912 19.3957 56.1647 19.3133 56.1647 19.2125C56.1647 19.1118 56.1381 19.0294 56.1056 19.0294C56.0732 19.0294 56.0466 18.9745 56.0466 18.9073C56.0466 18.8402 56.02 18.7852 55.9876 18.7852C55.9551 18.7852 55.9286 18.7028 55.9286 18.6021C55.9286 18.5013 55.902 18.4189 55.8695 18.4189C55.8371 18.4189 55.8105 18.3657 55.8105 18.3005C55.8105 18.2353 55.7839 18.165 55.7515 18.1442C55.719 18.1235 55.6924 18.0531 55.6924 17.9879C55.6924 17.9228 55.6659 17.8695 55.6334 17.8695C55.6009 17.8695 55.5744 17.8146 55.5744 17.7474C55.5744 17.6802 55.5478 17.6253 55.5154 17.6253C55.4829 17.6253 55.4563 17.5429 55.4563 17.4422C55.4563 17.3414 55.4298 17.259 55.3973 17.259C55.3648 17.259 55.3381 17.2109 55.338 17.1522C55.3378 17.0934 55.2714 16.9101 55.1904 16.745C55.1094 16.5799 55.0431 16.4082 55.0431 16.3635C55.0431 16.3187 55.0166 16.2823 54.9841 16.2823C54.9516 16.2823 54.9251 16.2273 54.9251 16.1602C54.9251 16.093 54.9051 16.0379 54.8808 16.0379C54.8564 16.0378 54.7701 15.8867 54.689 15.7023C54.6078 15.5179 54.5215 15.3669 54.4971 15.3667C54.4728 15.3667 54.4528 15.3116 54.4528 15.2445C54.4528 15.1773 54.4263 15.1224 54.3938 15.1224C54.3613 15.1224 54.3348 15.0863 54.3348 15.0422C54.3348 14.9983 54.2817 14.9032 54.2167 14.8312C54.1518 14.7591 54.0987 14.6578 54.0987 14.606C54.0987 14.5543 54.0721 14.5119 54.0396 14.5119C54.0072 14.5119 53.9806 14.4569 53.9806 14.3898C53.9806 14.3226 53.954 14.2677 53.9216 14.2677C53.8891 14.2677 53.8626 14.2317 53.8626 14.1876C53.8626 14.1436 53.8094 14.0485 53.7445 13.9765C53.6796 13.9045 53.6264 13.8092 53.6264 13.7648C53.6264 13.7204 53.5733 13.6445 53.5084 13.5962C53.4434 13.5478 53.3903 13.4654 53.3903 13.413C53.3903 13.3607 53.3372 13.2783 53.2723 13.2299C53.2073 13.1815 53.1542 13.093 53.1542 13.0333C53.1542 12.9735 53.1276 12.9246 53.0952 12.9246C53.0627 12.9246 53.0361 12.8975 53.0361 12.8644C53.0361 12.7163 52.8002 12.5175 52.7214 12.5991ZM28.9693 14.0658C28.8973 14.0804 28.7711 14.1752 28.6889 14.2764L28.5393 14.4601V18.9397C28.5393 23.7832 28.5305 23.6539 28.8663 23.8187C29.1039 23.9353 47.1588 23.9645 47.5611 23.849C47.978 23.7293 47.9597 23.9546 47.9597 18.9418V14.4528L47.7875 14.2533L47.6153 14.054L38.3576 14.0465C33.266 14.0424 29.0411 14.051 28.9693 14.0658ZM5.16656 44.1778C5.07551 44.2376 5.18058 44.5473 5.292 44.5473C5.31886 44.5473 5.34099 44.5961 5.34099 44.6559C5.34099 44.7156 5.39412 44.8041 5.45905 44.8525C5.52398 44.9009 5.57711 44.9833 5.57711 45.0357C5.57711 45.088 5.63023 45.1704 5.69517 45.2188C5.7601 45.2672 5.81322 45.3557 5.81322 45.4154C5.81322 45.4752 5.83979 45.524 5.87225 45.524C5.90472 45.524 5.93128 45.5552 5.93128 45.5932C5.93128 45.6312 5.98042 45.7067 6.04063 45.7611C6.10069 45.8154 6.19721 45.9546 6.25491 46.0704C6.31261 46.1864 6.39613 46.3189 6.4407 46.3648C6.48512 46.4107 6.52157 46.4727 6.52157 46.5023C6.52157 46.5321 6.58798 46.625 6.66914 46.709C6.7503 46.7929 6.81671 46.8869 6.81671 46.9181C6.81671 46.949 6.92296 47.0876 7.05283 47.226C7.18269 47.3645 7.28894 47.5018 7.28894 47.5313C7.28894 47.5607 7.39519 47.6981 7.52506 47.8365C7.65492 47.9749 7.76117 48.1031 7.76117 48.1216C7.76117 48.1399 7.94711 48.3446 8.17437 48.5764C8.40163 48.8082 8.58757 49.0219 8.58757 49.0512C8.58757 49.2064 10.1625 50.8352 10.3125 50.8352C10.3409 50.8352 10.5475 51.0275 10.7716 51.2625C10.9958 51.4975 11.1937 51.6898 11.2114 51.6898C11.2293 51.6898 11.3532 51.7997 11.4871 51.934C11.6209 52.0683 11.7537 52.1782 11.7822 52.1782C11.8107 52.1782 11.9435 52.2881 12.0773 52.4224C12.2112 52.5567 12.3452 52.6666 12.3751 52.6666C12.4052 52.6666 12.4941 52.7331 12.5727 52.8145C12.6514 52.8958 12.7698 52.9801 12.8357 53.0017C12.9017 53.0234 12.9557 53.0649 12.9557 53.0939C12.9557 53.1229 13.0057 53.1632 13.0667 53.1832C13.1647 53.2154 13.2536 53.2803 13.5287 53.5202C13.568 53.5544 13.6277 53.5823 13.6615 53.5823C13.6953 53.5823 13.7231 53.6098 13.7231 53.6434C13.7231 53.6769 13.7703 53.7044 13.8281 53.7044C13.8858 53.7044 13.9714 53.7594 14.0182 53.8265C14.065 53.8937 14.1447 53.9486 14.1953 53.9486C14.2459 53.9486 14.3256 54.0035 14.3724 54.0707C14.4192 54.1378 14.4925 54.1928 14.5354 54.1928C14.5784 54.1928 14.6705 54.2477 14.7401 54.3149C14.8098 54.382 14.9017 54.437 14.9442 54.437C14.9869 54.437 15.0217 54.4644 15.0217 54.498C15.0217 54.5316 15.0748 54.5591 15.1398 54.5591C15.2047 54.5591 15.2578 54.5865 15.2578 54.6201C15.2578 54.6537 15.2988 54.6812 15.3489 54.6812C15.3989 54.6812 15.4969 54.7361 15.5665 54.8033C15.6362 54.8704 15.7281 54.9254 15.7706 54.9254C15.8133 54.9254 15.8481 54.9528 15.8481 54.9864C15.8481 55.02 15.9012 55.0475 15.9662 55.0475C16.0311 55.0475 16.0844 55.0681 16.0844 55.0932C16.0845 55.1184 16.2306 55.2077 16.4089 55.2916C16.5871 55.3756 16.7332 55.4649 16.7334 55.49C16.7334 55.5152 16.7867 55.5358 16.8516 55.5358C16.9165 55.5358 16.9696 55.5633 16.9696 55.5969C16.9696 55.6305 17.0049 55.6579 17.0481 55.6579C17.0914 55.6579 17.2574 55.7265 17.4171 55.8102C17.5767 55.894 17.754 55.9627 17.8108 55.9629C17.8676 55.963 17.9141 55.9906 17.9141 56.0242C17.9141 56.0578 17.9938 56.0853 18.0912 56.0853C18.1886 56.0853 18.2683 56.1127 18.2683 56.1463C18.2683 56.1799 18.3214 56.2074 18.3863 56.2074C18.4513 56.2074 18.5044 56.2348 18.5044 56.2684C18.5044 56.302 18.5559 56.3295 18.6189 56.3295C18.6819 56.3295 18.7499 56.3569 18.77 56.3905C18.7901 56.4241 18.8581 56.4515 18.9211 56.4515C18.9841 56.4515 19.0356 56.479 19.0356 56.5126C19.0356 56.5462 19.1153 56.5736 19.2127 56.5736C19.3101 56.5736 19.3898 56.6011 19.3898 56.6347C19.3898 56.6683 19.4429 56.6957 19.5079 56.6957C19.5728 56.6957 19.6259 56.7232 19.6259 56.7568C19.6259 56.7904 19.7056 56.8178 19.803 56.8178C19.9004 56.8178 19.9801 56.8453 19.9801 56.8789C19.9801 56.9125 20.0598 56.9399 20.1572 56.9399C20.2546 56.9399 20.3343 56.9674 20.3343 57.001C20.3343 57.0345 20.414 57.062 20.5114 57.062C20.6088 57.062 20.6884 57.0895 20.6884 57.1231C20.6884 57.1566 20.7532 57.1841 20.8325 57.1841C20.9117 57.1841 20.993 57.2116 21.0131 57.2452C21.0332 57.2787 21.1261 57.3062 21.2197 57.3062C21.3133 57.3062 21.4062 57.3337 21.4263 57.3673C21.4464 57.4008 21.541 57.4283 21.6364 57.4283C21.7319 57.4283 21.81 57.4558 21.81 57.4894C21.81 57.5229 21.9013 57.5504 22.013 57.5504C22.1248 57.5504 22.2326 57.5779 22.2527 57.6114C22.2728 57.645 22.3939 57.6725 22.5219 57.6725C22.6498 57.6725 22.7544 57.7 22.7544 57.7335C22.7544 57.7671 22.8607 57.7946 22.9906 57.7946C23.1204 57.7946 23.2267 57.8221 23.2267 57.8556C23.2267 57.8892 23.3313 57.9167 23.4592 57.9167C23.5872 57.9167 23.7084 57.9442 23.7284 57.9777C23.7485 58.0113 23.8946 58.0388 24.0531 58.0388C24.2116 58.0388 24.3577 58.0663 24.3777 58.0998C24.3978 58.1334 24.5402 58.1609 24.6941 58.1609C24.848 58.1609 24.9992 58.1862 25.03 58.2172C25.0608 58.2482 25.272 58.2879 25.4993 58.3054C25.7265 58.3231 26.218 58.3681 26.5913 58.4055C27.5455 58.5011 32.936 58.4609 33.0359 58.3576C33.0786 58.3135 33.2711 58.283 33.5059 58.283C33.7248 58.283 33.9203 58.2555 33.9404 58.2219C33.9604 58.1883 34.1065 58.1609 34.265 58.1609C34.4235 58.1609 34.5696 58.1334 34.5897 58.0998C34.6098 58.0663 34.7559 58.0388 34.9144 58.0388C35.0728 58.0388 35.2189 58.0113 35.239 57.9777C35.2591 57.9442 35.3802 57.9167 35.5082 57.9167C35.6361 57.9167 35.7408 57.8892 35.7408 57.8556C35.7408 57.8221 35.847 57.7946 35.9769 57.7946C36.1067 57.7946 36.213 57.7671 36.213 57.7335C36.213 57.7 36.3176 57.6725 36.4456 57.6725C36.5735 57.6725 36.6947 57.645 36.7147 57.6114C36.7348 57.5779 36.8427 57.5504 36.9544 57.5504C37.0661 57.5504 37.1574 57.5229 37.1574 57.4894C37.1574 57.4558 37.2355 57.4283 37.331 57.4283C37.4265 57.4283 37.5211 57.4008 37.5411 57.3673C37.5612 57.3337 37.6542 57.3062 37.7477 57.3062C37.8413 57.3062 37.9343 57.2787 37.9543 57.2452C37.9744 57.2116 38.0557 57.1841 38.135 57.1841C38.2142 57.1841 38.279 57.1566 38.279 57.1231C38.279 57.0895 38.3587 57.062 38.4561 57.062C38.5535 57.062 38.6332 57.0345 38.6332 57.001C38.6332 56.9674 38.7128 56.9399 38.8102 56.9399C38.9076 56.9399 38.9873 56.9125 38.9873 56.8789C38.9873 56.8453 39.067 56.8178 39.1644 56.8178C39.2618 56.8178 39.3415 56.7904 39.3415 56.7568C39.3415 56.7232 39.3946 56.6957 39.4596 56.6957C39.5245 56.6957 39.5776 56.6683 39.5776 56.6347C39.5776 56.6011 39.6573 56.5736 39.7547 56.5736C39.8521 56.5736 39.9318 56.5462 39.9318 56.5126C39.9318 56.479 39.9719 56.4515 40.0211 56.4515C40.0702 56.4515 40.1565 56.4259 40.2129 56.3945C40.2693 56.3632 40.4018 56.3015 40.5073 56.2576C40.6128 56.2135 40.6992 56.1568 40.6992 56.1314C40.6992 56.106 40.7788 56.0853 40.8762 56.0853C40.9736 56.0853 41.0533 56.0578 41.0533 56.0242C41.0533 55.9906 41.0998 55.963 41.1566 55.9629C41.2134 55.9627 41.3907 55.894 41.5504 55.8102C41.71 55.7265 41.876 55.6579 41.9193 55.6579C41.9625 55.6579 41.9978 55.6305 41.9978 55.5969C41.9978 55.5633 42.0487 55.5358 42.111 55.5358C42.1731 55.5358 42.2329 55.5151 42.2438 55.4897C42.2546 55.4644 42.4494 55.3483 42.6766 55.2315C42.9039 55.1149 43.1031 55.005 43.1193 54.9875C43.1356 54.9701 43.2219 54.9168 43.3112 54.8692C43.4005 54.8216 43.4735 54.7598 43.4735 54.7318C43.4735 54.7041 43.5266 54.6812 43.5916 54.6812C43.6565 54.6812 43.7096 54.6537 43.7096 54.6201C43.7096 54.5865 43.7628 54.5591 43.8277 54.5591C43.8926 54.5591 43.9457 54.5316 43.9457 54.498C43.9457 54.4644 43.9806 54.437 44.0232 54.437C44.0657 54.437 44.1576 54.382 44.2273 54.3149C44.297 54.2477 44.389 54.1928 44.432 54.1928C44.4749 54.1928 44.5483 54.1378 44.5951 54.0707C44.6418 54.0035 44.7215 53.9486 44.7721 53.9486C44.8228 53.9486 44.9024 53.8937 44.9492 53.8265C44.996 53.7594 45.0816 53.7044 45.1393 53.7044C45.1971 53.7044 45.2444 53.6769 45.2444 53.6434C45.2444 53.6098 45.2721 53.5823 45.3059 53.5823C45.3397 53.5823 45.3995 53.5544 45.4387 53.5202C45.7138 53.2803 45.8028 53.2154 45.9008 53.1832C45.9617 53.1632 46.0117 53.1229 46.0117 53.0939C46.0117 53.0649 46.0657 53.0234 46.1317 53.0017C46.1977 52.9801 46.316 52.8958 46.3947 52.8145C46.4733 52.7331 46.5622 52.6666 46.5923 52.6666C46.6222 52.6666 46.7562 52.5567 46.8901 52.4224C47.0239 52.2881 47.1567 52.1782 47.1852 52.1782C47.2137 52.1782 47.3465 52.0683 47.4804 51.934C47.6142 51.7997 47.7382 51.6898 47.756 51.6898C47.7737 51.6898 47.9716 51.4975 48.1958 51.2625C48.42 51.0275 48.6266 50.8352 48.6549 50.8352C48.805 50.8352 50.3799 49.2064 50.3799 49.0512C50.3799 49.0219 50.5658 48.8082 50.7931 48.5764C51.0203 48.3446 51.2063 48.1399 51.2063 48.1216C51.2063 48.1031 51.3125 47.9749 51.4424 47.8365C51.5722 47.6981 51.6785 47.5493 51.6785 47.5056C51.6785 47.4621 51.6946 47.3831 51.7144 47.33C51.7468 47.2422 51.0318 47.2334 43.8748 47.2334H35.9993L35.812 47.0441L35.6249 46.8549L35.6091 45.5027L35.5932 44.1505H34.0879H32.5827L32.5674 46.7602L32.5519 49.37H35.2405C38.2264 49.37 38.1478 49.3597 38.3166 49.7774C38.433 50.0657 38.4304 52.2829 38.3132 52.5729C38.1386 53.0048 39.1348 52.9718 26.2715 52.9718H14.6715L14.4628 52.7562L14.2543 52.5404V51.1819V49.8233L14.4249 49.6119L14.5955 49.4006L17.3321 49.37L20.0686 49.3395V46.745V44.1505L12.6605 44.136C8.2154 44.1273 5.21807 44.1441 5.16656 44.1778Z" fill="#FBAA14"/>
<path fill-rule="evenodd" clip-rule="evenodd" d="M0.729004 5.2919C0.578038 5.35111 0.352254 5.50526 0.22726 5.63452L0 5.86956V24.7374V43.6052L0.219439 43.832C0.340005 43.9568 0.47946 44.0589 0.529339 44.0589C0.579071 44.0589 0.619801 44.0832 0.619801 44.1129C0.619801 44.1442 4.72805 44.1636 10.3448 44.1587L20.0697 44.1505V46.745V49.3395L17.3332 49.3701L14.5966 49.4006L14.426 49.612L14.2554 49.8233V51.1819V52.5404L14.4639 52.7562L14.6726 52.9719H26.2726C39.1359 52.9719 38.1397 53.0048 38.3143 52.5729C38.4315 52.2829 38.4342 50.0657 38.3177 49.7774C38.1489 49.3597 38.2276 49.3701 35.2416 49.3701H32.553L32.5685 46.7603L32.5838 44.1505L34.1038 44.1342L35.6238 44.1178V40.8323C35.6238 39.0252 35.6062 36.6769 35.5847 35.6138L35.5457 33.6808H19.2317C4.17672 33.6808 2.90628 33.6731 2.76918 33.5803C2.428 33.3489 2.44954 34.2167 2.45057 20.7876C2.45146 7.3434 2.42667 8.25621 2.7987 7.99691L2.99836 7.85772H26.2987C46.3542 7.85772 49.6269 7.86993 49.7982 7.94487C50.2062 8.12359 50.1727 7.0667 50.1897 20.2962L50.2051 32.2767H51.4441H52.6831V22.4461C52.6831 13.7131 52.6931 12.6116 52.7727 12.5801C52.8774 12.5384 52.9037 6.74483 52.8007 6.41593C52.7703 6.31917 52.7322 6.16945 52.7158 6.08338C52.6996 5.99715 52.6325 5.86254 52.5666 5.78409C52.5008 5.70549 52.447 5.61804 52.447 5.58966C52.447 5.56112 52.4192 5.53792 52.3854 5.53792C52.3516 5.53792 52.2699 5.48572 52.2038 5.42208C52.1375 5.35828 51.9992 5.28549 51.8962 5.26015C51.5916 5.18537 45.6587 5.15729 45.6587 5.2307C45.6587 5.27389 40.5652 5.29373 29.4848 5.29373C18.6469 5.29373 13.311 5.27343 13.311 5.23207C13.311 5.10723 1.05174 5.16553 0.729004 5.2919ZM50.1252 42.2682C50.0539 42.3418 50.0838 42.526 50.2296 42.9137C50.3087 43.1238 50.4692 43.5705 50.5865 43.9063C50.7039 44.2421 50.8498 44.6541 50.9109 44.822C50.972 44.9899 51.1584 45.5118 51.3253 45.9819C51.4922 46.452 51.6554 46.9086 51.6879 46.9967C51.7202 47.0849 51.7287 47.2566 51.7066 47.3782C51.68 47.5249 51.6886 47.5997 51.732 47.5997C51.7681 47.5997 51.7976 47.6684 51.7976 47.7523C51.7976 47.8362 51.8242 47.9049 51.8567 47.9049C51.8891 47.9049 51.9157 47.9719 51.9157 48.0539C51.9157 48.1358 51.9423 48.2199 51.9747 48.2407C52.0072 48.2614 52.0338 48.3455 52.0338 48.4275C52.0338 48.5094 52.0603 48.5764 52.0928 48.5764C52.1253 48.5764 52.1518 48.6297 52.1518 48.6949C52.1518 48.76 52.1784 48.8304 52.2108 48.8512C52.2433 48.8719 52.2699 48.956 52.2699 49.038C52.2699 49.1199 52.2964 49.1869 52.3289 49.1869C52.3614 49.1869 52.3879 49.2693 52.3879 49.3701C52.3879 49.4708 52.4145 49.5532 52.447 49.5532C52.4794 49.5532 52.506 49.6202 52.506 49.7022C52.506 49.7841 52.5326 49.8682 52.565 49.889C52.5975 49.9097 52.6241 49.9801 52.6241 50.0452C52.6241 50.1104 52.6506 50.1637 52.6831 50.1637C52.7155 50.1637 52.7421 50.2461 52.7421 50.3468C52.7421 50.4475 52.7687 50.53 52.8011 50.53C52.8336 50.53 52.8602 50.597 52.8602 50.6789C52.8602 50.7609 52.8855 50.8442 52.9167 50.864C52.9477 50.8839 52.9582 50.9405 52.9399 50.9898C52.9216 51.0391 52.9342 51.0794 52.9679 51.0794C53.0017 51.0794 53.0461 51.1343 53.0668 51.2015C53.093 51.2873 53.156 51.3236 53.2787 51.3236C53.4677 51.3236 53.4525 51.3367 54.6579 50.1244C55.046 49.7341 55.3736 49.4459 55.3859 49.4839C55.3983 49.5221 55.4329 49.5532 55.463 49.5532C55.4931 49.5532 55.7963 49.8348 56.1367 50.1789C57.5707 51.629 57.4992 51.5678 57.7585 51.5678C57.889 51.5678 57.9957 51.5403 57.9957 51.5067C57.9957 51.4731 58.0349 51.4457 58.083 51.4457C58.1311 51.4457 58.3562 51.2465 58.5831 51.0031L58.9959 50.5605L58.9975 50.1792L58.9991 49.798L58.0547 48.8244C57.4405 48.1912 57.1102 47.8063 57.1102 47.7239C57.1102 47.5981 57.2259 47.4617 58.276 46.3485C58.8984 45.689 59.0073 45.2799 58.5607 45.2799C58.5096 45.2799 58.4679 45.2524 58.4679 45.2188C58.4679 45.1852 58.3882 45.1578 58.2908 45.1578C58.1934 45.1578 58.1137 45.1303 58.1137 45.0967C58.1137 45.0632 58.034 45.0357 57.9366 45.0357C57.8392 45.0357 57.7595 45.0082 57.7595 44.9746C57.7595 44.9411 57.7064 44.9136 57.6415 44.9136C57.5766 44.9136 57.5234 44.8861 57.5234 44.8525C57.5234 44.819 57.457 44.7915 57.3759 44.7915C57.2947 44.7915 57.2283 44.764 57.2283 44.7304C57.2283 44.6969 57.1486 44.6694 57.0512 44.6694C56.9538 44.6694 56.8741 44.6419 56.8741 44.6083C56.8741 44.5748 56.8093 44.5473 56.7301 44.5473C56.6508 44.5473 56.5695 44.5198 56.5495 44.4863C56.5294 44.4527 56.4614 44.4252 56.3983 44.4252C56.3353 44.4252 56.2838 44.3977 56.2838 44.3642C56.2838 44.3306 56.2041 44.3031 56.1067 44.3031C56.0093 44.3031 55.9297 44.2756 55.9297 44.2421C55.9297 44.2085 55.8522 44.181 55.7574 44.181C55.6628 44.181 55.5758 44.1513 55.564 44.1149C55.5523 44.0786 55.3925 44.0395 55.2089 44.0281C54.8968 44.0086 54.631 43.9165 52.0928 42.9497C51.9142 42.8818 51.715 42.8041 51.6501 42.7771C51.5851 42.7502 51.439 42.6951 51.3254 42.6548C51.2118 42.6145 51.0657 42.5597 51.0008 42.5332C50.1845 42.199 50.1904 42.2008 50.1252 42.2682Z" fill="#384C90"/>
<path fill-rule="evenodd" clip-rule="evenodd" d="M23.7889 10.1295C23.4335 10.3418 23.4052 10.4688 23.4052 11.8525C23.4052 13.5865 23.4415 13.6571 24.3331 13.6571H24.8889L24.7668 13.4798C24.6519 13.3128 24.6448 13.2202 24.6448 11.8831V10.4637L24.7953 10.2595L24.946 10.0553L24.4264 10.0571C24.1407 10.0582 23.8538 10.0907 23.7889 10.1295ZM4.56589 10.4372C4.29657 10.6727 4.27989 10.769 4.27989 12.0935C4.27989 13.8244 4.31693 13.896 5.21387 13.8993L5.76417 13.9013L5.64183 13.7404C5.52584 13.5878 5.5195 13.5042 5.5195 12.118V10.6563L5.69201 10.4779L5.86452 10.2995L5.29356 10.2998C4.78798 10.3001 4.70461 10.3158 4.56589 10.4372ZM8.30698 14.8018C8.0623 15.0235 8.05773 15.1241 8.05773 20.374C8.05773 25.7314 8.0561 25.6983 8.32897 25.9326C8.43699 26.0252 10.1575 26.1003 10.4478 26.0249L10.5933 25.987L10.4767 25.7895C10.2428 25.3927 10.31 14.817 10.5464 14.817C10.5737 14.817 10.596 14.7895 10.596 14.756C10.596 14.6352 8.44333 14.6783 8.30698 14.8018ZM4.54213 26.8905C4.30941 27.0926 4.27989 27.2837 4.27989 28.5892C4.27989 30.2894 4.3345 30.3841 5.31526 30.3841H5.82512L5.67238 30.1963L5.5195 30.0085V28.5562C5.5195 27.1795 5.52584 27.0957 5.64183 26.9432L5.76417 26.7823L5.21387 26.7837C4.78001 26.7848 4.6379 26.8074 4.54213 26.8905ZM23.6708 26.8912C23.4347 27.1007 23.4052 27.2855 23.4052 28.5527C23.4052 30.2581 23.4765 30.3841 24.4404 30.3841H24.946L24.7953 30.1799L24.6448 29.9757L24.6449 28.5774C24.6452 27.2912 24.6545 27.1633 24.7623 26.9807L24.8791 26.7823L24.334 26.7843C23.906 26.786 23.7635 26.8089 23.6708 26.8912ZM50.8092 32.3221C51.1582 32.3329 51.7293 32.3329 52.0784 32.3221C52.4274 32.3114 52.1418 32.3026 51.4438 32.3026C50.7458 32.3026 50.4602 32.3114 50.8092 32.3221ZM36.0403 32.4175C35.5649 32.5873 35.5924 32.196 35.6116 38.534C35.6209 41.623 35.6275 44.7584 35.6263 45.5015L35.6241 46.8525L35.8124 47.0429L36.0007 47.2333H37.1466H38.2927L38.1094 47.0175L37.9262 46.8017V39.7617V32.7218L38.0675 32.5643C38.1814 32.437 38.1919 32.4001 38.1216 32.3722C37.9553 32.3062 36.2473 32.3433 36.0403 32.4175ZM55.2399 41.9527C55.2402 42.1541 55.2513 42.2292 55.2644 42.1195C55.2776 42.0097 55.2773 41.8449 55.2638 41.7532C55.2504 41.6615 55.2396 41.7512 55.2399 41.9527ZM50.0271 42.38C50.0271 42.4639 50.0373 42.5326 50.0497 42.5326C50.0622 42.5326 50.0851 42.4639 50.1006 42.38C50.1161 42.296 50.1059 42.2274 50.078 42.2274C50.05 42.2274 50.0271 42.296 50.0271 42.38ZM50.5288 42.345C50.6587 42.4096 50.8048 42.4635 50.8535 42.4647C50.9547 42.4671 50.6527 42.3231 50.4365 42.2657C50.3574 42.2448 50.399 42.2805 50.5288 42.345ZM55.2444 43.2652C55.2444 43.6849 55.2538 43.8566 55.2653 43.6467C55.2768 43.4369 55.2768 43.0935 55.2653 42.8836C55.2538 42.6738 55.2444 42.8455 55.2444 43.2652ZM50.1083 42.6852C50.1481 42.8685 50.3566 43.4431 50.3993 43.4874C50.4198 43.5086 50.4139 43.4466 50.3861 43.3497C50.3183 43.1133 50.0746 42.5306 50.1083 42.6852ZM51.6421 42.7582C51.6798 42.7969 52.1527 42.9837 52.47 43.0849C52.7474 43.1734 52.5915 43.0718 52.2556 42.9451C51.817 42.7798 51.5987 42.7133 51.6421 42.7582ZM50.4436 43.6133C50.4418 43.6537 50.4647 43.7499 50.4945 43.827C50.5244 43.9042 50.5649 44.0193 50.5845 44.0828C50.6041 44.1464 50.6338 44.1842 50.6503 44.1672C50.667 44.1499 50.628 44.0019 50.5637 43.838C50.4993 43.674 50.4453 43.573 50.4436 43.6133ZM51.5046 46.6228C51.5046 46.6732 51.5304 46.7556 51.5619 46.8059C51.6128 46.8873 51.6191 46.8873 51.6191 46.8059C51.6191 46.7556 51.5933 46.6732 51.5619 46.6228C51.5109 46.5414 51.5046 46.5414 51.5046 46.6228Z" fill="#2CA3A4"/>
</svg>
