<svg width="44" height="45" viewBox="0 0 44 45" fill="none" xmlns="http://www.w3.org/2000/svg">
<path d="M36.0631 5.06624C33.7384 3.13173 31.0382 1.69968 28.1327 0.860327C25.2272 0.0209745 22.1793 -0.207485 19.1811 0.189342C13.6346 0.909901 8.57024 3.71431 5.0163 8.03312C1.46236 12.3519 -0.314742 17.8614 0.0458344 23.4429C0.406411 29.0243 2.87764 34.2594 6.95773 38.085C11.0378 41.9107 16.4209 44.0401 22.014 44.041H34.8246C37.2568 44.0381 39.5885 43.0707 41.3084 41.3508C43.0282 39.631 43.9957 37.2992 43.9986 34.867V20.7556V20.64C43.8044 17.6409 43.0005 14.713 41.6361 12.0352C40.2716 9.35742 38.3753 6.9861 36.0631 5.06624ZM14.6418 12.8495H21.981C22.4676 12.8495 22.9343 13.0428 23.2784 13.3869C23.6225 13.7309 23.8158 14.1976 23.8158 14.6843C23.8158 15.1709 23.6225 15.6376 23.2784 15.9817C22.9343 16.3257 22.4676 16.5191 21.981 16.5191H14.6418C14.1552 16.5191 13.6885 16.3257 13.3444 15.9817C13.0003 15.6376 12.807 15.1709 12.807 14.6843C12.807 14.1976 13.0003 13.7309 13.3444 13.3869C13.6885 13.0428 14.1552 12.8495 14.6418 12.8495ZM29.3202 31.1974H14.6418C14.1552 31.1974 13.6885 31.0041 13.3444 30.6601C13.0003 30.316 12.807 29.8493 12.807 29.3627C12.807 28.876 13.0003 28.4093 13.3444 28.0653C13.6885 27.7212 14.1552 27.5279 14.6418 27.5279H29.3202C29.8068 27.5279 30.2735 27.7212 30.6176 28.0653C30.9617 28.4093 31.155 28.876 31.155 29.3627C31.155 29.8493 30.9617 30.316 30.6176 30.6601C30.2735 31.0041 29.8068 31.1974 29.3202 31.1974ZM29.3202 23.8583H14.6418C14.1552 23.8583 13.6885 23.6649 13.3444 23.3209C13.0003 22.9768 12.807 22.5101 12.807 22.0235C12.807 21.5368 13.0003 21.0701 13.3444 20.7261C13.6885 20.382 14.1552 20.1887 14.6418 20.1887H29.3202C29.8068 20.1887 30.2735 20.382 30.6176 20.7261C30.9617 21.0701 31.155 21.5368 31.155 22.0235C31.155 22.5101 30.9617 22.9768 30.6176 23.3209C30.2735 23.6649 29.8068 23.8583 29.3202 23.8583Z" fill="#CBD5E1"/>
</svg>
