<svg width="55" height="55" viewBox="0 0 55 55" fill="none" xmlns="http://www.w3.org/2000/svg">
<path fill-rule="evenodd" clip-rule="evenodd" d="M13.9418 4.09083C13.9418 5.3615 13.949 5.87348 13.9578 5.22852C13.9666 4.58356 13.9666 3.54393 13.9577 2.91822C13.9489 2.29251 13.9418 2.82017 13.9418 4.09083ZM41.1135 22.5732C41.1135 33.9789 41.1199 38.6532 41.1276 32.9603C41.1353 27.2674 41.1353 17.9354 41.1276 12.2227C41.1199 6.50977 41.1135 11.1675 41.1135 22.5732ZM37.5114 4.80593C37.6139 4.91181 37.7103 4.99845 37.7254 4.99845C37.7406 4.99845 37.6689 4.91181 37.5664 4.80593C37.4638 4.70004 37.3674 4.6134 37.3523 4.6134C37.3371 4.6134 37.4088 4.70004 37.5114 4.80593ZM16.865 5.80059C16.817 5.92546 16.8252 9.74405 16.8736 9.8201C16.8959 9.85503 16.9141 8.94535 16.9141 7.79859C16.9141 6.65183 16.9105 5.71354 16.9062 5.71354C16.9018 5.71354 16.8833 5.75274 16.865 5.80059ZM18.6575 5.99958C18.5288 6.1283 18.5669 9.54699 18.698 9.61712C18.8128 9.67859 24.782 9.70114 24.9394 9.64064C25.0532 9.59704 25.0732 6.11234 24.9605 5.99958C24.8652 5.90428 18.7528 5.90428 18.6575 5.99958ZM30.0424 5.99958C29.9308 6.11124 29.9499 9.47465 30.0629 9.58756C30.2114 9.73621 36.3296 9.71696 36.4094 9.56762C36.4451 9.50106 36.4664 8.84111 36.4664 7.80381C36.4664 6.76652 36.4451 6.10657 36.4094 6.04001C36.339 5.90841 30.1726 5.86935 30.0424 5.99958ZM38.141 7.80381C38.141 8.78706 38.1484 9.1893 38.1575 8.69768C38.1667 8.20605 38.1667 7.40157 38.1575 6.90995C38.1484 6.41832 38.141 6.82056 38.141 7.80381ZM13.8679 6.5249C13.8645 6.59297 13.7607 6.7496 13.6375 6.87282C13.5141 6.99617 13.4637 7.07016 13.5251 7.03715C13.6956 6.94598 13.929 6.61153 13.9 6.50001C13.8799 6.42245 13.873 6.42781 13.8679 6.5249ZM13.9438 31.2918C13.9438 43.4388 13.9501 48.408 13.9578 42.3345C13.9655 36.261 13.9655 26.3226 13.9578 20.2492C13.9501 14.1757 13.9438 19.1449 13.9438 31.2918ZM20.2866 11.3655C21.1434 11.374 22.5294 11.374 23.3666 11.3655C24.204 11.357 23.503 11.35 21.809 11.35C20.115 11.35 19.43 11.357 20.2866 11.3655ZM31.6715 11.3655C32.5283 11.374 33.9143 11.374 34.7515 11.3655C35.5888 11.357 34.8879 11.35 33.1939 11.35C31.4999 11.35 30.8149 11.357 31.6715 11.3655ZM20.1768 12.9057C21.0939 12.9141 22.5789 12.9141 23.4767 12.9057C24.3745 12.8972 23.624 12.8903 21.809 12.8903C19.994 12.8903 19.2595 12.8972 20.1768 12.9057ZM31.5617 12.9057C32.4788 12.9141 33.9638 12.9141 34.8616 12.9057C35.7593 12.8972 35.0089 12.8903 33.1939 12.8903C31.3789 12.8903 30.6444 12.8972 31.5617 12.9057ZM17.4366 13.4319C17.3609 13.4999 17.2632 13.6043 17.2192 13.6639C17.1752 13.7234 17.2432 13.6742 17.3704 13.5547C17.5789 13.3586 17.6292 13.3011 17.5878 13.3063C17.5802 13.3073 17.5122 13.3637 17.4366 13.4319ZM37.4014 13.3217C37.4014 13.3312 37.4818 13.4116 37.5801 13.5005L37.7589 13.6621L37.5973 13.4833C37.4467 13.3166 37.4014 13.2792 37.4014 13.3217ZM16.865 14.4367C16.817 14.5616 16.8252 18.3802 16.8736 18.4562C16.8959 18.4911 16.9141 17.5815 16.9141 16.4347C16.9141 15.2879 16.9105 14.3497 16.9062 14.3497C16.9018 14.3497 16.8833 14.3889 16.865 14.4367ZM18.7153 14.6263L18.5915 14.6761V16.4362C18.5915 18.12 18.5962 18.1988 18.698 18.2532C18.8128 18.3147 24.782 18.3373 24.9394 18.2768C25.0717 18.226 25.0717 14.6538 24.9394 14.6031C24.7995 14.5493 18.8514 14.5716 18.7153 14.6263ZM30.1002 14.6263L29.9764 14.6761V16.4395V18.2029L30.1175 18.2565C30.382 18.3571 36.2774 18.3263 36.3799 18.2237C36.5101 18.0936 36.5101 14.7863 36.3799 14.6562C36.2812 14.5573 30.342 14.5291 30.1002 14.6263ZM38.141 16.4399C38.141 17.4232 38.1484 17.8254 38.1575 17.3338C38.1667 16.8422 38.1667 16.0377 38.1575 15.5461C38.1484 15.0544 38.141 15.4567 38.141 16.4399ZM45.4423 16.946C45.3222 17.066 45.3507 20.4515 45.4725 20.5439C45.6279 20.6619 50.4749 20.6533 50.644 20.5348C50.789 20.4332 50.8416 17.0874 50.7002 16.946C50.6052 16.851 45.5373 16.851 45.4423 16.946ZM17.3541 19.3553C17.4722 19.4763 17.5812 19.5753 17.5963 19.5753C17.6115 19.5753 17.5272 19.4763 17.4091 19.3553C17.2909 19.2343 17.1819 19.1353 17.1668 19.1353C17.1517 19.1353 17.2359 19.2343 17.3541 19.3553ZM37.5354 19.4241L37.3739 19.6028L37.5526 19.4413C37.6509 19.3524 37.7313 19.272 37.7313 19.2625C37.7313 19.22 37.686 19.2574 37.5354 19.4241ZM20.2043 20.0016C21.1063 20.0102 22.5665 20.01 23.4492 20.0016C24.3318 19.9931 23.5937 19.9861 21.809 19.9862C20.0243 19.9862 19.3021 19.9931 20.2043 20.0016ZM31.6127 20.0016C32.4975 20.0102 33.9453 20.0102 34.8301 20.0016C35.7149 19.9931 34.991 19.9861 33.2214 19.9861C31.4518 19.9861 30.7279 19.9931 31.6127 20.0016ZM16.865 23.0728C16.817 23.1977 16.8252 27.0163 16.8736 27.0923C16.8959 27.1273 16.9141 26.2176 16.9141 25.0708C16.9141 23.9241 16.9105 22.9858 16.9062 22.9858C16.9018 22.9858 16.8833 23.025 16.865 23.0728ZM18.6575 23.2718C18.5631 23.3663 18.5631 26.7858 18.6575 26.8803C18.7528 26.9756 24.8652 26.9756 24.9605 26.8803C25.0732 26.7675 25.0532 23.2828 24.9394 23.2392C24.7606 23.1706 18.7275 23.2018 18.6575 23.2718ZM30.0424 23.2718C29.9939 23.3204 29.9764 23.7974 29.9764 25.076C29.9764 26.3547 29.9939 26.8317 30.0424 26.8803C30.1726 27.0105 36.339 26.9714 36.4094 26.8398C36.4451 26.7733 36.4664 26.1133 36.4664 25.076C36.4664 24.0387 36.4451 23.3788 36.4094 23.3122C36.339 23.1806 30.1726 23.1416 30.0424 23.2718ZM38.141 25.076C38.141 26.0593 38.1484 26.4615 38.1575 25.9699C38.1667 25.4783 38.1667 24.6738 38.1575 24.1822C38.1484 23.6905 38.141 24.0928 38.141 25.076ZM4.29361 25.6225C4.20822 25.7822 4.21661 29.0495 4.30269 29.1356C4.3977 29.2306 9.46562 29.2306 9.56063 29.1356C9.65496 29.0412 9.65496 25.6764 9.56063 25.5821C9.43083 25.4523 4.36387 25.4911 4.29361 25.6225ZM45.445 25.5525C45.3726 25.5818 45.3393 28.9311 45.4097 29.1145C45.4534 29.2287 50.5866 29.2492 50.7002 29.1356C50.7945 29.0412 50.7945 25.6764 50.7002 25.5821C50.6341 25.516 45.6059 25.4876 45.445 25.5525ZM20.2318 30.1779C21.1186 30.1865 22.5541 30.1865 23.4217 30.1779C24.2892 30.1694 23.5635 30.1624 21.809 30.1624C20.0545 30.1624 19.3448 30.1694 20.2318 30.1779ZM31.6166 30.1779C32.5035 30.1865 33.939 30.1865 34.8066 30.1779C35.6741 30.1694 34.9484 30.1624 33.1939 30.1624C31.4394 30.1624 30.7296 30.1694 31.6166 30.1779ZM26.0165 30.5939C26.0165 30.6034 26.0969 30.6839 26.1952 30.7727L26.374 30.9343L26.2124 30.7555C26.0618 30.5889 26.0165 30.5514 26.0165 30.5939ZM16.8658 31.7065C16.847 31.7557 16.8372 32.6665 16.8439 33.7304L16.8563 35.6649L16.8852 33.6572C16.9161 31.5028 16.9168 31.5736 16.8658 31.7065ZM18.6575 31.9079C18.58 31.9855 18.5606 35.4468 18.6375 35.4942C18.7114 35.54 24.5942 35.6036 24.8206 35.5611L25.0265 35.5224V33.7156C25.0265 32.1187 25.0163 31.9048 24.9394 31.8753C24.7606 31.8067 18.7275 31.8379 18.6575 31.9079ZM30.0424 31.9079C29.9664 31.984 29.9466 35.3402 30.0215 35.4582C30.0929 35.5707 36.341 35.5845 36.4122 35.4724C36.4855 35.3571 36.4829 32.0856 36.4094 31.9484C36.339 31.8167 30.1726 31.7777 30.0424 31.9079ZM38.141 33.7122C38.141 34.6954 38.1484 35.0976 38.1575 34.606C38.1667 34.1144 38.1667 33.3099 38.1575 32.8183C38.1484 32.3267 38.141 32.7289 38.141 33.7122ZM4.32317 34.2387C4.22252 34.3392 4.19241 37.5723 4.29045 37.7277C4.34462 37.8135 9.01971 37.8883 9.44788 37.8103L9.62663 37.7777V36.031C9.62663 34.7457 9.60917 34.2668 9.56063 34.2182C9.44802 34.1056 4.43661 34.1251 4.32317 34.2387ZM45.445 34.1887C45.3291 34.2354 45.347 37.7597 45.4633 37.8043C45.6201 37.8645 50.5451 37.8422 50.6598 37.7808C50.7908 37.7106 50.8289 34.3469 50.7002 34.2182C50.6341 34.1521 45.6059 34.1237 45.445 34.1887ZM25.3468 39.6392C26.5666 39.6474 28.5466 39.6474 29.7468 39.6392C30.9469 39.6309 29.9489 39.6242 27.529 39.6242C25.109 39.6242 24.127 39.6309 25.3468 39.6392ZM23.1152 41.3598L22.9915 41.4096V47.3796V53.3497H27.5015H32.0114V47.3833C32.0114 41.5409 32.0092 41.4159 31.905 41.3601C31.7701 41.2879 23.295 41.2876 23.1152 41.3598ZM4.30269 42.8543C4.21661 42.9404 4.20822 46.2077 4.29361 46.3674C4.36387 46.4988 9.43083 46.5376 9.56063 46.4078C9.63048 46.3379 9.66087 43.0514 9.59322 42.8754C9.5495 42.7612 4.41626 42.7407 4.30269 42.8543ZM45.4097 42.8754C45.342 43.0514 45.3724 46.3379 45.4423 46.4078C45.5373 46.5028 50.6052 46.5028 50.7002 46.4078C50.7945 46.3135 50.7945 42.9487 50.7002 42.8543C50.5866 42.7407 45.4534 42.7612 45.4097 42.8754ZM41.911 44.5648L41.9383 45.1811L41.9542 44.6084C41.9631 44.2933 41.9509 44.0159 41.9271 43.992C41.9033 43.9681 41.896 44.2258 41.911 44.5648ZM41.1123 49.6642C41.1123 51.7064 41.1192 52.5418 41.1276 51.5207C41.136 50.4996 41.136 48.8288 41.1276 47.8077C41.1192 46.7867 41.1123 47.6221 41.1123 49.6642ZM18.3303 53.3908C18.8672 53.3999 19.7458 53.3999 20.2828 53.3908C20.8197 53.3819 20.3804 53.3744 19.3065 53.3744C18.2327 53.3744 17.7934 53.3819 18.3303 53.3908ZM35.5726 53.3909C36.5784 53.3993 38.2243 53.3993 39.2301 53.3909C40.2359 53.3826 39.413 53.3757 37.4014 53.3757C35.3897 53.3757 34.5668 53.3826 35.5726 53.3909Z" fill="#60C1DE"/>
<path fill-rule="evenodd" clip-rule="evenodd" d="M14.033 1.71426C13.9935 1.7617 13.9685 2.58007 13.9575 4.18023L13.941 6.57496L13.7868 6.77697C13.6159 7.00099 13.3815 7.14387 13.1847 7.14387C12.8787 7.14387 12.7608 8.37314 13.061 8.43544C13.1366 8.45125 13.266 8.47834 13.3485 8.49567C13.5711 8.54284 13.8902 8.90547 13.9322 9.15906C13.9514 9.27595 13.9675 19.2667 13.9679 31.3607L13.9685 53.3498H17.6246H21.2807L21.2958 47.2028L21.3109 41.0557L21.4463 40.7807C21.6481 40.3709 22.1248 39.9174 22.5209 39.7581L22.8509 39.6256L27.2783 39.6091C31.9572 39.5917 32.1879 39.6018 32.6621 39.843C32.9796 40.0043 33.3741 40.4207 33.5508 40.7807L33.6858 41.0557L33.7006 47.2028L33.7156 53.3498H37.3993H41.0832V49.7262C41.0832 47.7333 41.0994 46.0214 41.1194 45.9221C41.1654 45.6913 41.52 45.3327 41.7255 45.309L41.8807 45.2913V44.6399V43.9884L41.6607 43.9136C41.4055 43.8269 41.1647 43.5672 41.1166 43.3271C41.0983 43.2351 41.0832 33.8665 41.0832 22.5079C41.0832 8.37713 41.0652 1.82235 41.0263 1.7496C40.9533 1.61304 14.146 1.57798 14.033 1.71426ZM25.5884 4.4389C26.0011 4.62606 26.3548 4.97191 26.5541 5.38323L26.7009 5.68618V7.80396V9.92173L26.5541 10.2247C26.0184 11.3305 25.7476 11.3921 21.5231 11.369L18.3959 11.3519L18.0787 11.211C17.4968 10.9524 17.0835 10.4927 16.8912 9.89037C16.8034 9.61548 16.8045 5.98762 16.8924 5.71754C17.0043 5.3736 17.0742 5.21862 17.1169 5.21862C17.1398 5.21862 17.1585 5.18548 17.1585 5.14491C17.1585 4.99956 17.8365 4.47011 18.1759 4.35033C18.2847 4.31197 19.5174 4.29065 21.7934 4.2879L25.2458 4.2835L25.5884 4.4389ZM37.0838 4.46956C38.0028 4.92791 38.1682 5.43645 38.1682 7.80396C38.1682 10.2211 37.9599 10.79 36.9178 11.2189L36.6008 11.3496L33.4736 11.3677C30.1946 11.387 29.7711 11.3648 29.356 11.1531C29.0163 10.9798 28.6359 10.5932 28.4567 10.2395L28.2958 9.92173V7.83146C28.2958 5.55912 28.2916 5.59556 28.6191 5.1104C28.8475 4.77224 29.011 4.63252 29.3958 4.44673L29.7258 4.28721L33.2458 4.29918L36.7658 4.311L37.0838 4.46956ZM25.358 12.9797C25.92 13.163 26.2881 13.4885 26.5647 14.0473L26.7009 14.3223V16.4401V18.5578L26.5647 18.8329C26.2628 19.4428 25.8647 19.7663 25.2056 19.938C24.7807 20.0487 18.808 20.0507 18.3936 19.9403C17.8689 19.8006 17.1585 19.3189 17.1585 19.1028C17.1585 19.0602 17.1398 19.0254 17.1169 19.0254C17.0742 19.0254 17.0043 18.8704 16.8924 18.5265C16.8045 18.2564 16.8034 14.6285 16.8912 14.3537C17.134 13.593 17.5638 13.1751 18.3409 12.9444C18.7904 12.8108 24.9352 12.8418 25.358 12.9797ZM36.5944 12.9258C37.9074 13.2806 38.1682 13.8629 38.1682 16.4401C38.1682 19.0299 37.9177 19.5902 36.6031 19.9403C36.2048 20.0465 30.2512 20.0452 29.8071 19.9389C29.2156 19.7974 28.7074 19.3882 28.4314 18.8314L28.2958 18.5578V16.4401V14.3223L28.4311 14.0473C28.5743 13.756 28.5975 13.7249 28.9149 13.4015C29.1208 13.1915 29.5097 12.9753 29.684 12.9738C29.7372 12.9734 29.8179 12.9489 29.8633 12.9196C29.9847 12.8411 36.3024 12.8469 36.5944 12.9258ZM25.5855 21.689C25.9732 21.8668 26.3566 22.2455 26.546 22.6377L26.7009 22.9584V25.0487C26.7009 27.321 26.7051 27.2846 26.3776 27.7697C26.1539 28.1009 25.9929 28.2368 25.593 28.4319L25.2552 28.5966L21.8256 28.5958C18.2697 28.595 18.2718 28.5951 17.8459 28.3666C17.6327 28.252 17.1585 27.8106 17.1585 27.7264C17.1585 27.6907 17.1398 27.6615 17.1169 27.6615C17.0742 27.6615 17.0043 27.5065 16.8924 27.1626C16.8038 26.8906 16.8034 23.2637 16.8918 22.9898C17.083 22.3984 17.4329 21.9831 17.9616 21.7203L18.2859 21.5592L21.7905 21.5575L25.2951 21.5557L25.5855 21.689ZM36.9944 21.6996C37.9866 22.1534 38.1682 22.6761 38.1682 25.0762C38.1682 27.204 38.106 27.502 37.5452 28.0539C37.2899 28.3052 37.2004 28.3612 36.7769 28.5339C36.5929 28.6089 29.8094 28.6246 29.6564 28.5503C29.1614 28.3102 29.0475 28.2461 28.9254 28.1388C28.751 27.9856 28.4787 27.5867 28.3745 27.3315C28.3111 27.1762 28.2958 26.7349 28.2958 25.0487V22.9584L28.4434 22.6559C28.673 22.1851 29.1023 21.7885 29.5608 21.6237C29.6718 21.5839 30.866 21.563 33.2029 21.5601L36.68 21.5557L36.9944 21.6996ZM25.1218 30.1896C25.7668 30.312 26.2479 30.6686 26.5209 31.2264L26.7009 31.5945V33.7123V35.8301L26.5702 36.093C26.3732 36.4897 25.9819 36.8928 25.6321 37.0595L25.3259 37.2052H21.7784H18.2309L17.9478 37.0559C17.401 36.7675 17.0449 36.3341 16.8903 35.7687C16.8037 35.4518 16.8055 31.8931 16.8924 31.6259C17.0043 31.2819 17.0742 31.127 17.1169 31.127C17.1398 31.127 17.1585 31.0927 17.1585 31.0508C17.1585 30.8209 17.9447 30.2913 18.4262 30.1969C18.7655 30.1304 24.7748 30.1238 25.1218 30.1896ZM36.9144 30.2911C37.9627 30.7147 38.1682 31.2755 38.1682 33.7123C38.1682 36.0868 38.0151 36.547 37.057 37.0518L36.7658 37.2052H33.1908H29.6158L29.3408 37.0472C28.3503 36.4779 28.2558 36.1655 28.2789 33.5334L28.2958 31.5945L28.4383 31.2914C28.6949 30.7451 29.2438 30.3119 29.8307 30.1923C29.9545 30.1671 31.5284 30.1505 33.3283 30.1554L36.6008 30.1643L36.9144 30.2911Z" fill="#E8E8E8"/>
<path fill-rule="evenodd" clip-rule="evenodd" d="M13.3521 0.0406171C13.2694 0.0597321 13.1516 0.118727 13.0903 0.171672C13.0288 0.224616 12.9581 0.267934 12.9331 0.267934C12.8572 0.267934 12.5399 0.644045 12.5399 0.733982C12.5399 0.780188 12.5151 0.818005 12.4849 0.818005C12.4546 0.818005 12.4299 0.867511 12.4299 0.928019C12.4299 0.988527 12.4051 1.03803 12.3749 1.03803C12.3446 1.03803 12.3199 1.08754 12.3199 1.14805C12.3199 1.20856 12.2951 1.25806 12.2649 1.25806C12.229 1.25806 12.2099 2.2024 12.2099 3.98091C12.2099 5.75943 12.229 6.70376 12.2649 6.70376C12.2951 6.70376 12.3199 6.74419 12.3199 6.79356C12.3199 6.91733 12.5954 7.14368 12.7461 7.14382C12.8142 7.14382 12.8706 7.17476 12.8715 7.21258C12.8725 7.2515 12.8972 7.24022 12.9283 7.18673C12.9587 7.13461 13.0827 7.06544 13.2039 7.03271C13.325 7.00012 13.5036 6.90248 13.6008 6.8157L13.7774 6.65797L13.8049 4.21387C13.8269 2.2541 13.8474 1.75189 13.9078 1.679C14.0315 1.53021 40.9688 1.53984 41.1036 1.68863C41.188 1.78187 41.1946 3.31189 41.1946 22.5895V43.3896L41.3647 43.5834C41.6875 43.9511 42.2132 43.9759 42.5103 43.6375C42.6034 43.5314 42.6855 43.4393 42.6929 43.4328C42.7002 43.4264 42.7188 36.8614 42.7342 28.8441L42.7621 14.2672H47.9924C52.3467 14.2672 53.2378 14.2799 53.3136 14.3427C53.398 14.4129 53.4036 15.8292 53.3909 33.8978L53.377 53.3773H48.0695H42.7621L42.7346 49.6368C42.7086 46.0965 42.7016 45.8871 42.6034 45.725C42.3897 45.3722 41.9647 45.2739 41.5821 45.489C41.172 45.7195 41.1946 45.4773 41.1946 49.6591V53.4048H37.3996H33.6047V47.2473C33.6047 43.2015 33.5858 41.078 33.5497 41.0557C33.5194 41.037 33.4947 40.9612 33.4947 40.8874C33.4947 40.8135 33.4699 40.7532 33.4397 40.7532C33.4094 40.7532 33.3847 40.7204 33.3847 40.6806C33.3847 40.4732 32.8065 39.978 32.3947 39.8326C32.116 39.7343 22.8844 39.7343 22.6023 39.8326C22.0571 40.0227 21.7279 40.3709 21.4568 41.0446C21.4121 41.1554 21.3948 42.9041 21.3948 47.302V53.4056L17.6136 53.3915L13.8324 53.3773L13.8049 31.1717L13.7774 8.96634L13.6208 8.80284C13.5321 8.71015 13.3607 8.61334 13.2253 8.57923C13.0939 8.54609 12.9711 8.49425 12.9524 8.46399C12.8794 8.346 12.6798 8.41957 12.4501 8.64923L12.2099 8.88961V15.0576V21.2256H6.73743C3.12576 21.2256 1.26499 21.2443 1.26499 21.2806C1.26499 21.3109 1.21549 21.3357 1.15499 21.3357C1.09449 21.3357 1.04499 21.3604 1.04499 21.3907C1.04499 21.4209 0.99549 21.4457 0.934991 21.4457C0.874491 21.4457 0.824992 21.4704 0.824992 21.5007C0.824992 21.5309 0.787042 21.5557 0.740705 21.5557C0.661918 21.5557 0.274997 21.8989 0.274997 21.9686C0.274997 21.9861 0.228523 22.0502 0.171736 22.1113C-0.000550004 22.2962 0.00123749 22.1238 0.000549995 38.6742L0 54.72L0.139974 54.86L0.279947 55H27.4997H54.7195L54.8598 54.8597L55 54.7193L54.986 34.1678C54.9748 17.7855 54.9581 13.6117 54.9032 13.5934C54.8654 13.5808 54.8345 13.5348 54.8345 13.4914C54.8345 13.3858 54.2545 12.8096 54.1482 12.8096C54.1021 12.8096 54.0645 12.7903 54.0645 12.7668C54.0645 12.5561 53.4837 12.5336 48.0558 12.5341L42.7896 12.5345V6.89629C42.7896 3.1741 42.7709 1.25806 42.7346 1.25806C42.7043 1.25806 42.6796 1.20856 42.6796 1.14805C42.6796 1.08754 42.6548 1.03803 42.6246 1.03803C42.5943 1.03803 42.5696 0.988527 42.5696 0.928019C42.5696 0.867511 42.5448 0.818005 42.5146 0.818005C42.4843 0.818005 42.4596 0.773312 42.4596 0.718717C42.4596 0.62383 42.141 0.267934 42.0559 0.267934C42.0335 0.267934 41.9651 0.221453 41.9041 0.164658C41.843 0.107726 41.7018 0.0461179 41.5902 0.0276905C41.3208 -0.0168653 13.5457 -0.00407612 13.3521 0.0406171ZM18.3423 4.41561C17.7721 4.57815 17.4036 4.88399 17.1186 5.43145C16.9965 5.66578 16.9948 5.69796 16.9948 7.77998V9.89088L17.1352 10.198C17.3695 10.7101 17.8443 11.0834 18.4248 11.2119C18.7781 11.2901 24.8254 11.2874 25.1913 11.2088C25.7072 11.0983 26.0284 10.8805 26.3336 10.4343C26.4305 10.2927 26.5097 10.1395 26.5097 10.0939C26.5097 10.0481 26.5345 9.99539 26.5647 9.97669C26.7307 9.8741 26.6101 5.38359 26.4414 5.38359C26.4184 5.38359 26.3997 5.34385 26.3997 5.29531C26.3997 5.09412 25.7777 4.58572 25.3765 4.45906C24.9304 4.31838 18.8161 4.28043 18.3423 4.41561ZM29.6021 4.4658C29.2278 4.59617 28.79 4.93364 28.6549 5.19616C28.6095 5.28417 28.5598 5.36847 28.5446 5.38359C28.406 5.52015 28.3797 5.90987 28.3797 7.82508V9.84605L28.5462 10.1864C28.8377 10.7825 29.1878 11.0636 29.8203 11.2098C30.157 11.2875 36.2243 11.2894 36.5746 11.2119C37.0607 11.1043 37.7846 10.593 37.7846 10.3573C37.7846 10.3144 37.8094 10.2792 37.8396 10.2792C37.8699 10.2792 37.8946 10.2312 37.8946 10.1725C37.8946 10.1138 37.9194 10.0504 37.9496 10.0317C38.0813 9.95028 38.0177 5.69411 37.8809 5.43145C37.5868 4.86653 37.2129 4.56633 36.5958 4.39965C36.1087 4.26805 30.004 4.32581 29.6021 4.4658ZM25.0342 5.9697C25.2016 6.12124 25.1875 9.49922 25.019 9.65187C24.908 9.75226 24.7745 9.75666 21.8073 9.75666C18.8399 9.75666 18.7066 9.75226 18.5956 9.65187C18.4544 9.52398 18.4113 6.20691 18.548 5.98799C18.6454 5.83218 24.8629 5.81471 25.0342 5.9697ZM36.4716 5.96956C36.5722 6.09057 36.6133 9.28305 36.5173 9.51476C36.4048 9.78636 36.3714 9.78884 33.1165 9.7722L30.0749 9.75666L29.9698 9.62684C29.8237 9.44628 29.8064 6.2065 29.9504 6.00091L30.0359 5.87866H33.2161C36.1058 5.87866 36.403 5.88691 36.4716 5.96956ZM18.0398 13.1536C17.6847 13.3237 17.2822 13.7247 17.1278 14.0622L16.9948 14.3531V16.44V18.527L17.1278 18.8178C17.2854 19.1622 17.6891 19.5599 18.053 19.7292C18.3308 19.8584 25.1529 19.926 25.3967 19.8019C25.4492 19.7751 25.5665 19.7206 25.6572 19.6808C25.8642 19.5899 26.3475 19.1039 26.4474 18.8865C26.4887 18.7964 26.5444 18.6798 26.5712 18.6272C26.6346 18.5027 26.6346 14.3774 26.5712 14.2528C26.5444 14.2003 26.4887 14.083 26.4474 13.9922C26.3504 13.7793 25.8701 13.299 25.6572 13.2019C25.5665 13.1606 25.4492 13.1049 25.3967 13.0781C25.1574 12.9564 18.3048 13.0267 18.0398 13.1536ZM29.5897 13.0814C29.5443 13.1065 29.4358 13.1604 29.3488 13.2013C29.0759 13.3298 28.7376 13.6682 28.6051 13.9456C28.535 14.0922 28.4556 14.2553 28.4287 14.3078C28.3638 14.4343 28.3651 18.4492 28.43 18.5722C28.4578 18.6248 28.522 18.7631 28.5729 18.8797C28.6829 19.1323 29.1109 19.5776 29.3422 19.6801C29.433 19.7204 29.5502 19.7751 29.6028 19.8019C29.8466 19.926 36.6687 19.8584 36.9464 19.7292C37.2973 19.5659 37.6979 19.1792 37.8664 18.8411L38.0046 18.5637V16.44V14.3163L37.8637 14.0336C37.6842 13.6734 37.3609 13.35 37.0007 13.1705L36.718 13.0296L33.1951 13.0329C31.2576 13.0345 29.6351 13.0565 29.5897 13.0814ZM25.0074 14.5794L25.1348 14.6989V16.4411C25.1348 18.1447 25.1321 18.1855 25.0186 18.288C24.8515 18.4386 18.747 18.425 18.5798 18.2737C18.4871 18.1898 18.4798 18.0553 18.4798 16.4355V14.6878L18.6247 14.5738C18.7673 14.4616 18.8172 14.4598 21.8249 14.4598H24.8801L25.0074 14.5794ZM36.4296 14.6048L36.5746 14.7498V16.39C36.5746 18.2077 36.5647 18.2687 36.2512 18.3721C35.8558 18.5026 30.0789 18.3884 29.961 18.2477C29.8738 18.1439 29.8647 17.9717 29.8647 16.4315V14.7299L29.9997 14.5948L30.1348 14.4598H33.2096H36.2846L36.4296 14.6048ZM45.0602 15.3087C44.6978 15.4235 44.3532 15.6493 44.1519 15.904C43.9762 16.1263 43.9286 16.2126 43.7864 16.5664C43.7445 16.6705 43.7246 17.3679 43.7246 18.7228C43.7246 20.0778 43.7445 20.7751 43.7864 20.8792C44 21.4105 44.1035 21.5599 44.446 21.8307C44.9358 22.2178 44.9623 22.2206 48.1654 22.2034L51.012 22.1883L51.3164 22.0388C51.8375 21.7827 52.1685 21.4004 52.3301 20.8673C52.4335 20.5265 52.4544 16.9664 52.3548 16.6545C52.169 16.072 51.8232 15.6558 51.3194 15.4084L51.012 15.2574L48.152 15.2464C45.8955 15.2376 45.2431 15.2508 45.0602 15.3087ZM50.6973 16.8557C50.8194 16.9411 50.8195 16.9442 50.8195 18.7228C50.8195 20.5015 50.8194 20.5045 50.6973 20.5899C50.5219 20.7127 45.5662 20.7198 45.3987 20.5976C45.298 20.5239 45.2911 20.429 45.2753 18.8786C45.2567 17.0531 45.2698 16.8969 45.4463 16.8256C45.6825 16.7305 50.5584 16.7584 50.6973 16.8557ZM18.3148 21.6761C17.6649 21.9502 17.4031 22.1658 17.1607 22.6269L16.9948 22.942V25.0548C16.9948 27.1243 16.9973 27.1729 17.1172 27.4282C17.3714 27.9694 17.7379 28.2758 18.3737 28.4789C18.6114 28.5548 24.9486 28.5685 25.1459 28.4936C25.2155 28.4672 25.3712 28.4145 25.4922 28.3764C25.7638 28.291 26.2558 27.8825 26.3538 27.6609C26.3938 27.5704 26.4452 27.4964 26.4682 27.4964C26.491 27.4964 26.5097 27.4361 26.5097 27.3622C26.5097 27.2884 26.5345 27.2126 26.5647 27.1939C26.5998 27.1722 26.6197 26.3969 26.6197 25.0486C26.6197 23.7004 26.5998 22.9251 26.5647 22.9034C26.5345 22.8847 26.5097 22.832 26.5097 22.7862C26.5097 22.4502 25.9485 21.9405 25.2834 21.6727C25.0756 21.589 18.5138 21.5923 18.3148 21.6761ZM29.7822 21.6657C29.7635 21.696 29.7025 21.7207 29.6466 21.7207C29.311 21.7207 28.7848 22.1803 28.5451 22.6826L28.3797 23.029V25.071C28.3797 26.2012 28.4023 27.1555 28.43 27.2083C28.4578 27.2609 28.5219 27.3991 28.5726 27.5153C28.7218 27.8577 29.1695 28.2675 29.5149 28.3778C29.6316 28.4151 29.784 28.4672 29.8536 28.4936C30.0509 28.5685 36.3881 28.5548 36.6258 28.4789C37.2793 28.2701 37.8946 27.7275 37.8946 27.3596C37.8946 27.3138 37.9194 27.2764 37.9496 27.2764C37.9854 27.2764 38.0046 26.5074 38.0046 25.0794C38.0046 23.674 37.9848 22.8701 37.9496 22.8483C37.9194 22.8296 37.8946 22.7663 37.8946 22.7075C37.8946 22.6488 37.8699 22.6008 37.8396 22.6008C37.8094 22.6008 37.7846 22.5677 37.7846 22.5271C37.7846 22.4366 37.324 21.9407 37.2401 21.9407C37.2069 21.9407 37.1796 21.92 37.1796 21.8945C37.1796 21.8691 37.0744 21.8153 36.9459 21.7749C36.8173 21.7346 36.6886 21.6811 36.6599 21.6561C36.5823 21.5887 29.824 21.598 29.7822 21.6657ZM12.2513 38.1541L12.2374 53.3773H6.92993H1.62248V38.245C1.62248 25.5001 1.63445 23.0985 1.69797 23.0218C1.76727 22.9384 2.20672 22.9309 7.01931 22.9309H12.265L12.2513 38.1541ZM24.8963 23.1543C25.1338 23.2447 25.133 23.2383 25.1339 25.0719C25.1346 26.6037 25.1244 26.8116 25.0437 26.9009C24.9098 27.0487 18.7434 27.0579 18.5803 26.9103C18.467 26.8078 18.4237 23.4349 18.5336 23.2609C18.6169 23.1289 24.5673 23.0292 24.8963 23.1543ZM36.2401 23.1307C36.5583 23.1943 36.5746 23.2894 36.5746 25.0761C36.5746 26.4033 36.5603 26.7045 36.4908 26.8391L36.4067 27.0014H33.2213H30.0359L29.9504 26.8791C29.8105 26.6796 29.823 23.3706 29.964 23.243C30.048 23.1671 30.2417 23.1508 31.2152 23.1371C33.8131 23.1008 36.0763 23.0979 36.2401 23.1307ZM3.8369 23.9493C2.75451 24.3469 2.588 24.7963 2.58621 27.3251C2.5847 29.6434 2.64437 29.9254 3.24236 30.4287C3.72786 30.8372 3.59848 30.8227 6.89171 30.8395L9.85081 30.8546L10.1917 30.6917C10.5959 30.4983 10.9274 30.1855 11.1128 29.8227L11.2474 29.5592L11.2642 27.4689C11.2842 24.9634 11.2701 24.8892 10.6594 24.3272C10.1547 23.8627 10.1771 23.8654 6.91412 23.8698C4.6238 23.873 4.0008 23.8891 3.8369 23.9493ZM44.9792 23.9712C44.5907 24.1242 44.3612 24.2829 44.1558 24.5406C43.9778 24.7637 43.9239 24.8602 43.7864 25.2025C43.6997 25.4181 43.7005 29.3025 43.7873 29.5153C43.9523 29.9202 44.006 30.0154 44.1907 30.2307C44.3106 30.3704 44.535 30.5339 44.757 30.6433L45.1249 30.8244H48.0684H51.012L51.3194 30.6734C51.8232 30.426 52.169 30.0097 52.3548 29.4272C52.3929 29.308 52.4145 28.5593 52.4145 27.3589C52.4145 26.1585 52.3929 25.4099 52.3548 25.2907C52.169 24.7081 51.8232 24.2919 51.3194 24.0445L51.012 23.8935L48.1245 23.8815C45.4306 23.8704 45.2197 23.8764 44.9792 23.9712ZM9.6568 25.5404C9.77189 25.698 9.77189 29.0199 9.6568 29.1775C9.54749 29.3271 4.53292 29.3755 4.30948 29.229L4.17845 29.1431L4.19302 27.345L4.20746 25.5469L4.34496 25.4765C4.60263 25.3446 9.55725 25.4041 9.6568 25.5404ZM50.6973 25.4919C50.8194 25.5773 50.8195 25.5803 50.8195 27.3607V29.1442L50.6891 29.2294C50.5116 29.3458 45.4808 29.33 45.3636 29.2128C45.309 29.1582 45.2881 28.7562 45.2753 27.5076C45.2567 25.6895 45.2698 25.5328 45.4463 25.4617C45.6825 25.3666 50.5584 25.3945 50.6973 25.4919ZM18.3552 30.3055C17.8371 30.4305 17.3695 30.8108 17.1345 31.2979L16.9948 31.5876V33.6956C16.9948 36.326 17.0469 36.4919 18.0202 36.9601L18.358 37.1227H21.7999H25.2416L25.5389 36.9912C25.9261 36.82 26.2389 36.5326 26.3957 36.2039C26.465 36.0589 26.5438 35.897 26.5708 35.8445C26.6344 35.7203 26.6349 31.6502 26.5712 31.525C26.5444 31.4725 26.4894 31.3552 26.449 31.2644C26.3376 31.015 25.8568 30.5583 25.5472 30.4078L25.2722 30.2743L21.9173 30.2648C20.0561 30.2596 18.4701 30.2777 18.3552 30.3055ZM29.7895 30.3068C29.1668 30.4561 28.6615 30.9105 28.4493 31.512C28.3673 31.7442 28.3499 35.6924 28.43 35.8445C28.4578 35.897 28.5189 36.0287 28.5658 36.1371C28.7079 36.4652 29.029 36.7819 29.3984 36.9582L29.7429 37.1227L33.1725 37.1219C35.8199 37.1212 36.6483 37.105 36.8048 37.0505C37.0078 36.9797 37.5644 36.6272 37.5645 36.5692C37.5646 36.5523 37.6088 36.4904 37.6628 36.4317C37.9933 36.0727 38.0046 35.9828 38.0046 33.6909V31.5781L37.8369 31.2591C37.6235 30.8535 37.3709 30.6089 36.9726 30.4221L36.6571 30.2743L33.3297 30.2651C31.4402 30.2599 29.9104 30.2779 29.7895 30.3068ZM25.0778 31.8934C25.1136 31.9603 25.1348 32.6447 25.1348 33.737V35.4741L24.956 35.5881C24.7207 35.7383 18.8383 35.7049 18.6052 35.5521L18.4798 35.47V33.7377C18.4798 32.4544 18.4976 31.9772 18.548 31.8963C18.6536 31.727 24.9874 31.7243 25.0778 31.8934ZM36.4716 31.8779C36.5691 31.9952 36.6135 35.1913 36.5207 35.4142C36.4145 35.6693 36.2723 35.6925 34.8174 35.6924C31.8312 35.6922 30.0765 35.6292 29.9656 35.5184C29.8232 35.3759 29.8094 32.1104 29.9504 31.9093L30.0359 31.787H33.2161C36.1058 31.787 36.403 31.7953 36.4716 31.8779ZM4.12496 32.5105C3.52629 32.6355 3.01603 33.0307 2.77266 33.5578L2.61247 33.9048V35.9961V38.0877L2.79356 38.4555C3.05866 38.9942 3.44517 39.2946 4.09512 39.4678C4.49002 39.573 9.34977 39.572 9.7899 39.4667C10.4768 39.3022 10.9707 38.8678 11.2037 38.2228C11.3032 37.9471 11.3029 34.0416 11.2033 33.7673C10.9628 33.1051 10.4434 32.6568 9.7459 32.5088C9.38621 32.4326 4.49126 32.434 4.12496 32.5105ZM45.1271 32.5519C44.4976 32.7093 44.0797 33.1105 43.7866 33.8386C43.694 34.0681 43.7026 37.9104 43.7962 38.1678C43.9828 38.6815 44.3476 39.1009 44.8053 39.3281L45.072 39.4605H48.042H51.012L51.3145 39.3169C51.8168 39.0785 52.1648 38.659 52.3548 38.0633C52.3929 37.9441 52.4145 37.1954 52.4145 35.995C52.4145 34.0589 52.4055 33.9657 52.1763 33.4965C52.0446 33.227 51.6643 32.8302 51.4352 32.7234C51.3537 32.6854 51.2375 32.6263 51.177 32.5919C51.0499 32.52 45.4041 32.4826 45.1271 32.5519ZM9.6249 34.1523C9.80434 34.3318 9.79499 37.6675 9.61459 37.8356C9.44506 37.9936 4.45358 38.0134 4.28047 37.8568C4.13362 37.7238 4.12482 34.3044 4.27098 34.1428C4.41907 33.9792 9.46073 33.9881 9.6249 34.1523ZM50.7232 34.1189C50.8664 34.2275 50.8712 37.6894 50.7285 37.8473C50.6011 37.988 45.5873 38.0012 45.4021 37.8612C45.2332 37.7335 45.2302 34.2438 45.3987 34.1204C45.5516 34.0086 50.5761 34.0072 50.7232 34.1189ZM3.71246 41.2702C3.20633 41.5014 2.80195 41.9668 2.65029 42.4922C2.51361 42.966 2.56517 46.5568 2.71381 46.9184C2.88486 47.3341 3.09042 47.5899 3.42867 47.8078C3.92861 48.13 3.86289 48.1241 6.97352 48.1241H9.84174L10.139 47.9926C10.6307 47.7751 11.0329 47.3475 11.2053 46.8589C11.3007 46.5884 11.3032 42.6872 11.2082 42.4072C11.0264 41.8719 10.553 41.3974 10.0114 41.2078C9.86649 41.157 9.07917 41.1404 6.90243 41.1422L3.98746 41.1445L3.71246 41.2702ZM45.0446 41.2044C44.9689 41.2367 44.8222 41.3002 44.7184 41.3454C44.6146 41.3907 44.4137 41.5439 44.2719 41.6857C44.0352 41.9225 43.9675 42.0325 43.7873 42.4747C43.7442 42.5802 43.7246 43.2582 43.7246 44.6312C43.7246 46.0041 43.7442 46.6821 43.7873 46.7876C43.9661 47.2261 44.0317 47.3341 44.2563 47.5586C44.3906 47.693 44.6414 47.8689 44.8137 47.9497L45.1271 48.0966L47.9595 48.1131C50.1162 48.1258 50.8445 48.1132 51.012 48.0607C51.6779 47.8518 52.1351 47.3885 52.3548 46.6994C52.4541 46.3882 52.4335 42.8279 52.3303 42.4859C52.1543 41.902 51.642 41.3826 51.0695 41.2078C50.7767 41.1184 45.253 41.1154 45.0446 41.2044ZM32.034 41.3705C32.1103 41.4793 32.1197 42.1472 32.1197 47.4488V53.4048H27.4997H22.8798V47.4488C22.8798 42.1472 22.8891 41.4793 22.9654 41.3705L23.051 41.2482H27.4997H31.9485L32.034 41.3705ZM9.6568 42.8126C9.75388 42.9455 9.77313 46.2447 9.67798 46.4225C9.60772 46.5539 4.37589 46.5929 4.24596 46.4629C4.19742 46.4144 4.17996 45.9295 4.17996 44.6233V42.8496L4.30371 42.7627C4.51367 42.6152 9.54681 42.662 9.6568 42.8126ZM50.7657 42.7884C50.847 42.9171 50.8356 46.3808 50.7535 46.4629C50.704 46.5124 50.0235 46.5289 48.0296 46.5289H45.3718L45.3182 46.3878C45.249 46.2057 45.2474 43.0607 45.3164 42.8792C45.3905 42.6843 45.3197 42.6889 48.1403 42.6978C50.3618 42.7048 50.7206 42.7172 50.7657 42.7884Z" fill="#040404"/>
<path fill-rule="evenodd" clip-rule="evenodd" d="M13.9491 1.68858C13.867 1.77934 13.8593 2.01752 13.8707 4.12264L13.8832 6.45618L13.912 4.11838C13.9277 2.83259 13.9607 1.74964 13.9851 1.71182C14.0205 1.65709 16.7836 1.64306 27.4981 1.64306H40.9666L41.0521 1.76531C41.0993 1.83256 41.1378 1.86116 41.1378 1.82885C41.1378 1.79653 41.0926 1.72915 41.0373 1.67909C40.8727 1.53016 14.0839 1.53965 13.9491 1.68858ZM18.332 4.32548C18.2971 4.34776 19.8615 4.36591 21.8087 4.36591C23.7558 4.36591 25.3065 4.34913 25.2547 4.32851C25.1265 4.27762 18.4119 4.27474 18.332 4.32548ZM29.7412 4.32851C29.6894 4.34913 31.2401 4.36591 33.1872 4.36591C35.1343 4.36591 36.6988 4.34776 36.6639 4.32548C36.584 4.27474 29.8694 4.27762 29.7412 4.32851ZM25.6825 4.56187C26.082 4.78218 26.2621 4.96219 26.4337 5.31313C26.5966 5.64606 26.6604 5.70176 26.535 5.40156C26.3821 5.03562 26.077 4.70544 25.726 4.52598C25.3557 4.33676 25.323 4.36371 25.6825 4.56187ZM29.3542 4.47991C29.1409 4.59557 29.1651 4.63558 29.3817 4.52529C29.589 4.41996 29.6257 4.39259 29.5559 4.39561C29.5281 4.39685 29.4374 4.43481 29.3542 4.47991ZM17.5168 4.78685C17.2265 5.05226 16.9481 5.46688 17.0152 5.53399C17.0315 5.55035 17.071 5.49521 17.1029 5.41146C17.1954 5.16791 17.371 4.9516 17.6645 4.71961C17.8149 4.60065 17.9129 4.50343 17.8824 4.50343C17.8519 4.50343 17.6874 4.63105 17.5168 4.78685ZM37.2658 4.66102C37.5502 4.86991 37.6926 5.0326 37.8383 5.31478C37.9613 5.5531 38.028 5.62612 37.9639 5.4523C37.8509 5.14591 37.2707 4.50343 37.1069 4.50343C37.0764 4.50343 37.1479 4.57439 37.2658 4.66102ZM28.8959 4.80996L28.6804 5.00647L28.9142 4.82825C29.1277 4.66542 29.1798 4.61344 29.1296 4.61344C29.1195 4.61344 29.0143 4.70187 28.8959 4.80996ZM28.4544 5.41696C28.4087 5.52615 28.3815 5.62544 28.3936 5.63768C28.4058 5.64978 28.4548 5.56053 28.5024 5.4391C28.6102 5.16475 28.568 5.14536 28.4544 5.41696ZM16.9174 5.77547C16.8723 6.00127 16.8835 9.71906 16.9298 9.88381C16.9495 9.95367 16.9655 9.01924 16.9655 7.80729C16.9655 6.59521 16.9625 5.60357 16.9587 5.60357C16.9548 5.60357 16.9364 5.68099 16.9174 5.77547ZM38.0303 7.80385C38.0303 9.0257 38.046 9.95257 38.0651 9.86346C38.0842 9.77448 38.0998 8.84761 38.0998 7.80385C38.0998 6.7601 38.0842 5.83323 38.0651 5.74425C38.046 5.65514 38.0303 6.58201 38.0303 7.80385ZM26.6455 7.80963C26.6455 8.97124 26.6622 9.81024 26.6826 9.6741C26.7317 9.34749 26.7325 6.18706 26.6835 5.91189C26.6626 5.79403 26.6455 6.64802 26.6455 7.80963ZM28.3035 6.05738C28.2542 6.46869 28.2674 9.32301 28.3202 9.61909C28.3463 9.76623 28.3669 9.03588 28.3711 7.81761C28.3779 5.76667 28.3684 5.51762 28.3035 6.05738ZM21.8004 5.91986C23.9593 5.93018 24.8973 5.95287 24.9491 5.99577C25.0081 6.04473 25.0231 6.41369 25.0238 7.82435C25.0243 8.98568 25.0429 9.56326 25.078 9.50907C25.1986 9.32246 25.1455 6.18431 25.019 6.02355L24.905 5.87861L21.8153 5.89195L18.7255 5.90515L21.8004 5.91986ZM31.6642 5.91986C32.5187 5.92839 33.9171 5.92839 34.7716 5.91986C35.6262 5.91133 34.927 5.90432 33.2179 5.90432C31.5088 5.90432 30.8096 5.91133 31.6642 5.91986ZM18.5637 6.05587C18.491 6.15969 18.478 6.41974 18.478 7.78598C18.478 9.43358 18.5057 9.67602 18.6931 9.67245C18.7675 9.67093 18.7662 9.66241 18.6843 9.61469C18.5623 9.54373 18.5337 6.11995 18.654 5.99962C18.6903 5.96332 18.7041 5.93361 18.6847 5.93361C18.6652 5.93361 18.6107 5.98862 18.5637 6.05587ZM36.4048 6.0263C36.4839 6.18995 36.4839 9.41776 36.4048 9.58141C36.3487 9.69747 36.3497 9.69802 36.4323 9.59489C36.5606 9.43468 36.5606 6.17303 36.4323 6.01282C36.3497 5.90969 36.3487 5.91024 36.4048 6.0263ZM29.9302 7.76618C29.9181 9.4377 29.9391 9.6752 30.0986 9.67327C30.1404 9.67272 30.1345 9.65292 30.0829 9.62033C30.0135 9.57646 29.9959 9.29221 29.9714 7.81967L29.9424 6.07113L29.9302 7.76618ZM13.0376 8.48374C13.0503 8.49461 13.1348 8.52005 13.2256 8.5404C13.346 8.56735 13.3683 8.56227 13.3081 8.52142C13.2338 8.47123 12.9825 8.43616 13.0376 8.48374ZM13.5205 8.66293C13.5904 8.71175 13.6947 8.82932 13.7526 8.92421C13.8104 9.01896 13.8578 9.0664 13.8579 9.02969C13.8581 8.94113 13.5337 8.57395 13.4552 8.57395C13.4212 8.57395 13.4507 8.61397 13.5205 8.66293ZM13.8718 31.2781L13.8581 53.4047L15.6318 53.3918L17.4055 53.3789L15.6593 53.3635L13.9132 53.3482L13.8993 31.2498L13.8854 9.15153L13.8718 31.2781ZM20.3068 9.71535C21.1462 9.72388 22.5198 9.72388 23.3592 9.71535C24.1987 9.70683 23.5119 9.69981 21.833 9.69981C20.1541 9.69981 19.4673 9.70683 20.3068 9.71535ZM31.7466 9.71535C32.5861 9.72388 33.9597 9.72388 34.7991 9.71535C35.6385 9.70683 34.9517 9.69981 33.2729 9.69981C31.594 9.69981 30.9072 9.70683 31.7466 9.71535ZM28.3801 9.96467C28.3761 10.0424 28.5438 10.4067 28.571 10.3796C28.5856 10.3648 28.5491 10.2559 28.4899 10.1373C28.4307 10.0187 28.3814 9.94102 28.3801 9.96467ZM16.993 10.0889C16.993 10.1974 17.2419 10.5619 17.4421 10.7467L17.6805 10.9666L17.4494 10.7192C17.3222 10.5831 17.1796 10.3789 17.1325 10.2654C17.0564 10.0829 16.993 10.0026 16.993 10.0889ZM37.8693 10.2326C37.8218 10.328 37.7828 10.4201 37.7828 10.4373C37.7828 10.485 37.9249 10.2646 37.9645 10.1554C38.0215 9.99795 37.9624 10.0459 37.8693 10.2326ZM26.3953 10.394C26.3615 10.4573 26.2441 10.612 26.1345 10.7378L25.9351 10.9668L26.1261 10.7896C26.3062 10.6228 26.5481 10.2792 26.4855 10.2792C26.4697 10.2792 26.4292 10.3309 26.3953 10.394ZM37.5327 10.733L37.3153 10.9668L37.5491 10.7493C37.7665 10.5471 37.8081 10.4992 37.7665 10.4992C37.7575 10.4992 37.6524 10.6044 37.5327 10.733ZM28.7629 10.6571C28.7629 10.6807 28.8248 10.7581 28.9004 10.8292C28.9761 10.9003 29.0379 10.9428 29.0379 10.9239C29.0379 10.9049 28.9761 10.8273 28.9004 10.7517C28.8248 10.6761 28.7629 10.6336 28.7629 10.6571ZM37.0953 11.053C37.0046 11.1112 36.9585 11.1589 36.993 11.159C37.0274 11.1592 37.114 11.1106 37.1855 11.0511C37.349 10.9149 37.3097 10.9157 37.0953 11.053ZM18.148 11.2143C18.1934 11.2436 18.2677 11.2677 18.313 11.2677C18.3863 11.2677 18.3863 11.2617 18.313 11.2143C18.2677 11.185 18.1934 11.1609 18.148 11.1609C18.0747 11.1609 18.0747 11.1669 18.148 11.2143ZM25.298 11.2143C25.2247 11.2617 25.2247 11.2677 25.298 11.2677C25.3433 11.2677 25.4176 11.2436 25.463 11.2143C25.5362 11.1669 25.5362 11.1609 25.463 11.1609C25.4176 11.1609 25.3433 11.185 25.298 11.2143ZM36.6828 11.2143C36.6096 11.2617 36.6096 11.2677 36.6828 11.2677C36.7282 11.2677 36.8025 11.2436 36.8478 11.2143C36.9211 11.1669 36.9211 11.1609 36.8478 11.1609C36.8025 11.1609 36.7282 11.185 36.6828 11.2143ZM20.1733 11.3106C21.0904 11.3189 22.5754 11.3189 23.4732 11.3106C24.3709 11.302 23.6205 11.2952 21.8055 11.2952C19.9905 11.2952 19.256 11.302 20.1733 11.3106ZM31.5581 11.3106C32.4753 11.3189 33.9602 11.3189 34.8581 11.3106C35.7558 11.302 35.0054 11.2952 33.1904 11.2952C31.3754 11.2952 30.6409 11.302 31.5581 11.3106ZM20.1458 12.9608C21.0781 12.9692 22.5879 12.9692 23.5007 12.9608C24.4136 12.9522 23.6507 12.9454 21.8055 12.9454C19.9603 12.9454 19.2134 12.9522 20.1458 12.9608ZM29.7804 12.9565C29.5995 12.9962 29.3627 13.0976 29.389 13.1239C29.4024 13.1373 29.4713 13.1155 29.542 13.0752C29.6436 13.0173 30.3893 12.996 33.1079 12.9731L36.5453 12.9443L33.2179 12.9382C31.3878 12.9349 29.8409 12.9432 29.7804 12.9565ZM25.4077 13.0662C25.7407 13.1829 26.0876 13.4287 26.2695 13.6774C26.4861 13.9733 26.5385 14.0187 26.4195 13.8073C26.2198 13.4525 25.5435 12.9694 25.2573 12.9771C25.2041 12.9786 25.2717 13.0187 25.4077 13.0662ZM29.0599 13.2954C28.8496 13.4483 28.6653 13.6346 28.7244 13.6346C28.7409 13.6346 28.8244 13.5663 28.9099 13.4828C28.9954 13.3993 29.1273 13.2892 29.2029 13.2381C29.2785 13.1871 29.3256 13.1441 29.3074 13.1424C29.2893 13.1408 29.1779 13.2097 29.0599 13.2954ZM17.3952 13.5383C16.9044 14.0469 16.9127 14.0007 16.8938 16.2829C16.8844 17.3916 16.8968 18.3757 16.9213 18.4699C16.9457 18.5649 16.9655 17.6797 16.9655 16.4816C16.9655 14.0289 16.9638 14.0396 17.4494 13.5383C17.574 13.4098 17.6636 13.3046 17.6485 13.3046C17.6334 13.3046 17.5194 13.4098 17.3952 13.5383ZM37.5078 13.4971C37.6104 13.603 37.7068 13.6896 37.7219 13.6896C37.7371 13.6896 37.6654 13.603 37.5628 13.4971C37.4603 13.3912 37.3639 13.3046 37.3488 13.3046C37.3336 13.3046 37.4053 13.3912 37.5078 13.4971ZM37.7828 13.8065C37.7828 13.8544 37.9529 14.1847 37.9777 14.1847C37.9896 14.1847 37.9837 14.1414 37.9645 14.0884C37.9249 13.9792 37.7828 13.7588 37.7828 13.8065ZM28.4544 14.0531C28.4087 14.1623 28.3815 14.2615 28.3936 14.2738C28.4058 14.2859 28.4548 14.1966 28.5024 14.0752C28.6102 13.8009 28.568 13.7815 28.4544 14.0531ZM38.0303 16.44C38.0303 17.6618 38.046 18.5887 38.0651 18.4996C38.0842 18.4106 38.0998 17.4837 38.0998 16.44C38.0998 15.3962 38.0842 14.4693 38.0651 14.3804C38.046 14.2913 38.0303 15.2181 38.0303 16.44ZM42.7878 28.8173C42.7878 40.3331 42.7735 43.3654 42.719 43.4629C42.4102 44.0157 41.8655 44.0929 41.3604 43.6554L41.2203 43.5341L41.3623 43.687C41.4406 43.7713 41.6015 43.8734 41.7198 43.9141L41.9353 43.9879L41.9519 44.4746C41.9756 45.1619 41.9429 45.2979 41.7446 45.3375C41.6563 45.3553 41.5022 45.4477 41.4022 45.543L41.2203 45.7163L41.4007 45.5746C41.7872 45.2713 42.2532 45.2381 42.4883 45.4975C42.8028 45.8446 42.7878 45.6371 42.7878 49.6361V53.3497H48.0677H53.3477V33.9079V14.4659L53.2254 14.3804C53.117 14.3043 52.5246 14.2947 47.9455 14.2947H42.7878V28.8173ZM26.6455 16.44C26.6455 17.5984 26.6626 18.4498 26.6835 18.3319C26.7044 18.2141 26.7216 17.3627 26.7216 16.44C26.7216 15.5172 26.7044 14.6659 26.6835 14.548C26.6626 14.4301 26.6455 15.2815 26.6455 16.44ZM28.3035 14.6935C28.2542 15.1048 28.2674 17.9591 28.3202 18.2552C28.3463 18.4023 28.3669 17.672 28.3711 16.4537C28.3779 14.4028 28.3684 14.1537 28.3035 14.6935ZM18.6131 14.6498L18.478 14.7848V16.44V18.0951L18.6131 18.2302L18.7481 18.3652H21.8272C23.5208 18.3652 24.9179 18.3467 24.9319 18.324C24.946 18.3013 23.573 18.2893 21.8808 18.2974C19.8068 18.3072 18.769 18.2932 18.6961 18.2542C18.5922 18.1985 18.588 18.1297 18.588 16.4367V14.677L18.7314 14.6225C18.8218 14.5882 20.0018 14.5733 21.9162 14.5825C23.5889 14.5906 24.946 14.5787 24.9319 14.556C24.9179 14.5333 23.5208 14.5147 21.8272 14.5147H18.7481L18.6131 14.6498ZM30.0521 14.5975C29.9526 14.6748 29.9559 14.6767 30.1002 14.625C30.3858 14.523 36.2724 14.5521 36.3764 14.6562C36.5066 14.7863 36.5066 18.0936 36.3764 18.2237C36.2724 18.3278 30.3858 18.357 30.1002 18.2549C29.9559 18.2032 29.9526 18.2051 30.0521 18.2824C30.2427 18.4301 36.2587 18.4044 36.4079 18.2552C36.5132 18.1499 36.5179 18.0719 36.5179 16.44C36.5179 14.808 36.5132 14.7301 36.4079 14.6247C36.2587 14.4755 30.2427 14.4498 30.0521 14.5975ZM25.0307 16.44C25.0307 17.4855 25.0503 18.182 25.078 18.1177C25.104 18.0572 25.1253 17.3022 25.1253 16.44C25.1253 15.5777 25.104 14.8228 25.078 14.7623C25.0503 14.6979 25.0307 15.3944 25.0307 16.44ZM29.9424 16.44C29.9424 17.393 29.95 17.7828 29.959 17.3063C29.9682 16.8298 29.9682 16.0501 29.959 15.5736C29.95 15.0971 29.9424 15.487 29.9424 16.44ZM50.8581 15.1813C51.0022 15.2151 51.1632 15.2646 51.2158 15.2913C51.2683 15.318 51.3487 15.3398 51.3945 15.3398C51.4403 15.3398 51.4777 15.3629 51.4777 15.3911C51.4777 15.4193 51.5295 15.4589 51.5929 15.479C51.7674 15.5344 52.1037 15.9068 52.2473 16.2034C52.3175 16.3487 52.3959 16.5105 52.4214 16.563C52.5664 16.8621 52.4597 21.016 52.3028 21.1706C52.2876 21.1857 52.2379 21.2706 52.1926 21.3593C52.0546 21.6292 51.6016 22.0507 51.4495 22.0507C51.4046 22.0507 51.3677 22.0754 51.3677 22.1057C51.3677 22.136 51.3197 22.1607 51.261 22.1607C51.2023 22.1607 51.1389 22.1855 51.1202 22.2157C51.0757 22.2878 45.1345 22.2912 45.0008 22.2193C44.9483 22.1911 44.8248 22.1355 44.7265 22.0959C44.6282 22.0562 44.5478 22.0052 44.5478 21.9822C44.5478 21.9594 44.5219 21.9407 44.4904 21.9407C44.3598 21.9407 43.9809 21.5091 43.8166 21.1732L43.6403 20.813V18.7228V16.6325L43.7974 16.307C43.9576 15.9749 44.4364 15.4498 44.579 15.4498C44.6223 15.4498 44.6578 15.4251 44.6578 15.3948C44.6578 15.3646 44.7058 15.3398 44.7645 15.3398C44.8232 15.3398 44.8866 15.3151 44.9053 15.2848C44.924 15.2546 45.0059 15.2294 45.0873 15.229C45.1687 15.2286 45.2724 15.2041 45.3178 15.1748C45.4386 15.0967 50.5231 15.1026 50.8581 15.1813ZM45.414 16.8844C45.2767 16.9645 45.265 20.4531 45.4016 20.5666C45.4477 20.6048 45.5008 20.6209 45.5195 20.6021C45.5382 20.5834 45.5129 20.5524 45.4631 20.5335C45.3465 20.4886 45.3231 17.0617 45.4388 16.946C45.5338 16.851 50.6017 16.851 50.6967 16.946C50.8381 17.0874 50.7855 20.4332 50.6405 20.5348C50.5704 20.5839 50.5501 20.6205 50.5932 20.6205C50.7972 20.6205 50.8141 20.4758 50.8159 18.7175C50.8176 17.1291 50.8106 17.0006 50.7172 16.9161C50.5972 16.8074 45.5974 16.7776 45.414 16.8844ZM28.3801 18.6008C28.3761 18.6785 28.5438 19.0428 28.571 19.0157C28.5856 19.001 28.5491 18.892 28.4899 18.7734C28.4307 18.6548 28.3814 18.5771 28.3801 18.6008ZM16.993 18.725C16.993 18.9259 17.5257 19.5387 17.8238 19.6809C17.9539 19.7427 17.9539 19.7423 17.8186 19.6458C17.4934 19.4135 17.2433 19.1467 17.1466 18.929C17.0542 18.7207 16.993 18.6394 16.993 18.725ZM37.8413 18.929C37.7329 19.1445 37.7322 19.1521 37.8329 19.0253C37.9301 18.9028 38.0199 18.6953 37.9757 18.6953C37.9665 18.6953 37.906 18.8005 37.8413 18.929ZM26.3516 19.0803C26.2845 19.1711 26.2499 19.2453 26.2745 19.2453C26.2991 19.2453 26.363 19.1711 26.4167 19.0803C26.4703 18.9895 26.5051 18.9153 26.4939 18.9153C26.4828 18.9153 26.4187 18.9895 26.3516 19.0803ZM28.732 19.2635C28.8167 19.3745 28.8971 19.4654 28.9107 19.4654C28.949 19.4654 28.7108 19.1436 28.6404 19.1001C28.606 19.0788 28.6473 19.1524 28.732 19.2635ZM37.5078 19.3706C37.402 19.4681 37.2535 19.5923 37.1778 19.6465C37.0452 19.7418 37.0467 19.7418 37.2207 19.6474C37.3775 19.5626 37.7922 19.1877 37.7248 19.1918C37.7113 19.1927 37.6137 19.2731 37.5078 19.3706ZM26.0662 19.4259C25.9896 19.493 25.8658 19.5923 25.7912 19.6465C25.6607 19.7414 25.6625 19.7414 25.8375 19.6465C25.9376 19.5923 26.0718 19.4922 26.1359 19.4241C26.2838 19.2665 26.247 19.2675 26.0662 19.4259ZM29.0334 19.5403C29.1067 19.6305 29.3129 19.7669 29.3129 19.7251C29.3129 19.7147 29.2325 19.6472 29.1342 19.5752C29.0236 19.4942 28.9851 19.4809 29.0334 19.5403ZM18.3786 19.9137C18.4485 19.9333 19.9905 19.9494 21.8055 19.9494C23.6205 19.9494 25.1627 19.9333 25.2325 19.9137C25.3024 19.894 23.7603 19.8779 21.8056 19.8779C19.851 19.8779 18.3088 19.894 18.3786 19.9137ZM29.7634 19.9137C29.8332 19.9333 31.3754 19.9494 33.1904 19.9494C35.0054 19.9494 36.5474 19.9333 36.6173 19.9137C36.6871 19.894 35.1449 19.8779 33.1902 19.8779C31.2356 19.8779 29.6935 19.894 29.7634 19.9137ZM20.1183 21.5969C21.0658 21.6053 22.6002 21.6053 23.5282 21.5969C24.4562 21.5884 23.681 21.5815 21.8055 21.5815C19.93 21.5815 19.1708 21.5884 20.1183 21.5969ZM31.5031 21.5969C32.4506 21.6053 33.9851 21.6053 34.9131 21.5969C35.8411 21.5884 35.0659 21.5815 33.1904 21.5815C31.3149 21.5815 30.5556 21.5884 31.5031 21.5969ZM17.9978 21.7187C17.6785 21.8637 17.2319 22.2946 17.0563 22.6272L16.9105 22.9033L16.8938 24.919C16.8844 26.0277 16.8968 27.0118 16.9213 27.106C16.9457 27.2007 16.9655 26.3019 16.9655 25.0902V22.9033L17.1118 22.6261C17.2954 22.2784 17.6856 21.9148 18.0559 21.7464C18.2124 21.6753 18.3158 21.6161 18.2855 21.615C18.2553 21.6139 18.1258 21.6606 17.9978 21.7187ZM25.298 21.6656C25.3433 21.6949 25.4176 21.719 25.463 21.719C25.5362 21.719 25.5362 21.7131 25.463 21.6656C25.4176 21.6364 25.3433 21.6123 25.298 21.6123C25.2247 21.6123 25.2247 21.6182 25.298 21.6656ZM29.5329 21.6656C29.4596 21.7131 29.4596 21.719 29.5329 21.719C29.5783 21.719 29.6525 21.6949 29.6979 21.6656C29.7712 21.6182 29.7712 21.6123 29.6979 21.6123C29.6525 21.6123 29.5783 21.6364 29.5329 21.6656ZM36.9423 21.7433C37.1 21.8173 37.3599 21.9964 37.5198 22.1412L37.8103 22.4045L37.5903 22.1681C37.3602 21.9206 37.0263 21.7008 36.7929 21.643C36.7172 21.6243 36.7845 21.6694 36.9423 21.7433ZM25.573 21.7508C25.573 21.7616 25.659 21.8113 25.7642 21.8612C25.9463 21.9477 26.1995 22.1932 26.414 22.4913C26.5089 22.623 26.5089 22.6211 26.414 22.4436C26.2591 22.1533 25.573 21.5881 25.573 21.7508ZM29.2773 21.7752C29.2123 21.8015 29.1438 21.8477 29.1251 21.8781C29.1064 21.9084 29.1658 21.896 29.257 21.8503C29.3483 21.8048 29.4229 21.7571 29.4229 21.7442C29.4229 21.716 29.4257 21.7154 29.2773 21.7752ZM28.7981 22.1595C28.5273 22.4593 28.5429 22.4982 28.8181 22.209C28.9391 22.0816 29.0291 21.9686 29.0183 21.9577C29.0073 21.9467 28.9083 22.0375 28.7981 22.1595ZM37.7828 22.4426C37.7828 22.4905 37.9529 22.8208 37.9777 22.8208C37.9896 22.8208 37.9837 22.7775 37.9645 22.7245C37.9249 22.6153 37.7828 22.3949 37.7828 22.4426ZM28.4544 22.6892C28.4087 22.7984 28.3815 22.8977 28.3936 22.9099C28.4058 22.922 28.4548 22.8328 28.5024 22.7113C28.6102 22.437 28.568 22.4176 28.4544 22.6892ZM38.0303 25.0328C38.0303 26.9363 38.0195 27.2168 37.9386 27.3864C37.7881 27.7025 37.522 28.0356 37.2795 28.2114C37.1539 28.3021 37.0817 28.3765 37.119 28.3765C37.2393 28.3765 37.8112 27.752 37.9503 27.4689C38.0925 27.1793 38.1923 23.6422 38.0742 23.08C38.0496 22.9633 38.0303 23.8222 38.0303 25.0328ZM26.6455 25.0819C26.6455 26.2435 26.6622 27.0825 26.6826 26.9463C26.7317 26.6197 26.7325 23.4593 26.6835 23.1841C26.6626 23.0663 26.6455 23.9202 26.6455 25.0819ZM28.3035 23.3296C28.2542 23.7409 28.2674 26.5952 28.3202 26.8913C28.3463 27.0385 28.3669 26.3081 28.3711 25.0898C28.3779 23.0389 28.3684 22.7899 28.3035 23.3296ZM20.3656 23.1921C21.2072 23.2006 22.5685 23.2006 23.3906 23.1921C24.2128 23.1834 23.5242 23.1766 21.8605 23.1766C20.1968 23.1766 19.5241 23.1836 20.3656 23.1921ZM31.7466 23.1921C32.5861 23.2006 33.9597 23.2006 34.7991 23.1921C35.6385 23.1836 34.9517 23.1766 33.2729 23.1766C31.594 23.1766 30.9072 23.1836 31.7466 23.1921ZM18.5418 23.346C18.4259 23.6004 18.4548 26.689 18.5743 26.8176C18.6272 26.8745 18.652 26.8971 18.6293 26.8677C18.5559 26.7725 18.5794 23.3465 18.654 23.2719C18.694 23.2318 18.6975 23.2058 18.6628 23.2058C18.6315 23.2058 18.577 23.2688 18.5418 23.346ZM29.9788 23.2812C29.9343 23.3348 29.9208 23.8537 29.9317 25.0827L29.9471 26.8088L29.96 25.0733C29.9693 23.8119 29.9909 23.3198 30.0389 23.2719C30.0752 23.2355 30.0906 23.2058 30.0732 23.2058C30.0557 23.2058 30.0132 23.2398 29.9788 23.2812ZM36.4048 23.2985C36.4839 23.4622 36.4839 26.69 36.4048 26.8536C36.3487 26.9697 36.3497 26.9703 36.4323 26.8671C36.5606 26.7069 36.5606 23.4453 36.4323 23.2851C36.3497 23.1819 36.3487 23.1825 36.4048 23.2985ZM25.0238 25.0513C25.0234 26.021 25.0044 26.8384 24.9817 26.8677C24.959 26.8971 24.9838 26.8745 25.0367 26.8176C25.1471 26.6988 25.1849 23.5366 25.078 23.3709C25.0429 23.3167 25.0243 23.8927 25.0238 25.0513ZM51.1202 23.8659C51.1389 23.8962 51.2023 23.9209 51.261 23.9209C51.3197 23.9209 51.3677 23.9457 51.3677 23.9759C51.3677 24.0062 51.4028 24.0309 51.4458 24.0309C51.5533 24.0309 52.0947 24.5343 52.1939 24.7265C52.2385 24.8129 52.2876 24.8959 52.3028 24.9111C52.4777 25.0835 52.5619 29.1102 52.4007 29.5828C52.2658 29.9779 51.7352 30.6318 51.5495 30.6318C51.51 30.6318 51.4777 30.6566 51.4777 30.6868C51.4777 30.7171 51.4332 30.7418 51.3787 30.7418C51.3243 30.7418 51.2562 30.7626 51.2275 30.788C50.9633 31.0213 44.8778 31.024 44.8778 30.7908C44.8778 30.7638 44.8283 30.7418 44.7678 30.7418C44.7073 30.7418 44.6578 30.7171 44.6578 30.6868C44.6578 30.6566 44.6223 30.6318 44.579 30.6318C44.4349 30.6318 43.9409 30.0905 43.7891 29.7665L43.6403 29.4491V27.3589V25.2686L43.7836 24.9636C43.9303 24.6512 44.3633 24.141 44.4816 24.141C44.5181 24.141 44.5478 24.1223 44.5478 24.0994C44.5478 24.0765 44.6282 24.0254 44.7265 23.9858C44.8248 23.9462 44.9424 23.8922 44.9878 23.8657C45.1064 23.7963 51.0773 23.7966 51.1202 23.8659ZM4.26384 25.5834C4.12634 25.7796 4.1361 29.0464 4.27443 29.151C4.35638 29.2129 4.36036 29.2123 4.30193 29.1467C4.21338 29.0473 4.20238 25.7864 4.2901 25.6226C4.36036 25.4911 9.42732 25.4523 9.55712 25.5821C9.65145 25.6765 9.65145 29.0413 9.55712 29.1356C9.50804 29.1847 8.83374 29.2051 6.9309 29.2148L4.37068 29.228L6.91701 29.2429C8.61086 29.2528 9.49924 29.2385 9.57074 29.2002C9.73738 29.111 9.73835 25.6072 9.5717 25.5181C9.50281 25.4812 8.56548 25.4611 6.90739 25.4611H4.34936L4.26384 25.5834ZM45.414 25.5205C45.3123 25.5798 45.2592 29.1038 45.359 29.1657C45.3817 29.1798 45.3931 28.3849 45.3843 27.3996C45.3717 25.9827 45.3832 25.5984 45.4393 25.5629C45.5599 25.4863 50.6194 25.5049 50.6967 25.5821C50.791 25.6765 50.791 29.0413 50.6967 29.1356C50.6476 29.1847 49.9673 29.2051 48.043 29.2148L45.4553 29.228L48.0353 29.2429C50.378 29.2563 50.6247 29.2493 50.7165 29.1661C50.872 29.0255 50.8726 25.6929 50.7172 25.5522C50.5972 25.4435 45.5974 25.4137 45.414 25.5205ZM21.9328 26.9876C22.4868 26.9965 23.3778 26.9965 23.9128 26.9874C24.4478 26.9785 23.9945 26.9711 22.9055 26.9712C21.8165 26.9712 21.3788 26.9785 21.9328 26.9876ZM33.3177 26.9876C33.8717 26.9965 34.7627 26.9965 35.2977 26.9874C35.8327 26.9785 35.3794 26.9711 34.2904 26.9712C33.2014 26.9712 32.7637 26.9785 33.3177 26.9876ZM26.4818 27.473C26.4257 27.6197 26.2655 27.8461 26.1026 28.0086C25.9064 28.2043 25.8749 28.2519 25.9993 28.1645C26.2772 27.9692 26.6926 27.3328 26.6016 27.2417C26.5891 27.2292 26.5352 27.3333 26.4818 27.473ZM28.3801 27.2369C28.3761 27.3146 28.5438 27.6789 28.571 27.6518C28.5856 27.6371 28.5491 27.5282 28.4899 27.4095C28.4307 27.2909 28.3814 27.2132 28.3801 27.2369ZM17.158 27.7062C17.158 27.7886 17.7929 28.3571 17.9228 28.3911C18.0947 28.4361 18.0624 28.3932 17.8472 28.2911C17.7421 28.2413 17.5441 28.0773 17.4072 27.9267C17.2701 27.7761 17.158 27.677 17.158 27.7062ZM28.705 27.8655C28.7695 27.9626 28.9018 28.0946 28.9989 28.1588L29.1754 28.2756L29.0306 28.1473C28.9512 28.0767 28.8189 27.9447 28.7369 27.8539L28.5879 27.6889L28.705 27.8655ZM25.5455 28.3795C25.4245 28.4367 25.3576 28.4843 25.397 28.4851C25.477 28.4867 25.793 28.3331 25.793 28.2926C25.793 28.2604 25.8092 28.2547 25.5455 28.3795ZM29.2029 28.2966C29.2029 28.337 29.5397 28.4934 29.5892 28.4761C29.616 28.4667 29.5399 28.4175 29.4204 28.3669C29.3008 28.3161 29.2029 28.2845 29.2029 28.2966ZM18.258 28.5094C18.4677 28.5952 25.0925 28.6381 25.224 28.5545C25.2589 28.5322 23.7368 28.514 21.8415 28.514C19.9462 28.514 18.3213 28.4952 18.2305 28.4722C18.0892 28.4365 18.0932 28.4418 18.258 28.5094ZM31.5267 28.5828C32.4568 28.5912 33.9789 28.5912 34.9091 28.5828C35.8393 28.5743 35.0782 28.5674 33.2179 28.5674C31.3575 28.5674 30.5965 28.5743 31.5267 28.5828ZM18.313 30.2468C18.208 30.3147 18.321 30.3147 18.533 30.2468L18.6705 30.2027L18.533 30.1981C18.4574 30.1955 18.3584 30.2175 18.313 30.2468ZM25.078 30.2468C25.2661 30.307 25.4106 30.307 25.2705 30.2468C25.21 30.2208 25.111 30.2003 25.0505 30.2011C24.9621 30.2023 24.9674 30.2114 25.078 30.2468ZM29.7254 30.2468C29.5853 30.307 29.7298 30.307 29.9179 30.2468C30.0285 30.2114 30.0338 30.2023 29.9454 30.2011C29.8849 30.2003 29.7859 30.2208 29.7254 30.2468ZM36.4629 30.2468C36.5385 30.271 36.6498 30.2916 36.7104 30.2924L36.8203 30.2941L36.7104 30.2468C36.6498 30.2208 36.5385 30.2003 36.4629 30.2011L36.3254 30.2027L36.4629 30.2468ZM25.463 30.3266C25.463 30.3404 25.5545 30.3951 25.6665 30.4482C25.8738 30.5465 26.2416 30.8786 26.4184 31.1269C26.5141 31.2612 26.5143 31.2607 26.4226 31.0994C26.2217 30.7459 25.463 30.1351 25.463 30.3266ZM29.3404 30.38C29.1427 30.4687 28.7287 30.8202 28.6511 30.9653C28.6206 31.0222 28.7137 30.9513 28.8581 30.8075C29.0023 30.6637 29.2132 30.5024 29.3267 30.4489C29.6169 30.3119 29.6292 30.2506 29.3404 30.38ZM17.2895 30.9004C16.907 31.3752 16.9122 31.3403 16.8938 33.5552C16.8844 34.6638 16.8968 35.6479 16.9213 35.7421C16.9457 35.8368 16.9655 34.938 16.9655 33.7264V31.5394L17.0955 31.2919C17.167 31.1557 17.2764 30.9888 17.3386 30.9209C17.4009 30.8528 17.4414 30.788 17.4286 30.7767C17.416 30.7655 17.3533 30.8212 17.2895 30.9004ZM37.7828 31.0787C37.7828 31.1266 37.9529 31.4569 37.9777 31.4569C37.9896 31.4569 37.9837 31.4136 37.9645 31.3606C37.9249 31.2515 37.7828 31.031 37.7828 31.0787ZM38.0303 33.7122C38.0303 34.934 38.046 35.8609 38.0651 35.7718C38.0842 35.6828 38.0998 34.756 38.0998 33.7122C38.0998 32.6684 38.0842 31.7416 38.0651 31.6526C38.046 31.5635 38.0303 32.4904 38.0303 33.7122ZM26.6455 33.718C26.6455 34.8796 26.6622 35.7186 26.6826 35.5824C26.7317 35.2558 26.7325 32.0954 26.6835 31.8202C26.6626 31.7024 26.6455 32.5564 26.6455 33.718ZM28.3035 31.9657C28.2542 32.377 28.2674 35.2314 28.3202 35.5274C28.3463 35.6746 28.3669 34.9442 28.3711 33.726C28.3779 31.675 28.3684 31.426 28.3035 31.9657ZM18.665 31.829C18.4967 31.9414 18.478 32.1318 18.478 33.7299C18.478 35.1924 18.4874 35.3614 18.5743 35.4657C18.6696 35.5801 18.7031 35.5815 21.7505 35.605L24.8305 35.6288L21.778 35.5774C20.0991 35.549 18.6946 35.5146 18.6568 35.5009C18.5508 35.4624 18.5578 31.9906 18.6641 31.9023C18.7196 31.8561 19.5793 31.8433 21.8763 31.8543C23.6012 31.8627 24.9839 31.8513 24.949 31.829C24.9141 31.8068 23.4995 31.7886 21.8055 31.7886C20.1115 31.7886 18.6983 31.8068 18.665 31.829ZM30.0235 31.8832C29.9616 31.9652 29.9622 31.9692 30.0278 31.9107C30.1766 31.7782 36.3343 31.8145 36.4059 31.9484C36.4714 32.0708 36.4853 35.3537 36.4208 35.4504C36.3985 35.4837 36.3432 35.5251 36.2979 35.5423C36.2312 35.5677 36.2335 35.5746 36.3097 35.578C36.4971 35.5867 36.5179 35.3989 36.5179 33.7005C36.5179 32.2789 36.5052 32.0133 36.4322 31.9092L36.3467 31.7869H33.2215C30.3097 31.7869 30.0914 31.7936 30.0235 31.8832ZM25.0276 33.7122C25.0294 34.7606 25.0502 35.4544 25.078 35.3899C25.1444 35.2353 25.1444 32.1097 25.078 32.007C25.043 31.9528 25.0257 32.539 25.0276 33.7122ZM29.9302 33.688C29.9208 34.9851 29.9344 35.4184 29.9867 35.488C30.049 35.5709 30.3444 35.5818 33.1354 35.604L36.2154 35.6286L33.1373 35.5754C31.4444 35.5461 30.0461 35.509 30.0298 35.4928C30.0136 35.4767 29.9874 34.6795 29.9714 33.7214L29.9424 31.9795L29.9302 33.688ZM50.9789 32.4547C51.6472 32.6682 52.3577 33.3124 52.3577 33.705C52.3577 33.766 52.3824 33.831 52.4127 33.8497C52.4973 33.902 52.4861 37.9684 52.4007 38.2189C52.2313 38.7151 51.8444 39.138 51.3346 39.3838L50.9989 39.5457L48.0071 39.5306L45.0153 39.5154L44.7421 39.381C44.3703 39.1981 43.9876 38.8053 43.7979 38.4119L43.6403 38.0853V35.995V33.9047L43.7974 33.5792C44.0485 33.0586 44.5069 32.6724 45.1253 32.4604C45.3666 32.3776 50.7212 32.3725 50.9789 32.4547ZM4.26384 34.2195C4.13569 34.4024 4.13569 37.5876 4.26384 37.7705L4.34936 37.8927H6.90739C8.56548 37.8927 9.50281 37.8727 9.5717 37.8358C9.67358 37.7813 9.67812 37.7024 9.67812 35.995C9.67812 34.2876 9.67358 34.2086 9.5717 34.1542C9.50281 34.1173 8.56548 34.0972 6.90739 34.0972H4.34936L4.26384 34.2195ZM45.414 34.1567C45.2574 34.248 45.267 37.7516 45.4242 37.8358C45.6398 37.9512 50.6198 37.9102 50.7267 37.7922C50.8727 37.6308 50.8639 34.3211 50.7172 34.1883C50.5972 34.0796 45.5974 34.0498 45.414 34.1567ZM9.55712 34.2183C9.60566 34.2668 9.62312 34.7458 9.62312 36.031V37.7778L9.44437 37.8104C9.0162 37.8883 4.34111 37.8135 4.28694 37.7277C4.1889 37.5723 4.21901 34.3393 4.31966 34.2388C4.4331 34.1252 9.44451 34.1056 9.55712 34.2183ZM50.6967 34.2183C50.8254 34.347 50.7873 37.7107 50.6563 37.7808C50.5416 37.8423 45.6166 37.8645 45.4598 37.8043C45.3435 37.7598 45.3256 34.2355 45.4415 34.1887C45.6024 34.1238 50.6306 34.1521 50.6967 34.2183ZM26.493 36.0625C26.3736 36.3257 26.4098 36.362 26.533 36.1025C26.5848 35.9931 26.6177 35.8939 26.6059 35.8821C26.594 35.8703 26.5433 35.9515 26.493 36.0625ZM17.0769 36.1738C17.1238 36.2872 17.2784 36.4914 17.4203 36.6276C17.6653 36.8626 17.6686 36.8641 17.4869 36.6562C17.3816 36.5359 17.2779 36.4236 17.2565 36.4067C17.2349 36.3899 17.1789 36.2842 17.1319 36.1718C17.085 36.0595 17.0342 35.9675 17.019 35.9675C17.0039 35.9675 17.03 36.0603 17.0769 36.1738ZM37.8623 36.1586C37.8124 36.2638 37.6701 36.4681 37.5461 36.6124C37.4149 36.7651 37.3852 36.8175 37.475 36.7376C37.6392 36.5915 37.906 36.224 37.9643 36.0638C38.0254 35.8958 37.9566 35.9599 37.8623 36.1586ZM25.9079 36.8142C25.8728 36.8563 25.7701 36.9216 25.6794 36.9591C25.5886 36.9967 25.5259 37.039 25.5401 37.0531C25.5754 37.0884 26.013 36.8381 26.013 36.7824C26.013 36.7172 25.9801 36.7271 25.9079 36.8142ZM36.7929 37.0704C36.6567 37.1261 36.5856 37.173 36.6349 37.1746C36.7343 37.1779 37.1228 37.0265 37.1228 36.9844C37.1228 36.944 37.064 36.9594 36.7929 37.0704ZM18.1755 37.1226C18.1942 37.1529 18.2638 37.1759 18.3301 37.1738C18.4463 37.1701 18.4465 37.1682 18.3405 37.1226C18.1891 37.0576 18.1354 37.0576 18.1755 37.1226ZM20.2008 37.2189C21.1027 37.2274 22.563 37.2273 23.4457 37.2189C24.3283 37.2104 23.5902 37.2034 21.8055 37.2035C20.0208 37.2035 19.2986 37.2104 20.2008 37.2189ZM31.5856 37.2189C32.4876 37.2274 33.9479 37.2273 34.8306 37.2189C35.7132 37.2104 34.9751 37.2034 33.1904 37.2035C31.4057 37.2035 30.6835 37.2104 31.5856 37.2189ZM22.8113 39.6981C22.7595 39.7187 24.8833 39.7355 27.5308 39.7355C30.1783 39.7355 32.2873 39.7194 32.2174 39.6997C32.0476 39.6519 22.9316 39.6504 22.8113 39.6981ZM22.0645 40.0518C21.9413 40.1501 21.786 40.3048 21.7193 40.3956C21.6136 40.5394 21.6218 40.5358 21.7842 40.3679C21.8866 40.2619 22.0571 40.1075 22.163 40.0247C22.2689 39.9419 22.3404 39.874 22.3219 39.8735C22.3035 39.8733 22.1877 39.9534 22.0645 40.0518ZM33.3125 40.4953C33.3781 40.5804 33.4603 40.7367 33.4952 40.8428C33.5303 40.9488 33.5708 41.0236 33.5854 41.0089C33.6304 40.9641 33.4072 40.5107 33.2971 40.4231C33.2124 40.3557 33.2153 40.369 33.3125 40.4953ZM51.2027 41.1632C51.7765 41.4126 52.2166 41.8698 52.4005 42.4072C52.562 42.8791 52.4779 46.9063 52.3028 47.0789C52.2876 47.0941 52.2386 47.177 52.1942 47.2631C52.0354 47.5708 51.528 47.9809 51.1439 48.1121C50.8232 48.2214 45.2527 48.2049 44.9603 48.0938C44.8393 48.0477 44.697 47.9958 44.644 47.9782C44.5911 47.9605 44.5478 47.9244 44.5478 47.8976C44.5478 47.8709 44.5127 47.849 44.4699 47.849C44.3498 47.849 43.944 47.361 43.784 47.0239L43.6403 46.7214V44.6311V42.5408L43.8181 42.1774C44.0947 41.612 44.6123 41.2027 45.2078 41.0782C45.6981 40.9757 50.9427 41.0501 51.2027 41.1632ZM33.6227 41.4076C33.6421 41.601 33.6579 44.3796 33.6579 47.5821C33.6579 50.7845 33.6764 53.4047 33.6991 53.4047C33.7583 53.4047 33.6958 41.157 33.6364 41.1014C33.608 41.0748 33.6022 41.2027 33.6227 41.4076ZM21.3397 41.1382C21.2948 41.1867 21.2539 53.4047 21.2985 53.4047C21.3221 53.4047 21.3533 53.3738 21.3677 53.336C21.4013 53.2477 21.3735 41.1016 21.3397 41.1382ZM23.0672 41.331C22.9676 41.4082 22.9709 41.4102 23.1153 41.3585C23.3315 41.2813 31.7571 41.2828 31.9015 41.3601C32.0057 41.4159 32.0079 41.5409 32.0079 47.3834V53.3497H27.4982H22.9885L22.9741 47.409L22.9598 41.4682L22.9601 47.4227L22.9605 53.3772H27.5254H32.0904V47.4285C32.0904 41.6558 32.0872 41.4763 31.9856 41.364L31.8808 41.2482H27.5274C23.7342 41.2482 23.1603 41.2589 23.0672 41.331ZM4.2692 42.8339C4.12318 42.9953 4.13198 46.305 4.27869 46.4378C4.41522 46.5613 9.42017 46.5751 9.58187 46.4523C9.7037 46.3597 9.73216 42.9194 9.61212 42.7994C9.48755 42.6748 4.38333 42.7078 4.2692 42.8339ZM45.3838 42.7994C45.2637 42.9194 45.2922 46.3597 45.414 46.4523C45.5863 46.5832 50.6071 46.5605 50.7267 46.4283C50.8727 46.2669 50.8639 42.9572 50.7172 42.8244C50.5873 42.7068 45.5002 42.6829 45.3838 42.7994ZM9.58971 42.8754C9.65736 43.0514 9.62697 46.338 9.55712 46.4078C9.42732 46.5377 4.36036 46.4989 4.2901 46.3674C4.20471 46.2078 4.2131 42.9405 4.29918 42.8544C4.41275 42.7408 9.54599 42.7613 9.58971 42.8754ZM50.6967 42.8544C50.791 42.9487 50.791 46.3135 50.6967 46.4078C50.6017 46.5029 45.5338 46.5029 45.4388 46.4078C45.3689 46.338 45.3385 43.0514 45.4062 42.8754C45.4499 42.7613 50.5831 42.7408 50.6967 42.8544Z" fill="#3B5363"/>
</svg>
