<svg width="29" height="16" viewBox="0 0 29 16" fill="none" xmlns="http://www.w3.org/2000/svg">
<path fill-rule="evenodd" clip-rule="evenodd" d="M9.58725 0.0543749C9.53962 0.0833774 9.50587 0.11458 9.51224 0.123781C9.51874 0.132982 9.50262 0.126681 9.47649 0.10988C9.39548 0.0575752 9.33673 0.0760766 9.36923 0.143682C9.39161 0.190287 9.37873 0.201487 9.32248 0.184286C9.27222 0.168885 9.2501 0.180386 9.25947 0.217189C9.26747 0.248392 9.25147 0.275094 9.22397 0.276594C9.19647 0.277995 9.17396 0.262693 9.17396 0.242491C9.17396 0.222389 9.15709 0.192387 9.13646 0.175885C9.11583 0.159384 9.09896 0.184886 9.09896 0.23249C9.09896 0.280195 9.07721 0.319198 9.05058 0.319198C9.02383 0.319198 9.01432 0.350701 9.02933 0.389204C9.0552 0.45591 9.05383 0.45591 9.0002 0.389204C8.92994 0.301697 8.79893 0.297596 8.79893 0.382903C8.79893 0.418006 8.7533 0.45621 8.69755 0.467911C8.62729 0.482612 8.60479 0.511114 8.62454 0.560819C8.64017 0.600222 8.62979 0.643926 8.60154 0.657927C8.57091 0.673029 8.56216 0.658228 8.57979 0.621325C8.59616 0.587122 8.59429 0.559219 8.57566 0.559219C8.51165 0.559219 8.39714 0.674929 8.41052 0.726133C8.4179 0.754336 8.37139 0.783738 8.30726 0.791539C8.20238 0.80424 8.19913 0.81054 8.27439 0.854544C8.35189 0.899948 8.35127 0.90765 8.26588 0.961355C8.1815 1.01446 8.17963 1.01346 8.24251 0.949253C8.38627 0.80254 8.14062 0.876446 7.94298 1.03926C7.75459 1.19467 7.70896 1.24988 7.78634 1.22928C7.80697 1.22378 7.82947 1.23278 7.83635 1.24928C7.8641 1.31599 7.84522 1.32669 7.77809 1.28208C7.70534 1.23388 7.3488 1.4671 7.3488 1.56301C7.3488 1.58561 7.3263 1.59291 7.2988 1.57931C7.27105 1.56561 7.24842 1.59571 7.24804 1.64691C7.24742 1.72332 7.23804 1.72892 7.19379 1.67932C7.15316 1.63371 7.14716 1.65102 7.16879 1.75132C7.18479 1.82533 7.17754 1.87353 7.15229 1.86103C7.12753 1.84883 7.09403 1.86143 7.07778 1.88914C7.06153 1.91674 7.06103 1.88674 7.07665 1.82233C7.10191 1.71832 7.09616 1.71132 7.02465 1.75872C6.9804 1.78813 6.95539 1.83533 6.96889 1.86373C6.9844 1.89604 6.96664 1.90694 6.92127 1.89304C6.87576 1.87903 6.84876 1.89564 6.84876 1.93744C6.84876 1.97754 6.82388 1.99405 6.78625 1.97874C6.75188 1.96484 6.76875 1.98274 6.82376 2.01865C6.92114 2.08215 6.92014 2.08335 6.78625 2.06425C6.66612 2.04715 6.65487 2.05375 6.69712 2.11696C6.73362 2.17146 6.72137 2.20686 6.64712 2.26057C6.55811 2.32497 6.54873 2.32547 6.54873 2.26557C6.54873 2.17636 6.51798 2.18186 6.35959 2.29937C6.21883 2.40378 6.23683 2.42868 6.40197 2.35798C6.46873 2.32937 6.49873 2.32937 6.49873 2.35798C6.49873 2.38078 6.47485 2.39938 6.44572 2.39938C6.4166 2.39938 6.40822 2.41928 6.42697 2.44368C6.45073 2.47439 6.40947 2.48039 6.29246 2.46349C6.14595 2.44218 6.13945 2.44438 6.24346 2.48009C6.30934 2.50259 6.35434 2.52519 6.34346 2.53029C6.33259 2.53529 6.26058 2.584 6.18345 2.6385C6.08082 2.71091 6.05206 2.71901 6.07632 2.6685C6.1422 2.53089 5.99956 2.6055 5.60303 2.91603C5.38063 3.09014 5.19861 3.26456 5.19861 3.30356C5.19861 3.36607 5.21074 3.36417 5.30062 3.28696C5.44889 3.15965 5.48802 3.17955 5.34488 3.30946C5.27812 3.36997 5.21849 3.42657 5.21224 3.43527C5.20586 3.44397 5.17761 3.40797 5.14948 3.35526C5.10486 3.27206 5.10211 3.27726 5.12873 3.39447C5.14848 3.48178 5.14123 3.52058 5.10823 3.50428C5.0801 3.49038 5.04385 3.50158 5.0276 3.52928C5.01135 3.55688 5.01035 3.52838 5.02535 3.46607L5.05273 3.35256L4.92559 3.45417C4.85571 3.51008 4.79858 3.57568 4.79858 3.59999C4.79858 3.62429 4.77608 3.63309 4.74857 3.61949C4.72107 3.60589 4.69857 3.61079 4.69857 3.63049C4.69857 3.69959 4.7652 3.7183 4.84396 3.67119C4.88771 3.64499 4.82333 3.70809 4.7007 3.8115C4.49218 3.98732 4.36379 4.06943 4.4948 3.94312C4.62831 3.81441 4.44005 3.84361 4.27266 3.97752C4.17502 4.05563 4.11389 4.11953 4.1369 4.11953C4.15977 4.11953 4.20553 4.09793 4.23853 4.07153C4.28516 4.03422 4.31191 4.03422 4.35854 4.07153C4.40517 4.10883 4.39904 4.11953 4.33054 4.11953C4.28216 4.11953 4.25191 4.13303 4.26316 4.14953C4.27441 4.16604 4.20815 4.23084 4.11602 4.29345C4.02389 4.35615 3.94851 4.38766 3.94851 4.36345C3.94851 4.33935 3.97101 4.31955 3.99851 4.31955C4.02601 4.31955 4.04851 4.30155 4.04851 4.27955C4.04851 4.19054 3.93575 4.25454 3.55147 4.56197C3.16719 4.8694 3.08718 4.95961 3.19844 4.95961C3.22594 4.95961 3.24844 4.9416 3.24844 4.9196C3.24844 4.8976 3.2732 4.8796 3.30332 4.8796C3.33358 4.8796 3.2942 4.9399 3.21582 5.01361C3.13756 5.08732 3.05655 5.14032 3.03592 5.13132C3.0153 5.12232 2.99842 5.14652 2.99842 5.18523C2.99842 5.24003 2.98505 5.24493 2.93842 5.20763C2.89179 5.17032 2.89179 5.14892 2.93842 5.11162C2.97142 5.08522 2.99842 5.04861 2.99842 5.03031C2.99842 5.01191 2.91854 5.06081 2.82091 5.13892C2.64514 5.27953 2.62139 5.41515 2.7904 5.31364C2.83603 5.28613 2.77315 5.34824 2.65052 5.45165C2.44412 5.62566 2.31324 5.70997 2.44187 5.58596C2.49763 5.53216 2.47062 5.47965 2.38712 5.47965C2.36249 5.47965 2.35636 5.49765 2.37337 5.51965C2.39037 5.54166 2.37937 5.55966 2.34899 5.55966C2.31861 5.55966 2.2366 5.60536 2.16672 5.66127L2.03971 5.76298L2.1816 5.74107C2.25948 5.72907 2.29511 5.72987 2.26061 5.74287C2.22598 5.75588 2.21198 5.78488 2.22935 5.80738C2.24973 5.83378 2.20123 5.83958 2.09209 5.82378C1.94558 5.80248 1.93908 5.80468 2.04309 5.84038C2.10897 5.86288 2.15397 5.88549 2.1431 5.89059C2.13222 5.89559 2.06146 5.94329 1.98583 5.9967C1.82344 6.11121 1.79857 6.0799 1.95771 5.96129C2.05421 5.88939 2.05659 5.87969 1.97846 5.87969C1.9297 5.87969 1.71168 6.0253 1.49404 6.20321C1.10588 6.52044 1.01262 6.63455 1.18464 6.58185C1.24777 6.56245 1.23764 6.58545 1.14713 6.66755C1.079 6.72926 1.01812 6.78686 1.01187 6.79557C1.0055 6.80427 0.977244 6.76826 0.949117 6.71556C0.904488 6.63235 0.901738 6.63755 0.928365 6.75476C0.948117 6.84207 0.940866 6.88087 0.907863 6.86457C0.879735 6.85067 0.843483 6.86187 0.827231 6.88957C0.81098 6.91718 0.810479 6.88717 0.826106 6.82277C0.850983 6.72046 0.844858 6.71226 0.776852 6.75736C0.729473 6.78887 0.709971 6.84337 0.726972 6.89728C0.744724 6.95418 0.723348 7.00608 0.666843 7.04279C0.618588 7.07409 0.594461 7.07919 0.613338 7.05399C0.632214 7.02879 0.615213 6.99818 0.575459 6.98598C0.524705 6.97048 0.512578 6.98318 0.534455 7.02879C0.558832 7.07949 0.544957 7.08739 0.47095 7.06459C0.418821 7.04859 0.391693 7.04789 0.41057 7.06299C0.429321 7.07809 0.389318 7.1253 0.321437 7.168C0.253681 7.2107 0.198176 7.27131 0.198176 7.30271C0.198176 7.33411 0.175674 7.35982 0.148172 7.35982C0.120669 7.35982 0.0981672 7.41382 0.0981672 7.47983C0.0981672 7.54583 0.075665 7.59984 0.0481626 7.59984C-0.027719 7.59984 -0.0117173 7.71065 0.0805408 7.82326C0.136296 7.89126 0.142671 7.91996 0.100292 7.91186C0.0107843 7.89466 -0.0254688 8.309 0.0585386 8.38991C0.0934166 8.42351 0.115044 8.49351 0.106543 8.54552C0.0979173 8.59742 0.115169 8.63993 0.144547 8.63993C0.174049 8.63993 0.198176 8.66693 0.198176 8.69993C0.198176 8.73294 0.226304 8.75544 0.260682 8.74994C0.29506 8.74444 0.317311 8.76304 0.310061 8.79134C0.288184 8.87745 0.542706 9.05807 0.579084 8.98216C0.623213 8.89015 0.678594 8.90555 0.802354 9.04456L0.913238 9.16917L0.80573 9.14187C0.639715 9.09967 0.678219 9.17827 0.885737 9.30489C1.06163 9.4122 1.14263 9.4266 1.10838 9.34439C1.10026 9.32489 1.17001 9.36089 1.26352 9.4244C1.3569 9.488 1.42191 9.55651 1.40778 9.57661C1.39378 9.59671 1.33078 9.56531 1.26802 9.5069C1.19989 9.4435 1.14063 9.4175 1.12138 9.4424C1.08475 9.4898 1.75894 10.0401 1.85357 10.0401C1.88732 10.0401 1.90108 10.0512 1.88407 10.0649C1.83795 10.1018 1.98958 10.2092 2.04734 10.1806C2.07684 10.166 2.08422 10.1831 2.06521 10.2226C2.03959 10.2761 2.05421 10.284 2.13897 10.2625C2.21698 10.2427 2.29473 10.2704 2.43412 10.3676C2.76553 10.5988 3.04768 10.8486 3.01917 10.8856C2.97792 10.9389 2.89129 10.8823 2.92992 10.8273C2.95354 10.7937 2.94417 10.7941 2.89716 10.829C2.84328 10.8689 2.85341 10.8917 2.95229 10.954C3.0763 11.032 3.18506 11.0481 3.15856 10.9845C3.15044 10.965 3.22019 11.001 3.3137 11.0645C3.40708 11.1281 3.47284 11.1957 3.45971 11.2145C3.44659 11.2334 3.38608 11.1989 3.3252 11.1378C3.24707 11.0593 3.20356 11.0412 3.17681 11.0758C3.12268 11.1458 4.10714 11.9188 4.23065 11.9033C4.28178 11.8969 4.29541 11.8994 4.26103 11.9089C4.1484 11.9398 4.19565 12.0023 4.31366 11.9786C4.44267 11.9527 5.13123 12.4456 5.07248 12.5218C5.02922 12.5778 4.93972 12.5252 4.9801 12.4675C5.0051 12.4319 4.99797 12.4315 4.95109 12.4662C4.88396 12.5157 5.23224 12.8131 5.31137 12.774C5.36913 12.7454 5.304 12.6803 5.21774 12.6803C5.17374 12.6803 5.15749 12.6612 5.17836 12.6341C5.20199 12.6036 5.19186 12.5989 5.14861 12.6203C5.10448 12.6421 5.09523 12.6371 5.12011 12.6049C5.16049 12.5525 5.54877 12.7953 5.51252 12.8503C5.50164 12.8668 5.52914 12.8803 5.57365 12.8803C5.61815 12.8803 5.64065 12.8983 5.62365 12.9203C5.5734 12.9853 5.51989 12.9667 5.44814 12.8595C5.40326 12.7925 5.36388 12.7721 5.33088 12.7985C5.26912 12.8479 6.1702 13.5792 6.24633 13.5416C6.27746 13.5262 6.28496 13.5424 6.26558 13.5829C6.23996 13.6364 6.25458 13.6443 6.33934 13.6228C6.44935 13.5949 6.79963 13.8042 6.798 13.8968C6.7975 13.925 6.78425 13.9263 6.7605 13.9004C6.74025 13.8784 6.68212 13.8547 6.63112 13.8477C6.55073 13.8367 6.55398 13.8477 6.65612 13.9316C6.73362 13.9952 6.78625 14.0132 6.81051 13.9843C6.83313 13.9572 6.84751 13.9672 6.84801 14.0101C6.84901 14.1035 7.05365 14.2875 7.13041 14.2639C7.16404 14.2536 7.22129 14.2756 7.25767 14.3128C7.3183 14.3748 7.31555 14.3755 7.22379 14.3211C7.12478 14.2624 7.12478 14.2627 7.21892 14.3509C7.2978 14.4249 7.32755 14.4316 7.39393 14.3903C7.46481 14.346 7.46606 14.3483 7.40468 14.4109C7.30443 14.5131 7.97698 15.0525 8.16987 15.0245C8.30876 15.0044 8.37677 15.0959 8.31639 15.2218C8.29051 15.2756 8.30064 15.2885 8.35527 15.2718C8.39577 15.2593 8.48403 15.2736 8.55141 15.3034C8.61879 15.3332 8.65429 15.3583 8.63029 15.3591C8.60629 15.3599 8.61754 15.391 8.65529 15.4282C8.70192 15.4742 8.70392 15.4862 8.66142 15.4658C8.62704 15.4493 8.59891 15.4548 8.59891 15.4781C8.59891 15.5014 8.63642 15.5205 8.6823 15.5205C8.72805 15.5205 8.75168 15.5316 8.73468 15.5453C8.69567 15.5764 8.82218 15.6805 8.89894 15.6805C8.93032 15.6805 8.98982 15.7075 9.03108 15.7406C9.12221 15.8135 9.24835 15.8192 9.25047 15.7506C9.25135 15.7228 9.27485 15.732 9.3031 15.7708C9.3406 15.8223 9.39461 15.8353 9.50537 15.8197C9.60775 15.8053 9.64563 15.8126 9.62275 15.8422C9.60413 15.8663 9.563 15.8783 9.5315 15.8689C9.49987 15.8594 9.42899 15.8659 9.37398 15.8833C9.29197 15.9093 9.30272 15.9155 9.43349 15.9178C9.52124 15.9193 9.607 15.9386 9.624 15.9606C9.65813 16.0048 9.89628 16.0143 10.0197 15.9764C10.063 15.9631 10.087 15.9373 10.0729 15.9192C10.0589 15.901 10.0703 15.8748 10.0982 15.861C10.1262 15.8472 10.149 15.8639 10.149 15.8982C10.149 15.9652 10.2259 15.9829 10.2699 15.926C10.2847 15.9069 10.3526 15.8999 10.4209 15.9103C10.5518 15.9303 10.721 15.8354 10.6592 15.7767C10.6398 15.7583 10.6678 15.7696 10.7212 15.8019C10.782 15.8386 10.8042 15.8419 10.7807 15.8106C10.7595 15.7822 10.768 15.7606 10.8005 15.7606C10.883 15.7606 11.403 15.3178 11.3703 15.2755C11.3552 15.2559 11.378 15.2291 11.421 15.2159C11.464 15.2027 11.4992 15.1748 11.4992 15.1539C11.4992 15.1329 11.471 15.1293 11.4367 15.1458C11.3953 15.1657 11.3977 15.1526 11.4438 15.1072C11.482 15.0695 11.4992 15.0272 11.4817 15.0132C11.4643 14.9993 11.4743 14.9645 11.5039 14.9359C11.5688 14.8734 11.5163 14.7895 11.4332 14.8229C11.4008 14.8359 11.4248 14.8108 11.4867 14.7671C11.6037 14.6845 11.6429 14.4667 11.5492 14.4204C11.5217 14.4068 11.4975 14.3382 11.4957 14.268C11.4928 14.1634 11.485 14.1548 11.4525 14.2204C11.4308 14.2644 11.4227 14.3211 11.4345 14.3464C11.4463 14.3716 11.4313 14.4045 11.4012 14.4194C11.3642 14.4377 11.355 14.4074 11.3729 14.3259C11.3875 14.2596 11.376 14.1937 11.3473 14.1795C11.3185 14.1653 11.308 14.1211 11.3238 14.0812C11.3397 14.0414 11.318 13.9812 11.2759 13.9475C11.2336 13.9137 11.1991 13.8675 11.1991 13.8447C11.1991 13.7989 10.636 13.3283 10.3268 13.1159C10.2183 13.0413 10.1489 13.0073 10.1728 13.0403C10.2013 13.0797 10.1801 13.075 10.111 13.0265C10.0507 12.9842 10.017 12.9246 10.0322 12.8865C10.0499 12.8419 10.0443 12.8359 10.0149 12.8682C9.96766 12.9202 9.91253 12.8996 9.80439 12.7894C9.74239 12.7262 9.74514 12.7213 9.8294 12.7447C9.88153 12.7591 9.81152 12.6896 9.67401 12.5901C9.53337 12.4884 9.38611 12.415 9.33748 12.4223C9.28997 12.4295 9.25322 12.423 9.25597 12.4078C9.2706 12.3251 9.23234 12.268 9.07533 12.1386C8.9797 12.0599 8.85581 11.9489 8.79981 11.892C8.69892 11.7895 8.69692 11.7892 8.58591 11.8643L8.4739 11.9402L8.56703 11.852C8.66442 11.76 8.174 11.2783 8.04686 11.3412C8.02111 11.3539 8.01336 11.3364 8.02974 11.3023C8.04612 11.2681 8.03349 11.2402 8.00161 11.2402C7.96973 11.2402 7.77872 11.1034 7.57707 10.9363C7.35743 10.7542 7.19704 10.65 7.17679 10.6763C7.13353 10.7322 7.04878 10.7332 7.04878 10.6777C7.04878 10.6544 7.07128 10.6465 7.09878 10.6601C7.17416 10.6974 7.15879 10.5766 7.08166 10.5253C7.04478 10.5008 6.99615 10.4941 6.97364 10.5104C6.95114 10.5268 6.94764 10.5192 6.96589 10.4937C6.98552 10.4663 6.67762 10.1923 6.21308 9.82363L5.42726 9.19998H16.0388C23.0799 9.19998 26.6505 9.21348 26.6505 9.23998C26.6505 9.31849 26.8851 9.27818 27.0007 9.17987C27.1179 9.08007 27.2425 9.06406 27.3123 9.13997C27.3336 9.16307 27.3493 9.15307 27.3498 9.11617C27.3502 9.08107 27.3956 9.01976 27.4506 8.97996C27.5056 8.94016 27.5506 8.92645 27.5506 8.94945C27.5506 8.97256 27.5154 9.00216 27.4724 9.01536C27.4294 9.02856 27.4083 9.05767 27.4256 9.07997C27.4617 9.12677 27.6006 9.03196 27.6006 8.96046C27.6006 8.93555 27.6175 8.92345 27.6381 8.93335C27.687 8.95706 27.8038 8.85595 27.7642 8.82424C27.7476 8.81084 27.7618 8.79994 27.7958 8.79994C27.8892 8.79994 28.011 8.68983 27.9506 8.65993C27.9227 8.64613 27.8864 8.66303 27.8699 8.69743C27.8534 8.73184 27.8163 8.75994 27.7875 8.75994C27.7587 8.75994 27.7758 8.72394 27.8256 8.67993C27.8754 8.63593 27.952 8.59963 27.9959 8.59933C28.042 8.59893 28.0545 8.58632 28.0256 8.56932C27.9541 8.52732 27.965 8.41181 28.046 8.3514C28.0981 8.3127 28.1065 8.3123 28.08 8.3499C28.0591 8.37951 28.0732 8.39991 28.1146 8.39991C28.1629 8.39991 28.1871 8.3437 28.193 8.21729C28.1985 8.10288 28.1828 8.04398 28.1511 8.05958C28.1232 8.07348 28.1006 8.04678 28.1006 7.99987C28.1006 7.95107 28.1229 7.92616 28.1529 7.94097C28.1865 7.95767 28.201 7.91066 28.1935 7.80905C28.1851 7.69434 28.1605 7.65244 28.1037 7.65554C28.0607 7.65794 28.0312 7.63734 28.0381 7.60984C28.045 7.58234 28.0314 7.55983 28.008 7.55983C27.9845 7.55983 27.969 7.50013 27.9735 7.42722C27.9781 7.35432 27.9522 7.27261 27.9162 7.24571C27.8739 7.214 27.8506 7.2119 27.8506 7.2398C27.8506 7.26661 27.8243 7.26341 27.7811 7.2314C27.737 7.1986 27.7302 7.1705 27.7626 7.1543C27.8363 7.11719 27.7607 7.03979 27.6506 7.03979C27.5988 7.03979 27.5404 7.01899 27.5208 6.99358C27.4987 6.96498 27.5071 6.95828 27.5428 6.97598C27.6271 7.01759 27.6135 6.97808 27.5227 6.91788C27.4592 6.87567 27.4477 6.87567 27.4602 6.91798C27.4687 6.94648 27.4492 6.97758 27.4169 6.98708C27.3794 6.99818 27.3681 6.97488 27.3853 6.92208C27.4003 6.87637 27.3873 6.83757 27.3564 6.83477C27.2522 6.82547 27.2257 6.81857 27.1553 6.78297C27.1085 6.75926 27.0963 6.76196 27.1187 6.79087C27.137 6.81467 27.1293 6.84557 27.1014 6.85937C27.0575 6.88107 27.0312 6.83547 27.0418 6.75646C27.0468 6.71936 26.6785 6.72816 26.6475 6.76586C26.6321 6.78466 21.8566 6.79537 16.0353 6.78987L5.45114 6.77977L5.6279 6.62985C5.72516 6.54744 5.79267 6.46434 5.77792 6.44514C5.76316 6.42603 5.79942 6.37653 5.85842 6.33503C5.91755 6.29362 5.94943 6.28222 5.9293 6.30972C5.87417 6.38523 5.9333 6.36993 6.07332 6.27252C6.22845 6.16461 6.23195 6.12111 6.08619 6.11511C6.00056 6.11151 5.99468 6.10601 6.06182 6.092C6.11032 6.0819 6.1367 6.0566 6.12057 6.0357C6.10444 6.0148 6.12107 6.0027 6.15745 6.0087C6.19395 6.0148 6.21758 5.9959 6.20995 5.96669C6.20245 5.93759 6.2177 5.92439 6.24396 5.93739C6.27033 5.95039 6.30596 5.94269 6.32321 5.92039C6.37084 5.85868 6.44872 5.87169 6.44872 5.94129C6.44872 5.9916 6.46123 5.9935 6.51711 5.95179C6.57461 5.90879 6.57273 5.89269 6.5046 5.84958C6.43572 5.80608 6.4461 5.80238 6.57374 5.82508C6.72125 5.85118 6.72225 5.85028 6.63412 5.77058C6.55173 5.69627 6.55123 5.68747 6.62712 5.66417C6.687 5.64577 6.70187 5.65547 6.68087 5.69917C6.66274 5.73687 6.68062 5.75968 6.72825 5.75968C6.77025 5.75968 6.79025 5.74097 6.7725 5.71807C6.7375 5.67277 6.9939 5.49235 7.0664 5.51125C7.09103 5.51765 7.09728 5.49425 7.08053 5.45925C7.0624 5.42145 7.07053 5.40574 7.10066 5.42055C7.15366 5.44675 7.81097 4.916 7.76809 4.8816C7.75446 4.8708 7.72246 4.8884 7.69683 4.9208C7.66221 4.96461 7.65033 4.9491 7.65033 4.8596C7.65033 4.76749 7.66171 4.75359 7.69883 4.79959C7.73746 4.8474 7.74821 4.8393 7.75196 4.75959C7.75459 4.70458 7.76809 4.68218 7.78209 4.70978C7.79597 4.73749 7.8336 4.74749 7.8656 4.73219C7.90473 4.71338 7.90348 4.72438 7.86172 4.76559C7.82759 4.79929 7.81434 4.8386 7.83222 4.8529C7.88098 4.8919 8.00274 4.79689 7.96561 4.74889C7.94786 4.72598 7.95536 4.71808 7.98223 4.73138C8.03761 4.75869 8.20638 4.61898 8.16137 4.58297C8.14537 4.57007 8.16762 4.55957 8.21088 4.55957C8.26726 4.55957 8.28176 4.53417 8.26176 4.46956C8.24663 4.42006 8.25251 4.39306 8.27489 4.40966C8.29739 4.42616 8.35702 4.40986 8.4074 4.37345C8.45765 4.33695 8.4989 4.31915 8.4989 4.33385C8.4989 4.34845 8.7368 4.17014 9.02758 3.93752C9.41436 3.62809 9.54262 3.50148 9.50549 3.46567C9.47474 3.43607 9.47224 3.39407 9.49924 3.35906C9.535 3.31286 9.55262 3.32046 9.588 3.39687C9.62413 3.47487 9.63788 3.48047 9.66338 3.42717C9.68063 3.39137 9.67313 3.35136 9.64688 3.33836C9.6205 3.32536 9.59938 3.29326 9.59975 3.26706C9.60025 3.23715 9.61413 3.23435 9.63725 3.25946C9.65751 3.28146 9.71901 3.30476 9.77402 3.31116C9.8564 3.32076 9.86078 3.31556 9.79902 3.28176C9.75777 3.25916 9.74651 3.24015 9.77402 3.23945C9.80302 3.23875 9.80077 3.22585 9.76877 3.20885C9.73126 3.18885 9.74427 3.15395 9.80927 3.09994C9.88915 3.03354 9.89953 3.03194 9.87165 3.08994C9.83465 3.16715 10.0167 3.19375 10.074 3.11944C10.091 3.09744 10.0849 3.07944 10.0603 3.07944C10.0358 3.07944 10.0157 3.05244 10.0157 3.01943C10.0157 2.96803 10.0897 2.94203 10.2046 2.95283C10.2524 2.95733 11.1991 2.20036 11.1991 2.15756C11.1991 2.13656 11.1753 2.11936 11.1461 2.11936C11.117 2.11936 11.1074 2.10105 11.1246 2.07865C11.1419 2.05635 11.1771 2.04845 11.203 2.06125C11.2874 2.10295 11.4032 1.96814 11.378 1.85733C11.3607 1.78083 11.3877 1.72692 11.4767 1.66102C11.6274 1.54921 11.6478 1.30589 11.5117 1.24248C11.4283 1.20368 11.4283 1.20167 11.5117 1.20047C11.5598 1.19977 11.5992 1.18127 11.5992 1.15927C11.5992 1.13727 11.5684 1.11927 11.5308 1.11927C11.4824 1.11927 11.4657 1.07236 11.4737 0.959255C11.4857 0.79034 11.4608 0.767737 11.353 0.849244C11.2987 0.890348 11.2964 0.884347 11.3409 0.815141C11.3895 0.739234 11.3828 0.732834 11.272 0.749735C11.1956 0.761436 11.1491 0.750036 11.1491 0.719633C11.1491 0.692731 11.1783 0.67963 11.2139 0.690531C11.2511 0.702032 11.2816 0.67963 11.2855 0.638026C11.2893 0.598222 11.2589 0.555418 11.2181 0.542917C11.1685 0.527716 11.1563 0.536517 11.1811 0.56972C11.2045 0.600823 11.1861 0.598323 11.1315 0.562819C11.0836 0.531817 11.055 0.484713 11.0676 0.45831C11.0816 0.429208 11.0478 0.412006 10.9824 0.414706C10.8976 0.418207 10.8775 0.399705 10.8897 0.329199C10.9066 0.232591 10.8526 0.212389 10.7649 0.282595C10.726 0.313697 10.688 0.299996 10.6298 0.233691C10.5757 0.171885 10.5481 0.160784 10.546 0.200288C10.5442 0.23269 10.5218 0.217389 10.4962 0.166384C10.4623 0.0988783 10.4236 0.0802769 10.3536 0.0979784C10.3007 0.11148 10.2431 0.103679 10.2253 0.0807772C10.1732 0.0133713 10.0492 0.0331727 10.0483 0.109179C10.0477 0.167284 10.0397 0.169285 10.0015 0.121081C9.97628 0.0891779 9.96678 0.0486742 9.98028 0.0310727C10.0215 -0.022232 9.68013 -0.00203006 9.58725 0.0543749ZM8.00936 1.18287C7.97761 1.22828 7.95161 1.23518 7.92785 1.20438C7.9086 1.17957 7.91673 1.15927 7.94586 1.15927C7.97498 1.15927 8.00061 1.12777 8.00286 1.08926C8.00499 1.05006 8.01761 1.04056 8.03136 1.06776C8.04487 1.09447 8.03499 1.14627 8.00936 1.18287ZM10.6741 2.43938C10.6571 2.46139 10.6683 2.47939 10.6991 2.47939C10.7299 2.47939 10.7399 2.49899 10.7213 2.52289C10.699 2.55189 10.6711 2.55299 10.6378 2.52639C10.5918 2.48959 10.6218 2.39938 10.68 2.39938C10.6937 2.39938 10.6911 2.41738 10.6741 2.43938ZM5.73616 3.02274C5.68853 3.06094 5.59302 2.99913 5.62853 2.95323C5.64953 2.92583 5.67753 2.92653 5.71341 2.95523C5.74291 2.97883 5.75316 3.00923 5.73616 3.02274ZM4.63482 3.7485C4.65782 3.7965 4.64482 3.8069 4.58481 3.7885C4.52693 3.7707 4.5118 3.7807 4.53231 3.82331C4.55706 3.87481 4.57368 3.87371 4.65469 3.815C4.76733 3.7335 4.76733 3.7338 4.67607 3.7058C4.62506 3.69019 4.61281 3.7028 4.63482 3.7485ZM8.65642 4.11953C8.57754 4.18554 8.49478 4.23954 8.47228 4.23954C8.44978 4.23954 8.48065 4.19774 8.54066 4.14653C8.60066 4.09543 8.63467 4.04143 8.61604 4.02652C8.59741 4.01172 8.63117 3.99952 8.69105 3.99952C8.79506 3.99952 8.79356 4.00482 8.65642 4.11953ZM7.53444 5.06831C7.49257 5.10172 7.43269 5.11632 7.40118 5.10072C7.36231 5.08162 7.38068 5.04691 7.45769 4.99341C7.58895 4.9024 7.65783 4.96961 7.53444 5.06831ZM2.58464 5.38864C2.60764 5.43665 2.59464 5.44705 2.53463 5.42865C2.47675 5.41084 2.46162 5.42085 2.48213 5.46345C2.50688 5.51495 2.52351 5.51385 2.60451 5.45515C2.71715 5.37364 2.71715 5.37394 2.62589 5.34594C2.57488 5.33034 2.56263 5.34294 2.58464 5.38864ZM6.24696 6.0214C6.19845 6.0681 6.19695 6.0943 6.24083 6.12941C6.28471 6.16451 6.29884 6.15191 6.29946 6.0777C6.30009 5.9997 6.31021 5.992 6.34872 6.0397C6.39009 6.091 6.39734 6.0895 6.39797 6.0297C6.39884 5.94319 6.33184 5.93949 6.24696 6.0214ZM1.6358 6.30302C1.58817 6.34123 1.49266 6.27942 1.52817 6.23352C1.54917 6.20611 1.57717 6.20681 1.61305 6.23552C1.64255 6.25912 1.6528 6.28952 1.6358 6.30302ZM5.56077 6.60705C5.5474 6.64775 5.51439 6.69196 5.48726 6.70536C5.45676 6.72046 5.45151 6.69546 5.47364 6.63975C5.50027 6.57275 5.49314 6.55774 5.44626 6.58095C5.40901 6.59935 5.39576 6.59585 5.41376 6.57255C5.46889 6.50104 5.5864 6.52864 5.56077 6.60705ZM5.34863 6.81977C5.31437 6.85277 5.25449 6.87977 5.21549 6.87977C5.15724 6.87977 5.15611 6.86937 5.20912 6.82127C5.30012 6.73886 5.43414 6.73736 5.34863 6.81977ZM4.24603 7.67364C4.20615 7.68425 4.14677 7.72145 4.11414 7.75635C4.06414 7.80986 4.05651 7.81036 4.06564 7.75985C4.08477 7.65304 4.14977 7.60274 4.23516 7.62894C4.30316 7.64984 4.30516 7.65804 4.24603 7.67364ZM4.22315 8.2871C4.36692 8.38711 4.37817 8.42231 4.27603 8.45361C4.22765 8.46851 4.2129 8.45661 4.23153 8.41781C4.24716 8.38511 4.20778 8.3254 4.1414 8.2811C4.07652 8.23789 4.04026 8.20199 4.06064 8.20119C4.08102 8.20049 4.15415 8.23909 4.22315 8.2871ZM4.49855 8.50232C4.49855 8.53662 4.52155 8.55322 4.54981 8.53932C4.57793 8.52542 4.59481 8.53782 4.58731 8.56692C4.57969 8.59612 4.60169 8.61543 4.63607 8.60993C4.7077 8.59842 4.72095 8.66413 4.65382 8.69733C4.62919 8.70953 4.59631 8.69283 4.58069 8.66033C4.56506 8.62783 4.51943 8.61133 4.4793 8.62373C4.38567 8.65243 4.26866 8.49632 4.36142 8.46631C4.47043 8.43101 4.49855 8.43841 4.49855 8.50232ZM5.13461 9.06447C5.10111 9.09127 4.94859 8.96416 4.94859 8.90955C4.94859 8.88495 4.99585 8.90545 5.0536 8.95506C5.11136 9.00466 5.14786 9.05396 5.13461 9.06447ZM0.615463 9.02166C0.575709 9.10447 0.635339 9.14627 0.709096 9.08727C0.7546 9.05086 0.753725 9.03996 0.705221 9.03996C0.670593 9.03996 0.656216 9.02196 0.673217 8.99996C0.690219 8.97796 0.690844 8.95996 0.674593 8.95996C0.658341 8.95996 0.631714 8.98776 0.615463 9.02166ZM27.0605 9.16797C26.99 9.22438 26.9822 9.27998 27.0447 9.27998C27.069 9.27998 27.1007 9.24398 27.115 9.19998C27.1455 9.10657 27.1408 9.10377 27.0605 9.16797ZM1.03575 9.30329C0.98812 9.34149 0.892612 9.27968 0.928115 9.23378C0.949117 9.20638 0.977119 9.20708 1.013 9.23578C1.0425 9.25938 1.05275 9.28979 1.03575 9.30329ZM1.52329 9.64002C1.50629 9.66202 1.45866 9.68002 1.41741 9.68002C1.37615 9.68002 1.35628 9.66202 1.37328 9.64002C1.39028 9.61801 1.43791 9.60001 1.47916 9.60001C1.52042 9.60001 1.54029 9.61801 1.52329 9.64002ZM1.79107 9.91434C1.73006 9.93174 1.54829 9.78253 1.54829 9.71502C1.54829 9.68842 1.61418 9.71922 1.69481 9.78333C1.77544 9.84753 1.81869 9.90644 1.79107 9.91434ZM2.07397 10.1129C2.03346 10.1453 1.84795 9.99285 1.87895 9.95274C1.89458 9.93254 1.95045 9.95584 2.00308 10.0044C2.05584 10.0531 2.08772 10.1019 2.07397 10.1129ZM2.14835 10.2968C2.14835 10.3389 2.29899 10.4529 2.32599 10.4313C2.33861 10.4212 2.30386 10.3803 2.24861 10.3403C2.19348 10.3004 2.14835 10.2808 2.14835 10.2968ZM6.88126 10.5074C6.83526 10.5443 6.68987 10.404 6.72575 10.3575C6.74675 10.3303 6.787 10.346 6.83413 10.3997C6.87526 10.4468 6.89651 10.4953 6.88126 10.5074ZM2.488 10.5242C2.46487 10.5721 2.59489 10.7191 2.63464 10.6901C2.64227 10.6846 2.64764 10.6897 2.64664 10.7015C2.64114 10.7669 2.80866 10.8479 2.86166 10.8055C2.90404 10.7716 2.89691 10.7601 2.83341 10.7601C2.7534 10.7601 2.72352 10.7118 2.74665 10.6201C2.75215 10.5981 2.74077 10.5928 2.7214 10.6084C2.7019 10.624 2.64752 10.5987 2.60051 10.5522C2.53388 10.4864 2.509 10.4802 2.488 10.5242ZM3.57347 11.2802C3.55647 11.3022 3.50884 11.3202 3.46759 11.3202C3.42633 11.3202 3.40646 11.3022 3.42346 11.2802C3.44046 11.2582 3.48809 11.2402 3.52934 11.2402C3.5706 11.2402 3.59047 11.2582 3.57347 11.2802ZM8.04887 11.4615C8.04887 11.4444 8.07912 11.4505 8.116 11.475C8.15287 11.4995 8.195 11.5099 8.20963 11.4983C8.22426 11.4866 8.24813 11.5137 8.26288 11.5586C8.27751 11.6034 8.26851 11.6505 8.24301 11.6631C8.21738 11.6758 8.20263 11.6623 8.21013 11.6332C8.21775 11.604 8.199 11.5838 8.1685 11.5883C8.138 11.5928 8.04799 11.5391 7.96848 11.4689C7.8851 11.3955 7.8716 11.3735 7.93635 11.417C7.99823 11.4586 8.04887 11.4786 8.04887 11.4615ZM3.8485 11.5307C3.8485 11.5396 3.81474 11.5469 3.77349 11.5469C3.73224 11.5469 3.69848 11.5126 3.69848 11.4707C3.69848 11.403 3.70686 11.4012 3.77349 11.4545C3.81474 11.4875 3.8485 11.5218 3.8485 11.5307ZM4.22915 11.829C4.19115 11.8594 3.89963 11.6311 3.92863 11.5936C3.94363 11.5741 4.02251 11.6151 4.10377 11.6847C4.18503 11.7542 4.24141 11.8192 4.22915 11.829ZM8.4664 11.7389C8.4819 11.7712 8.46953 11.81 8.43902 11.8251C8.4054 11.8417 8.39752 11.8343 8.41915 11.8064C8.44052 11.7787 8.42227 11.7602 8.37389 11.7602C8.32939 11.7602 8.30689 11.7422 8.32389 11.7202C8.36852 11.6625 8.43377 11.671 8.4664 11.7389ZM4.29854 12.0169C4.29854 12.059 4.44917 12.173 4.47618 12.1514C4.4888 12.1413 4.45405 12.1004 4.39879 12.0604C4.34366 12.0205 4.29854 12.0009 4.29854 12.0169ZM4.53181 12.1902C4.47368 12.2669 4.70157 12.3341 4.78195 12.2638C4.80571 12.243 4.79908 12.2386 4.76633 12.2536C4.73482 12.268 4.6962 12.2528 4.68032 12.22C4.64994 12.1564 4.56943 12.1403 4.53181 12.1902ZM9.61525 12.6516C9.59838 12.6734 9.54362 12.6484 9.49299 12.5957C9.36023 12.4577 9.37823 12.4108 9.52249 12.5191C9.59038 12.5702 9.63213 12.6298 9.61525 12.6516ZM5.89868 13.1585C5.89868 13.1742 5.86492 13.187 5.82367 13.187C5.78242 13.187 5.74866 13.1518 5.74866 13.1087C5.74866 13.0437 5.76129 13.0389 5.82367 13.0803C5.86492 13.1077 5.89868 13.1429 5.89868 13.1585ZM6.27746 13.4708C6.26408 13.4814 6.1857 13.436 6.10319 13.37C6.02069 13.304 5.96643 13.2395 5.98256 13.2266C5.99868 13.2137 6.07707 13.2589 6.1567 13.3272C6.23646 13.3954 6.29071 13.46 6.27746 13.4708ZM10.6295 13.4293C10.5766 13.4717 10.5326 13.4551 10.5203 13.3881C10.5096 13.3293 10.5206 13.3248 10.5793 13.3638C10.619 13.3901 10.6416 13.4196 10.6295 13.4293ZM6.34872 13.6571C6.34872 13.6992 6.49935 13.8132 6.52636 13.7916C6.53898 13.7815 6.50423 13.7406 6.44897 13.7006C6.39384 13.6607 6.34872 13.6411 6.34872 13.6571ZM7.67058 14.5646C7.65533 14.5843 7.67933 14.6005 7.72384 14.6005C7.76834 14.6005 7.78997 14.6197 7.77184 14.6431C7.75034 14.671 7.70608 14.6619 7.64383 14.6169C7.53032 14.5346 7.51919 14.4738 7.62358 14.5058C7.66458 14.5185 7.68583 14.5449 7.67058 14.5646ZM7.95861 14.7971C8.00374 14.8393 8.02936 14.8828 8.01561 14.8938C7.99048 14.9138 7.79884 14.7783 7.79884 14.7405C7.79884 14.6958 7.8816 14.7251 7.95861 14.7971ZM8.13112 15.068C8.10299 15.0905 8.21863 15.2005 8.27026 15.2005C8.28601 15.2005 8.29889 15.1754 8.29889 15.1448C8.29889 15.086 8.17788 15.0306 8.13112 15.068ZM8.39889 15.2972C8.39889 15.3393 8.54953 15.4533 8.57654 15.4317C8.58916 15.4216 8.55441 15.3807 8.49915 15.3407C8.44402 15.3008 8.39889 15.2812 8.39889 15.2972Z" fill="black"/>
</svg>
