<svg width="150" height="29" viewBox="0 0 150 29" fill="none" xmlns="http://www.w3.org/2000/svg">
<line y1="0.5" x2="150" y2="0.5" stroke="#808080"/>
<line y1="27.5" x2="150" y2="27.5" stroke="#808080"/>
<path d="M51.175 19L49.885 15.685H45.64L44.365 19H43L47.185 8.245H48.4L52.57 19H51.175ZM48.28 11.245C48.25 11.165 48.2 11.02 48.13 10.81C48.06 10.6 47.99 10.385 47.92 10.165C47.86 9.935 47.81 9.76 47.77 9.64C47.72 9.84 47.665 10.045 47.605 10.255C47.555 10.455 47.5 10.64 47.44 10.81C47.39 10.98 47.345 11.125 47.305 11.245L46.09 14.485H49.48L48.28 11.245ZM57.2451 8.29C58.1351 8.29 58.8801 8.375 59.4801 8.545C60.0901 8.715 60.5451 8.995 60.8451 9.385C61.1551 9.775 61.3101 10.295 61.3101 10.945C61.3101 11.365 61.2301 11.74 61.0701 12.07C60.9201 12.39 60.6901 12.66 60.3801 12.88C60.0801 13.09 59.7101 13.235 59.2701 13.315V13.39C59.7201 13.46 60.1251 13.59 60.4851 13.78C60.8551 13.97 61.1451 14.24 61.3551 14.59C61.5651 14.94 61.6701 15.395 61.6701 15.955C61.6701 16.605 61.5201 17.16 61.2201 17.62C60.9201 18.07 60.4901 18.415 59.9301 18.655C59.3801 18.885 58.7201 19 57.9501 19H54.1851V8.29H57.2451ZM57.5151 12.85C58.4351 12.85 59.0651 12.705 59.4051 12.415C59.7451 12.115 59.9151 11.675 59.9151 11.095C59.9151 10.505 59.7051 10.085 59.2851 9.835C58.8751 9.575 58.2151 9.445 57.3051 9.445H55.5351V12.85H57.5151ZM55.5351 13.975V17.86H57.6951C58.6451 17.86 59.3051 17.675 59.6751 17.305C60.0451 16.935 60.2301 16.45 60.2301 15.85C60.2301 15.47 60.1451 15.14 59.9751 14.86C59.8151 14.58 59.5401 14.365 59.1501 14.215C58.7701 14.055 58.2501 13.975 57.5901 13.975H55.5351ZM73.4359 13.63C73.4359 14.46 73.3309 15.215 73.1209 15.895C72.9109 16.565 72.5959 17.145 72.1759 17.635C71.7659 18.125 71.2509 18.5 70.6309 18.76C70.0209 19.02 69.3109 19.15 68.5009 19.15C67.6609 19.15 66.9309 19.02 66.3109 18.76C65.6909 18.49 65.1759 18.115 64.7659 17.635C64.3559 17.145 64.0509 16.56 63.8509 15.88C63.6509 15.2 63.5509 14.445 63.5509 13.615C63.5509 12.515 63.7309 11.555 64.0909 10.735C64.4509 9.915 64.9959 9.275 65.7259 8.815C66.4659 8.355 67.3959 8.125 68.5159 8.125C69.5859 8.125 70.4859 8.355 71.2159 8.815C71.9459 9.265 72.4959 9.905 72.8659 10.735C73.2459 11.555 73.4359 12.52 73.4359 13.63ZM64.9759 13.63C64.9759 14.53 65.1009 15.305 65.3509 15.955C65.6009 16.605 65.9859 17.105 66.5059 17.455C67.0359 17.805 67.7009 17.98 68.5009 17.98C69.3109 17.98 69.9709 17.805 70.4809 17.455C71.0009 17.105 71.3859 16.605 71.6359 15.955C71.8859 15.305 72.0109 14.53 72.0109 13.63C72.0109 12.28 71.7309 11.225 71.1709 10.465C70.6109 9.695 69.7259 9.31 68.5159 9.31C67.7059 9.31 67.0359 9.485 66.5059 9.835C65.9859 10.175 65.6009 10.67 65.3509 11.32C65.1009 11.96 64.9759 12.73 64.9759 13.63ZM84.1047 15.22C84.1047 15.96 83.9547 16.63 83.6547 17.23C83.3547 17.82 82.8947 18.29 82.2747 18.64C81.6647 18.98 80.8847 19.15 79.9347 19.15C78.6047 19.15 77.5897 18.79 76.8897 18.07C76.1997 17.34 75.8547 16.38 75.8547 15.19V8.29H77.2047V15.235C77.2047 16.105 77.4347 16.78 77.8947 17.26C78.3647 17.74 79.0697 17.98 80.0097 17.98C80.6597 17.98 81.1847 17.865 81.5847 17.635C81.9947 17.395 82.2947 17.07 82.4847 16.66C82.6747 16.24 82.7697 15.76 82.7697 15.22V8.29H84.1047V15.22ZM90.4714 19H89.1214V9.475H85.7764V8.29H93.8014V9.475H90.4714V19Z" fill="#808080"/>
</svg>
